<svg width="28" height="34" viewBox="0 0 28 34" fill="none" xmlns="http://www.w3.org/2000/svg">
<path fill-rule="evenodd" clip-rule="evenodd" d="M18.191 5.87862C18.9632 7.78867 19.2339 10.0368 18.6753 12.0443C18.1044 14.0964 16.6708 15.8558 14.1745 16.649C10.6772 17.7845 7.51562 16.5579 4.92221 14.8818C4.42139 15.2227 3.79673 15.332 3.29994 15.2917C2.40518 15.219 1.32097 14.6301 1.16767 13.3309C1.10685 12.8137 1.07216 12.2937 1.06378 11.7732C1.03546 11.7231 1.00967 11.6713 0.986629 11.618C0.892938 11.401 0.847852 11.1657 0.855939 10.9278C0.864029 10.69 0.924923 10.4594 1.03122 10.2507C1.05952 10.1952 1.09082 10.1416 1.12485 10.0902C1.46812 6.52404 3.15807 2.9496 7.16099 1.29928C11.8136 -0.619194 16.4631 1.60784 18.191 5.87862ZM2.09426 10.4928C2.34614 7.05612 3.87961 3.73378 7.5422 2.22378C11.6619 0.525049 15.7359 2.47675 17.2639 6.25343C18.6795 9.7549 18.1753 14.3315 13.8671 15.6974C10.8345 16.6826 8.03657 15.6791 5.58357 14.118C5.29624 13.9352 5.01364 13.7447 4.73595 13.5489C4.67466 13.7414 4.55744 13.898 4.40545 14.0175C3.71157 14.5627 2.29287 14.3332 2.16078 13.2138C2.09156 12.6251 2.05859 12.033 2.06201 11.4404C1.9938 11.3784 1.94024 11.3039 1.90469 11.2215C1.86913 11.1392 1.85234 11.0508 1.85536 10.9618C1.85839 10.8729 1.88117 10.7853 1.92227 10.7046C1.96338 10.6239 2.02192 10.5518 2.09426 10.4928ZM7.04875 5.13916C5.03784 6.86681 4.51875 9.32198 4.65315 11.7351C6.59465 13.2314 8.78927 14.5841 11.3709 14.491C15.4979 14.3399 16.6301 10.7923 15.5723 7.60864C14.3715 4.03891 10.2587 2.37086 7.04875 5.13916ZM14.6245 7.92747C14.1187 6.42367 13.0146 5.36066 11.7528 4.94749C10.5157 4.54242 9.04901 4.73463 7.70184 5.89644L7.70041 5.89768C6.13254 7.24469 5.59845 9.14945 5.63481 11.2245C7.43204 12.563 9.27117 13.5659 11.3344 13.4916C13.0754 13.4279 14.0412 12.6789 14.5256 11.7317C15.04 10.7257 15.0908 9.33338 14.6245 7.92747ZM22.4892 24.0312C21.1915 23.7241 19.8162 23.8127 18.5673 24.2867C17.2578 24.7838 16.1642 25.6753 15.464 26.8166C15.3802 26.9712 15.3375 27.1419 15.3396 27.3143C15.3418 27.4867 15.3886 27.6558 15.4763 27.8071C15.5639 27.9585 15.6898 28.0878 15.8432 28.184C15.9966 28.2803 16.1731 28.3406 16.3576 28.36C16.7612 30.2628 18.0474 31.9869 20.1718 32.516C22.7276 33.1561 25.6023 31.8927 26.0677 29.3448C26.2436 28.2336 26.002 27.1034 25.3834 26.1443C24.7939 25.2304 23.8965 24.525 22.8305 24.1346C22.7799 24.116 22.7289 24.0982 22.6776 24.0811L22.6714 24.079L22.6774 24.0787L22.672 24.0772C22.6115 24.0611 22.55 24.0456 22.4892 24.0312ZM22.9109 23.357L22.9362 23.1127C21.3811 22.6961 19.718 22.7804 18.2124 23.3518C16.7064 23.9235 15.4332 24.9547 14.6117 26.2937L14.5978 26.3163L14.5851 26.3397C14.4215 26.6412 14.3354 26.98 14.3397 27.3267C14.344 27.6734 14.4385 28.0104 14.6109 28.3082C14.783 28.6055 15.0256 28.8516 15.3118 29.0312C15.3821 29.0752 15.4545 29.115 15.5288 29.1505C16.1225 31.1198 17.5862 32.9026 19.9302 33.4864C22.8397 34.2145 26.4477 32.83 27.0514 29.5244L27.0535 29.5128L27.0553 29.5012C27.2704 28.1432 26.9736 26.7648 26.2238 25.6023C25.4753 24.4418 24.3271 23.5748 22.9863 23.1299L22.9109 23.357ZM20.7173 30.8533C22.2508 31.1416 23.87 30.2889 23.8646 28.7131C23.8696 28.0641 23.6184 27.4378 23.1585 26.9522C22.6986 26.4666 22.0617 26.1553 21.3678 26.0769C20.7039 26.0424 20.0392 26.1533 19.4275 26.4005C18.8157 26.6478 18.274 27.0245 17.8461 27.5002C18.038 28.9369 18.8568 30.3386 20.4284 30.7833C20.4747 30.7964 20.5216 30.8087 20.5693 30.8201L20.5754 30.8216L20.5694 30.8219L20.575 30.8232C20.6222 30.8343 20.6699 30.8444 20.7173 30.8533ZM20.8068 29.8505C21.3584 29.9796 21.9133 29.8858 22.3014 29.6566C22.6673 29.4405 22.866 29.1265 22.8646 28.7165L22.8646 28.7055C22.8676 28.3235 22.7207 27.9441 22.4325 27.6398C22.1483 27.3397 21.7434 27.1324 21.2844 27.074C20.7756 27.0521 20.268 27.1394 19.8022 27.3277C19.4803 27.4578 19.1863 27.6328 18.9298 27.8438C19.1883 28.8412 19.8242 29.6149 20.8069 29.8487L20.8068 29.8505Z" fill="#059034"/>
<path fill-rule="evenodd" clip-rule="evenodd" d="M7.5422 2.22378C3.87961 3.73378 2.34614 7.05612 2.09426 10.4928C2.02192 10.5518 1.96338 10.6239 1.92227 10.7046C1.88117 10.7853 1.85839 10.8729 1.85536 10.9618C1.85234 11.0508 1.86913 11.1392 1.90469 11.2215C1.94024 11.3039 1.9938 11.3784 2.06201 11.4404C2.05859 12.033 2.09156 12.6251 2.16078 13.2138C2.29287 14.3332 3.71157 14.5627 4.40545 14.0175C4.55744 13.898 4.67466 13.7414 4.73595 13.5489C5.01364 13.7447 5.29624 13.9352 5.58357 14.118C8.03657 15.6791 10.8345 16.6826 13.8671 15.6974C18.1753 14.3315 18.6795 9.7549 17.2639 6.25343C15.7359 2.47675 11.6619 0.525049 7.5422 2.22378ZM7.04875 5.13916C5.03784 6.86681 4.51875 9.32198 4.65315 11.7351C6.59465 13.2314 8.78927 14.5841 11.3709 14.491C15.4979 14.3399 16.6301 10.7923 15.5723 7.60864C14.3715 4.03891 10.2587 2.37086 7.04875 5.13916Z" fill="#059034"/>
<path fill-rule="evenodd" clip-rule="evenodd" d="M22.4892 24.0312C21.1915 23.7241 19.8162 23.8127 18.5673 24.2867C17.2578 24.7838 16.1642 25.6753 15.464 26.8166C15.3802 26.9712 15.3375 27.1419 15.3396 27.3143C15.3418 27.4867 15.3886 27.6558 15.4763 27.8071C15.5639 27.9585 15.6898 28.0878 15.8432 28.184C15.9966 28.2803 16.1731 28.3406 16.3576 28.36C16.7612 30.2628 18.0474 31.9869 20.1718 32.516C22.7276 33.1561 25.6023 31.8927 26.0677 29.3448C26.2436 28.2336 26.002 27.1034 25.3834 26.1443C24.7939 25.2304 23.8965 24.525 22.8305 24.1346C22.7799 24.116 22.7289 24.0982 22.6776 24.0811L22.6714 24.079L22.6774 24.0787L22.672 24.0772C22.6115 24.0611 22.55 24.0456 22.4892 24.0312ZM20.7173 30.8533C22.2508 31.1416 23.87 30.2889 23.8646 28.7131C23.8696 28.0641 23.6184 27.4378 23.1585 26.9522C22.6986 26.4666 22.0617 26.1553 21.3678 26.0769C20.7039 26.0424 20.0392 26.1533 19.4275 26.4005C18.8157 26.6478 18.274 27.0245 17.8461 27.5002C18.038 28.9369 18.8568 30.3386 20.4284 30.7833C20.4747 30.7964 20.5216 30.8087 20.5693 30.8201L20.5754 30.8216L20.5694 30.8219L20.575 30.8232C20.6222 30.8343 20.6699 30.8444 20.7173 30.8533Z" fill="#059034"/>
</svg>
