<svg width="206" height="128" viewBox="0 0 206 128" fill="none" xmlns="http://www.w3.org/2000/svg">
<path fill-rule="evenodd" clip-rule="evenodd" d="M188.644 64.0208C188.551 63.8861 188.492 63.7333 188.472 63.5738C188.452 63.4144 188.471 63.2524 188.528 63.1002C188.585 62.948 188.678 62.8095 188.801 62.6951C188.923 62.5807 189.072 62.4934 189.236 62.4397C203.273 58.9107 204.064 38.2124 199.034 28.3596C192.029 14.451 173.295 17.8361 161.095 23.1543C160.407 23.4572 159.784 22.8389 159.692 22.2811C157.975 11.5231 146.673 3.86608 135.284 3.58281C122.642 3.27359 111.321 10.6538 104.24 19.9201C104.129 20.0342 103.991 20.1235 103.837 20.1812C103.683 20.2389 103.517 20.2635 103.353 20.2531C103.188 20.2428 103.028 20.1978 102.885 20.1215C102.742 20.0452 102.62 19.9397 102.528 19.8128C92.7075 6.92232 73.5753 -0.236708 57.0516 5.53051C41.5044 10.9506 31.3494 27.926 36.1802 42.8113C36.2296 42.9583 36.2424 43.1141 36.2177 43.2669C36.193 43.4197 36.1314 43.5656 36.0375 43.6938C35.9436 43.822 35.8198 43.929 35.6754 44.0069C35.5311 44.0848 35.3698 44.1315 35.2038 44.1436C19.4014 45.7442 4.17989 56.1395 3.60573 71.8888C3.39794 79.061 6.47353 85.9828 12.8705 90.1751C14.2553 91.0905 15.7484 91.8571 17.3214 92.4605C18.298 90.1472 19.8139 88.0594 21.7599 86.3474C22.9351 85.3137 24.7883 86.8599 23.6316 87.8982C22.1911 89.1664 21.0129 90.6643 20.1524 92.3164C19.9958 92.6172 19.8497 92.923 19.7145 93.2335C20.0408 93.324 20.3689 93.4066 20.6984 93.4813C24.9134 94.4372 29.3699 94.1098 33.4053 92.533C34.2129 92.2065 34.6319 93.4048 33.8299 93.7253C29.193 95.5568 24.028 95.8445 19.2164 94.5392C18.0144 98.1965 18.1448 102.109 19.5874 105.67C22.1229 112.054 28.6366 116.487 35.4798 118.442C43.6804 120.783 52.5763 119.798 60.7337 117.655C66.8499 116.042 74.3282 113.154 75.5624 106.64C75.6226 106.419 75.7499 106.218 75.9293 106.061C76.1087 105.904 76.3326 105.798 76.5742 105.755C76.8158 105.713 77.0649 105.735 77.2918 105.821C77.5186 105.906 77.7136 106.05 77.8536 106.236C84.4831 116.676 96.6335 124.843 110.182 124.42C123.076 124.023 135.383 114.939 137.033 102.817C137.189 101.682 139.058 101.662 139.388 102.685C141.59 109.515 153.323 108.76 159.298 108.214C167.116 107.497 174.877 105.105 181.213 100.683C193.177 92.3207 198.175 75.5257 188.644 64.0208ZM180.64 99.8628C192.283 91.7256 196.919 75.5775 187.874 64.6587L187.846 64.6255L187.822 64.59C187.639 64.3259 187.52 64.0213 187.48 63.6992C187.439 63.3771 187.478 63.0518 187.591 62.7495C187.704 62.4477 187.887 62.1801 188.119 61.9637C188.351 61.7475 188.627 61.587 188.925 61.4894L188.958 61.4785L188.992 61.4699C195.483 59.838 199.019 54.2283 200.303 47.5813C201.59 40.9263 200.545 33.5191 198.143 28.8143L198.14 28.8094C194.855 22.2858 188.831 19.7664 181.98 19.5464C175.098 19.3253 167.519 21.4451 161.496 24.0704C160.767 24.3905 160.063 24.2036 159.577 23.8458C159.123 23.5114 158.795 22.9909 158.705 22.4434L158.704 22.4386C157.085 12.2915 146.317 4.85753 135.259 4.5825C123.026 4.28346 111.982 11.4354 105.035 20.5273L104.998 20.5758L104.955 20.6195C104.738 20.8413 104.475 21.0099 104.188 21.1175C103.901 21.225 103.595 21.2703 103.29 21.2512C102.985 21.2321 102.686 21.1488 102.414 21.0036C102.146 20.8605 101.91 20.6597 101.727 20.4111C92.1378 7.83178 73.4495 0.866352 57.3811 6.47465C42.2425 11.7523 32.5031 28.2323 37.13 42.4985C37.2294 42.7974 37.2553 43.1151 37.2049 43.4265C37.1543 43.7396 37.0289 44.0327 36.8441 44.2849C36.6595 44.5368 36.4209 44.7409 36.1503 44.8869C35.8846 45.0303 35.5918 45.1157 35.2928 45.1397C19.7396 46.7195 5.15538 56.8951 4.6052 71.9215C4.40748 78.7851 7.34531 85.3585 13.4187 89.3387L13.422 89.3409C14.4881 90.0456 15.6223 90.6587 16.8105 91.1724C17.8412 89.0749 19.2981 87.1813 21.0994 85.5966C22.1368 84.6841 23.4536 84.9484 24.2095 85.5769C24.5937 85.8963 24.9235 86.3759 24.9867 86.966C25.0544 87.5977 24.7985 88.1946 24.2996 88.6424L24.2924 88.6489C23.0066 89.7808 21.9473 91.1048 21.1565 92.5583C25.1051 93.4048 29.2648 93.0763 33.037 91.6032C33.4794 91.4263 33.9586 91.4314 34.3788 91.6453C34.779 91.849 35.0385 92.1974 35.1642 92.5537C35.4196 93.2773 35.1761 94.2641 34.2011 94.6538L34.1973 94.6553C29.6634 96.4462 24.6478 96.822 19.9033 95.7409C19.0682 98.9124 19.2769 102.241 20.5142 105.295L20.5168 105.301C22.8972 111.294 29.0849 115.575 35.7543 117.481C43.7087 119.751 52.4022 118.81 60.4787 116.688C63.5077 115.889 66.7903 114.794 69.4499 113.137C72.1012 111.484 74.0333 109.339 74.5799 106.454L74.5872 106.415L74.5974 106.378C74.7113 105.958 74.9495 105.589 75.2711 105.308C75.5921 105.027 75.985 104.844 76.4008 104.77C76.8165 104.697 77.2472 104.736 77.6438 104.885C78.0408 105.034 78.3938 105.291 78.6528 105.635L78.6765 105.667L78.6977 105.7C85.1789 115.906 97.0259 123.83 110.151 123.421C122.681 123.035 134.473 114.206 136.042 102.682C136.211 101.453 137.303 100.971 138.11 100.943C138.897 100.914 139.987 101.286 140.34 102.378C141.253 105.21 144.191 106.641 148.077 107.227C151.9 107.804 156.219 107.491 159.207 107.218C166.892 106.513 174.476 104.165 180.64 99.8628ZM181.757 103.039C174.46 107.865 165.459 110.246 156.591 110.633C151.316 110.869 143.695 110.772 139.551 107.181C139.265 106.933 138.995 106.668 138.744 106.386C138.639 106.754 138.525 107.118 138.402 107.479C134.752 118.198 123.207 125.966 111.135 126.698C97.7835 127.507 85.4223 120.413 77.8647 110.597C77.6353 110.299 77.4104 109.999 77.19 109.696C77.0347 110.036 76.8635 110.366 76.6774 110.686C73.86 115.536 67.6447 118.206 62.0333 119.727C52.8092 122.234 42.6675 123.311 33.4754 120.288C25.9726 117.829 19.0925 112.594 16.7325 105.328C15.5052 101.575 15.5162 97.5585 16.764 93.7919C15.0912 93.1741 13.4993 92.3848 12.0179 91.4386C5.42561 87.229 1.90091 80.2028 1.8362 72.8262C1.72859 56.4679 16.4727 45.0521 32.7697 42.4464C33.1009 42.3934 33.4327 42.3441 33.7651 42.2984C33.678 41.9741 33.5967 41.6488 33.5213 41.3227C32.1019 35.1897 32.7404 28.776 35.3652 22.9454C40.7353 10.6613 53.3109 2.04031 67.6186 1.51366C81.1916 1.02644 94.4135 7.06599 102.763 16.7821C102.985 17.0396 103.202 17.2996 103.417 17.5622C103.631 17.3002 103.849 17.0398 104.07 16.7812C111.967 7.53988 124.158 0.561794 137.147 1.70578C148.225 2.68662 158.477 9.79943 161.296 19.8143C161.387 20.1376 161.471 20.4638 161.546 20.7929C161.856 20.6651 162.169 20.5391 162.485 20.415C175.899 15.1447 194.284 13.4261 201.238 27.9272C206.2 38.2569 205.245 58.0947 192.381 63.6227C192.067 63.7576 191.746 63.8839 191.418 64.0014C191.626 64.2805 191.826 64.5622 192.019 64.8462C200.552 77.4259 194.442 94.6254 181.757 103.039ZM192.964 64.4595C201.731 77.6137 195.245 95.2928 182.31 103.872L182.309 103.873C174.827 108.82 165.641 111.239 156.634 111.632C153.796 111.759 150.222 111.794 146.845 111.23C144.067 110.765 141.308 109.876 139.21 108.198C135.262 119.16 123.447 126.953 111.195 127.696C97.6044 128.52 85.0739 121.395 77.3307 111.539C75.9016 113.828 73.7884 115.616 71.4256 117.019C68.5908 118.702 65.3335 119.869 62.295 120.693C52.9849 123.222 42.6217 124.348 33.164 121.238C25.4797 118.72 18.2744 113.311 15.7817 105.638C14.5863 101.982 14.5058 98.0879 15.5375 94.3868C14.1184 93.8037 12.7599 93.0991 11.4797 92.2814C4.58382 87.878 0.903716 80.5272 0.836242 72.8349L0.836223 72.8328C0.7242 55.8043 16.0045 44.1478 32.5296 41.4722C31.0835 35.1487 31.7502 28.5424 34.4511 22.54C39.9807 9.89626 52.9035 1.05463 67.5818 0.514341C81.4036 0.018189 94.8637 6.13452 103.416 16.0075C111.462 6.65763 123.893 -0.465409 137.234 0.709641C148.585 1.71453 159.235 8.99144 162.23 19.4408C168.847 16.8557 176.692 15.1053 183.863 15.7133C191.46 16.3575 198.387 19.67 202.139 27.4942C204.783 32.9985 205.787 41.005 204.382 48.2723C203.056 55.1337 199.531 61.548 192.964 64.4595Z" fill="#059034"/>
<path fill-rule="evenodd" clip-rule="evenodd" d="M156.591 110.633C165.459 110.246 174.46 107.865 181.757 103.039C194.442 94.6254 200.552 77.4259 192.019 64.8462C191.826 64.5622 191.626 64.2805 191.418 64.0014C191.746 63.8839 192.067 63.7576 192.381 63.6227C205.245 58.0947 206.2 38.2569 201.238 27.9272C194.284 13.4261 175.899 15.1447 162.485 20.415C162.169 20.5391 161.856 20.6651 161.546 20.7929C161.471 20.4638 161.387 20.1376 161.296 19.8143C158.477 9.79943 148.225 2.68662 137.147 1.70578C124.158 0.561794 111.967 7.53988 104.07 16.7812C103.849 17.0398 103.631 17.3002 103.417 17.5622C103.202 17.2996 102.985 17.0396 102.763 16.7821C94.4135 7.06599 81.1916 1.02644 67.6186 1.51366C53.3109 2.04031 40.7353 10.6613 35.3652 22.9454C32.7404 28.776 32.1019 35.1897 33.5213 41.3227C33.5967 41.6488 33.678 41.9741 33.7651 42.2984C33.4327 42.3441 33.1009 42.3934 32.7697 42.4464C16.4727 45.0521 1.72859 56.4679 1.8362 72.8262C1.90091 80.2028 5.42561 87.229 12.0179 91.4386C13.4993 92.3848 15.0912 93.1741 16.764 93.7919C15.5162 97.5585 15.5052 101.575 16.7325 105.328C19.0925 112.594 25.9726 117.829 33.4754 120.288C42.6675 123.311 52.8092 122.234 62.0333 119.727C67.6447 118.206 73.86 115.536 76.6774 110.686C76.8635 110.366 77.0347 110.036 77.19 109.696C77.4104 109.999 77.6353 110.299 77.8647 110.597C85.4223 120.413 97.7835 127.507 111.135 126.698C123.207 125.966 134.752 118.198 138.402 107.479C138.525 107.118 138.639 106.754 138.744 106.386C138.995 106.668 139.265 106.933 139.551 107.181C143.695 110.772 151.316 110.869 156.591 110.633ZM188.472 63.5738C188.492 63.7333 188.551 63.8861 188.644 64.0208C198.175 75.5257 193.177 92.3207 181.213 100.683C174.877 105.105 167.116 107.497 159.298 108.214C153.323 108.76 141.59 109.515 139.388 102.685C139.058 101.662 137.189 101.682 137.033 102.817C135.383 114.939 123.076 124.023 110.182 124.42C96.6335 124.843 84.4831 116.676 77.8536 106.236C77.7136 106.05 77.5186 105.906 77.2918 105.821C77.0649 105.735 76.8158 105.713 76.5742 105.755C76.3326 105.798 76.1087 105.904 75.9293 106.061C75.7499 106.218 75.6226 106.419 75.5624 106.64C74.3282 113.154 66.8499 116.042 60.7337 117.655C52.5763 119.798 43.6804 120.783 35.4798 118.442C28.6366 116.487 22.1229 112.054 19.5874 105.67C18.1448 102.109 18.0144 98.1965 19.2164 94.5392C24.028 95.8445 29.193 95.5568 33.8299 93.7253C34.6319 93.4048 34.2129 92.2065 33.4053 92.533C29.3699 94.1098 24.9134 94.4372 20.6984 93.4813C20.3689 93.4066 20.0408 93.324 19.7145 93.2335C19.8497 92.923 19.9958 92.6172 20.1524 92.3164C21.0129 90.6643 22.1911 89.1664 23.6316 87.8982C24.7883 86.8599 22.9351 85.3137 21.7599 86.3474C19.8139 88.0594 18.298 90.1472 17.3214 92.4605C15.7484 91.8571 14.2553 91.0905 12.8705 90.1751C6.47353 85.9828 3.39794 79.061 3.60573 71.8888C4.17989 56.1395 19.4014 45.7442 35.2038 44.1436C35.3698 44.1315 35.5311 44.0848 35.6754 44.0069C35.8198 43.929 35.9436 43.822 36.0375 43.6938C36.1314 43.5656 36.193 43.4197 36.2177 43.2669C36.2424 43.1141 36.2296 42.9583 36.1802 42.8113C31.3494 27.926 41.5044 10.9506 57.0516 5.53051C73.5753 -0.236708 92.7075 6.92232 102.528 19.8128C102.62 19.9397 102.742 20.0452 102.885 20.1215C103.028 20.1978 103.188 20.2428 103.353 20.2531C103.517 20.2635 103.683 20.2389 103.837 20.1812C103.991 20.1235 104.129 20.0342 104.24 19.9201C111.321 10.6538 122.642 3.27359 135.284 3.58281C146.673 3.86608 157.975 11.5231 159.692 22.2811C159.784 22.8389 160.407 23.4572 161.095 23.1543C173.295 17.8361 192.029 14.451 199.034 28.3596C204.064 38.2124 203.273 58.9107 189.236 62.4397C189.072 62.4934 188.923 62.5807 188.801 62.6951C188.678 62.8095 188.585 62.948 188.528 63.1002C188.471 63.2524 188.452 63.4144 188.472 63.5738Z" fill="#059034"/>
<path fill-rule="evenodd" clip-rule="evenodd" d="M156.591 110.633C165.459 110.246 174.46 107.865 181.757 103.039C194.442 94.6254 200.552 77.4259 192.019 64.8462C191.826 64.5622 191.626 64.2805 191.418 64.0014C191.746 63.8839 192.067 63.7576 192.381 63.6227C205.245 58.0947 206.2 38.2569 201.238 27.9272C194.284 13.4261 175.899 15.1447 162.485 20.415C162.169 20.5391 161.856 20.6651 161.546 20.7929C161.471 20.4638 161.387 20.1376 161.296 19.8143C158.477 9.79943 148.225 2.68662 137.147 1.70578C124.158 0.561794 111.967 7.53988 104.07 16.7812C103.849 17.0398 103.631 17.3002 103.417 17.5622C103.202 17.2996 102.985 17.0396 102.763 16.7821C94.4135 7.06599 81.1916 1.02644 67.6186 1.51366C53.3109 2.04031 40.7353 10.6613 35.3652 22.9454C32.7404 28.776 32.1019 35.1897 33.5213 41.3227C33.5967 41.6488 33.678 41.9741 33.7651 42.2984C33.4327 42.3441 33.1009 42.3934 32.7697 42.4464C16.4727 45.0521 1.72859 56.4679 1.8362 72.8262C1.90091 80.2028 5.42561 87.229 12.0179 91.4386C13.4993 92.3848 15.0912 93.1741 16.764 93.7919C15.5162 97.5585 15.5052 101.575 16.7325 105.328C19.0925 112.594 25.9726 117.829 33.4754 120.288C42.6675 123.311 52.8092 122.234 62.0333 119.727C67.6447 118.206 73.86 115.536 76.6774 110.686C76.8635 110.366 77.0347 110.036 77.19 109.696C77.4104 109.999 77.6353 110.299 77.8647 110.597C85.4223 120.413 97.7835 127.507 111.135 126.698C123.207 125.966 134.752 118.198 138.402 107.479C138.525 107.118 138.639 106.754 138.744 106.386C138.995 106.668 139.265 106.933 139.551 107.181C143.695 110.772 151.316 110.869 156.591 110.633ZM188.472 63.5738C188.492 63.7333 188.551 63.8861 188.644 64.0208C198.175 75.5257 193.177 92.3207 181.213 100.683C174.877 105.105 167.116 107.497 159.298 108.214C153.323 108.76 141.59 109.515 139.388 102.685C139.058 101.662 137.189 101.682 137.033 102.817C135.383 114.939 123.076 124.023 110.182 124.42C96.6335 124.843 84.4831 116.676 77.8536 106.236C77.7136 106.05 77.5186 105.906 77.2918 105.821C77.0649 105.735 76.8158 105.713 76.5742 105.755C76.3326 105.798 76.1087 105.904 75.9293 106.061C75.7499 106.218 75.6226 106.419 75.5624 106.64C74.3282 113.154 66.8499 116.042 60.7337 117.655C52.5763 119.798 43.6804 120.783 35.4798 118.442C28.6366 116.487 22.1229 112.054 19.5874 105.67C18.1448 102.109 18.0144 98.1965 19.2164 94.5392C24.028 95.8445 29.193 95.5568 33.8299 93.7253C34.6319 93.4048 34.2129 92.2065 33.4053 92.533C29.3699 94.1098 24.9134 94.4372 20.6984 93.4813C20.3689 93.4066 20.0408 93.324 19.7145 93.2335C19.8497 92.923 19.9958 92.6172 20.1524 92.3164C21.0129 90.6643 22.1911 89.1664 23.6316 87.8982C24.7883 86.8599 22.9351 85.3137 21.7599 86.3474C19.8139 88.0594 18.298 90.1472 17.3214 92.4605C15.7484 91.8571 14.2553 91.0905 12.8705 90.1751C6.47353 85.9828 3.39794 79.061 3.60573 71.8888C4.17989 56.1395 19.4014 45.7442 35.2038 44.1436C35.3698 44.1315 35.5311 44.0848 35.6754 44.0069C35.8198 43.929 35.9436 43.822 36.0375 43.6938C36.1314 43.5656 36.193 43.4197 36.2177 43.2669C36.2424 43.1141 36.2296 42.9583 36.1802 42.8113C31.3494 27.926 41.5044 10.9506 57.0516 5.53051C73.5753 -0.236708 92.7075 6.92232 102.528 19.8128C102.62 19.9397 102.742 20.0452 102.885 20.1215C103.028 20.1978 103.188 20.2428 103.353 20.2531C103.517 20.2635 103.683 20.2389 103.837 20.1812C103.991 20.1235 104.129 20.0342 104.24 19.9201C111.321 10.6538 122.642 3.27359 135.284 3.58281C146.673 3.86608 157.975 11.5231 159.692 22.2811C159.784 22.8389 160.407 23.4572 161.095 23.1543C173.295 17.8361 192.029 14.451 199.034 28.3596C204.064 38.2124 203.273 58.9107 189.236 62.4397C189.072 62.4934 188.923 62.5807 188.801 62.6951C188.678 62.8095 188.585 62.948 188.528 63.1002C188.471 63.2524 188.452 63.4144 188.472 63.5738Z" fill="#059034"/>
</svg>
