<svg width="214" height="126" viewBox="0 0 214 126" fill="none" xmlns="http://www.w3.org/2000/svg">
<path d="M158.533 63.3651C153.076 60.0232 147.614 56.6679 142.189 53.2303C138.595 50.9711 133.695 48.7429 130.661 45.6073C129.614 42.2869 130.223 37.6507 130.1 34.3292C129.825 26.4448 129.401 18.5424 128.735 10.7052C128.595 9.10176 126.463 7.61181 125.158 9.21108C117.49 18.9368 109.452 28.3554 102.399 38.5408C91.1814 32.5627 79.7258 27.0987 68.5512 21.0656C68.1913 20.8713 67.7835 20.7854 67.3767 20.8182C66.9699 20.851 66.5813 21.0011 66.2577 21.2505C65.9341 21.4999 65.6891 21.838 65.5522 22.2242C65.4152 22.6104 65.3922 23.0283 65.4857 23.4278C68.3952 36.951 75.7012 48.931 84.0232 59.7961C77.6257 71.4609 71.778 83.3993 65.3913 95.1048C65.1987 95.4661 65.114 95.8758 65.1474 96.2847C65.1808 96.6936 65.3309 97.0844 65.5796 97.4101C65.8284 97.7358 66.1652 97.9827 66.5497 98.121C66.9343 98.2594 67.3501 98.2833 67.7474 98.19C80.0638 94.5388 91.8962 89.4124 102.99 82.9212C107.755 92.8614 113.216 102.451 119.331 111.616C120.234 112.942 122.849 113.053 123.153 111.113C124.136 104.852 125.119 98.5902 126.176 92.3378C127.05 87.1803 127.295 80.7539 129.341 75.877C129.516 75.5484 129.666 75.2072 129.79 74.8561C130.356 74.6531 130.937 74.497 131.528 74.3895C134.256 73.7881 136.886 72.8208 139.573 72.0703C145.705 70.4245 151.822 68.7824 157.975 67.218C158.374 67.1124 158.733 66.8913 159.008 66.5821C159.282 66.273 159.461 65.8894 159.52 65.479C159.579 65.0687 159.518 64.6495 159.342 64.2737C159.167 63.8979 158.885 63.5819 158.533 63.3651ZM135.452 68.8636C132.474 69.663 127.764 70.143 125.937 72.8698C123.454 76.6004 123.472 83.5228 122.715 87.8211C121.722 93.5043 120.817 99.1929 119.912 104.882C114.664 96.5094 109.909 87.8356 105.671 78.9051C105.375 78.4461 104.915 78.1186 104.386 77.9903C103.857 77.862 103.3 77.9427 102.829 78.2157C92.9631 84.1985 82.4431 89.0201 71.4765 92.5856C77.168 81.9525 82.4951 71.1994 88.3134 60.663C88.5284 60.2554 88.6102 59.79 88.5475 59.3326C88.4848 58.8751 88.2806 58.4488 87.9638 58.1139C80.6597 48.7328 74.1814 38.3894 70.7164 26.9467C81.0987 32.3938 91.6611 37.4876 102.009 43.0748C102.493 43.3357 103.058 43.4017 103.589 43.2593C104.119 43.1168 104.576 42.7767 104.865 42.308C111.095 33.2006 118.087 24.7307 124.983 16.1705C125.453 22.8407 125.763 29.5101 126.014 36.2246C126.131 39.5769 125.562 44.1443 126.84 47.359C126.852 47.4283 126.87 47.4963 126.895 47.5623C127 47.818 127.16 48.0476 127.363 48.2351C130.254 51.4819 135.031 53.6848 138.646 55.9675C143.134 58.8145 147.661 61.5929 152.171 64.3613C146.615 65.838 141.039 67.2912 135.506 68.8491L135.452 68.8636Z" fill="#E9853C"/>
<path d="M23.1746 79.2144C21.022 79.3541 20.4451 75.9947 22.5673 75.8421C28.5663 75.3856 34.5705 74.8664 40.5785 74.5579C42.686 74.4566 43.3599 77.6556 41.2084 77.911C35.18 78.4703 29.1511 78.7771 23.1746 79.2144ZM23.443 51.2771L30.4099 53.2444C32.546 54.0383 34.7664 54.5831 37.027 54.8678C38.5031 54.9147 39.6207 52.6612 38.0885 51.8841C35.9945 50.991 33.8024 50.3496 31.5578 49.9734L24.4904 48.2081C22.5139 47.7313 21.4029 50.6794 23.4238 51.2545L23.443 51.2771ZM28.616 31.6895L37.7045 35.0604C40.2517 36.0045 42.8016 37.4324 45.545 37.2569C46.9592 37.162 46.9047 35.3806 46.1024 34.6631C44.0983 32.8486 40.8491 32.4045 38.3141 31.5667C35.4287 30.6511 32.5374 29.721 29.6403 28.7764C29.2547 28.6404 28.8309 28.6633 28.4622 28.8403C28.0935 29.0172 27.81 29.3336 27.6742 29.7199C27.5384 30.1062 27.5613 30.5308 27.7379 30.9002C27.9145 31.2695 28.2304 31.5535 28.616 31.6895Z" fill="#E9853C"/>
<path d="M168.22 28.294C166.976 29.3083 164.861 27.3931 165.981 26.1506C171.283 20.3111 180.134 11.8171 188.55 11.3335C188.838 11.3015 189.135 11.3665 189.394 11.5185C189.653 11.6706 189.861 11.9014 189.986 12.176C190.111 12.4507 190.147 12.7543 190.088 13.0408C190.028 13.3273 189.877 13.5811 189.657 13.7639C186.547 16.6527 182.077 17.9966 178.447 20.3224C174.816 22.7112 171.384 25.3862 168.182 28.3244L168.22 28.294ZM175.172 41.5509C182.682 38.7575 191.731 36.8143 198.367 32.3868C199.63 31.5753 198.497 29.4949 197.127 29.6916C189.131 30.8193 180.996 35.2853 173.599 38.1405C171.47 38.956 173.015 42.2801 175.14 41.5113L175.172 41.5509ZM179.473 55.5897C182.094 56.1853 184.74 56.6197 187.395 56.8904C189.943 57.3122 192.517 57.3287 195.024 56.9393C195.374 56.8485 195.676 56.6402 195.884 56.3473C196.093 56.0545 196.194 55.694 196.173 55.3231C196.152 54.9522 196.009 54.5921 195.768 54.3001C195.526 54.0082 195.2 53.801 194.84 53.7116C192.385 53.2358 189.737 53.4883 187.273 53.3056C184.744 53.0732 182.224 52.6829 179.726 52.1368C177.572 51.7006 177.349 55.0632 179.476 55.5431L179.473 55.5897Z" fill="#E9853C"/>
</svg>
