<svg width="468" height="232" viewBox="0 0 468 232" fill="none" xmlns="http://www.w3.org/2000/svg">
<g clip-path="url(#clip0_814_1380)">
<path d="M244.366 176.483C246.136 183.098 247.911 189.734 249.404 196.412C250.307 200.436 250.499 202.773 246.897 205.191C236.787 211.966 223.855 216.294 212.166 219.356C199.369 222.674 186.181 224.24 172.962 224.013C169.946 223.962 169.977 219.253 172.995 219.314C186.111 219.578 199.199 218.035 211.893 214.728C218.298 213.046 224.576 210.913 230.681 208.346C234.817 206.588 245.439 203.508 245.462 198.53C245.492 195.765 244.003 192.223 243.345 189.522C242.688 186.821 242.029 184.197 241.352 181.544C239.906 175.896 238.4 170.266 236.835 164.657C233.748 153.766 230.386 142.967 226.749 132.259C224.762 126.422 222.701 120.609 220.567 114.818C218.614 109.544 216.769 99.6489 210.692 97.9201C207.833 97.0782 202.987 98.7761 200.067 99.2858C197.446 99.7373 194.831 100.252 192.226 100.808C187.02 101.929 181.851 103.268 176.753 104.795C171.003 106.517 165.336 108.467 159.762 110.686C156.823 111.852 153.905 113.099 151.001 114.397C148.928 115.321 145.961 116.06 144.27 117.598C140.362 121.183 144.919 131.938 145.986 136.494C147.232 141.827 148.543 147.161 149.919 152.496C155.725 175.009 162.686 197.224 170.238 219.216C170.622 220.329 168.912 220.743 168.498 219.682C157.238 190.245 148.12 160.032 141.217 129.281C140.31 125.366 137.899 119.714 140.956 116.15C143.636 113.002 149.253 111.347 152.908 109.697C165.231 104.229 178.078 100.029 191.251 97.1608C197.036 95.8956 203.144 94.4573 209.082 94.1281C213.233 93.8861 216.293 95.358 218.401 98.9843C221.676 104.622 223.487 111.595 225.704 117.656C227.818 123.452 229.861 129.278 231.832 135.133C236.411 148.795 240.589 162.578 244.366 176.483ZM153.111 129.823C152.984 129.642 152.917 129.425 152.92 129.204C152.923 128.983 152.996 128.768 153.128 128.591C154.692 126.321 156.819 124.499 159.301 123.304C161.835 122.202 163.144 123.893 164.148 126.067C165.009 127.91 166.561 131.24 165.074 133.136C164.308 134.122 163.075 134.17 161.926 134.293C160.44 134.526 158.94 134.659 157.437 134.69V134.69C157.516 134.907 157.576 135.131 157.616 135.359C157.827 136.149 156.878 137.098 156.099 136.535C154.191 135.157 153.449 132.099 153.111 129.823ZM157.181 127.898C156.572 128.449 156.007 129.046 155.491 129.685C155.641 130.509 155.857 131.318 156.139 132.106C156.35 131.82 156.663 131.628 157.014 131.568C157.999 131.395 158.994 131.285 159.993 131.238C160.864 131.261 161.736 131.192 162.593 131.031C162.491 130.127 162.254 129.242 161.891 128.408C161.716 127.813 161.493 127.233 161.222 126.676C160.824 125.958 160.906 125.86 160.241 125.929C159.27 126.026 157.874 127.289 157.181 127.898ZM212.12 121.409C214.143 120.868 213.297 117.707 211.288 118.299C198.162 122.147 184.39 125.038 171.601 129.903C171.374 129.99 171.186 130.158 171.076 130.375C170.965 130.592 170.939 130.842 171.002 131.078C171.065 131.314 171.212 131.517 171.417 131.65C171.621 131.783 171.867 131.835 172.108 131.797C185.593 129.699 199.004 125.091 212.12 121.409V121.409ZM158.774 153.384C158.905 151.525 161.266 150.546 162.721 149.907C164.475 149.21 167.028 148.95 168.082 150.905C168.535 152.03 168.873 153.198 169.09 154.391C169.44 155.698 169.85 156.988 170.23 158.287C170.332 158.7 170.271 159.137 170.058 159.506C169.845 159.875 169.498 160.146 169.09 160.264C167.118 160.997 165.117 161.62 163.162 162.414C162.019 162.882 161.168 161.97 161.004 160.95C160.805 160.942 160.613 160.876 160.45 160.762C160.287 160.648 160.16 160.49 160.083 160.306C159.159 158.119 158.712 155.758 158.774 153.384V153.384ZM161.742 159.212C161.897 159.112 162.067 159.037 162.246 158.99C163.773 158.581 165.261 158.107 166.803 157.63C166.532 156.617 166.332 155.585 166.081 154.566C165.956 154.1 165.893 152.891 165.558 152.611C164.993 152.078 164.241 152.388 163.604 152.602C162.918 152.795 162.267 153.098 161.676 153.497C161.367 153.762 161.135 154.106 161.006 154.493C160.876 154.879 160.854 155.293 160.941 155.692C161.055 156.877 161.309 158.044 161.698 159.169L161.742 159.212ZM177.727 158.963C192.605 154.614 207.919 151.614 222.727 147.165C223.121 147.025 223.449 146.741 223.643 146.37C223.838 145.999 223.886 145.568 223.778 145.163C223.67 144.758 223.413 144.409 223.059 144.184C222.705 143.96 222.279 143.878 221.868 143.954C206.74 146.155 191.449 151.428 177.066 156.491C175.527 156.979 176.113 159.373 177.713 158.912L177.727 158.963ZM168.704 187.429C167.67 186.168 166.838 184.754 166.239 183.237C165.846 182.256 165.138 180.622 165.75 179.546C166.362 178.471 168.488 178.152 169.62 177.805C170.955 177.448 172.543 176.578 173.954 176.95C175.365 177.322 176.168 179.148 176.807 180.442C177.446 181.737 178.624 183.712 178.561 185.259C178.529 185.806 178.326 186.329 177.98 186.753C177.634 187.177 177.163 187.48 176.635 187.62C174.749 188.43 172.787 189.049 170.778 189.469C170.49 189.528 170.193 189.515 169.911 189.43C169.63 189.346 169.374 189.192 169.167 188.984C168.959 188.775 168.807 188.519 168.724 188.237C168.64 187.955 168.628 187.656 168.688 187.369L168.704 187.429ZM167.97 181.199C168.076 181.595 168.181 181.99 168.284 182.375C168.657 183.703 169.232 184.966 169.99 186.119C171.002 185.849 172.124 185.668 173.186 185.384C174 185.246 174.799 185.032 175.573 184.745C175.238 183.377 174.708 182.063 173.999 180.846C173.459 179.72 173.348 179.424 172.081 179.59C171.453 179.714 170.835 179.879 170.23 180.085C169.491 180.18 168.772 180.391 168.099 180.709C167.751 180.748 167.698 180.871 167.954 181.139L167.97 181.199ZM226.559 168.784C213.091 171.509 199.942 175.619 187.32 181.05C186.117 181.578 186.983 183.517 188.211 183.167C201.312 179.467 214.274 175.576 227.469 172.188C229.656 171.571 228.753 168.317 226.545 168.734L226.559 168.784ZM177.659 210.414C177.567 210.515 177.455 210.596 177.329 210.651C177.203 210.705 177.067 210.732 176.93 210.73C176.793 210.727 176.658 210.696 176.534 210.637C176.41 210.578 176.3 210.493 176.211 210.389C174.454 208.592 173.413 206.214 173.285 203.703C173.293 203.399 173.401 203.107 173.594 202.873C173.787 202.639 174.052 202.475 174.348 202.409C176.473 201.765 178.387 200.167 180.75 200.696C182.897 201.143 183.568 202.884 184.154 204.79C184.74 206.696 185.841 208.909 184.674 210.785C183.506 212.66 181.214 212.926 179.351 212.686C179.084 212.664 178.825 212.586 178.591 212.456C178.357 212.326 178.153 212.147 177.993 211.932C177.833 211.717 177.72 211.471 177.663 211.209C177.605 210.947 177.604 210.676 177.659 210.414V210.414ZM177.747 208.838C177.929 209.078 178.01 209.38 177.972 209.679C178.137 209.509 178.337 209.377 178.558 209.293C178.779 209.21 179.016 209.176 179.252 209.195C180.258 209.23 181.914 209.666 181.962 208.264C181.82 207.128 181.523 206.017 181.078 204.962C180.685 203.493 179.908 203.18 178.554 203.629C177.674 203.864 176.892 204.345 176.06 204.676C176.181 206.204 176.77 207.657 177.747 208.838V208.838ZM230.543 191.459C218.179 196.536 205.543 200.795 192.798 204.812C192.519 204.887 192.281 205.069 192.137 205.32C191.992 205.57 191.953 205.868 192.028 206.147C192.103 206.426 192.285 206.665 192.535 206.81C192.786 206.954 193.083 206.994 193.362 206.919C206.319 203.745 219.026 199.621 231.377 194.579C233.285 193.809 232.445 190.668 230.54 191.449L230.543 191.459Z" fill="#A661FF"/>
</g>
<g clip-path="url(#clip1_814_1380)">
<path d="M316.806 41.9901C313.379 43.3443 310.006 44.8585 306.674 46.4466C303.97 38.482 297.008 32.9041 287.797 30.1485C275.387 26.4702 263.071 32.8116 256.559 43.4794C251.085 52.4649 247.476 67.9398 256.815 74.8851C256.872 75.0025 256.936 75.1165 257.007 75.2264C264.153 85.3286 274.23 92.3757 286.889 87.8026C299.547 83.2296 306.119 69.7908 307.638 57.2692C307.927 54.9709 307.91 52.6444 307.587 50.3505C311.13 48.6396 314.675 46.9299 318.225 45.2215C318.589 44.9952 318.86 44.645 318.987 44.2352C319.114 43.8254 319.089 43.3835 318.917 42.9906C318.744 42.5977 318.436 42.2802 318.048 42.0965C317.66 41.9127 317.219 41.8749 316.806 41.9901V41.9901ZM291.915 79.9646C287.503 83.5201 281.482 85.5211 275.816 84.4716C268.964 83.25 264.722 77.4455 260.475 72.4856C260.295 72.2617 260.073 72.0759 259.82 71.9392C259.567 71.8024 259.29 71.7173 259.004 71.689C258.718 71.6607 258.43 71.6897 258.155 71.7743C257.881 71.8589 257.626 71.9974 257.405 72.1816C248.186 63.7989 257.933 44.6529 265.99 38.2627C268.481 36.1814 271.393 34.6644 274.525 33.8161C277.658 32.9677 280.938 32.8082 284.138 33.3484C290.609 34.5954 299.19 38.9955 302.197 45.2001C302.636 46.1412 302.988 47.1205 303.248 48.1258C295.564 51.8667 288.062 55.9109 280.354 59.4453C277.33 53.3829 274.763 47.1035 272.673 40.6593C272.22 39.3232 269.859 39.9679 270.24 41.3689C272.224 48.5373 274.868 55.5065 278.137 62.1872C278.314 62.5719 278.633 62.873 279.027 63.0267C279.422 63.1805 279.86 63.1749 280.251 63.0111C288.232 59.6408 296.077 55.9045 303.9 52.1364C304.59 62.2612 298.879 74.3543 291.915 79.9646Z" fill="#A661FF"/>
</g>
<path d="M110.115 125.541C109.273 125.182 107.204 124.189 103.908 122.564C100.612 120.94 97.5104 119.473 94.6044 118.166C91.7776 116.76 90.1874 116.076 89.8337 116.112L89.5821 116.273C89.5029 116.37 89.419 116.423 89.3306 116.433C89.2422 116.442 89.105 116.411 88.919 116.341C88.8214 116.262 88.6842 116.231 88.5073 116.25C86.8272 116.424 85.9796 116.869 85.9644 117.586C86.1596 117.744 86.2709 117.956 86.2984 118.221L84.8715 119.978L82.2188 120.253C81.7432 120.838 80.6653 121.218 78.9852 121.392C78.5431 121.438 78.1802 121.386 77.8966 121.236C77.7015 121.078 77.5155 121.008 77.3386 121.026C77.1618 121.044 76.9941 121.151 76.8355 121.346C76.6678 121.453 76.5398 121.511 76.4514 121.52C76.2745 121.539 76.1769 121.459 76.1586 121.282L74.169 121.488C74.1599 121.4 74.0531 121.232 73.8488 120.985C73.7604 120.995 73.6415 121.141 73.4921 121.424C73.422 121.61 73.2985 121.713 73.1216 121.731L72.6688 121.242C72.4919 121.26 72.2312 121.332 71.8867 121.457C71.6306 121.573 71.4583 121.635 71.3699 121.644C70.9277 121.69 70.3042 121.71 69.4992 121.704C68.685 121.609 68.0127 121.59 67.4821 121.645C67.3937 121.654 67.2214 121.716 66.9653 121.832C66.7092 121.948 66.4485 122.02 66.1832 122.047C65.6527 122.102 65.1876 121.927 64.7881 121.522C64.5778 122.08 64.3842 122.368 64.2074 122.386C63.8537 122.423 63.5792 122.362 63.3841 122.203L60.9966 122.45L60.8639 122.464L60.745 122.611C59.8516 122.614 59.2281 122.634 58.8743 122.67L58.8469 122.405C58.6091 122.698 58.4017 122.853 58.2249 122.872C57.8437 122.643 57.4763 122.547 57.1226 122.583C56.9457 122.602 56.685 122.674 56.3405 122.799C55.9959 122.924 55.7352 122.995 55.5584 123.014C55.2047 123.05 54.979 123.029 54.8814 122.95C54.7839 122.87 54.6909 122.835 54.6024 122.844L54.0856 123.032L53.5688 123.22C53.3919 123.238 53.0291 123.186 52.4802 123.064C51.9313 122.942 51.4358 122.904 50.9937 122.95L50.98 122.817C50.8916 122.827 50.7284 122.978 50.4906 123.27C50.2437 123.475 50.0318 123.586 49.8549 123.604C45.0524 123.834 39.791 123.082 34.0705 121.351C28.4292 119.522 23.1507 116.449 18.2349 112.132C13.4075 107.806 10.6916 102.725 10.0872 96.8886C9.33628 89.6377 9.82046 83.957 11.5397 79.8465C12.1281 78.6237 12.8399 77.2987 13.6753 75.8716C14.5014 74.3561 15.852 72.2946 17.7269 69.6874C19.6019 67.0801 21.9648 64.8691 24.8156 63.0545C27.6572 61.1515 30.7139 60.0306 33.9857 59.6917C34.1167 59.2313 35.1321 58.6793 37.0317 58.0357C39.0197 57.3829 40.1371 56.9544 40.3841 56.7501C40.9055 56.6067 41.8553 56.2849 43.2335 55.7847C44.6025 55.196 45.6316 54.7766 46.3207 54.5265C46.4975 54.5082 46.6347 54.5387 46.7323 54.6179C47.0311 54.0508 47.7552 53.7076 48.9047 53.5886C49.0816 53.5703 49.2676 53.6404 49.4628 53.7989C49.6488 53.869 49.786 53.8995 49.8744 53.8904C50.0513 53.872 50.4705 53.6052 51.1321 53.0898C51.873 52.4768 52.6856 52.1245 53.5699 52.033C53.6583 52.0238 53.7071 52.0634 53.7162 52.1519C53.7254 52.2403 53.7742 52.2799 53.8626 52.2708L54.7224 51.5114C55.3047 51.0936 55.9542 50.8923 56.6708 50.9075L56.7394 51.5707C56.9255 51.6408 57.0627 51.6712 57.1511 51.6621C57.3188 51.5553 57.4423 51.4532 57.5215 51.3556C57.6801 51.1604 57.799 51.014 57.8782 50.9165C57.9575 50.8189 58.0414 50.7655 58.1298 50.7564C58.2975 50.6496 58.5582 50.5779 58.9119 50.5413C58.9485 50.895 59.1437 51.0535 59.4974 51.0169C59.3906 50.8492 59.4608 50.6632 59.7077 50.4589C60.0431 50.2454 60.5203 50.1066 61.1393 50.0425C61.7491 49.89 62.2751 49.7908 62.7172 49.745C63.1593 49.6992 63.6899 49.6443 64.3089 49.5802L64.3226 49.7128C64.6855 49.7646 64.9111 49.7859 64.9995 49.7768C65.1672 49.67 65.2465 49.5725 65.2373 49.484C65.219 49.3072 65.2053 49.1745 65.1961 49.0861C65.2754 48.9885 65.4477 48.926 65.7129 48.8985C66.1551 48.8527 66.3853 48.9183 66.4036 49.0951C65.989 49.4062 65.742 49.6105 65.6627 49.7081L66.1933 49.6532C66.547 49.6165 66.8473 49.496 67.0943 49.2917C66.8199 49.2308 66.6735 49.1119 66.6552 48.935L67.0531 48.8938C67.1415 48.8846 67.4906 48.8038 68.1004 48.6513C68.7103 48.4987 69.0548 48.3737 69.1341 48.2761C69.3109 48.2578 69.4969 48.3279 69.6921 48.4864L69.5595 48.5002C69.6571 48.5794 69.8827 48.6008 70.2364 48.5641C70.5017 48.5367 70.6602 48.3415 70.712 47.9786C71.7731 47.8687 73.3556 47.6155 75.4595 47.2188C77.6519 46.813 79.0575 46.5781 79.6765 46.514L87.7675 45.6761C88.8652 45.9199 90.617 46.0066 93.0228 45.9362C95.4195 45.7773 97.1575 45.7314 98.2369 45.7984C98.4229 45.8685 99.3392 46.0864 100.986 46.4521C102.623 46.7294 104.177 47.0601 105.647 47.4441C107.107 47.7397 107.891 47.9714 107.998 48.139L107.893 48.4181L108.409 48.2305C108.418 48.3189 108.565 48.4378 108.848 48.5872C109.22 48.7274 109.593 48.8676 109.965 49.0078C110.416 49.0505 110.695 49.1556 110.802 49.3233L112.823 50.7227C114.26 51.6464 115.559 52.5397 116.721 53.4025C117.882 54.2653 118.433 54.8339 118.372 55.1083C119.079 55.0351 119.881 55.4436 120.778 56.3338C121.674 57.2241 122.443 58.1723 123.083 59.1785L123.898 60.5688C124.023 60.9134 124.858 62.0781 126.404 64.0629C127.951 66.0478 128.792 67.7034 128.93 69.0298C128.948 69.2067 128.873 69.3485 128.706 69.4552C128.626 69.5528 128.591 69.6458 128.601 69.7342C128.628 69.9995 128.788 70.251 129.081 70.4888C129.364 70.6382 129.515 70.8013 129.534 70.9782C129.58 71.4203 129.563 71.6902 129.484 71.7877C129.511 72.053 129.636 72.3976 129.859 72.8214C130.17 73.236 130.33 73.4876 130.339 73.576C130.385 74.0181 130.21 74.4832 129.813 74.9711L129.694 75.1175C129.722 75.3827 129.868 75.5016 130.133 75.4742L130.028 75.7532C130.056 76.0185 130.19 76.4514 130.431 77.0521C130.751 77.5552 130.93 77.9836 130.966 78.3373C130.994 78.6025 130.968 78.784 130.889 78.8816C131.194 80.1012 131.374 80.9763 131.429 81.5069L131.447 82.9796C131.45 83.873 131.47 84.4966 131.507 84.8503L131.854 85.6187C131.873 85.7955 131.793 85.8931 131.617 85.9114L131.338 85.8063C130.978 86.6479 130.825 87.334 130.88 87.8645C130.908 88.1298 130.98 88.3905 131.095 88.6466C131.3 88.8936 131.411 89.1055 131.429 89.2823C131.494 89.9013 130.984 91.0265 129.902 92.658L128.279 95.1051L128.571 95.3429L128.69 95.1966C128.788 95.2758 128.727 95.5503 128.508 96.0199C128.288 96.4895 127.866 97.1588 127.241 98.0279C126.695 98.7994 126.017 99.5847 125.206 100.384C124.245 101.466 121.806 103.372 117.888 106.102C114.059 108.822 111.26 110.274 109.491 110.457C109.314 110.475 109.177 110.445 109.08 110.366C108.921 110.561 108.63 110.77 108.206 110.992C107.782 111.215 107.447 111.428 107.2 111.633C106.953 111.837 106.848 112.116 106.884 112.47C106.912 112.735 107.099 113.252 107.447 114.02C107.883 114.779 108.382 115.711 108.943 116.815C109.584 117.821 110.029 118.668 110.279 119.357C110.404 119.702 110.919 120.364 111.825 121.342C112.722 122.233 113.202 122.987 113.266 123.606C113.321 124.137 113.146 124.602 112.74 125.001C112.423 125.392 111.999 125.614 111.469 125.669C110.938 125.724 110.487 125.682 110.115 125.541ZM98.9403 117.314L108.802 121.924L108.706 120.995C108.596 119.934 107.705 118.239 106.034 115.909C104.363 113.58 103.282 111.77 102.791 110.481L102.763 110.215C102.653 109.154 103.159 108.431 104.281 108.047C106.846 107.782 109.108 107.19 111.069 106.272C113.029 105.354 115.086 104.068 117.238 102.415C119.479 100.753 120.935 99.7087 121.606 99.2818C127.237 95.8386 129.595 89.6957 128.68 80.8531C127.846 72.8064 126.127 66.9963 123.523 63.4229C123.416 63.2552 123.158 62.9244 122.75 62.4305C122.43 61.9274 122.016 61.3893 121.51 60.8161C121.092 60.2337 120.63 59.656 120.124 59.0828C119.706 58.5004 119.346 58.0461 119.045 57.7199L118.592 57.2306C115.368 53.7213 110.985 51.0919 105.441 49.3423C99.8974 47.5926 94.7381 46.9651 89.9631 47.4596L77.893 48.7096C76.7617 49.0055 75.1396 49.3076 73.0265 49.6158C70.9928 49.8264 69.6709 50.008 69.0611 50.1605C69.0886 50.4258 70.261 50.5278 72.5784 50.4666C74.8866 50.3169 77.6858 50.1611 80.9759 49.9991C84.2568 49.7487 86.6138 49.6386 88.0469 49.669C93.0477 50.4917 95.6807 50.8893 95.946 50.8618C96.7602 50.9563 97.8838 51.0186 99.3169 51.049C100.838 51.0701 102.183 51.1096 103.351 51.1674C104.519 51.2252 105.691 51.3272 106.868 51.4735C108.045 51.6197 108.966 51.8818 109.631 52.2599C110.375 52.5403 110.775 52.9458 110.829 53.4763C110.857 53.7416 110.826 53.8788 110.738 53.888C110.031 53.9613 107.946 53.6855 104.486 53.0609C101.037 53.418 96.6446 53.292 91.3084 52.6827C86.0515 51.9759 82.0966 51.7599 79.4439 52.0346L75.9953 52.3918C63.7925 53.6555 53.1266 55.5198 43.9976 57.9846C42.9548 58.2713 41.4135 58.9225 39.3737 59.9381C37.4131 60.8561 35.9115 61.4585 34.8687 61.7453C34.5516 62.1356 33.6247 62.6785 32.088 63.3739C30.6397 64.0601 29.6945 64.4261 29.2523 64.4719C29.2005 64.8348 28.9368 65.3089 28.4612 65.8944C27.9765 66.3915 27.5572 66.6584 27.2035 66.695C27.1151 66.7042 26.9779 66.6737 26.7919 66.6036C26.6059 66.5335 26.4687 66.503 26.3802 66.5121C26.4077 66.7774 26.2888 66.9238 26.0235 66.9513L26.4214 66.9101C26.2019 67.3797 25.6059 67.6648 24.6332 67.7656C23.6605 67.8663 23.2016 68.182 23.2566 68.7125C23.5218 68.685 23.6682 68.8039 23.6957 69.0692C23.3969 69.6364 22.5646 70.661 21.1987 72.1431C19.9121 73.5276 18.8709 74.261 18.0751 74.3434L18.2352 74.595C18.2444 74.6834 18.2535 74.7718 18.2627 74.8603C18.3359 75.5677 18.0189 75.958 17.3115 76.0313L17.3891 75.487C16.947 75.5328 16.7534 75.8209 16.8084 76.3515C16.8542 76.7936 16.7932 77.0681 16.6255 77.1748L16.319 76.8044C15.8159 77.1246 15.5965 77.5942 15.6606 78.2132L15.9258 78.1857C13.664 83.9611 12.6979 88.4405 13.0276 91.6239L13.5908 97.062L13.3667 97.4874C13.4826 97.7436 13.6626 98.6187 13.9067 100.113C14.2301 101.509 14.6053 102.543 15.0322 103.214C17.2921 106.912 20.0184 109.937 23.2112 112.287C26.404 114.638 29.4885 116.374 32.4646 117.496C35.4316 118.529 39.0739 119.18 43.3917 119.447C47.7978 119.706 51.4248 119.777 54.2728 119.661C57.2 119.447 61.0953 119.089 65.9587 118.585C74.9781 117.651 83.1147 115.959 90.3685 113.51C91.4296 113.4 93.0016 113.907 95.0843 115.032C97.1579 116.069 98.4432 116.83 98.9403 117.314ZM20.4236 93.1369C20.158 90.5726 20.1181 88.0296 20.3038 85.5079C20.5688 82.8886 21.3781 80.347 22.7316 77.883C24.0852 75.4191 26.0441 74.0544 28.6085 73.7888C31.9687 73.4408 35.0149 74.3766 37.7473 76.5961C40.4705 78.7272 42.0015 81.4286 42.3403 84.7004C42.6242 87.4416 42.5056 90.1798 41.9845 92.915C41.5518 95.641 40.433 98.2146 38.6282 100.636C36.8233 103.057 34.4619 104.419 31.5438 104.721C25.0003 105.399 21.2936 101.537 20.4236 93.1369ZM47.8537 101.691C47.7529 100.719 47.4112 99.1454 46.8286 96.9714C46.2368 94.7089 45.8814 93.0029 45.7623 91.8534L45.895 91.8397C45.9591 92.4586 46.0491 92.8962 46.165 93.1523C46.296 92.6919 46.3112 91.9753 46.2105 91.0026L45.9177 90.7648C45.9269 90.8532 45.8964 90.9905 45.8263 91.1765C45.8446 91.3533 45.8141 91.4905 45.7348 91.5881C45.6891 91.146 45.535 90.0895 45.2725 88.4185C45.001 86.6592 44.7507 84.6742 44.5217 82.4635L44.302 80.3413C43.9265 76.7158 43.7814 74.4518 43.8667 73.5492C44.0404 72.6375 44.702 72.1221 45.8515 72.0031C46.8242 71.9023 48.6249 73.3246 51.2537 76.2698C53.8824 79.2151 55.2426 81.1298 55.3342 82.0141L57.4384 84.2092C58.0239 84.6848 58.4935 84.9043 58.8472 84.8677C59.2009 84.8311 59.364 84.6801 59.3365 84.4148L64.1197 74.9374C64.0739 74.4952 64.8391 73.2541 66.4153 71.214C68.0707 69.0764 69.3406 67.9617 70.2249 67.8702C70.667 67.8244 71.097 68.0926 71.5148 68.675C71.6307 68.9311 72.2774 71.7241 73.455 77.054C74.6235 82.2954 75.2443 85.2699 75.3176 85.9773L75.1849 85.991C75.3131 87.229 75.7311 89.1072 76.4388 91.6258C77.1465 94.1444 77.5141 95.5363 77.5416 95.8016C77.3404 96.448 76.9883 96.9313 76.4852 97.2516C75.9729 97.4834 75.6863 97.7365 75.6254 98.0109C75.0948 98.0659 74.8067 97.8723 74.7609 97.4301L69.9789 77.1459C69.8965 76.35 69.59 75.9796 69.0595 76.0345C68.8826 76.0528 68.503 76.2709 67.9207 76.6887C67.3383 77.1065 66.9145 77.3292 66.6492 77.3566C66.5608 77.3658 66.2453 78.2028 65.7028 79.8678L64.8752 82.2325C64.8477 81.9672 64.7409 81.7995 64.5549 81.7294C64.3964 81.9246 64.0976 82.4918 63.6587 83.431C63.2197 84.3702 63.0139 84.9724 63.0414 85.2377C63.0506 85.3261 63.0994 85.3658 63.1878 85.3566C63.3646 85.3383 63.4393 85.1965 63.4118 84.9312C63.4636 84.5684 63.5292 84.3381 63.6084 84.2406L63.7548 84.3595C63.8189 84.9784 63.5247 85.5898 62.8723 86.1937C62.2991 86.6999 61.9378 87.0948 61.7884 87.3784C61.9836 87.5369 62.1391 87.7443 62.255 88.0004C62.3618 88.1681 62.4639 88.2916 62.5615 88.3708L62.5752 88.5035C62.6302 89.034 62.3406 89.6896 61.7064 90.4703C61.0723 91.251 60.2689 91.6917 59.2962 91.7924C58.5888 91.8657 58.0841 91.7392 57.7822 91.4129L51.7255 82.1197C51.6279 82.0404 51.3839 81.8422 50.9936 81.5252C50.6825 81.1105 50.3318 80.7446 49.9415 80.4276C49.5511 80.1105 49.263 79.9169 49.077 79.8468C48.9184 80.042 48.9262 80.9796 49.1002 82.6597C49.1093 82.7481 49.5045 85.7012 50.2858 91.519C50.5785 91.7568 50.7432 92.0526 50.7798 92.4063C50.789 92.4947 50.7631 92.6761 50.7022 92.9505C50.7205 93.1274 50.7388 93.3043 50.7571 93.4811C50.7846 93.7464 50.8959 93.9583 51.0911 94.1168L51.7912 96.9937L51.686 97.2727C51.314 97.1325 51.0914 96.7086 51.0181 96.0012C50.6034 96.3123 50.4373 96.8658 50.5197 97.6616L50.9044 101.375L50.4287 101.961C49.1908 102.089 48.3324 101.999 47.8537 101.691ZM83.157 85.2995C83.0654 84.4152 83.0256 83.1681 83.0377 81.5581C83.0405 79.8597 83.1699 77.6566 83.4257 74.9489C83.6815 72.2412 84.3765 69.8902 85.5105 67.8959C86.733 65.8924 88.2728 64.7945 90.1297 64.6022C91.4561 64.4648 92.1605 64.7941 92.2429 65.5899C92.2795 65.9436 92.0342 66.5946 91.5068 67.543C90.9794 68.4914 90.4428 69.3513 89.8971 70.1228L89.0922 71.4127C88.9245 71.5195 88.7005 71.9448 88.42 72.6889C88.2189 73.3353 87.9537 74.6587 87.6246 76.659C87.384 78.6502 87.2638 80.9417 87.2641 83.5335C87.2732 83.6219 87.287 83.7546 87.3053 83.9314C87.412 84.0991 87.47 84.2272 87.4791 84.3156C87.4975 84.4925 87.4624 84.5855 87.374 84.5946L87.4976 85.7884L87.7491 85.6283C87.8132 86.2472 87.7614 86.6101 87.5938 86.7168C87.548 86.2747 87.3482 86.072 86.9945 86.1086L86.9031 86.5202L86.6241 86.4151C86.7248 87.3878 86.9795 88.1211 87.3881 88.615C87.7876 89.0205 88.0057 89.4001 88.0423 89.7538C88.0881 90.1959 87.9784 90.4307 87.7131 90.4582C87.768 90.9887 87.9373 91.3287 88.2209 91.4781L88.102 91.6245C88.3764 91.6854 88.5274 91.8485 88.5549 92.1138C89.2503 93.6505 89.8419 94.6171 90.3298 95.0134C90.8178 95.4097 91.792 95.7557 93.2526 96.0513C94.9327 95.8773 96.2987 95.6912 97.3507 95.4929C98.3935 95.2061 99.4713 94.8264 100.584 94.3536C101.776 93.7833 102.636 93.0239 103.164 92.0756C103.682 91.0388 103.868 89.813 103.721 88.3982C103.556 86.8065 101.617 86.203 97.9031 86.5876C97.461 86.6334 96.8115 86.8347 95.9547 87.1916C95.0888 87.46 94.3905 87.6217 93.86 87.6766C92.7104 87.7957 92.0716 87.2362 91.9434 85.9982C91.8426 85.0256 92.9585 84.1503 95.2911 83.3725C97.7121 82.5855 100.072 82.073 102.371 81.8349C103.432 81.725 104.353 81.9871 105.134 82.6213C105.905 83.167 106.346 83.9704 106.456 85.0315C106.74 85.1809 107.067 85.3257 107.439 85.4659C107.802 85.5177 108.077 85.5787 108.263 85.6488C108.449 85.7189 108.546 85.7982 108.555 85.8866C108.373 86.7099 107.938 87.6933 107.252 88.8368C107.103 89.1204 106.99 89.7577 106.914 90.7487C106.926 91.7306 106.814 92.3679 106.576 92.6606C106.695 93.8102 105.038 95.5011 101.605 97.7335C98.1623 99.8775 95.38 101.059 93.2578 101.279C87.6869 101.856 84.32 96.5295 83.157 85.2995ZM24.7363 89.4728C24.8645 90.7108 25.8466 93.2903 27.6827 97.2114C28.4665 98.7389 30.5385 99.3287 33.8987 98.9807C36.0209 98.7609 37.4523 97.0487 38.1929 93.8439C39.0219 90.6299 39.2991 87.6965 39.0243 85.0438C38.832 83.1868 37.6091 81.3026 35.3555 79.391C33.0928 77.3909 31.2098 76.4688 29.7065 76.6245C25.5505 77.0549 23.8938 81.3377 24.7363 89.4728ZM111.852 80.1827L107.149 63.2418L107.011 61.9155C107.1 61.9063 107.258 61.7111 107.487 61.33C107.804 60.9396 108.13 60.6377 108.466 60.4242C108.792 60.1223 109.132 59.9531 109.486 59.9164C110.723 59.7882 111.873 60.9651 112.935 63.447C114.075 65.8314 114.774 68.2615 115.03 70.7374C115.049 70.9143 115.027 71.1399 114.966 71.4143C114.994 71.6796 115.012 71.8565 115.021 71.9449C116.223 74.0548 116.92 76.0382 117.112 77.8952C117.368 80.3711 117.01 81.6594 116.038 81.7602C114.888 81.8792 114.123 81.8244 113.742 81.5958L111.852 80.1827ZM115.614 93.1993C115.604 93.1109 115.505 92.5849 115.316 91.6214C115.118 90.5694 115.01 89.955 114.991 89.7782C114.799 87.9212 115.631 86.8966 117.488 86.7043C118.726 86.5761 119.478 87.7941 119.743 90.3585C120.046 93.2766 119.578 94.7997 118.34 94.9279C117.19 95.0469 116.282 94.4707 115.614 93.1993Z" fill="#A661FF"/>
<g clip-path="url(#clip2_814_1380)">
<path d="M436.571 56.0387C434.7 50.5811 428.178 47.2183 423.564 44.4065C408.474 35.2218 391.303 29.9842 373.646 29.1805C366.574 28.8711 360.319 29.5253 355.759 35.4175C355.432 35.8333 355.147 36.2673 354.839 36.6976C355.079 35.9315 355.307 35.1636 355.559 34.3884C355.903 33.3263 354.286 32.5101 353.898 33.6321C352.461 37.7587 351.022 41.907 349.682 46.0608C348.158 49.8606 346.935 53.774 346.025 57.765C338.11 83.893 331.752 110.466 326.983 137.345C325.265 146.11 324.171 154.986 323.709 163.907C323.53 169.058 323.463 174.822 327.391 178.717C332.668 183.899 342.004 186.486 348.8 188.809C356.456 191.364 364.322 193.246 372.307 194.435C378.547 195.357 386.792 197.203 392.742 194.249C398.166 191.555 401.599 185.275 404.231 180.104C411.889 165.067 416.24 147.816 420.903 131.667C425.878 114.377 430.139 96.9014 433.685 79.2402C434.612 74.66 435.497 70.0617 436.305 65.4507C436.906 62.2938 437.617 59.155 436.571 56.0387ZM428.372 83.7768C425.273 98.5576 421.667 113.232 417.554 127.8C413.597 141.794 409.421 155.885 404.16 169.472C401.781 175.625 398.966 182.041 394.57 187.077C389.193 193.225 380.304 191.06 373.088 189.988C365.827 188.922 358.664 187.275 351.667 185.064C345.194 183.03 335.755 180.729 330.574 176.189C325.393 171.65 327.302 161.749 327.835 155.951C328.571 148.116 329.86 140.328 331.212 132.573C335.414 108.531 340.834 84.7176 347.452 61.2243C348.022 61.337 348.614 61.2223 349.099 60.9051C349.584 60.5878 349.925 60.0933 350.048 59.5278C351.647 52.4514 354.145 44.8301 358.488 38.8908C363.731 31.724 372.778 33.1326 380.636 34.0643C393.929 35.6496 406.78 39.8349 418.451 46.3799C421.671 48.1588 424.773 50.1414 427.738 52.3156C431.478 55.1059 432.838 57.5468 432.486 62.5915C431.946 69.5858 429.816 76.8874 428.37 83.7877L428.372 83.7768ZM413.421 56.402L390.631 50.312C383.528 48.4197 375.43 44.9414 368.043 44.8372C363.314 44.7593 359.788 47.1858 358.488 51.6482C358.404 51.8703 358.368 52.1073 358.38 52.3442C358.392 52.5812 358.453 52.8132 358.559 53.0259C358.665 53.2386 358.814 53.4274 358.996 53.5806C359.178 53.7338 359.39 53.8483 359.618 53.9167C351.551 78.6107 343.314 103.522 337.169 128.691C335.622 134.982 334.281 141.317 333.331 147.729C332.652 152.373 330.981 158.531 334.297 162.594C336.87 165.716 341.07 166.681 344.791 167.755C351.789 169.824 358.851 171.673 365.974 173.3C372.92 174.92 380.26 176.941 387.386 177.606C391.889 178.027 394.614 176.565 396.997 172.695C399.379 168.826 399.861 163.949 400.627 159.454C401.89 151.829 405.11 144.596 407.521 137.229C411.666 124.408 415.071 111.375 418.103 98.2247C419.631 91.5731 421.074 84.8961 422.471 78.2228C423.199 74.7064 423.962 71.1845 424.658 67.6627C424.962 65.822 425.717 63.7759 425.036 61.9174C423.507 57.7811 416.843 57.3155 413.421 56.402ZM419.206 72.2211C414.663 94.1636 409.912 116.139 402.794 137.409C401.213 142.138 399.356 146.777 397.913 151.551C396.623 155.814 396.252 160.296 395.206 164.644C394.374 168.109 393.678 170.68 390.33 172.106C387.331 173.389 384.749 172.492 381.645 171.899C375.929 170.819 370.225 169.635 364.536 168.35C359.213 167.155 353.915 165.857 348.641 164.454C346.071 163.895 343.542 163.162 341.071 162.26C336.19 160.188 336.3 156.334 336.846 151.612C338.194 140.902 340.24 130.292 342.97 119.849C348.547 97.7752 355.198 75.9917 361.132 53.9996C361.545 53.9154 361.926 53.7189 362.233 53.432C362.54 53.1452 362.762 52.7791 362.873 52.3743C364.727 46.1346 376.567 51.1054 380.601 52.1875L396.119 56.3236L411.627 60.447C413.522 60.9509 417.181 61.2435 418.87 62.3737C422.019 64.5289 419.821 69.2566 419.206 72.2211ZM364.334 175.199C363.646 175.13 362.952 175.212 362.3 175.441C361.649 175.67 361.056 176.039 360.564 176.522C359.553 177.474 358.801 178.961 359.736 180.235L359.804 180.302C359.65 180.984 359.732 181.697 360.035 182.328C360.338 182.959 360.846 183.47 361.475 183.779C363.977 184.954 366.793 182.947 367.975 180.759C369.378 178.194 366.889 175.443 364.334 175.199ZM362.891 180.723C362.53 180.664 362.532 180.384 362.642 180.056C362.741 179.923 362.831 179.785 362.913 179.642C363.024 179.366 363.22 179.132 363.473 178.973C363.602 178.91 363.744 178.875 363.888 178.872C364.033 178.869 364.176 178.897 364.308 178.955C364.439 178.977 364.529 179.114 364.645 179.156L364.744 179.172C364.357 179.746 363.613 180.776 362.891 180.723ZM364.736 179.216C364.862 179.338 364.595 179.461 364.736 179.216V179.216ZM396.822 91.1647C393.704 88.8915 389.622 87.824 385.963 86.8489C381.918 85.765 377.69 84.3599 373.466 84.4215C365.753 84.5208 365.304 90.6238 363.326 97.212C362.331 100.505 360.714 104.434 360.877 107.93C360.922 108.945 363.006 113.732 363.092 111.654C363.041 112.843 364.542 113.886 365.431 112.724C364.715 113.657 368.98 114.296 369.077 114.324C371.206 115.034 372.877 115.736 374.026 117.885C375.361 120.344 375.938 122.42 377.852 124.64C378.01 124.844 378.225 124.999 378.469 125.086C378.713 125.172 378.977 125.188 379.229 125.129C379.482 125.071 379.712 124.941 379.892 124.756C380.073 124.571 380.196 124.338 380.247 124.085C380.83 120.567 382.023 117.228 386.064 118.2C387.825 118.625 389.718 119.207 391.592 118.746C394.949 117.88 395.933 114.719 396.595 111.74C397.569 106.81 399.79 100.855 399.62 95.8469C399.493 93.42 398.606 92.4673 396.822 91.1647ZM380.893 115.094C378.974 115.895 378.373 118.034 378.045 120.218C377.388 118.892 376.803 117.532 376.292 116.145C375.873 115.08 375.892 114.355 375.001 113.492C372.944 111.461 367.792 111.291 364.977 110.511C360.945 108.266 366.688 95.2284 367.605 92.6051C368.316 90.6189 368.72 88.3134 370.842 87.3106C373.946 85.799 378.6 87.9573 381.57 88.7512C385.389 89.7752 390.511 89.9856 393.807 92.5455C399.018 96.5641 394.992 105.813 393.926 111.231C392.066 119.618 385.682 113.044 380.893 115.094Z" fill="#A661FF"/>
</g>
<g clip-path="url(#clip3_814_1380)">
<path d="M403.958 1.98982C404.343 -0.621692 408.465 -0.636204 408.119 2.03518C407.23 9.02053 408.59 15.1387 409.308 22.0028C409.524 23.9868 406.485 24.6274 405.711 22.9544C402.867 16.6616 402.954 8.67667 403.958 1.98982ZM431.356 13.5836L427.898 19.9068C426.587 21.7655 425.582 23.8216 424.919 25.9975C424.651 26.4518 424.575 26.9939 424.707 27.5044C424.839 28.015 425.168 28.4522 425.623 28.72C426.077 28.9877 426.619 29.064 427.129 28.932C427.64 28.8001 428.077 28.4708 428.345 28.0165C429.847 26.2609 431.041 24.264 431.877 22.1102L435.234 15.9245C436.59 13.3434 432.652 11.0217 431.356 13.5836ZM450.957 33.2764C448.684 34.6611 446.561 36.2782 444.623 38.1019C442.591 39.8385 440.907 41.9451 439.661 44.3097C438.726 46.4396 441.214 49.0428 443.118 47.0423C444.742 45.3558 445.953 43.328 447.616 41.642C449.292 39.9643 451.142 38.4699 453.134 37.1841C455.549 35.6053 453.372 31.7175 450.918 33.1967L450.957 33.2764Z" fill="#A661FF"/>
</g>
<defs>
<clipPath id="clip0_814_1380">
<rect width="87.9096" height="123.669" fill="white" transform="translate(136 111.716) rotate(-14.9754)"/>
</clipPath>
<clipPath id="clip1_814_1380">
<rect width="59.1784" height="59.7293" fill="white" transform="translate(264.694 21) rotate(21.2971)"/>
</clipPath>
<clipPath id="clip2_814_1380">
<rect width="96.1757" height="163.972" fill="white" transform="translate(345.785 23.8098) rotate(9.40168)"/>
</clipPath>
<clipPath id="clip3_814_1380">
<rect width="47.3772" height="51.1222" fill="white" transform="translate(454.558 0.557373) rotate(90.6246)"/>
</clipPath>
</defs>
</svg>
