<svg width="349" height="358" viewBox="0 0 349 358" fill="none" xmlns="http://www.w3.org/2000/svg">
<g clip-path="url(#clip0_813_1369)">
<path d="M318.034 152.423C315.852 146.061 308.249 142.141 302.872 138.863C285.28 128.156 265.263 122.05 244.68 121.113C236.436 120.753 229.144 121.515 223.829 128.384C223.447 128.869 223.115 129.375 222.756 129.876C223.035 128.983 223.301 128.088 223.595 127.184C223.997 125.946 222.111 124.995 221.659 126.303C219.984 131.113 218.306 135.949 216.745 140.791C214.968 145.221 213.542 149.783 212.481 154.435C203.254 184.894 195.842 215.871 190.283 247.204C188.281 257.422 187.005 267.769 186.466 278.168C186.258 284.174 186.18 290.892 190.759 295.434C196.911 301.475 207.794 304.49 215.716 307.197C224.641 310.176 233.811 312.371 243.118 313.757C250.394 314.831 260.005 316.983 266.941 313.54C273.264 310.399 277.266 303.078 280.334 297.05C289.261 279.521 294.333 259.41 299.769 240.586C305.569 220.43 310.535 200.058 314.669 179.47C315.75 174.131 316.781 168.77 317.724 163.395C318.425 159.715 319.253 156.056 318.034 152.423ZM308.475 184.758C304.863 201.989 300.659 219.095 295.865 236.078C291.252 252.391 286.384 268.817 280.251 284.657C277.478 291.829 274.196 299.308 269.072 305.178C262.803 312.346 252.441 309.821 244.029 308.572C235.565 307.329 227.215 305.41 219.058 302.833C211.513 300.462 200.509 297.779 194.469 292.487C188.43 287.195 190.655 275.653 191.277 268.894C192.134 259.76 193.637 250.682 195.213 241.641C200.111 213.615 206.43 185.855 214.145 158.468C214.81 158.599 215.499 158.466 216.065 158.096C216.631 157.726 217.028 157.15 217.171 156.49C219.035 148.241 221.946 139.357 227.009 132.433C233.121 124.078 243.669 125.721 252.828 126.807C268.324 128.655 283.305 133.534 296.911 141.163C300.664 143.237 304.28 145.548 307.737 148.083C312.097 151.336 313.682 154.181 313.272 160.062C312.642 168.215 310.159 176.727 308.473 184.771L308.475 184.758ZM291.047 152.846L264.48 145.747C256.2 143.541 246.76 139.486 238.148 139.365C232.635 139.274 228.526 142.103 227.009 147.305C226.912 147.564 226.869 147.84 226.884 148.116C226.898 148.393 226.969 148.663 227.093 148.911C227.216 149.159 227.389 149.379 227.602 149.558C227.814 149.736 228.061 149.87 228.327 149.949C218.923 178.736 209.321 207.776 202.157 237.117C200.354 244.449 198.79 251.835 197.684 259.31C196.892 264.723 194.944 271.901 198.81 276.638C201.809 280.278 206.705 281.402 211.043 282.655C219.201 285.067 227.432 287.221 235.737 289.118C243.833 291.007 252.39 293.363 260.697 294.138C265.946 294.629 269.123 292.924 271.9 288.414C274.678 283.903 275.239 278.217 276.133 272.977C277.605 264.089 281.359 255.657 284.169 247.069C289.001 232.124 292.971 216.931 296.505 201.601C298.286 193.847 299.968 186.063 301.597 178.284C302.446 174.185 303.335 170.079 304.146 165.974C304.501 163.828 305.381 161.443 304.587 159.276C302.805 154.454 295.036 153.911 291.047 152.846ZM297.791 171.287C292.495 196.866 286.956 222.484 278.659 247.279C276.816 252.792 274.65 258.199 272.969 263.765C271.465 268.735 271.032 273.959 269.813 279.028C268.843 283.068 268.032 286.064 264.129 287.727C260.633 289.222 257.623 288.176 254.005 287.486C247.341 286.226 240.693 284.847 234.06 283.348C227.855 281.956 221.678 280.442 215.531 278.806C212.535 278.155 209.586 277.301 206.707 276.249C201.016 273.833 201.144 269.34 201.781 263.836C203.352 251.352 205.737 238.983 208.92 226.809C215.421 201.077 223.175 175.683 230.092 150.046C230.573 149.948 231.017 149.719 231.376 149.384C231.734 149.05 231.992 148.623 232.122 148.151C234.282 140.878 248.085 146.672 252.788 147.934L270.877 152.755L288.956 157.562C291.164 158.149 295.43 158.49 297.399 159.808C301.07 162.32 298.507 167.832 297.791 171.287ZM233.825 291.332C233.023 291.252 232.214 291.348 231.454 291.614C230.694 291.881 230.003 292.311 229.43 292.875C228.251 293.984 227.375 295.717 228.465 297.202L228.544 297.281C228.365 298.075 228.46 298.908 228.813 299.643C229.167 300.378 229.758 300.974 230.492 301.334C233.409 302.704 236.691 300.365 238.069 297.814C239.704 294.824 236.803 291.617 233.825 291.332ZM232.143 297.772C231.722 297.703 231.724 297.377 231.853 296.994C231.967 296.839 232.072 296.678 232.168 296.511C232.298 296.189 232.527 295.917 232.821 295.732C232.972 295.658 233.137 295.617 233.305 295.614C233.473 295.61 233.64 295.643 233.794 295.71C233.947 295.736 234.051 295.897 234.187 295.945L234.302 295.964C233.851 296.633 232.984 297.833 232.143 297.772ZM234.294 296.015C234.441 296.157 234.129 296.301 234.294 296.015V296.015ZM271.697 193.371C268.062 190.721 263.304 189.476 259.039 188.339C254.323 187.076 249.394 185.438 244.47 185.51C235.479 185.626 234.955 192.74 232.649 200.42C231.489 204.259 229.605 208.839 229.794 212.915C229.847 214.097 232.276 219.679 232.376 217.256C232.317 218.642 234.067 219.858 235.104 218.503C234.269 219.591 239.241 220.336 239.353 220.368C241.836 221.196 243.783 222.014 245.123 224.519C246.679 227.386 247.352 229.806 249.583 232.393C249.768 232.632 250.017 232.812 250.302 232.913C250.587 233.015 250.894 233.032 251.189 232.964C251.483 232.896 251.751 232.745 251.961 232.529C252.172 232.313 252.315 232.042 252.375 231.747C253.054 227.646 254.445 223.754 259.157 224.886C261.209 225.382 263.415 226.061 265.6 225.522C269.514 224.514 270.661 220.829 271.432 217.356C272.567 211.609 275.157 204.667 274.958 198.829C274.811 196 273.777 194.889 271.697 193.371ZM253.128 221.266C250.891 222.2 250.19 224.693 249.808 227.239C249.043 225.693 248.361 224.108 247.765 222.491C247.276 221.249 247.298 220.405 246.26 219.398C243.861 217.031 237.856 216.832 234.575 215.924C229.874 213.306 236.568 198.108 237.638 195.05C238.467 192.734 238.938 190.047 241.411 188.878C245.029 187.116 250.455 189.632 253.917 190.557C258.369 191.751 264.34 191.996 268.182 194.98C274.257 199.665 269.564 210.446 268.321 216.763C266.152 226.54 258.711 218.877 253.128 221.266Z" fill="#A661FF"/>
</g>
<g clip-path="url(#clip1_813_1369)">
<path d="M126.33 158.153C128.393 165.865 130.462 173.6 132.203 181.385C133.256 186.077 133.479 188.801 129.281 191.62C117.495 199.518 102.419 204.563 88.7931 208.132C73.8758 212 58.5023 213.826 43.0921 213.561C39.5764 213.501 39.6117 208.013 43.1306 208.084C58.4201 208.391 73.6776 206.592 88.4747 202.738C95.9416 200.777 103.261 198.29 110.377 195.297C115.199 193.248 127.581 189.658 127.608 183.855C127.643 180.631 125.906 176.502 125.14 173.354C124.374 170.205 123.606 167.146 122.817 164.054C121.131 157.469 119.376 150.907 117.551 144.367C113.953 131.672 110.033 119.083 105.793 106.601C103.476 99.7964 101.074 93.0193 98.5861 86.2692C96.3097 80.1206 94.1592 68.5856 87.0752 66.5702C83.7425 65.5888 78.0935 67.5681 74.6894 68.1623C71.6335 68.6886 68.5849 69.289 65.5489 69.9366C59.48 71.2436 53.4538 72.8049 47.5113 74.5843C40.8087 76.5923 34.2023 78.8656 27.7047 81.4514C24.278 82.811 20.8764 84.265 17.4907 85.778C15.0748 86.8545 11.616 87.7164 9.64439 89.5093C5.08934 93.6888 10.4012 106.226 11.645 111.537C13.0975 117.754 14.6259 123.972 16.2304 130.191C22.9978 156.435 31.1127 182.332 39.916 207.969C40.3641 209.267 38.3706 209.749 37.8879 208.512C24.7616 174.197 14.133 138.977 6.08549 103.128C5.02891 98.5643 2.21808 91.9766 5.78161 87.8218C8.90614 84.1514 15.4532 82.223 19.7144 80.2986C34.0799 73.9246 49.0558 69.0284 64.4117 65.6852C71.1558 64.2102 78.2756 62.5335 85.1979 62.1498C90.0374 61.8676 93.6045 63.5836 96.0619 67.8108C99.8792 74.3824 101.99 82.5113 104.575 89.5771C107.04 96.3334 109.421 103.125 111.718 109.951C117.056 125.877 121.927 141.944 126.33 158.153ZM19.9506 103.76C19.8024 103.549 19.7245 103.297 19.7282 103.039C19.7319 102.781 19.8168 102.531 19.971 102.325C21.7935 99.6785 24.2735 97.554 27.1666 96.1607C30.1209 94.8769 31.6462 96.8479 32.8169 99.3821C33.8211 101.53 35.6302 105.412 33.8965 107.622C33.0038 108.772 31.5657 108.828 30.2268 108.971C28.4949 109.243 26.7465 109.398 24.9935 109.434V109.434C25.0863 109.687 25.1561 109.948 25.202 110.214C25.4484 111.135 24.3418 112.241 23.4336 111.585C21.2096 109.978 20.3445 106.413 19.9506 103.76ZM24.695 101.517C23.9854 102.159 23.3269 102.855 22.7254 103.6C22.9 104.56 23.1525 105.504 23.4803 106.422C23.7263 106.089 24.0919 105.864 24.5003 105.795C25.6484 105.593 26.8084 105.465 27.973 105.411C28.9891 105.437 30.005 105.356 31.004 105.169C30.8853 104.115 30.6096 103.084 30.1858 102.111C29.9826 101.417 29.7217 100.742 29.4058 100.092C28.9417 99.2544 29.0375 99.1402 28.2631 99.2208C27.1309 99.3338 25.5034 100.807 24.695 101.517ZM88.7392 93.9523C91.0974 93.3215 90.1119 89.6369 87.7694 90.3268C72.4681 94.812 56.4137 98.1826 41.5054 103.853C41.2402 103.955 41.022 104.151 40.8929 104.404C40.7638 104.657 40.733 104.949 40.8065 105.224C40.88 105.498 41.0524 105.736 41.2906 105.891C41.5288 106.046 41.8158 106.106 42.0961 106.062C57.8165 103.616 73.4494 98.2446 88.7392 93.9523V93.9523ZM26.552 131.226C26.7052 129.059 29.4576 127.918 31.1536 127.173C33.1979 126.361 36.1745 126.058 37.4031 128.336C37.9308 129.648 38.3246 131.009 38.5786 132.4C38.9861 133.924 39.4643 135.428 39.9072 136.942C40.0264 137.424 39.9545 137.933 39.7066 138.363C39.4587 138.793 39.0541 139.109 38.5778 139.246C36.2796 140.102 33.9466 140.827 31.6674 141.753C30.3352 142.299 29.3432 141.236 29.1515 140.047C28.9201 140.037 28.6964 139.96 28.5064 139.827C28.3165 139.695 28.1682 139.51 28.0789 139.296C27.0007 136.746 26.4801 133.994 26.552 131.226V131.226ZM30.0118 138.02C30.1933 137.904 30.3916 137.817 30.5997 137.761C32.3801 137.285 34.1149 136.732 35.9118 136.176C35.5959 134.995 35.3626 133.792 35.0702 132.605C34.9249 132.061 34.851 130.651 34.4606 130.325C33.8017 129.704 32.9254 130.065 32.1834 130.315C31.3833 130.54 30.6245 130.893 29.9357 131.359C29.5752 131.667 29.305 132.068 29.1541 132.519C29.0031 132.969 28.977 133.452 29.0784 133.916C29.2112 135.298 29.5074 136.659 29.9606 137.97L30.0118 138.02ZM48.6465 137.73C65.99 132.661 83.8425 129.163 101.104 123.977C101.564 123.813 101.946 123.483 102.173 123.05C102.4 122.618 102.456 122.115 102.33 121.643C102.203 121.171 101.904 120.763 101.491 120.502C101.079 120.241 100.583 120.145 100.103 120.233C82.4686 122.799 64.6427 128.946 47.8757 134.849C46.082 135.417 46.7654 138.208 48.6307 137.671L48.6465 137.73ZM38.1284 170.914C36.9232 169.444 35.9535 167.795 35.2543 166.027C34.7969 164.883 33.9714 162.978 34.6847 161.724C35.398 160.471 37.8761 160.099 39.1959 159.695C40.7523 159.279 42.6037 158.265 44.2484 158.698C45.8931 159.131 46.8289 161.26 47.5737 162.769C48.3185 164.278 49.6925 166.581 49.6191 168.385C49.5821 169.022 49.345 169.631 48.9417 170.125C48.5385 170.62 47.9896 170.973 47.3734 171.137C45.175 172.081 42.8878 172.803 40.5459 173.292C40.2107 173.361 39.8635 173.346 39.5356 173.247C39.2077 173.148 38.9095 172.969 38.6678 172.726C38.426 172.483 38.2484 172.184 38.151 171.855C38.0535 171.527 38.0392 171.179 38.1094 170.843L38.1284 170.914ZM37.2724 163.652C37.3956 164.112 37.5188 164.573 37.6388 165.022C38.0731 166.571 38.744 168.043 39.6277 169.387C40.8068 169.072 42.115 168.861 43.3531 168.53C44.302 168.369 45.2336 168.12 46.1358 167.785C45.7451 166.19 45.1271 164.659 44.3008 163.24C43.6718 161.927 43.5417 161.583 42.0644 161.775C41.3333 161.92 40.6125 162.113 39.9066 162.352C39.0457 162.464 38.2075 162.709 37.4227 163.08C37.0178 163.125 36.955 163.268 37.2534 163.581L37.2724 163.652ZM105.571 149.179C89.8719 152.356 74.5434 157.147 59.8293 163.477C58.4273 164.093 59.4364 166.354 60.8686 165.945C76.1402 161.632 91.2512 157.097 106.633 153.147C109.182 152.427 108.129 148.634 105.555 149.12L105.571 149.179ZM48.5678 197.708C48.4605 197.826 48.329 197.921 48.1824 197.984C48.0357 198.048 47.8772 198.079 47.7174 198.076C47.5576 198.073 47.4002 198.037 47.2557 197.968C47.1112 197.899 46.983 197.801 46.8796 197.679C44.8307 195.584 43.6173 192.812 43.4682 189.885C43.4773 189.531 43.6042 189.191 43.8287 188.917C44.0532 188.644 44.3624 188.454 44.7072 188.377C47.1849 187.625 49.4159 185.763 52.1711 186.38C54.6729 186.9 55.4561 188.931 56.1388 191.153C56.8216 193.374 58.1055 195.954 56.7445 198.14C55.3835 200.327 52.712 200.636 50.5398 200.357C50.2288 200.331 49.9268 200.24 49.6538 200.088C49.3808 199.937 49.1431 199.729 48.9565 199.478C48.7699 199.227 48.6388 198.94 48.5718 198.635C48.5048 198.33 48.5034 198.014 48.5678 197.708V197.708ZM48.6703 195.871C48.8821 196.151 48.9762 196.503 48.9325 196.851C49.1241 196.653 49.3572 196.499 49.6152 196.402C49.8731 196.304 50.1494 196.265 50.4243 196.288C51.5975 196.328 53.5277 196.837 53.5832 195.202C53.4184 193.878 53.0719 192.582 52.5534 191.352C52.0954 189.64 51.1891 189.275 49.6108 189.798C48.585 190.073 47.6735 190.633 46.7028 191.019C46.8444 192.8 47.5315 194.495 48.6703 195.871V195.871ZM110.216 175.612C95.8031 181.53 81.0724 186.495 66.2156 191.178C65.8903 191.265 65.613 191.478 65.4447 191.769C65.2763 192.061 65.2307 192.408 65.3178 192.734C65.4049 193.06 65.6177 193.338 65.9093 193.506C66.2009 193.675 66.5474 193.721 66.8726 193.634C81.9778 189.934 96.7899 185.126 111.189 179.249C113.412 178.351 112.433 174.69 110.213 175.6L110.216 175.612Z" fill="#A661FF"/>
</g>
<g clip-path="url(#clip2_813_1369)">
<path d="M227.422 24.4643C223.428 26.043 219.496 27.8081 215.611 29.6594C212.459 20.3748 204.343 13.8724 193.606 10.6602C179.139 6.3722 164.782 13.7647 157.19 26.2004C150.809 36.6751 146.602 54.7148 157.489 62.8111C157.556 62.948 157.63 63.0808 157.712 63.209C166.043 74.9855 177.79 83.2005 192.546 77.8695C207.303 72.5386 214.964 56.8726 216.735 42.2757C217.072 39.5965 217.052 36.8844 216.675 34.2104C220.805 32.2158 224.939 30.2228 229.076 28.2313C229.501 27.9675 229.816 27.5592 229.965 27.0815C230.113 26.6038 230.084 26.0886 229.883 25.6306C229.681 25.1726 229.322 24.8026 228.87 24.5883C228.418 24.3741 227.904 24.33 227.422 24.4643V24.4643ZM198.406 68.7324C193.263 72.8773 186.244 75.2099 179.638 73.9865C171.651 72.5624 166.706 65.7959 161.756 60.014C161.546 59.753 161.286 59.5364 160.992 59.377C160.697 59.2175 160.374 59.1184 160.041 59.0854C159.707 59.0524 159.371 59.0862 159.051 59.1848C158.731 59.2834 158.434 59.4448 158.177 59.6596C147.429 49.8876 158.792 27.5684 168.184 20.1191C171.088 17.6929 174.482 15.9245 178.134 14.9356C181.786 13.9466 185.609 13.7606 189.34 14.3904C196.883 15.8441 206.886 20.9735 210.393 28.2063C210.904 29.3034 211.314 30.445 211.618 31.6169C202.659 35.9778 193.915 40.6922 184.929 44.8125C181.404 37.7453 178.411 30.4252 175.975 22.913C175.447 21.3555 172.694 22.107 173.139 23.7401C175.451 32.0966 178.533 40.2208 182.344 48.0087C182.55 48.4572 182.922 48.8082 183.382 48.9874C183.842 49.1667 184.353 49.1602 184.808 48.9692C194.112 45.0403 203.257 40.6848 212.377 36.2922C213.182 48.0951 206.524 62.1924 198.406 68.7324Z" fill="#A661FF"/>
</g>
<g clip-path="url(#clip3_813_1369)">
<path d="M280.005 89.4114C280.454 86.3671 285.259 86.3502 284.856 89.4643C283.82 97.6074 285.405 104.74 286.242 112.741C286.494 115.054 282.952 115.801 282.049 113.851C278.733 106.515 278.835 97.2065 280.005 89.4114ZM311.944 102.927L307.914 110.298C306.385 112.465 305.213 114.861 304.441 117.398C304.128 117.928 304.039 118.56 304.193 119.155C304.347 119.75 304.731 120.26 305.261 120.572C305.79 120.884 306.422 120.973 307.017 120.819C307.612 120.665 308.122 120.281 308.434 119.752C310.185 117.705 311.577 115.377 312.552 112.866L316.465 105.656C318.046 102.647 313.455 99.9402 311.944 102.927ZM334.794 125.883C332.144 127.497 329.67 129.383 327.41 131.509C325.041 133.533 323.078 135.989 321.625 138.745C320.536 141.228 323.436 144.263 325.656 141.931C327.549 139.965 328.961 137.601 330.899 135.635C332.853 133.68 335.009 131.937 337.332 130.439C340.147 128.598 337.609 124.066 334.749 125.79L334.794 125.883Z" fill="#A661FF"/>
</g>
<path d="M133.191 345.507C132.167 345.069 129.647 343.861 125.633 341.882C121.619 339.904 117.842 338.118 114.304 336.526C110.861 334.814 108.925 333.981 108.494 334.026L108.188 334.221C108.091 334.339 107.989 334.404 107.882 334.416C107.774 334.427 107.607 334.39 107.38 334.304C107.261 334.208 107.094 334.171 106.879 334.193C104.833 334.405 103.801 334.947 103.782 335.82C104.02 336.013 104.156 336.271 104.189 336.594L102.452 338.733L99.2213 339.067C98.6421 339.78 97.3296 340.243 95.2837 340.455C94.7453 340.51 94.3034 340.447 93.9581 340.265C93.7204 340.072 93.4939 339.987 93.2785 340.009C93.0632 340.031 92.859 340.161 92.6659 340.399C92.4617 340.529 92.3058 340.6 92.1981 340.611C91.9827 340.633 91.8639 340.537 91.8416 340.321L89.4188 340.572C89.4077 340.464 89.2777 340.26 89.0289 339.96C88.9212 339.971 88.7764 340.149 88.5945 340.494C88.5091 340.721 88.3588 340.845 88.1434 340.868L87.5919 340.272C87.3766 340.294 87.0591 340.381 86.6395 340.534C86.3277 340.675 86.1179 340.751 86.0102 340.762C85.4718 340.818 84.7125 340.842 83.7322 340.835C82.7408 340.72 81.922 340.696 81.276 340.762C81.1683 340.774 80.9585 340.85 80.6466 340.991C80.3347 341.132 80.0173 341.219 79.6942 341.253C79.0482 341.32 78.4819 341.106 77.9954 340.612C77.7393 341.292 77.5036 341.643 77.2882 341.665C76.8575 341.71 76.5233 341.636 76.2856 341.443L73.3783 341.744L73.2168 341.76L73.072 341.939C71.984 341.942 71.2247 341.967 70.794 342.011L70.7605 341.688C70.471 342.045 70.2185 342.234 70.0031 342.256C69.539 341.978 69.0915 341.861 68.6608 341.906C68.4454 341.928 68.128 342.015 67.7084 342.168C67.2888 342.32 66.9714 342.407 66.756 342.429C66.3253 342.474 66.0505 342.448 65.9317 342.352C65.8129 342.255 65.6996 342.212 65.5919 342.223L64.9626 342.452L64.3332 342.68C64.1179 342.703 63.676 342.64 63.0076 342.491C62.3393 342.343 61.7359 342.296 61.1975 342.352L61.1808 342.191C61.0731 342.202 60.8744 342.386 60.5849 342.742C60.2841 342.991 60.0261 343.126 59.8107 343.149C53.9626 343.428 47.5555 342.513 40.5895 340.405C33.7199 338.178 27.2921 334.436 21.306 329.179C15.4275 323.911 12.1203 317.723 11.3843 310.616C10.4698 301.786 11.0594 294.869 13.1531 289.863C13.8695 288.374 14.7364 286.761 15.7536 285.023C16.7596 283.178 18.4042 280.667 20.6874 277.492C22.9706 274.317 25.848 271.625 29.3195 269.415C32.7799 267.098 36.5021 265.733 40.4862 265.32C40.6458 264.76 41.8822 264.087 44.1954 263.304C46.6163 262.509 47.9771 261.987 48.2778 261.738C48.9127 261.564 50.0693 261.172 51.7476 260.563C53.4147 259.846 54.6678 259.335 55.5069 259.03C55.7223 259.008 55.8894 259.045 56.0082 259.142C56.372 258.451 57.2538 258.033 58.6537 257.888C58.869 257.866 59.0955 257.951 59.3332 258.144C59.5597 258.23 59.7268 258.267 59.8345 258.256C60.0498 258.233 60.5604 257.908 61.366 257.281C62.2682 256.534 63.2577 256.105 64.3345 255.994C64.4422 255.983 64.5016 256.031 64.5128 256.139C64.5239 256.246 64.5833 256.295 64.691 256.284L65.738 255.359C66.4472 254.85 67.238 254.605 68.1106 254.623L68.1942 255.431C68.4208 255.516 68.5878 255.553 68.6955 255.542C68.8997 255.412 69.0501 255.288 69.1466 255.169C69.3397 254.931 69.4845 254.753 69.581 254.634C69.6775 254.516 69.7796 254.451 69.8873 254.439C70.0915 254.309 70.409 254.222 70.8397 254.177C70.8843 254.608 71.122 254.801 71.5527 254.757C71.4227 254.552 71.5081 254.326 71.8088 254.077C72.2172 253.817 72.7983 253.648 73.5521 253.57C74.2947 253.384 74.9352 253.264 75.4736 253.208C76.012 253.152 76.658 253.085 77.4118 253.007L77.4285 253.169C77.8704 253.232 78.1452 253.258 78.2528 253.247C78.457 253.117 78.5536 252.998 78.5424 252.89C78.5201 252.675 78.5034 252.513 78.4922 252.405C78.5888 252.287 78.7985 252.21 79.1216 252.177C79.66 252.121 79.9403 252.201 79.9626 252.416C79.4577 252.795 79.157 253.044 79.0604 253.163L79.7065 253.096C80.1372 253.051 80.5029 252.905 80.8037 252.656C80.4695 252.582 80.2912 252.437 80.2689 252.221L80.7535 252.171C80.8612 252.16 81.2863 252.062 82.0289 251.876C82.7715 251.69 83.1911 251.538 83.2876 251.419C83.503 251.397 83.7295 251.482 83.9671 251.675L83.8056 251.692C83.9245 251.788 84.1992 251.814 84.6299 251.77C84.953 251.736 85.146 251.499 85.2091 251.057C86.5013 250.923 88.4283 250.615 90.9903 250.132C93.66 249.637 95.3717 249.351 96.1255 249.273L105.978 248.253C107.315 248.55 109.448 248.655 112.378 248.57C115.296 248.376 117.413 248.32 118.727 248.402C118.954 248.487 120.069 248.753 122.075 249.198C124.069 249.536 125.96 249.938 127.75 250.406C129.529 250.766 130.483 251.048 130.613 251.252L130.485 251.592L131.114 251.364C131.126 251.471 131.304 251.616 131.649 251.798C132.102 251.969 132.555 252.139 133.008 252.31C133.558 252.362 133.898 252.49 134.028 252.694L136.489 254.398C138.238 255.523 139.82 256.611 141.235 257.662C142.65 258.712 143.32 259.405 143.246 259.739C144.108 259.65 145.084 260.147 146.176 261.231C147.268 262.315 148.204 263.47 148.983 264.695L149.975 266.388C150.127 266.808 151.145 268.226 153.028 270.643C154.911 273.06 155.936 275.076 156.103 276.692C156.125 276.907 156.034 277.08 155.83 277.21C155.733 277.328 155.691 277.442 155.702 277.549C155.735 277.872 155.93 278.179 156.287 278.468C156.632 278.65 156.816 278.849 156.838 279.064C156.894 279.603 156.874 279.931 156.777 280.05C156.811 280.373 156.963 280.793 157.234 281.309C157.613 281.814 157.808 282.12 157.819 282.228C157.875 282.766 157.661 283.332 157.179 283.926L157.034 284.105C157.067 284.428 157.246 284.573 157.569 284.539L157.441 284.879C157.474 285.202 157.637 285.729 157.931 286.461C158.321 287.073 158.538 287.595 158.583 288.026C158.616 288.349 158.585 288.57 158.488 288.688C158.86 290.174 159.079 291.239 159.146 291.885L159.168 293.679C159.172 294.767 159.196 295.526 159.241 295.957L159.664 296.892C159.686 297.108 159.59 297.227 159.375 297.249L159.035 297.121C158.597 298.146 158.411 298.981 158.478 299.627C158.512 299.95 158.599 300.268 158.74 300.58C158.989 300.88 159.124 301.138 159.147 301.354C159.225 302.107 158.605 303.478 157.287 305.464L155.31 308.444L155.666 308.734L155.811 308.556C155.93 308.652 155.856 308.986 155.589 309.558C155.321 310.13 154.807 310.945 154.046 312.004C153.382 312.943 152.555 313.899 151.568 314.872C150.398 316.19 147.428 318.512 142.657 321.835C137.994 325.148 134.585 326.916 132.432 327.139C132.217 327.161 132.049 327.124 131.931 327.027C131.738 327.265 131.383 327.52 130.867 327.791C130.351 328.062 129.942 328.322 129.642 328.571C129.341 328.819 129.213 329.159 129.257 329.59C129.291 329.913 129.519 330.542 129.943 331.478C130.474 332.402 131.081 333.537 131.764 334.881C132.544 336.106 133.087 337.138 133.391 337.977C133.543 338.397 134.171 339.203 135.274 340.394C136.366 341.478 136.951 342.397 137.029 343.151C137.096 343.797 136.882 344.363 136.388 344.85C136.002 345.325 135.486 345.596 134.84 345.663C134.194 345.73 133.644 345.678 133.191 345.507ZM119.584 335.489L131.592 341.102L131.475 339.971C131.342 338.679 130.257 336.615 128.222 333.778C126.187 330.942 124.87 328.738 124.272 327.168L124.239 326.845C124.105 325.552 124.721 324.672 126.088 324.204C129.21 323.881 131.965 323.16 134.353 322.042C136.74 320.924 139.245 319.359 141.866 317.346C144.595 315.322 146.368 314.05 147.184 313.53C154.042 309.338 156.913 301.857 155.798 291.089C154.783 281.29 152.69 274.215 149.519 269.864C149.389 269.66 149.075 269.257 148.577 268.655C148.187 268.043 147.684 267.387 147.068 266.689C146.559 265.98 145.996 265.277 145.38 264.579C144.871 263.87 144.433 263.316 144.065 262.919L143.514 262.323C139.589 258.05 134.251 254.848 127.5 252.717C120.749 250.587 114.466 249.823 108.652 250.425L93.9536 251.947C92.5761 252.307 90.6007 252.675 88.0276 253.05C85.551 253.307 83.9414 253.528 83.1988 253.714C83.2322 254.037 84.6599 254.161 87.4819 254.086C90.2927 253.904 93.7013 253.714 97.7077 253.517C101.703 253.212 104.573 253.078 106.318 253.115C112.408 254.117 115.614 254.601 115.937 254.568C116.929 254.683 118.297 254.759 120.042 254.796C121.895 254.821 123.533 254.87 124.955 254.94C126.377 255.01 127.805 255.135 129.238 255.313C130.671 255.491 131.793 255.81 132.602 256.27C133.508 256.612 133.995 257.106 134.062 257.752C134.095 258.075 134.058 258.242 133.95 258.253C133.089 258.342 130.551 258.006 126.336 257.246C122.137 257.681 116.788 257.527 110.29 256.785C103.888 255.924 99.0726 255.661 95.8422 255.996L91.6427 256.431C76.783 257.97 63.7948 260.24 52.678 263.241C51.4082 263.591 49.5313 264.384 47.0474 265.62C44.6599 266.738 42.8313 267.472 41.5615 267.821C41.1754 268.296 40.0466 268.957 38.1753 269.804C36.4117 270.64 35.2607 271.085 34.7223 271.141C34.6592 271.583 34.3381 272.161 33.7589 272.874C33.1686 273.479 32.6581 273.804 32.2274 273.848C32.1197 273.86 31.9526 273.822 31.7261 273.737C31.4996 273.652 31.3325 273.615 31.2248 273.626C31.2583 273.949 31.1135 274.127 30.7904 274.16L31.275 274.11C31.0077 274.682 30.2818 275.029 29.0974 275.152C27.9129 275.275 27.3541 275.659 27.421 276.305C27.7441 276.272 27.9223 276.417 27.9558 276.74C27.592 277.43 26.5784 278.678 24.9152 280.483C23.3484 282.169 22.0805 283.062 21.1114 283.162L21.3063 283.468C21.3175 283.576 21.3286 283.684 21.3398 283.792C21.429 284.653 21.0429 285.128 20.1815 285.217L20.2761 284.555C19.7377 284.61 19.5019 284.961 19.5688 285.607C19.6246 286.146 19.5504 286.48 19.3462 286.61L18.973 286.159C18.3603 286.549 18.0931 287.121 18.1711 287.874L18.4942 287.841C15.7398 294.874 14.5634 300.329 14.9648 304.205L15.6507 310.827L15.3778 311.345C15.5189 311.657 15.7381 312.723 16.0354 314.542C16.4292 316.243 16.886 317.502 17.406 318.318C20.1579 322.822 23.4778 326.505 27.3658 329.367C31.2538 332.23 35.0098 334.344 38.634 335.71C42.247 336.968 46.6824 337.761 51.9402 338.087C57.3057 338.402 61.7224 338.489 65.1905 338.347C68.755 338.087 73.4985 337.65 79.4208 337.037C90.4041 335.899 100.312 333.839 109.146 330.856C110.438 330.723 112.352 331.341 114.888 332.71C117.413 333.973 118.978 334.899 119.584 335.489ZM23.9712 306.048C23.6478 302.925 23.5992 299.828 23.8253 296.757C24.148 293.568 25.1335 290.473 26.7818 287.472C28.4301 284.472 30.8156 282.81 33.9383 282.487C38.0301 282.063 41.7396 283.203 45.0669 285.905C48.383 288.5 50.2473 291.79 50.6599 295.774C51.0056 299.112 50.8612 302.447 50.2266 305.777C49.6997 309.097 48.3374 312.231 46.1396 315.179C43.9417 318.128 41.0661 319.786 37.5127 320.154C29.5444 320.979 25.0306 316.277 23.9712 306.048ZM57.3737 316.465C57.2511 315.28 56.835 313.364 56.1255 310.717C55.4048 307.962 54.972 305.884 54.827 304.485L54.9886 304.468C55.0666 305.222 55.1762 305.754 55.3173 306.066C55.4769 305.506 55.4954 304.633 55.3727 303.449L55.0163 303.159C55.0274 303.267 54.9903 303.434 54.9049 303.66C54.9272 303.876 54.8901 304.043 54.7936 304.162C54.7378 303.623 54.5502 302.337 54.2306 300.302C53.8999 298.159 53.5951 295.742 53.3164 293.05L53.0487 290.466C52.5915 286.051 52.4148 283.294 52.5187 282.195C52.7302 281.085 53.5359 280.457 54.9357 280.312C56.1202 280.19 58.3129 281.921 61.5141 285.508C64.7152 289.094 66.3715 291.426 66.483 292.503L69.0454 295.176C69.7583 295.755 70.3302 296.023 70.7609 295.978C71.1916 295.933 71.3903 295.749 71.3568 295.426L77.1814 283.885C77.1256 283.347 78.0574 281.836 79.9768 279.351C81.9928 276.748 83.5391 275.391 84.6159 275.279C85.1543 275.224 85.6779 275.55 86.1867 276.259C86.3278 276.571 87.1154 279.973 88.5494 286.463C89.9722 292.846 90.7283 296.468 90.8175 297.329L90.6559 297.346C90.8121 298.853 91.321 301.141 92.1828 304.207C93.0446 307.274 93.4922 308.969 93.5257 309.292C93.2807 310.08 92.8519 310.668 92.2393 311.058C91.6155 311.34 91.2665 311.649 91.1923 311.983C90.5462 312.05 90.1953 311.814 90.1395 311.276L84.3164 286.575C84.2161 285.606 83.8428 285.155 83.1968 285.221C82.9814 285.244 82.5192 285.509 81.81 286.018C81.1009 286.527 80.5848 286.798 80.2617 286.831C80.1541 286.843 79.7699 287.862 79.1092 289.889L78.1014 292.769C78.0679 292.446 77.9379 292.242 77.7114 292.156C77.5184 292.394 77.1546 293.085 76.62 294.228C76.0854 295.372 75.8349 296.105 75.8684 296.428C75.8795 296.536 75.9389 296.584 76.0466 296.573C76.262 296.551 76.3529 296.378 76.3194 296.055C76.3825 295.613 76.4623 295.333 76.5588 295.214L76.7371 295.359C76.8152 296.113 76.4569 296.857 75.6624 297.593C74.9644 298.209 74.5245 298.69 74.3426 299.035C74.5802 299.228 74.7696 299.481 74.9107 299.793C75.0407 299.997 75.1651 300.147 75.284 300.244L75.3007 300.405C75.3676 301.051 75.0149 301.85 74.2427 302.8C73.4705 303.751 72.4922 304.288 71.3077 304.41C70.4463 304.5 69.8317 304.346 69.4641 303.948L62.0885 292.632C61.9697 292.535 61.6726 292.294 61.1973 291.908C60.8185 291.403 60.3915 290.957 59.9161 290.571C59.4408 290.185 59.0899 289.949 58.8634 289.864C58.6703 290.101 58.6797 291.243 58.8916 293.289C58.9028 293.397 59.384 296.993 60.3354 304.077C60.6919 304.367 60.8924 304.727 60.937 305.158C60.9482 305.266 60.9167 305.486 60.8424 305.821C60.8647 306.036 60.887 306.251 60.9093 306.467C60.9428 306.79 61.0784 307.048 61.316 307.241L62.1686 310.744L62.0405 311.084C61.5875 310.913 61.3164 310.397 61.2272 309.536C60.7222 309.914 60.5199 310.588 60.6203 311.557L61.0887 316.08L60.5095 316.793C59.002 316.949 57.9567 316.84 57.3737 316.465ZM100.364 296.504C100.252 295.427 100.204 293.908 100.218 291.948C100.222 289.879 100.379 287.197 100.691 283.899C101.002 280.602 101.849 277.739 103.23 275.311C104.718 272.871 106.593 271.534 108.855 271.3C110.47 271.133 111.328 271.534 111.428 272.503C111.473 272.933 111.174 273.726 110.532 274.881C109.889 276.036 109.236 277.083 108.571 278.023L107.591 279.593C107.387 279.723 107.114 280.241 106.773 281.147C106.528 281.935 106.205 283.546 105.804 285.982C105.511 288.407 105.365 291.197 105.365 294.353C105.376 294.461 105.393 294.622 105.415 294.838C105.545 295.042 105.616 295.198 105.627 295.306C105.649 295.521 105.607 295.634 105.499 295.645L105.649 297.099L105.956 296.904C106.034 297.658 105.971 298.1 105.767 298.23C105.711 297.691 105.468 297.444 105.037 297.489L104.926 297.99L104.586 297.862C104.708 299.047 105.019 299.94 105.516 300.541C106.003 301.035 106.268 301.497 106.313 301.928C106.369 302.466 106.235 302.752 105.912 302.786C105.979 303.432 106.185 303.846 106.53 304.028L106.385 304.206C106.72 304.28 106.903 304.479 106.937 304.802C107.784 306.673 108.504 307.85 109.098 308.333C109.693 308.815 110.879 309.237 112.658 309.597C114.703 309.385 116.367 309.158 117.648 308.916C118.918 308.567 120.23 308.105 121.586 307.529C123.037 306.835 124.084 305.91 124.726 304.755C125.358 303.493 125.584 302 125.405 300.277C125.205 298.339 122.843 297.604 118.321 298.072C117.782 298.128 116.991 298.373 115.948 298.808C114.894 299.135 114.043 299.331 113.397 299.398C111.997 299.543 111.219 298.862 111.063 297.355C110.941 296.17 112.299 295.104 115.14 294.157C118.088 293.199 120.962 292.575 123.762 292.285C125.054 292.151 126.175 292.47 127.126 293.242C128.065 293.907 128.602 294.885 128.736 296.177C129.081 296.359 129.48 296.536 129.933 296.706C130.375 296.769 130.709 296.844 130.936 296.929C131.162 297.014 131.281 297.111 131.292 297.219C131.07 298.221 130.541 299.419 129.705 300.811C129.523 301.157 129.386 301.933 129.293 303.139C129.308 304.335 129.171 305.111 128.882 305.468C129.027 306.867 127.009 308.927 122.828 311.645C118.636 314.256 115.248 315.695 112.664 315.963C105.88 316.665 101.78 310.179 100.364 296.504ZM29.2229 301.586C29.379 303.093 30.575 306.234 32.8109 311.009C33.7653 312.869 36.2885 313.588 40.3803 313.164C42.9646 312.896 44.7077 310.811 45.6095 306.908C46.619 302.995 46.9565 299.423 46.622 296.192C46.3878 293.931 44.8986 291.636 42.1543 289.309C39.3989 286.873 37.1059 285.75 35.2754 285.94C30.2144 286.464 28.197 291.679 29.2229 301.586ZM135.307 290.273L129.579 269.643L129.412 268.028C129.52 268.017 129.713 267.779 129.991 267.315C130.377 266.84 130.775 266.472 131.183 266.212C131.58 265.845 131.994 265.638 132.425 265.594C133.932 265.438 135.332 266.871 136.625 269.893C138.014 272.797 138.865 275.756 139.177 278.771C139.199 278.986 139.173 279.261 139.099 279.595C139.132 279.918 139.155 280.134 139.166 280.241C140.629 282.811 141.478 285.226 141.712 287.487C142.024 290.502 141.588 292.071 140.404 292.194C139.004 292.339 138.072 292.272 137.608 291.994L135.307 290.273ZM139.887 306.124C139.876 306.016 139.755 305.375 139.525 304.202C139.284 302.921 139.152 302.173 139.129 301.958C138.895 299.696 139.909 298.449 142.17 298.214C143.677 298.058 144.593 299.542 144.916 302.664C145.284 306.218 144.715 308.072 143.207 308.229C141.807 308.373 140.701 307.672 139.887 306.124Z" fill="#A661FF"/>
<defs>
<clipPath id="clip0_813_1369">
<rect width="112.115" height="191.147" fill="white" transform="translate(212.2 114.848) rotate(9.40168)"/>
</clipPath>
<clipPath id="clip1_813_1369">
<rect width="102.479" height="144.166" fill="white" transform="translate(0 82.6495) rotate(-14.9754)"/>
</clipPath>
<clipPath id="clip2_813_1369">
<rect width="68.9863" height="69.6285" fill="white" transform="translate(166.675) rotate(21.2971)"/>
</clipPath>
<clipPath id="clip3_813_1369">
<rect width="55.2292" height="59.5949" fill="white" transform="translate(338.998 87.7441) rotate(90.6246)"/>
</clipPath>
</defs>
</svg>
