<svg width="356" height="209" viewBox="0 0 356 209" fill="none" xmlns="http://www.w3.org/2000/svg">
<path d="M285.317 132.166H281.848C281.559 132.455 281.198 132.6 280.764 132.6C280.186 132.6 279.68 132.455 279.247 132.166C278.813 131.877 278.452 131.733 278.163 131.733H273.826C273.826 132.022 273.682 132.166 273.393 132.166C273.248 132.166 273.031 132.094 272.742 131.95C272.453 131.805 272.164 131.733 271.875 131.733C268.984 131.733 264.576 131.805 258.649 131.95C252.723 132.094 248.243 132.166 245.207 132.166C244.918 132.166 244.557 132.094 244.123 131.95C243.834 131.805 243.473 131.733 243.039 131.733H225.477C224.321 131.444 222.948 131.299 221.358 131.299C212.396 131.299 205.603 130.721 200.978 129.565C196.352 128.264 190.571 125.012 183.633 119.808C181.031 119.808 177.49 116.628 173.009 110.268C168.528 103.909 166.215 100.729 166.071 100.729C164.047 100.729 161.084 101.451 157.181 102.897C153.423 104.342 150.46 105.065 148.292 105.065C147.714 105.065 147.064 104.631 146.341 103.764C145.618 102.752 145.257 101.885 145.257 101.162L145.474 100.729L150.677 93.3571C151.255 91.189 152.99 88.4427 155.881 85.1182C158.916 81.7938 160.434 79.6979 160.434 78.8307C160.434 78.397 160.434 77.6021 160.434 76.4457C160.578 75.2894 160.65 74.4944 160.65 74.0608C160.65 71.8927 159.928 68.4237 158.482 63.6538C157.181 58.7394 156.531 55.0536 156.531 52.5964C156.531 44.3576 158.338 37.0582 161.951 30.6984C165.565 24.194 170.118 19.1351 175.611 15.5216C181.103 11.7635 187.535 8.72813 194.907 6.41546C202.278 3.95826 209.289 2.3683 215.938 1.6456C222.586 0.778351 229.308 0.344727 236.101 0.344727C241.738 0.344727 250.338 0.922894 261.902 2.07923H266.888L297.025 4.46415C303.674 4.46415 310.323 4.97005 316.972 5.98184C317.261 5.98184 317.839 6.05411 318.706 6.19865L320.007 6.41546C320.296 6.41546 320.513 6.34319 320.658 6.19865L330.631 9.23402C340.749 12.2694 349.06 25.2058 355.564 48.0434V52.5964C355.854 52.8855 355.998 53.3914 355.998 54.1141C355.998 56.1377 355.854 58.089 355.564 59.968C355.42 61.7025 355.348 63.0034 355.348 63.8706L355.564 64.0875C355.564 72.4708 354.842 80.2038 353.396 87.2863C353.396 87.4309 353.035 88.804 352.312 91.4058C351.734 93.863 350.867 96.6092 349.711 99.6446C348.699 102.535 347.831 104.342 347.109 105.065C347.109 105.499 346.603 106.366 345.591 107.667C344.724 108.823 343.857 109.907 342.989 110.919C342.122 111.786 341.616 112.22 341.472 112.22L341.038 111.569L340.821 112.003C340.821 112.437 340.749 112.87 340.604 113.304C340.46 113.593 340.171 113.81 339.737 113.954V113.304C333.377 121.398 324.199 126.891 312.202 129.781C311.913 129.781 311.407 129.854 310.684 129.998C309.962 130.143 309.528 130.215 309.383 130.215V130.866C309.094 130.432 308.805 130.215 308.516 130.215C307.649 130.215 307.215 130.36 307.215 130.649C306.926 130.793 304.397 131.155 299.627 131.733C299.627 131.877 298.977 132.022 297.676 132.166C296.375 132.166 294.929 132.239 293.339 132.383C291.894 132.528 290.954 132.745 290.521 133.034H290.304L290.521 132.6C290.376 132.6 290.015 132.672 289.437 132.817C289.003 132.961 288.714 133.034 288.57 133.034C286.98 133.034 285.896 132.745 285.317 132.166ZM287.052 125.228L298.977 125.445C300.711 125.012 303.53 124.65 307.432 124.361C311.335 124.072 314.659 123.422 317.406 122.41C323.476 120.097 328.246 117.423 331.715 114.388C335.184 111.352 338.219 106.799 340.821 100.729C340.966 100.44 341.472 99.8614 342.339 98.9942C343.206 97.9824 343.64 96.9706 343.64 95.9588C343.784 96.2479 343.929 96.537 344.073 96.8261C344.363 96.9706 344.507 97.1874 344.507 97.4765C344.507 97.7656 344.363 98.1992 344.073 98.7774C343.929 99.3555 343.857 99.7891 343.857 100.078C344.001 100.078 344.218 99.6446 344.507 98.7774C344.941 97.9101 345.23 97.4765 345.374 97.4765C349.855 85.1905 352.095 71.2422 352.095 55.6318C352.095 54.3309 351.734 51.5846 351.011 47.3929C350.433 43.0567 348.771 37.4918 346.025 30.6984C343.423 23.905 340.099 19.2074 336.051 16.6056C334.606 16.172 333.883 15.5938 333.883 14.8711C333.883 14.7266 333.883 14.582 333.883 14.4375V14.2207C332.293 13.0644 330.125 12.2694 327.379 11.8358C324.633 11.2576 320.296 10.7517 314.37 10.3181C308.589 9.73991 305.047 9.37856 303.746 9.23402C300.277 9.23402 295.508 9.59537 289.437 10.3181C283.511 10.8962 280.403 11.1853 280.114 11.1853L268.84 11.6189C267.828 12.1971 266.527 12.4862 264.937 12.4862C262.769 12.4862 259.444 12.3417 254.964 12.0526C250.627 11.619 247.448 11.4021 245.424 11.4021C242.389 11.4021 240.871 10.6794 240.871 9.23402C240.726 9.37856 240.582 9.66764 240.437 10.1013C240.293 10.5349 240.22 10.824 240.22 10.9685C239.064 10.9685 237.257 10.6794 234.8 10.1013C232.343 9.5231 230.464 9.23402 229.163 9.23402C228.44 9.23402 227.356 9.66764 225.911 10.5349C224.465 11.2576 223.309 11.6189 222.442 11.6189C222.153 11.6189 221.647 11.6189 220.924 11.6189C220.202 11.4744 219.623 11.4021 219.19 11.4021C216.877 11.4021 213.119 11.8358 207.916 12.703C202.857 13.5703 199.098 14.0039 196.641 14.0039C192.739 14.0039 187.318 15.6661 180.38 18.9906C173.442 22.315 168.962 26.2899 166.938 30.9152C162.457 41.0331 160.217 49.561 160.217 56.499C160.217 60.1126 161.951 67.6287 165.42 79.0475L166.288 82.0829V84.9014C166.288 85.7686 164.047 88.0813 159.566 91.8394C155.23 95.5975 153.062 97.7656 153.062 98.3437L152.412 99.4278L165.204 95.9588H167.588C168.456 95.9588 169.323 96.3202 170.19 97.0429C171.057 97.7656 171.925 98.7774 172.792 100.078C173.804 101.235 174.454 101.957 174.743 102.246C177.634 106.583 182.838 111.714 190.354 117.64C194.112 120.531 200.399 121.976 209.216 121.976C211.963 121.976 216.227 122.193 222.008 122.627C227.79 122.916 232.126 123.06 235.017 123.06C236.173 123.06 237.836 123.205 240.004 123.494C242.172 123.783 243.834 123.928 244.99 123.928C256.987 123.928 267.25 124.289 275.778 125.012L287.052 125.228ZM203.796 94.0075V90.9721C203.796 90.6831 203.218 88.804 202.062 85.335C200.905 81.7215 199.604 77.7466 198.159 73.4104C196.858 68.9296 195.991 65.6051 195.557 63.437C195.557 64.7379 195.413 65.3883 195.124 65.3883L194.69 68.2069C194.545 70.2305 194.256 72.6154 193.823 75.3617C193.389 78.108 192.883 80.8542 192.305 83.6005C191.871 86.3468 191.293 88.7318 190.571 90.7553C189.848 92.6344 189.053 93.5739 188.186 93.5739C187.463 93.5739 186.307 93.2848 184.717 92.7066C183.127 92.1285 182.259 91.6226 182.115 91.1889C181.826 91.1889 181.464 89.8158 181.031 87.0695C180.742 84.1787 180.38 80.4206 179.947 75.7953C179.513 71.17 179.152 66.6892 178.863 62.353C178.574 57.8722 178.212 53.3191 177.779 48.6938C177.49 43.9239 177.273 40.8163 177.128 39.3709C177.128 39.2263 176.911 38.07 176.478 35.9019C176.044 33.5892 175.827 31.927 175.827 30.9152C175.827 30.1925 176.261 29.5421 177.128 28.9639C177.995 28.2412 178.646 27.8799 179.08 27.8799C180.669 27.8799 181.97 30.2648 182.982 35.0346C184.138 39.66 184.717 43.8517 184.717 47.6097L186.668 67.9901C187.535 67.9901 188.475 64.8102 189.486 58.4503C190.498 51.946 191.004 47.3207 191.004 44.5744C191.004 43.8517 191.004 43.2735 191.004 42.8399C191.149 42.4063 191.366 42.0449 191.655 41.7558C191.944 41.3222 192.16 41.1054 192.305 41.1054C192.45 40.9608 192.739 40.744 193.172 40.4549C193.75 40.1659 194.112 39.949 194.256 39.8045C195.702 40.9608 197.87 46.3089 200.761 55.8486C201.339 58.1613 201.917 61.1244 202.495 64.7379C203.073 68.2069 203.507 70.6641 203.796 72.1095C203.941 72.1095 204.663 69.0741 205.964 63.0034C207.265 56.9327 208.566 50.7174 209.867 44.3576C211.312 37.8532 212.252 34.2397 212.685 33.517C212.83 33.0833 213.914 32.1438 215.938 30.6984C217.961 29.253 219.19 28.5303 219.623 28.5303C220.491 28.5303 220.924 29.3253 220.924 30.9152C220.924 33.3724 220.346 37.4918 219.19 43.2735C218.033 49.0551 217.311 52.1628 217.022 52.5964C216.877 52.3073 216.805 51.946 216.805 51.5123L216.588 50.8619C216.733 53.1746 216.805 54.6923 216.805 55.415C216.805 58.5949 215.648 63.9429 213.336 71.4591C211.168 78.9752 210.084 84.3955 210.084 87.72C210.084 88.7317 209.722 89.9603 209 91.4058C208.421 92.7066 208.132 93.4293 208.132 93.5739L205.314 94.4411L203.796 94.0075ZM254.313 71.0254V69.2909C254.313 69.0019 254.386 67.4119 254.53 64.5211C254.819 61.6303 255.181 58.884 255.614 56.2822C256.048 53.5359 256.626 50.6451 257.349 47.6097C258.216 44.5744 259.444 42.1172 261.034 40.2381C262.769 38.3591 264.72 37.4196 266.888 37.4196C267.177 37.4196 267.539 37.6364 267.972 38.07C268.406 38.5036 268.695 38.7205 268.84 38.7205C269.273 38.7205 269.707 38.6482 270.141 38.5036C270.719 38.2146 271.225 38.07 271.658 38.07C272.092 38.07 272.453 38.2146 272.742 38.5036C272.742 37.9255 273.031 37.6364 273.61 37.6364C278.813 37.6364 281.415 42.6231 281.415 52.5964C281.415 54.7645 281.126 57.7276 280.548 61.4857C280.114 65.2438 279.897 67.5564 279.897 68.4237C279.897 68.7128 279.969 69.0741 280.114 69.5077V70.375C280.114 70.5195 279.969 71.17 279.68 72.3263C279.536 73.3381 279.391 73.9885 279.247 74.2776H279.03C278.741 76.1566 278.307 78.2525 277.729 80.5652C277.295 82.8778 276.5 85.6241 275.344 88.804C274.332 91.9839 272.815 94.6579 270.791 96.8261C268.912 98.8496 266.744 99.8614 264.287 99.8614C260.673 99.8614 258.071 96.8261 256.481 90.7553C255.036 84.54 254.313 77.9634 254.313 71.0254ZM282.065 95.9588C282.065 95.6697 282.065 95.2361 282.065 94.6579C282.21 93.9352 282.354 93.2125 282.499 92.4898C282.788 91.7671 282.932 91.2612 282.932 90.9721C286.401 74.7835 288.497 64.0875 289.22 58.884C290.087 53.6805 290.521 48.1156 290.521 42.1894C290.521 40.744 291.027 38.5036 292.039 35.4683C293.195 32.4329 294.857 30.9152 297.025 30.9152C297.748 30.9152 298.471 31.6379 299.193 33.0833C300.061 34.3842 301 36.4801 302.012 39.3709C303.024 42.1172 303.602 43.5626 303.746 43.7071C304.035 44.2853 304.325 45.4416 304.614 47.1761C304.903 48.9106 305.192 50.5728 305.481 52.1628C305.77 53.6082 306.131 54.4755 306.565 54.7645V57.1495C306.854 58.1613 307.504 61.9193 308.516 68.4237C309.528 74.928 311.624 82.8055 314.804 92.0562V95.9588H312.202L309.383 92.4898C308.95 92.4898 308.661 92.8512 308.516 93.5739C308.372 94.152 308.155 94.4411 307.866 94.4411C307.288 94.4411 306.637 92.4898 305.915 88.5872C305.192 84.6846 304.325 82.7333 303.313 82.7333C302.012 82.7333 298.109 83.3837 291.605 84.6846C290.738 84.6846 290.16 87.0695 289.87 91.8394C289.581 96.6092 288.859 99.1387 287.702 99.4278L286.618 98.9942H286.401C286.257 99.1387 286.112 99.211 285.968 99.211L284.884 98.9942C284.306 98.7051 283.655 98.3437 282.932 97.9101C282.354 97.332 282.065 96.6815 282.065 95.9588ZM241.738 84.0341C241.738 82.7333 241.81 80.782 241.955 78.1802C242.1 75.434 242.172 73.4104 242.172 72.1095C242.172 70.375 241.955 69.5077 241.521 69.5077C241.232 72.254 239.931 73.6272 237.619 73.6272C237.185 73.6272 236.607 73.6272 235.884 73.6272C235.162 73.4826 234.656 73.4104 234.367 73.4104C233.355 73.4104 232.777 73.6994 232.632 74.2776V74.4944L231.114 79.2643C231.114 79.8425 231.114 80.8542 231.114 82.2997C231.259 83.7451 231.331 84.8291 231.331 85.5518C231.331 91.478 229.958 94.4411 227.212 94.4411L225.477 92.4898V92.7066L225.694 92.9234C225.694 93.068 225.55 93.068 225.26 92.9234C224.971 92.7789 224.682 92.5621 224.393 92.273C224.104 91.9839 223.96 91.5503 223.96 90.9721C223.96 88.804 224.176 85.4073 224.61 80.782C225.188 76.1566 225.477 72.6877 225.477 70.375C225.622 69.2187 225.694 66.8337 225.694 63.2202C225.839 59.6067 225.983 56.1377 226.128 52.8132C226.272 49.4888 226.561 46.0921 226.995 42.6231C227.429 39.0095 228.007 36.191 228.729 34.1674C229.597 31.9993 230.608 30.9152 231.765 30.9152C232.777 30.9152 233.355 31.4934 233.499 32.6497H233.933C234.077 32.5052 234.222 32.4329 234.367 32.4329C235.667 32.4329 236.318 34.0951 236.318 37.4196C236.318 40.744 236.173 42.7676 235.884 43.4903L235.017 54.3309C233.427 58.089 232.632 61.6302 232.632 64.9547C232.632 65.5329 233.138 65.822 234.15 65.822C235.017 65.822 236.39 65.6774 238.269 65.3883C240.148 65.0992 241.594 64.9547 242.605 64.9547C242.894 64.3765 243.039 63.3647 243.039 61.9193C243.184 60.4739 243.328 59.6067 243.473 59.3176L247.158 30.9152C247.448 28.8916 248.243 27.8799 249.543 27.8799L250.627 30.9152C250.627 32.2161 250.555 33.806 250.411 35.6851C250.411 37.4196 250.411 38.7927 250.411 39.8045C250.411 40.0936 250.411 40.6718 250.411 41.539C250.555 42.2617 250.627 42.8399 250.627 43.2735C250.627 48.1879 250.049 55.5595 248.893 65.3883C247.737 75.2171 247.158 82.5887 247.158 87.5031C247.158 88.6595 247.231 90.1772 247.375 92.0562C247.664 93.9352 247.809 95.0916 247.809 95.5252C247.809 95.8143 247.592 95.9588 247.158 95.9588C243.545 95.9588 241.738 91.9839 241.738 84.0341ZM320.658 65.3883V64.5211C320.802 64.232 320.947 62.5698 321.091 59.5344C321.236 56.499 321.308 54.7645 321.308 54.3309V50.2115C321.308 32.2884 321.959 23.3268 323.259 23.3268C323.549 23.3268 323.91 23.8327 324.344 24.8445C324.777 24.5554 325.283 23.6159 325.861 22.0259C326.439 20.436 327.451 19.641 328.897 19.641C330.487 19.641 331.282 21.1587 331.282 24.194V30.9152C329.981 40.4549 329.33 50.356 329.33 60.6185L329.113 61.4857C329.113 65.5329 329.041 68.5682 328.897 70.5918C327.451 71.4591 326.728 72.6877 326.728 74.2776C326.728 75.0003 326.801 75.7953 326.945 76.6625C327.09 77.3852 327.162 77.9634 327.162 78.397C327.162 80.4206 326.439 81.4324 324.994 81.4324C322.103 81.4324 320.658 76.0844 320.658 65.3883ZM261.902 76.0121C262.046 76.1567 262.118 76.6625 262.118 77.5298C262.118 78.397 262.48 80.782 263.203 84.6846C263.925 88.4427 264.503 90.3217 264.937 90.3217C265.804 90.3217 267.033 89.0208 268.623 86.4191C270.213 83.8173 271.152 81.9383 271.441 80.782C272.02 79.192 272.453 77.3853 272.742 75.3617C273.176 73.3381 273.537 71.0977 273.826 68.6405C274.115 66.1833 274.404 64.3043 274.694 63.0034C275.416 60.1126 275.778 57.2217 275.778 54.3309C275.778 48.2602 274.188 45.2248 271.008 45.2248C268.84 45.2248 267.033 45.8752 265.587 47.1761C264.287 48.477 263.347 50.7174 262.769 53.8973C262.335 57.0772 262.046 59.7512 261.902 61.9193C261.902 64.0874 261.902 67.6287 261.902 72.5431V76.0121ZM294.857 69.7246C293.556 73.6272 292.906 76.7348 292.906 79.0475C296.23 77.7466 299.41 77.0962 302.446 77.0962C302.446 75.6507 301.723 72.1095 300.277 66.4724C298.832 60.8353 297.965 57.9444 297.676 57.7999C297.242 59.1008 296.736 61.1243 296.158 63.8706C295.724 66.4724 295.291 68.4237 294.857 69.7246ZM323.91 95.9588C323.91 91.9116 325.211 89.8881 327.813 89.8881C329.402 89.8881 330.197 92.7066 330.197 98.3437C330.197 101.813 328.897 103.547 326.295 103.547C324.705 103.547 323.91 101.018 323.91 95.9588ZM243.473 5.3314L236.318 6.19865C238.197 6.34319 239.859 6.48773 241.305 6.63227C242.75 6.77682 243.834 6.84909 244.557 6.84909L244.99 6.41546C247.158 6.41546 250.266 6.63227 254.313 7.0659C258.505 7.35498 261.613 7.49952 263.636 7.49952C264.214 7.49952 264.648 7.42725 264.937 7.28271C259.3 5.98184 252.145 5.3314 243.473 5.3314Z" fill="#059034"/>
<path d="M88.9952 202.113C89.0045 201.85 88.9548 201.387 88.8462 200.724C88.7376 200.061 88.6902 199.533 88.7041 199.138C88.7547 197.69 89.4819 195.739 90.8855 193.285C92.1621 190.694 92.8281 188.609 92.8833 187.029C92.9064 186.371 92.53 185.831 91.7541 185.409C90.7013 185.372 89.3171 185.389 87.6015 185.461C85.886 185.533 84.5676 185.552 83.6464 185.52C81.8038 185.456 79.1809 185.1 75.7774 184.454C72.374 183.808 70.6838 183.156 70.7069 182.498C70.7391 181.576 71.1073 180.469 71.8114 179.176C72.3885 177.747 72.6886 176.703 72.7116 176.045C72.7807 174.071 70.19 172.795 64.9395 172.215C59.6935 171.505 56.9458 170.947 56.6964 170.543L56.731 169.556C57.262 169.443 59.1875 167.139 62.5073 162.643C65.6956 158.142 68.3426 155.929 70.4483 156.003C72.1593 156.063 74.5608 158.98 77.6529 164.754C80.6135 170.524 82.8834 173.436 84.4627 173.492C86.1736 173.552 88.5067 172.777 91.462 171.167C94.4219 169.426 96.6915 168.583 98.2708 168.638C99.2868 169.728 100.405 171.678 101.624 174.488C102.843 177.298 104.074 179.778 105.316 181.93C106.432 183.946 107.713 184.979 109.161 185.03L112.164 183.949C116.83 182.399 119.967 181.257 121.574 180.523L124.282 182.199L133.561 193.79C134.037 195.256 135.169 196.811 136.956 198.455C139.062 198.529 141.002 197.674 142.778 195.891C144.421 194.104 145.675 192.172 146.538 190.093C147.27 188.011 148.147 185.538 149.17 182.675C150.061 179.807 150.652 177.983 150.943 177.202C151.088 176.812 151.247 176.027 151.421 174.847C151.462 173.663 151.626 172.746 151.912 172.097L152.313 160.647C151.941 159.975 151.67 158.319 151.499 155.677C151.196 153.031 150.605 151.1 149.725 149.883C147.217 146.238 143.513 142.88 138.613 139.809C133.714 136.739 128.732 134.127 123.668 131.973C118.605 129.819 115.494 128.327 114.337 127.495C112.391 126.637 110.9 125.926 109.866 125.362C108.7 124.794 107.87 124.041 107.376 123.101C106.886 122.03 106.65 121.231 106.669 120.704C106.56 120.042 106.473 118.787 106.405 116.94C106.343 114.961 106.269 113.311 106.183 111.991C105.837 106.839 104.106 101.706 100.99 96.5893C97.7436 91.4684 93.8493 87.906 89.3075 85.9023L76.3956 82.0902C62.9715 81.6203 50.5255 85.2036 39.0577 92.8402C27.5899 100.477 18.6125 110.375 12.1255 122.534C5.5068 134.689 1.96485 147.413 1.49958 160.705C1.31531 165.969 2.80149 170.568 5.95814 174.499C7.34135 176.393 10.8234 178.557 16.4043 180.992C21.9851 183.428 25.3678 184.666 26.5523 184.708L44.5002 191.463C46.5921 191.932 54.5985 194.716 68.5195 199.815C69.8356 199.861 72.0361 200.992 75.121 203.208C78.0789 205.289 80.4133 206.359 82.1242 206.418C86.599 206.575 88.8893 205.14 88.9952 202.113ZM85.0115 191.695C84.9838 192.485 84.4702 193.982 83.4706 196.187C82.3394 198.388 81.5106 199.479 80.9842 199.461L80.5894 199.447C78.7883 198.198 76.5901 197.001 73.9948 195.856C71.404 194.579 69.1331 193.577 67.182 192.85C65.2309 192.123 62.6922 191.243 59.5658 190.212C56.4394 189.18 54.2251 188.443 52.9228 188.003C51.7522 187.566 50.3298 186.792 48.6558 185.679C46.9863 184.435 45.6978 183.599 44.7904 183.172C44.0099 182.881 42.8347 182.576 41.2646 182.258C39.5675 181.803 38.331 181.365 37.5552 180.942L31.3209 178.352L13.1164 167.634C12.7446 166.962 12.5182 165.9 12.4373 164.448C12.2293 162.86 12.0053 161.732 11.7651 161.064C12 154.352 14.2529 146.459 18.5236 137.385C21.2361 131.418 23.7847 126.368 26.1695 122.235C28.5543 118.102 31.6109 113.597 35.3394 108.72C38.9363 103.839 43.0909 99.9652 47.8031 97.0995C52.3838 94.2291 57.3883 92.4277 62.8165 91.6953C72.9504 92.05 79.823 93.3447 83.4344 95.5795C86.9141 97.8096 89.825 103.116 92.1669 111.5C93.8114 117.224 94.6211 122.325 94.5961 126.804C95.081 128.007 95.9158 128.63 97.1003 128.671C97.4951 128.685 98.0238 128.637 98.6865 128.529C99.3491 128.42 99.8779 128.373 100.273 128.387C101.434 129.086 103.83 130.29 107.46 131.998C111.094 133.575 114.463 135.208 117.566 136.898C120.674 138.457 123.907 140.217 127.264 142.179C130.626 144.01 133.33 145.817 135.376 147.602C137.29 149.382 138.222 150.996 138.171 152.444L137.584 169.224C137.556 170.013 137.32 171.125 136.874 172.559C136.429 173.993 135.99 175.229 135.558 176.269C135.127 177.308 134.845 177.825 134.713 177.82C134.201 177.407 133.455 176.129 132.476 173.986C131.501 171.712 130.383 169.762 129.123 168.137C127.73 166.507 126.179 165.662 124.468 165.602C122.888 165.547 120.417 166.515 117.053 168.505C113.562 170.36 110.961 171.257 109.25 171.197C109.001 170.793 108.008 169.045 106.271 165.954C104.407 162.726 102.591 160.027 100.822 157.857C99.0536 155.686 97.5111 154.578 96.195 154.532C94.879 154.486 92.3392 155.517 88.5759 157.626C84.6809 159.729 82.4702 160.772 81.9437 160.754L80.9705 160.324C80.5316 157.805 78.997 154.589 76.3668 150.676C73.6096 146.626 71.1123 144.562 68.875 144.484C67.5589 144.438 66.2313 144.721 64.8921 145.333C63.426 145.808 61.9484 146.613 60.4592 147.747C58.8385 148.876 57.4151 150.012 56.1892 151.155C54.8362 152.162 53.3378 153.559 51.694 155.346C50.0502 157.134 48.8174 158.474 47.9955 159.368C47.1736 160.261 46.0065 161.604 44.4943 163.396C42.9867 165.056 42.1625 166.016 42.0217 166.274C41.7493 166.528 41.3383 166.975 40.7888 167.615C40.1078 168.25 39.6264 168.826 39.3448 169.343C39.0677 169.729 38.9177 170.25 38.8947 170.908C38.8117 173.277 42.5708 175.056 50.1719 176.245C57.646 177.297 62.6448 177.538 65.1684 176.967C65.8265 176.99 66.1509 177.133 66.1417 177.397C66.1095 178.318 65.7321 179.688 65.0095 181.508C64.16 183.191 63.7168 184.559 63.6799 185.612C63.6339 186.928 64.5275 187.75 66.3608 188.078C66.2338 187.941 67.8085 188.128 71.0849 188.638C74.2297 189.144 77.3722 189.715 80.5124 190.352C83.6526 190.989 85.1523 191.437 85.0115 191.695ZM120.955 153.027C121.079 149.474 120.511 146.884 119.25 145.259C117.862 143.497 115.523 142.559 112.233 142.444C109.996 142.365 108.845 143.247 108.78 145.09C108.706 147.196 109.618 149.402 111.513 151.708C113.414 153.883 115.417 155.007 117.523 155.081C119.76 155.159 120.904 154.475 120.955 153.027ZM66.9295 115.36C66.9894 113.649 66.5114 112.249 65.4953 111.159C64.3523 109.933 62.8595 109.288 61.017 109.224C57.4636 109.099 55.6477 110.156 55.5694 112.393C55.5325 113.446 56.0175 114.649 57.0243 116.002C58.0357 117.223 59.0679 117.852 60.1207 117.889L66.0431 118.096C66.5696 118.115 66.865 117.203 66.9295 115.36ZM87.5504 113.513C87.6195 111.538 85.9431 110.491 82.5213 110.372C80.2839 110.293 78.9632 110.379 78.5592 110.628C78.0236 110.873 77.735 111.588 77.6935 112.772C77.6383 114.352 78.1775 115.886 79.3113 117.375C80.4497 118.732 81.8086 119.439 83.3879 119.494C86.0201 119.586 87.4076 117.592 87.5504 113.513ZM146.048 164.579C145.776 172.344 144.159 179.007 141.197 184.57L139.816 184.521C142.556 177.765 144.321 168.735 145.112 157.43C145.507 157.444 145.831 157.587 146.085 157.86C146.208 158.128 146.323 158.593 146.432 159.255C146.413 159.782 146.395 160.308 146.377 160.835C146.358 161.361 146.335 162.019 146.308 162.809C146.148 163.594 146.062 164.184 146.048 164.579ZM100.417 112.975C100.385 113.896 100.237 114.352 99.9737 114.343C99.842 114.338 99.5788 114.329 99.184 114.315C98.0403 105.578 94.8626 98.4831 89.6509 93.0299L89.6786 92.2402C91.7843 92.3139 94.127 95.0313 96.7065 100.392C99.286 105.754 100.523 109.948 100.417 112.975ZM54.216 162.353C54.1745 163.537 53.5362 164.832 52.301 166.239C51.0705 167.513 49.8538 168.393 48.6509 168.878C48.2698 168.469 48.9035 167.306 50.552 165.387C52.0734 163.332 53.2947 162.32 54.216 162.353ZM48.2284 169.654C48.1823 170.97 47.567 171.607 46.3826 171.566C46.4286 170.25 47.0439 169.612 48.2284 169.654ZM123.831 172.498C124.752 172.53 125.199 172.941 125.171 173.731L124.579 173.71L123.796 173.485C123.143 173.33 122.75 173.251 122.619 173.246C122.637 172.72 123.041 172.47 123.831 172.498ZM88.7288 164.549C88.6966 165.47 88.0224 165.908 86.7063 165.862C86.7386 164.94 87.4127 164.503 88.7288 164.549ZM96.3411 161.653C96.2003 161.912 95.8667 162.032 95.3402 162.013L94.9523 161.802C95.0931 161.543 95.4268 161.423 95.9532 161.442C96.0802 161.578 96.2095 161.648 96.3411 161.653ZM138.184 140.782C138.447 140.792 138.574 140.928 138.565 141.191C138.556 141.454 138.42 141.581 138.156 141.572C138.025 141.567 137.964 141.434 137.973 141.17C137.982 140.907 138.052 140.778 138.184 140.782Z" fill="#059034"/>
</svg>
