<svg width="160" height="171" viewBox="0 0 160 171" fill="none" xmlns="http://www.w3.org/2000/svg">
<path d="M123.453 4.75652C123.301 4.72562 123.148 4.70372 122.993 4.69094C95.7339 3.63032 68.467 2.56247 41.1924 1.48737L22.3085 0.755138C18.9989 0.689716 13.2633 -0.627655 10.5642 2.408C8.96006 4.2178 9.14134 7.15188 8.9571 9.39198C8.42371 15.7318 7.84525 22.0579 7.22171 28.3704C4.91151 52.0471 2.10874 75.6926 1.3547 99.4718C1.10701 109.156 -0.424999 121.715 2.62775 131.13C5.33485 139.76 17.6958 142.65 25.2756 145.604C50.3212 155.431 76.5037 161.897 101.917 170.875C103.768 171.54 105.009 168.321 103.102 167.647C102.176 167.292 101.251 166.96 100.314 166.617C100.486 166.369 100.583 166.078 100.595 165.776C100.606 165.475 100.531 165.177 100.379 164.917C94.1357 151.953 88.9342 138.512 84.8237 124.723C84.6697 124.279 84.3509 123.91 83.9332 123.695C83.5154 123.479 83.0308 123.432 82.5794 123.564C82.128 123.695 81.7445 123.995 81.5081 124.401C81.2717 124.808 81.2005 125.29 81.3093 125.747C85.1556 139.442 90.4037 152.704 96.9702 165.323C70.0638 155.693 41.8695 149.216 15.9765 137.02C12.9317 135.713 10.3892 133.459 8.7258 130.593C23.6917 122.856 37.5593 113.158 49.9624 101.756C50.8883 102.578 51.8609 103.346 52.8754 104.056C57.6318 107.426 62.4 110.816 67.1798 114.223C70.6337 116.687 75.869 122.164 80.0771 122.797C86.6419 123.79 90.3048 113.944 93.4118 109.489C97.2803 103.87 101.297 98.3619 105.462 92.9652C107.155 90.7171 110.374 87.8907 110.727 84.8972C110.739 84.7521 110.738 84.6064 110.727 84.4614C120.557 92.4606 137.597 96.842 149.505 98.2801C149.976 98.3887 150.471 98.3056 150.881 98.0491C151.291 97.7926 151.582 97.3838 151.691 96.9125C151.799 96.4412 151.716 95.9461 151.46 95.5361C151.203 95.1262 150.794 94.8348 150.323 94.7263C142.753 92.9194 135.293 90.6807 127.978 88.0211C122.114 85.6904 116.628 82.064 110.559 80.3871C110.316 80.3266 110.061 80.3336 109.822 80.4073C109.069 78.6289 108.027 76.903 107.396 75.5011C104.91 70.0378 102.492 64.5949 99.972 59.1214C99.1478 56.6693 97.9736 54.3491 96.4859 52.2328C101.235 44.9165 106.088 37.698 110.849 30.3926L117.516 20.0622C118.931 17.8776 120.362 15.0556 122.002 12.5408C123.019 13.9547 123.864 15.4846 124.519 17.0981C131.771 32.9238 138.479 48.988 144.641 65.2907C147.728 73.5201 151.55 82.0311 153.663 90.6225C156.13 100.657 146.04 108.835 140.191 116.003L103.058 161.58C100.702 164.483 104.936 168.513 107.304 165.598L139.459 125.924C144.809 119.329 150.51 112.892 155.552 106.048C158.568 101.942 160.347 97.9484 159.856 92.7207C159.209 86.6481 156.341 80.6924 154.295 74.9934C151.361 66.9237 148.281 58.9325 145.053 51.0199C139.277 36.5616 133.062 22.2905 126.409 8.20658C126.679 7.80985 126.803 7.33166 126.759 6.85381C126.715 6.37596 126.507 5.92815 126.169 5.587C126.009 5.43497 125.848 5.28293 125.687 5.1309C125.392 4.85809 125.023 4.67738 124.626 4.61089C124.229 4.5444 123.822 4.59501 123.453 4.75652ZM94.1752 58.4203C95.6094 60.9959 96.5736 63.9531 97.6759 66.6495L102.45 77.6934C104.823 83.1375 104.73 84.2017 101.369 89.2C97.5903 94.8245 93.21 100.119 89.2602 105.625C87.4213 108.65 85.3963 111.557 83.1968 114.33C79.3345 118.549 77.0086 114.433 73.2462 111.72C67.5352 107.642 60.5031 103.879 55.4739 98.989C50.089 93.7618 53.5988 85.6639 54.9821 79.0772C56.3655 72.4905 57.7419 66.4628 58.7173 60.0773C58.7738 59.8723 58.8055 59.6613 58.8117 59.4489C62.4294 58.5224 67.5251 58.5163 70.4542 58.1564L82.8264 56.5757C87.6055 56.0307 91.5647 53.7092 94.1752 58.4203ZM109.91 24.6967C104.492 33.2942 99.2335 42.0213 93.8371 50.5958C90.6284 49.7342 85.1336 51.8857 82.2316 52.4237C76.094 53.5536 69.9341 54.684 63.7748 55.8369C61.6328 56.1097 59.5123 56.5302 57.4283 57.0954C56.879 56.7525 56.2405 56.5795 55.5931 56.5983C55.8871 56.2735 56.0573 55.8556 56.0739 55.4178C56.0905 54.98 55.9523 54.5504 55.6837 54.2043C42.6657 39.2077 29.3448 24.577 16.346 9.46814C15.4455 8.42009 13.9692 10.0029 14.8582 11.0401C27.8341 26.1272 40.285 41.6312 53.262 56.763C53.465 57.0112 53.7451 57.1844 54.0578 57.2552C53.624 57.6644 53.35 58.2146 53.2848 58.8074C51.7768 68.5825 49.2015 78.1522 47.5027 87.899C46.6058 93.0754 46.1611 96.0043 47.4396 98.6065C47.3727 98.6662 47.3109 98.7314 47.255 98.8016C35.2291 110.089 21.9363 119.946 7.64237 128.175C6.25818 124.168 6.24802 119.33 6.13276 114.326C6.00567 106.049 6.22629 97.8179 6.67024 89.5808C7.49092 73.913 9.09512 58.2907 10.7223 42.6901C11.4114 36.0555 12.1115 29.4093 12.7125 22.8218C13.0941 19.2241 13.0676 15.4141 13.754 11.9309C14.0985 10.234 14.3045 6.75285 16.2735 5.6147C17.5281 4.90968 24.2287 5.96583 25.7052 6.01462C42.9733 6.78383 60.256 7.53775 77.5531 8.27637L101.126 9.24841L113.69 9.76333C115.259 9.8072 116.82 9.9962 118.354 10.3279C115.103 14.8427 112.566 20.4889 109.91 24.6967Z" fill="#FC44A6"/>
</svg>
