<svg width="558" height="352" viewBox="0 0 558 352" fill="none" xmlns="http://www.w3.org/2000/svg">
<path d="M271 267.143C271.19 258.571 273.286 247.048 277.286 232.571C277.857 230.667 278.524 228.857 279.286 227.143C280.048 225.238 281 223.238 282.143 221.143C283.476 218.857 284.619 217.048 285.571 215.714C286.524 214.19 288.048 212.19 290.143 209.714C292.238 207.048 293.762 205.143 294.714 204C295.857 202.667 297.762 200.476 300.429 197.429C303.095 194.19 305 191.905 306.143 190.571C309.762 186.381 314.429 182.571 320.143 179.143C325.857 175.714 330.81 173.238 335 171.714C339.19 170.19 344.905 168.286 352.143 166H364.429C404.429 166 432.619 186.667 449 228C454.333 240.952 457 252.476 457 262.571C457 277.238 452.524 291.238 443.571 304.571C434.809 317.714 423.857 329.238 410.714 339.143C399.286 347.714 383.857 352 364.429 352C343.667 352 326.333 348 312.429 340C300.238 332.952 290.238 322.667 282.429 309.143C274.81 295.429 271 281.429 271 267.143ZM284.714 266.286C284.714 287.429 293.19 304.762 310.143 318.286C327.286 331.81 346.619 338.571 368.143 338.571C380.714 338.571 389.952 337.238 395.857 334.571C409.381 328.857 420.524 319.619 429.286 306.857C438.048 294.095 442.619 280.762 443 266.857C443.762 239.429 435.952 217.619 419.571 201.429C403.381 185.238 384.714 177.143 363.571 177.143C341.857 177.143 323.286 186.19 307.857 204.286C292.429 222.381 284.714 243.048 284.714 266.286Z" fill="white"/>
<path d="M336.714 274.571C333.095 274.762 331.762 276.762 332.714 280.571C333.857 288.381 338.047 294.571 345.286 299.143C352.524 303.714 361.952 305.619 373.571 304.857C375.857 304.667 378.143 304.19 380.428 303.429C385 300.571 388.905 296.857 392.143 292.286C395.571 287.714 397 283.619 396.428 280C396.238 278.667 395.286 277.619 393.571 276.857C391.857 276.095 390.047 275.905 388.143 276.286C354.809 275.143 337.667 274.571 336.714 274.571Z" fill="white"/>
<path d="M417.857 256.286V258.571C418.047 260.095 419.19 260.857 421.286 260.857C425.667 260.857 427.857 255.714 427.857 245.429V244.857C427.857 238.762 426.333 232.952 423.286 227.429C420.428 221.714 416.047 218.857 410.143 218.857C403.476 218.857 397.762 221.619 393 227.143C388.238 232.667 385.857 238.762 385.857 245.429C385.857 248.095 386.047 249.81 386.428 250.571C386.809 251.333 387.857 251.714 389.571 251.714C392.047 251.714 393.476 250.952 393.857 249.429V248.857L394.143 248.286L394.428 247.714V247.429C397.667 235.238 401.952 229.143 407.286 229.143C415.095 229.143 418.619 238.19 417.857 256.286Z" fill="white"/>
<path d="M312.143 260.286C314.238 260.286 315.381 259.524 315.571 258V255.714C314.809 237.619 318.333 228.571 326.143 228.571C331.476 228.571 335.762 234.667 339 246.857V247.429L339.286 247.714L339.571 248.286V248.857C339.952 250.381 341.381 251.143 343.857 251.143C345 251.143 345.857 250.952 346.428 250.571C347 250 347.286 249.429 347.286 248.857C347.476 248.095 347.571 246.762 347.571 244.857C347.571 238.19 345.19 232.095 340.428 226.571C335.667 221.048 329.952 218.286 323.286 218.286C317.381 218.286 312.905 221.143 309.857 226.857C307 232.381 305.571 238.19 305.571 244.286V244.857C305.571 255.143 307.762 260.286 312.143 260.286Z" fill="white"/>
<path d="M478.649 191.828C478.255 190.354 479.569 188.62 482.592 186.625C485.616 184.63 487.103 183.541 487.054 183.356C485.072 181.123 483.988 180.032 483.804 180.081C482.796 180.746 482.2 181.103 482.016 181.153L480.632 181.523C479.526 181.82 478.278 181.957 476.888 181.934C475.683 181.862 474.864 181.39 474.433 180.519C474.236 179.782 475.39 178.189 477.897 175.741C480.539 173.059 482.437 171.661 483.593 171.549C483.409 171.599 482.739 171.679 481.583 171.792C480.427 171.904 479.363 171.992 478.392 172.054C477.42 172.117 476.492 171.971 475.606 171.616C474.72 171.261 474.154 170.623 473.907 169.702C473.858 169.518 473.759 169.15 473.611 168.597L473.665 167.694C473.567 167.326 472.773 166.946 471.285 166.555C469.981 166.115 469.156 165.25 468.81 163.96C468.564 163.039 468.378 161.608 468.253 159.667C468.128 157.726 467.918 156.203 467.622 155.098C467.029 152.888 465.999 149.412 464.532 144.672C463.248 139.883 462.311 136.383 461.718 134.172L460.311 128.922C459.327 128.199 458.275 127.592 457.155 127.103C456.22 126.563 455.008 126.098 453.52 125.707C452.032 125.317 450.845 124.944 449.959 124.589C441.802 121.443 435.416 117.528 430.8 112.842C426.369 108.106 423.067 101.686 420.895 93.5803C418.773 85.6593 419.256 75.6582 422.344 63.577C425.616 51.4463 430.572 44.4915 437.212 42.7125C437.765 42.5642 438.435 42.4834 439.222 42.4699C440.009 42.4565 440.679 42.3756 441.233 42.2274C451.212 35.2098 459.706 30.7621 466.714 28.8842C471.694 27.55 474.743 27.1278 475.863 27.6175C487.141 29.1364 495.986 31.8998 502.397 35.9076C508.808 39.9154 513.297 46.7087 515.863 56.2876C522.773 82.0769 517.197 103.315 499.134 120.001C499.644 125.59 502.07 136.49 506.414 152.7C506.377 153.302 506.291 153.72 506.156 153.953C506.021 154.187 505.794 154.445 505.475 154.728C505.155 155.011 504.836 155.295 504.516 155.578C504.529 156.364 505.028 157.119 506.012 157.842C506.997 158.565 507.563 159.203 507.711 159.756C508.155 161.414 508.033 162.434 507.345 162.816L495.672 166.832L495.267 167.533C495.55 167.852 497.468 167.634 501.021 166.879C504.759 166.075 506.924 166.778 507.517 168.989C508.109 171.199 507.852 172.453 506.745 172.749L497.34 175.27L496.771 178.68C496.968 179.416 497.251 179.736 497.62 179.637L498.727 179.34C501.862 178.5 503.8 179.462 504.54 182.225C505.083 184.251 503.787 185.684 500.652 186.524C500.099 186.673 499.269 186.895 498.162 187.191C497.006 187.304 496.244 187.409 495.875 187.508C494.584 187.854 492.537 188.699 489.734 190.042C487.067 191.152 484.995 191.904 483.52 192.299C480.655 192.672 479.031 192.515 478.649 191.828ZM476.35 157.794L477.051 158.198C487.194 155.48 494.012 153.259 497.503 151.534C498.596 150.451 496.354 139.502 490.777 118.686L490.406 117.305C491.167 115.719 492.808 114.095 495.327 112.432C498.031 110.721 499.789 109.164 500.599 107.762C506.555 98.2688 509.985 90.0446 510.888 83.0897C511.977 76.0853 511.04 67.0569 508.078 56.0044C505.956 48.0834 501.062 41.9909 493.397 37.727C485.915 33.4136 477.38 32.5417 467.79 35.1114C463.917 36.1491 461.661 36.9511 461.022 37.5171L435.174 53.9199L434.492 54.6949C431.017 60.1671 428.692 66.6143 427.518 74.0365C426.295 81.2745 426.498 87.9329 428.127 94.0118C429.262 98.2486 431.56 102.766 435.02 107.565C438.615 112.13 442.252 115.005 445.93 116.191L461.301 121.55C464.979 122.736 467.238 124.895 468.077 128.026C468.422 129.316 468.781 131.391 469.152 134.253C469.708 137.066 470.159 139.117 470.505 140.406C471.146 142.801 472.194 145.975 473.649 149.929C475.055 153.699 475.955 156.32 476.35 157.794ZM488.26 151.345C485.743 141.95 483.767 133.101 482.333 124.798C479.85 111.841 480.463 102.694 484.172 97.3561C484.442 96.8888 484.964 96.2553 485.738 95.4556C486.696 94.6065 487.47 93.8068 488.06 93.0565C488.6 92.122 488.796 91.3784 488.648 90.8258L486.279 81.9838L485.578 81.5794C485.025 81.7277 484.313 83.4978 483.443 86.8899C482.708 90.0484 481.652 92.0095 480.275 92.7732C477.14 93.6133 474.531 91.2522 472.447 85.69L472.299 85.1374L471.193 85.4339L471.064 86.0606L471.212 86.6133C471.353 92.3012 470.04 95.5158 467.273 96.2571C465.245 96.8007 462.92 96.239 460.299 94.5721C457.862 92.8557 456.367 92.0717 455.814 92.2199C454.5 93.9542 454.015 95.466 454.361 96.7555C454.509 97.3081 454.841 97.8113 455.358 98.2651C455.826 98.5347 456.41 98.8717 457.112 99.276C457.948 99.4468 458.692 99.6422 459.344 99.8624C460.131 99.849 461.06 99.995 462.13 100.301C463.336 100.372 464.147 100.451 464.565 100.536L465.193 100.665C465.746 100.516 466.342 100.159 466.981 99.5931C467.571 98.8428 468.05 98.4182 468.419 98.3194C470.448 97.7758 472.326 100.728 474.053 107.175L474.423 108.557C474.621 109.293 475.725 113.045 477.736 119.811C479.931 126.528 481.127 130.255 481.324 130.992L481.917 133.202C484.631 143.334 484.606 148.77 481.839 149.512C480.917 149.759 480.407 149.698 480.308 149.33L478.847 144.983C477.366 139.456 474.276 129.031 469.577 113.705C468.244 108.732 467.387 105.901 467.005 105.214C459.417 105.667 452.387 103.405 445.914 98.4266C445.766 97.8739 446.914 95.8881 449.358 92.4691C451.986 89.0007 454.223 87.0194 456.067 86.5252C456.522 86.0086 457.684 86.2894 459.554 87.3678C461.56 88.2125 463.221 89.2481 464.538 90.4747L464.943 89.7738C464.764 81.7271 466.242 77.2837 469.377 76.4436C470.852 76.0483 472.224 76.3718 473.491 77.4142C474.943 78.4071 476.051 79.591 476.815 80.9659L478.163 82.6777C481.233 77.9064 484.059 75.1748 486.641 74.4829C489.408 73.7417 491.359 75.4895 492.494 79.7263C492.987 81.5684 493.402 84.2214 493.737 87.6854C494.023 90.9652 493.889 92.6793 493.336 92.8275C490.19 95.8421 488.084 98.6771 487.016 101.332C486.084 103.754 485.976 107.041 486.693 111.192L492.223 147.322C492.496 149.815 491.618 151.334 489.589 151.877C489.036 152.025 488.593 151.848 488.26 151.345ZM411.838 33.2228C411.605 33.088 411.438 32.8364 411.34 32.468C411.142 31.7312 411.314 30.8955 411.854 29.961C412.579 28.9771 413.31 28.3863 414.048 28.1886C416.261 27.5956 419.226 29.0716 422.943 32.6166C426.845 36.1122 429.116 39.0573 429.758 41.452C430.054 42.5573 429.741 43.2334 428.819 43.4805C427.159 43.9253 425.277 43.5411 423.173 42.328C421.069 41.1148 418.842 39.4412 416.491 37.307C414.14 35.1728 412.589 33.8114 411.838 33.2228ZM486.512 196.828C485.723 193.881 490.215 191.098 499.989 188.479C502.571 187.787 504.188 187.551 504.84 187.771C505.443 187.807 505.892 188.378 506.189 189.483L506.263 189.759C506.657 191.233 506.333 192.603 505.289 193.87C504.195 194.953 502.911 195.692 501.435 196.087L490.646 198.978C489.909 199.176 489.072 199.005 488.137 198.466C487.202 197.927 486.66 197.381 486.512 196.828ZM398.451 59.6136C397.958 57.7715 399.002 56.5045 401.584 55.8127C403.797 55.2197 406.817 55.7926 410.643 57.5315C414.654 59.2209 416.955 61.1709 417.547 63.3814C417.745 64.1182 417.29 64.6349 416.184 64.9314C414.708 65.3267 411.412 64.8279 406.295 63.435C401.362 61.9926 398.748 60.7188 398.451 59.6136ZM504.419 27.962C504.172 27.041 505.622 25.0731 508.767 22.0585C512.097 18.9944 514.223 17.3389 515.145 17.0918C515.883 16.8941 516.787 16.9481 517.857 17.2536C518.927 17.5592 519.536 17.9882 519.685 18.5409C519.391 20.3964 518.292 22.5664 516.388 25.0509C514.669 27.486 512.979 28.926 511.319 29.3707C507.262 30.4579 504.962 29.9883 504.419 27.962ZM441.54 14.603C441.342 13.8661 441.428 13.4483 441.797 13.3495C441.797 13.3495 442.214 9.65808 444 8.99996C445.955 8.28016 448.713 11.4963 448.713 11.4963C449.796 12.5881 450.609 14.1472 451.152 16.1735C452.731 22.0682 452.876 25.1885 451.585 25.5344C449.507 25.8938 447.427 24.7727 445.347 22.1713C443.45 19.5205 442.181 16.9977 441.54 14.603ZM481.68 13.9167C481.874 11.6927 482.739 9.38787 484.274 7.00219C485.809 4.61652 487.499 3.17661 489.343 2.68244C491.372 2.13886 492.633 2.78811 493.127 4.6302C493.275 5.18283 492.705 7.11251 491.416 10.4192C490.128 13.726 489.3 15.4287 488.931 15.5276C486.902 16.0711 484.485 15.5342 481.68 13.9167ZM404.994 93.991C399.462 95.4735 396.399 95.1095 395.807 92.899C395.214 90.6884 396.301 89.2126 399.068 88.4713C406.814 86.3958 411.007 86.5554 411.649 88.9502C412.192 90.9765 409.974 92.6567 404.994 93.991ZM532.91 78.9659C532.121 76.0185 534.584 73.7789 540.301 72.247L541.408 71.9505C544.359 71.1598 546.032 71.5013 546.427 72.975C547.216 75.9223 545.214 78.0384 540.419 79.3233L540.142 79.3974C535.716 80.5834 533.305 80.4395 532.91 78.9659ZM529.617 47.8639C531.139 44.6919 533.283 42.7354 536.05 41.9941L536.603 41.8459C540.476 40.8081 542.733 41.4866 543.375 43.8813C543.918 45.9076 541.607 47.6126 536.443 48.9963C532.386 50.0834 530.111 49.706 529.617 47.8639Z" fill="white"/>
<path d="M276.889 114.021C278.901 122.312 280.487 130.61 281.649 138.915C282.2 142.704 283.892 148.13 281.188 151.538C278.129 155.421 271.05 155.011 266.722 155.418C259.577 155.917 252.41 156.022 245.255 155.732C242.626 155.699 243.101 151.784 245.597 151.724C250.87 151.463 256.117 150.831 261.301 149.832C263.168 149.513 265.026 149.176 266.858 148.785C249.544 128.117 226.963 114.664 200.776 107.716C171.086 99.8606 134.077 97.7673 104.983 108.876C101.684 110.096 98.4913 111.587 95.438 113.333C105.599 117.214 114.819 123.68 119.884 133.436C126.107 145.482 125.376 162.08 116.313 172.549C107.25 183.018 91.9141 183.943 80.3272 176.724C74.1494 172.861 69.3313 167.17 66.5425 160.441C63.7537 153.713 63.1328 146.281 64.7661 139.18C66.4199 130.512 70.4834 122.482 76.491 116.01C48.3954 112.232 15.0303 123.632 4.52104 151.587C4.27598 151.948 3.9197 152.22 3.50628 152.36C3.09286 152.501 2.64488 152.503 2.23034 152.367C1.8158 152.23 1.45734 151.962 1.20938 151.603C0.961411 151.244 0.837481 150.814 0.856399 150.378C11.6018 118.045 50.3132 104.767 81.5693 109.812C82.1147 109.89 82.677 110.003 83.2126 110.107C103.88 94.3733 136.664 91.782 160.86 92.4267C202.44 93.7344 249.353 108.168 274.396 143.54C274.481 139.784 272.378 133.954 271.795 130.997C270.761 125.796 269.555 120.652 268.323 115.499C267.09 110.346 275.547 108.587 276.889 114.021ZM74.0592 139.684C70.3449 153.782 78.1896 170.202 93.5335 172.614C109.904 175.232 117.681 157.932 114.896 144.236C112.11 130.541 100.347 122.565 87.9712 118.59C81.2252 123.989 76.3511 131.372 74.041 139.692L74.0592 139.684Z" fill="white"/>
</svg>
