<svg width="242" height="325" viewBox="0 0 242 325" fill="none" xmlns="http://www.w3.org/2000/svg">
<path d="M0 186.647C0.12809 180.883 1.53708 173.133 4.22698 163.398C4.61125 162.117 5.05957 160.9 5.57193 159.748C6.08429 158.467 6.72474 157.122 7.49328 155.713C8.38991 154.176 9.15845 152.959 9.7989 152.062C10.4394 151.038 11.4641 149.693 12.8731 148.027C14.2821 146.234 15.3068 144.953 15.9472 144.185C16.7158 143.288 17.9967 141.815 19.7899 139.766C21.5832 137.588 22.8641 136.051 23.6327 135.154C26.0664 132.336 29.2046 129.775 33.0473 127.469C36.89 125.163 40.2203 123.498 43.0383 122.473C45.8563 121.449 49.699 120.168 54.5665 118.631H62.8283C89.7272 118.631 108.685 132.528 119.7 160.324C123.287 169.034 125.08 176.784 125.08 183.572C125.08 193.435 122.07 202.85 116.05 211.816C110.158 220.655 102.792 228.404 93.9542 235.065C86.2688 240.829 75.8935 243.711 62.8283 243.711C48.8664 243.711 37.2102 241.021 27.8596 235.641C19.6619 230.902 12.9371 223.985 7.68542 214.891C2.56181 205.668 0 196.253 0 186.647ZM9.2225 186.07C9.2225 200.288 14.9225 211.944 26.3226 221.039C37.8507 230.133 50.8518 234.68 65.326 234.68C73.78 234.68 79.9924 233.784 83.9632 231.991C93.0576 228.148 100.551 221.935 106.443 213.353C112.335 204.771 115.409 195.805 115.666 186.454C116.178 168.009 110.926 153.343 99.9104 142.455C89.0227 131.568 76.4699 126.124 62.2519 126.124C47.6496 126.124 35.1608 132.208 24.7855 144.377C14.4102 156.545 9.2225 170.443 9.2225 186.07ZM41.5012 195.677C40.8608 193.115 41.7574 191.77 44.1911 191.642C44.8316 191.642 56.3597 192.026 78.7755 192.795C80.0564 192.539 81.2733 192.667 82.4261 193.179C83.5789 193.692 84.2193 194.396 84.3474 195.293C84.7317 197.726 83.771 200.48 81.4654 203.555C79.2879 206.629 76.662 209.126 73.5879 211.048C72.0508 211.56 70.5137 211.88 68.9766 212.008C61.1631 212.521 54.8226 211.24 49.9552 208.166C45.0878 205.092 42.2698 200.929 41.5012 195.677ZM98.7576 180.883V179.345C99.27 167.177 96.9003 161.093 91.6486 161.093C88.0621 161.093 85.18 165.191 83.0025 173.389C83.0025 173.517 83.0025 173.581 83.0025 173.581L82.8103 173.966L82.6182 174.35V174.734C82.362 175.759 81.4014 176.271 79.7362 176.271C78.5834 176.271 77.8789 176.015 77.6227 175.503C77.3665 174.99 77.2384 173.838 77.2384 172.044C77.2384 167.561 78.8396 163.462 82.0418 159.748C85.2441 156.033 89.0868 154.176 93.5699 154.176C97.5407 154.176 100.487 156.097 102.408 159.94C104.458 163.654 105.482 167.561 105.482 171.66V172.044C105.482 178.961 104.009 182.42 101.063 182.42C99.6542 182.42 98.8857 181.907 98.7576 180.883ZM29.9731 180.498C29.845 181.523 29.0765 182.035 27.6675 182.035C24.7214 182.035 23.2484 178.577 23.2484 171.66V171.276C23.2484 167.177 24.2091 163.27 26.1304 159.556C28.1799 155.713 31.19 153.791 35.1608 153.791C39.6439 153.791 43.4866 155.649 46.6889 159.363C49.8912 163.078 51.4923 167.177 51.4923 171.66C51.4923 172.941 51.4282 173.838 51.3002 174.35C51.3002 174.734 51.108 175.118 50.7237 175.503C50.3395 175.759 49.7631 175.887 48.9945 175.887C47.3294 175.887 46.3687 175.375 46.1125 174.35V173.966L45.9204 173.581L45.7282 173.389C45.7282 173.261 45.7282 173.133 45.7282 173.005C43.5507 164.807 40.6687 160.708 37.0821 160.708C31.8304 160.708 29.4608 166.793 29.9731 178.961V180.498Z" fill="white"/>
<path d="M139.638 135.999C139.373 135.008 140.257 133.842 142.29 132.5C144.323 131.159 145.323 130.426 145.29 130.302C143.957 128.801 143.229 128.067 143.105 128.1C142.427 128.547 142.026 128.787 141.902 128.82L140.972 129.07C140.228 129.269 139.388 129.361 138.454 129.346C137.643 129.298 137.093 128.98 136.803 128.394C136.67 127.899 137.447 126.828 139.132 125.181C140.909 123.377 142.186 122.438 142.963 122.362C142.839 122.396 142.388 122.45 141.611 122.525C140.834 122.601 140.118 122.66 139.465 122.702C138.812 122.744 138.187 122.646 137.592 122.407C136.996 122.169 136.615 121.74 136.449 121.12C136.416 120.996 136.35 120.749 136.25 120.377L136.287 119.77C136.22 119.522 135.687 119.267 134.686 119.004C133.809 118.708 133.254 118.126 133.022 117.259C132.856 116.64 132.731 115.677 132.647 114.372C132.563 113.067 132.422 112.043 132.223 111.299C131.824 109.813 131.132 107.476 130.145 104.288C129.282 101.068 128.651 98.7139 128.253 97.2274L127.307 93.6969C126.645 93.2104 125.937 92.8025 125.184 92.4732C124.555 92.1106 123.741 91.7979 122.74 91.535C121.739 91.2721 120.94 91.0213 120.345 90.7826C114.86 88.6675 110.565 86.0343 107.461 82.883C104.481 79.6984 102.261 75.3809 100.8 69.9303C99.373 64.6037 99.6978 57.8782 101.774 49.7539C103.975 41.5963 107.308 36.9194 111.773 35.723C112.145 35.6233 112.595 35.569 113.125 35.5599C113.654 35.5509 114.105 35.4965 114.477 35.3968C121.188 30.6777 126.9 27.6867 131.612 26.4239C134.961 25.5267 137.012 25.2427 137.765 25.5721C145.349 26.5935 151.297 28.4518 155.608 31.1469C159.919 33.8421 162.938 38.4104 164.664 44.852C169.311 62.1946 165.561 76.4763 153.414 87.6972C153.756 91.4558 155.388 98.7856 158.309 109.687C158.285 110.092 158.227 110.373 158.136 110.53C158.045 110.687 157.893 110.86 157.678 111.051C157.463 111.241 157.248 111.431 157.033 111.622C157.042 112.151 157.377 112.658 158.039 113.145C158.701 113.631 159.082 114.06 159.182 114.432C159.48 115.547 159.398 116.232 158.936 116.489L151.086 119.19L150.813 119.661C151.003 119.876 152.293 119.729 154.683 119.222C157.197 118.681 158.653 119.154 159.051 120.641C159.449 122.127 159.276 122.97 158.532 123.169L152.207 124.864L151.825 127.157C151.957 127.653 152.148 127.867 152.396 127.801L153.14 127.602C155.248 127.037 156.551 127.683 157.049 129.541C157.414 130.904 156.543 131.868 154.435 132.433C154.062 132.532 153.504 132.682 152.76 132.881C151.983 132.957 151.47 133.028 151.222 133.094C150.354 133.327 148.978 133.895 147.093 134.798C145.299 135.544 143.906 136.05 142.914 136.316C140.987 136.567 139.895 136.461 139.638 135.999ZM138.092 113.112L138.564 113.384C145.385 111.557 149.969 110.063 152.317 108.902C153.052 108.174 151.544 100.811 147.794 86.8133L147.545 85.8843C148.057 84.8178 149.16 83.7256 150.854 82.6077C152.672 81.4567 153.854 80.4098 154.399 79.4671C158.404 73.0832 160.711 67.5527 161.318 62.8757C162.05 58.1654 161.42 52.094 159.429 44.6615C158.001 39.3348 154.71 35.2378 149.556 32.3704C144.525 29.4698 138.785 28.8835 132.336 30.6115C129.731 31.3094 128.214 31.8486 127.784 32.2293L110.403 43.2597L109.944 43.7809C107.607 47.4608 106.044 51.7964 105.254 56.7876C104.432 61.655 104.568 66.1326 105.663 70.2205C106.427 73.0696 107.972 76.1076 110.299 79.3345C112.716 82.4042 115.162 84.338 117.635 85.1357L127.972 88.7389C130.446 89.5366 131.964 90.9884 132.529 93.0943C132.761 93.9614 133.002 95.3573 133.252 97.2819C133.626 99.1733 133.929 100.552 134.161 101.42C134.593 103.03 135.298 105.165 136.276 107.823C137.221 110.358 137.826 112.121 138.092 113.112ZM146.102 108.775C144.409 102.458 143.08 96.5072 142.116 90.9237C140.446 82.2101 140.858 76.0587 143.352 72.4694C143.534 72.1552 143.885 71.7292 144.405 71.1914C145.05 70.6204 145.57 70.0826 145.967 69.5781C146.33 68.9496 146.462 68.4496 146.363 68.078L144.769 62.1319L144.298 61.86C143.926 61.9597 143.447 63.1501 142.862 65.4312C142.368 67.5552 141.658 68.874 140.732 69.3876C138.623 69.9525 136.869 68.3648 135.468 64.6243L135.368 64.2527L134.624 64.4521L134.538 64.8735L134.637 65.2452C134.732 69.0702 133.849 71.2319 131.988 71.7304C130.624 72.0959 129.061 71.7182 127.298 70.5973C125.66 69.4431 124.654 68.9158 124.282 69.0155C123.398 70.1817 123.073 71.1984 123.305 72.0655C123.405 72.4371 123.628 72.7755 123.976 73.0807C124.29 73.262 124.683 73.4886 125.155 73.7605C125.717 73.8754 126.218 74.0068 126.656 74.1549C127.186 74.1458 127.81 74.244 128.53 74.4495C129.34 74.4979 129.886 74.5507 130.167 74.6082L130.589 74.6943C130.961 74.5946 131.362 74.3544 131.792 73.9737C132.188 73.4692 132.511 73.1837 132.759 73.1172C134.123 72.7517 135.386 74.7367 136.548 79.0724L136.797 80.0014C136.929 80.4969 137.672 83.0198 139.024 87.5699C140.5 92.0869 141.305 94.5931 141.437 95.0886L141.836 96.5751C143.661 103.388 143.644 107.044 141.784 107.543C141.163 107.709 140.82 107.668 140.754 107.42L139.771 104.497C138.775 100.781 136.697 93.7697 133.537 83.4638C132.641 80.1192 132.065 78.2157 131.808 77.7534C126.705 78.0584 121.978 76.5371 117.625 73.1893C117.525 72.8177 118.297 71.4823 119.941 69.1831C121.708 66.8506 123.212 65.5183 124.453 65.186C124.758 64.8385 125.54 65.0274 126.798 65.7525C128.146 66.3206 129.263 67.017 130.149 67.8419L130.421 67.3706C130.301 61.9593 131.295 58.9713 133.403 58.4063C134.395 58.1405 135.317 58.358 136.17 59.059C137.146 59.7268 137.891 60.5229 138.405 61.4474L139.311 62.5986C141.376 59.39 143.277 57.5531 145.013 57.0878C146.873 56.5894 148.185 57.7647 148.948 60.6138C149.28 61.8526 149.559 63.6367 149.784 65.9662C149.977 68.1717 149.887 69.3244 149.515 69.4241C147.399 71.4513 145.983 73.3578 145.265 75.1434C144.638 76.7718 144.565 78.9819 145.048 81.7737L148.766 106.07C148.95 107.747 148.359 108.768 146.995 109.133C146.623 109.233 146.325 109.114 146.102 108.775ZM94.7099 29.3415C94.5527 29.2508 94.4409 29.0817 94.3745 28.8339C94.2417 28.3384 94.357 27.7764 94.7203 27.148C95.2076 26.4863 95.6993 26.089 96.1954 25.9561C97.6837 25.5573 99.6777 26.5499 102.177 28.9338C104.801 31.2845 106.329 33.265 106.76 34.8754C106.959 35.6187 106.749 36.0734 106.129 36.2395C105.013 36.5386 103.747 36.2802 102.332 35.4644C100.917 34.6486 99.4193 33.5232 97.8384 32.088C96.2576 30.6528 95.2147 29.7373 94.7099 29.3415ZM144.926 139.362C144.395 137.38 147.416 135.508 153.989 133.747C155.725 133.282 156.813 133.123 157.251 133.271C157.656 133.295 157.959 133.679 158.158 134.422L158.208 134.608C158.473 135.599 158.255 136.521 157.553 137.373C156.817 138.101 155.954 138.598 154.961 138.864L147.706 140.808C147.21 140.941 146.648 140.826 146.019 140.463C145.39 140.101 145.026 139.734 144.926 139.362ZM85.7074 47.0886C85.3755 45.8498 86.0777 44.9978 87.814 44.5326C89.3022 44.1338 91.3329 44.5191 93.9059 45.6884C96.603 46.8245 98.1507 48.1358 98.549 49.6223C98.6818 50.1178 98.3761 50.4653 97.632 50.6647C96.6398 50.9305 94.4231 50.5951 90.9819 49.6584C87.6648 48.6884 85.9066 47.8318 85.7074 47.0886ZM156.968 25.8037C156.802 25.1843 157.777 23.861 159.892 21.8338C162.131 19.7733 163.561 18.6599 164.181 18.4938C164.677 18.3609 165.285 18.3971 166.005 18.6026C166.724 18.8081 167.134 19.0966 167.234 19.4683C167.036 20.7161 166.297 22.1754 165.017 23.8461C163.861 25.4836 162.724 26.452 161.608 26.751C158.88 27.4821 157.333 27.1664 156.968 25.8037ZM114.683 16.8201C114.55 16.3246 114.608 16.0436 114.856 15.9772L119.507 14.731C120.235 15.4652 120.782 16.5136 121.147 17.8763C122.209 21.8403 122.306 23.9386 121.438 24.1712C120.041 24.4129 118.642 23.659 117.243 21.9096C115.968 20.127 115.115 18.4305 114.683 16.8201ZM141.676 16.3586C141.807 14.863 142.389 13.3131 143.421 11.7088C144.453 10.1045 145.59 9.13619 146.83 8.80388C148.194 8.43833 149.042 8.87494 149.374 10.1137C149.474 10.4853 149.09 11.783 148.224 14.0067C147.358 16.2303 146.8 17.3754 146.552 17.4419C145.188 17.8074 143.563 17.4463 141.676 16.3586ZM90.1074 70.2065C86.3867 71.2034 84.3273 70.9586 83.929 69.4721C83.5307 67.9856 84.2617 66.9931 86.122 66.4947C91.3309 65.0989 94.151 65.2063 94.5825 66.8167C94.9477 68.1793 93.4559 69.3092 90.1074 70.2065ZM176.128 60.1025C175.596 58.1205 177.253 56.6144 181.098 55.5842L181.842 55.3848C183.826 54.8531 184.951 55.0828 185.217 56.0738C185.748 58.0558 184.401 59.4788 181.177 60.3428L180.991 60.3927C178.014 61.1902 176.393 61.0935 176.128 60.1025ZM173.913 39.1872C174.936 37.0542 176.378 35.7384 178.239 35.2399L178.611 35.1403C181.215 34.4424 182.733 34.8987 183.165 36.5091C183.53 37.8717 181.976 39.0182 178.503 39.9487C175.775 40.6798 174.245 40.426 173.913 39.1872Z" fill="white"/>
<path d="M188.852 170.797C184.23 170.506 179.644 170.443 175.095 170.607C173.017 170.67 169.957 170.279 168.391 172.047C166.605 174.049 167.493 177.794 167.685 180.146C168.094 184.012 168.715 187.853 169.547 191.65C169.813 193.052 171.861 192.428 171.657 191.088C171.298 188.245 171.14 185.381 171.184 182.515C171.177 181.488 171.182 180.463 171.218 179.446C183.902 186.746 193.228 197.545 199.418 210.886C206.424 226.013 211.042 245.597 207.855 262.199C207.515 264.077 207.02 265.925 206.375 267.722C203.34 262.658 199.012 258.341 193.319 256.556C186.292 254.368 177.489 256.328 172.749 262.163C168.01 267.997 168.966 276.282 173.92 281.793C176.569 284.73 180.067 286.767 183.927 287.621C187.787 288.476 191.818 288.105 195.46 286.561C199.937 284.857 203.845 281.926 206.736 278.103C211.412 292.763 208.473 311.676 194.524 319.936C194.354 320.101 194.243 320.317 194.207 320.552C194.17 320.786 194.212 321.026 194.324 321.234C194.436 321.443 194.613 321.609 194.829 321.708C195.044 321.807 195.285 321.832 195.517 321.781C211.784 312.98 215.221 291.032 209.569 274.802C209.476 274.518 209.362 274.228 209.256 273.952C215.712 261.417 213.997 243.648 211.365 230.776C206.734 208.674 194.584 184.963 173.309 174.921C175.308 174.52 178.623 175.093 180.259 175.125C183.137 175.186 186 175.344 188.871 175.516C191.742 175.688 191.883 171.001 188.852 170.797ZM194.312 281.641C187.127 284.959 177.608 282.319 174.868 274.345C171.921 265.842 180.433 260.049 188.017 260.243C195.601 260.437 200.977 265.971 204.272 272.21C202.024 276.327 198.538 279.63 194.309 281.652L194.312 281.641Z" fill="white"/>
</svg>
