<svg width="401" height="113" viewBox="0 0 401 113" fill="none" xmlns="http://www.w3.org/2000/svg">
<path d="M388.996 92.9423C390.437 87.0496 391.542 81.1591 392.313 75.2706C392.682 72.583 393.92 68.7213 391.731 66.3561C389.256 63.6609 383.689 64.0655 380.274 63.8483C374.639 63.611 368.994 63.6528 363.364 63.9736C361.295 64.0396 361.736 66.7992 363.703 66.8012C367.859 66.9001 372.002 67.262 376.102 67.8841C377.577 68.0791 379.046 68.287 380.496 68.5339C367.22 83.4222 349.671 93.2964 329.171 98.631C305.928 104.664 276.822 106.743 253.72 99.3628C251.101 98.554 248.561 97.552 246.127 96.3671C254.061 93.4595 261.209 88.7402 265.028 81.7632C269.72 73.1486 268.857 61.4293 261.539 54.1766C254.221 46.9238 242.129 46.519 233.13 51.8086C228.332 54.639 224.637 58.7395 222.558 63.5403C220.478 68.341 220.118 73.6034 221.527 78.5962C222.979 84.6959 226.318 90.3054 231.161 94.7821C209.103 97.9076 182.632 90.3906 173.873 70.8032C173.674 70.5518 173.388 70.3655 173.06 70.2727C172.732 70.1799 172.38 70.1855 172.055 70.2888C171.731 70.3922 171.454 70.5875 171.265 70.8451C171.076 71.1028 170.986 71.4088 171.008 71.7165C180.029 94.3951 210.742 103.152 235.267 99.0803C235.695 99.017 236.136 98.9277 236.556 98.8457C253.102 109.631 278.962 110.931 298.004 110.084C330.724 108.486 367.414 97.5251 386.522 72.1191C386.654 74.7719 385.099 78.9268 384.691 81.026C383.967 84.7192 383.106 88.3739 382.225 92.0359C381.344 95.6978 388.034 96.8045 388.996 92.9423ZM228.836 78.0893C225.667 68.185 231.56 56.4528 243.6 54.4995C256.446 52.3838 262.87 64.4857 260.913 74.2103C258.957 83.9349 249.832 89.7631 240.156 92.773C234.75 89.0664 230.784 83.9266 228.821 78.0836L228.836 78.0893Z" fill="#059034"/>
<path d="M43.86 43.4079L44.976 20.3439V19.5999C44.976 18.4426 45.1413 16.7686 45.472 14.5779C45.8027 12.3873 45.968 10.9819 45.968 10.3619C45.968 10.2793 45.9267 10.1346 45.844 9.92794C45.8027 9.67993 45.782 9.47327 45.782 9.30794C45.782 9.05994 45.8853 8.8326 46.092 8.62593C46.34 8.37794 46.6087 8.25394 46.898 8.25394C47.8073 8.25394 48.6753 9.12194 49.502 10.8579L58.492 30.3259L58.554 30.3879C58.6367 30.3879 58.74 30.3259 58.864 30.2019C60.5173 27.2259 62.1087 24.2499 63.638 21.2739C65.2087 18.2979 66.428 15.9626 67.296 14.2679C68.2053 12.5319 69.0113 10.9613 69.714 9.55593C70.458 8.1506 70.9953 7.17927 71.326 6.64193C71.698 6.1046 71.9667 5.89793 72.132 6.02194C72.7107 6.43527 73.31 7.2826 73.93 8.56394C74.5913 9.80393 74.984 10.7753 75.108 11.4779L79.324 43.9039C79.448 44.9786 79.51 46.4459 79.51 48.3059C79.51 49.1326 79.4273 49.6906 79.262 49.9799C79.0967 50.2279 78.7867 50.3519 78.332 50.3519C78.084 50.3519 77.7947 50.2899 77.464 50.1659C77.1333 50.0419 76.844 49.9799 76.596 49.9799C76.3893 49.9799 76.0587 50.0213 75.604 50.1039C75.1907 50.1453 74.86 50.1659 74.612 50.1659C74.24 50.1659 73.93 49.7939 73.682 49.0499C73.4753 48.3059 73.372 47.7066 73.372 47.2519L70.954 18.1119L70.582 18.4219L59.608 37.7659C59.4013 38.1793 58.988 38.3859 58.368 38.3859C56.7973 38.3859 55.826 37.6419 55.454 36.1539C55.3713 35.8646 55.206 35.2239 54.958 34.2319C54.71 33.1986 54.524 32.4959 54.4 32.1239C54.3173 31.7519 54.152 31.1319 53.904 30.2639C53.656 29.3546 53.4493 28.6726 53.284 28.2179C53.16 27.7633 52.974 27.1433 52.726 26.3579C52.478 25.5726 52.23 24.9113 51.982 24.3739C51.7753 23.8366 51.5273 23.2373 51.238 22.5759C50.9487 21.8733 50.6387 21.2326 50.308 20.6539C50.2253 20.6126 50.1427 20.6746 50.06 20.8399C50.0187 20.9639 49.998 21.0673 49.998 21.1499L49.192 29.3959V30.0159C49.3573 31.5453 49.4607 33.6946 49.502 36.4639C49.5847 39.1919 49.688 41.5686 49.812 43.5939C49.936 45.6193 50.1633 47.0453 50.494 47.8719C50.5353 48.0786 50.6387 48.3886 50.804 48.8019C51.0107 49.1739 51.114 49.4633 51.114 49.6699C51.114 50.0419 50.99 50.3519 50.742 50.5999C50.5353 50.8066 50.2253 50.9513 49.812 51.0339C49.44 51.1166 49.0473 51.1786 48.634 51.2199C48.262 51.2613 47.8073 51.2819 47.27 51.2819C46.7327 51.2819 46.34 51.3026 46.092 51.3439C45.6373 51.3853 45.1413 51.1166 44.604 50.5379C44.108 49.9179 43.86 49.3806 43.86 48.9259V43.4079ZM47.704 13.8959C47.6627 14.4746 47.5593 16.3759 47.394 19.5999C47.2287 22.7826 47.1253 24.6426 47.084 25.1799V26.2959L47.27 25.8619C47.27 25.0766 47.4353 22.8859 47.766 19.2899C48.0967 15.6939 48.262 13.8339 48.262 13.7099C48.262 13.4206 48.2 13.2139 48.076 13.0899C47.9933 13.1313 47.9107 13.2139 47.828 13.3379C47.7867 13.4619 47.7453 13.5859 47.704 13.7099V13.8959ZM73.496 18.8559V19.9099C73.5373 20.2819 73.6407 21.5426 73.806 23.6919C73.9713 25.7999 74.0747 27.0399 74.116 27.4119L74.302 27.2259L74.364 26.4199C74.364 25.8413 74.364 25.4693 74.364 25.3039C74.364 24.1879 74.302 22.8446 74.178 21.2739C74.054 19.6619 73.8887 18.8559 73.682 18.8559H73.496ZM65.374 22.2659C65.0847 22.2659 64.7333 22.6999 64.32 23.5679C63.948 24.4359 63.8033 24.9733 63.886 25.1799C64.0927 24.9733 64.382 24.5393 64.754 23.8779C65.1673 23.1753 65.374 22.6379 65.374 22.2659ZM76.1 47.1279V47.4379H76.286C76.286 47.3139 76.224 47.2106 76.1 47.1279ZM83.2155 38.8199C83.2155 36.0919 84.2281 33.7359 86.2535 31.7519C88.2788 29.7266 90.5935 28.7139 93.1975 28.7139C93.6521 28.7139 94.2928 28.8173 95.1195 29.0239C95.9461 29.1893 96.5868 29.2719 97.0415 29.2719C97.2068 29.2719 97.4135 29.2306 97.6615 29.1479C97.9095 29.0239 98.1161 28.9619 98.2815 28.9619C99.0668 28.9619 99.4595 29.5199 99.4595 30.6359C99.4595 31.9586 99.4181 33.9633 99.3355 36.6499C99.2941 39.3366 99.2735 41.3413 99.2735 42.6639V43.5319C99.3148 43.9866 99.4388 44.8133 99.6455 46.0119C99.8935 47.2106 100.017 48.1199 100.017 48.7399V49.4219C99.8108 49.7526 99.5215 49.9179 99.1495 49.9179H95.1815L93.6935 48.4299C91.9988 49.5873 90.5935 50.1659 89.4775 50.1659C88.7748 50.1659 87.9895 49.8353 87.1215 49.1739C85.5508 47.8926 84.4968 46.4666 83.9595 44.8959C83.4635 43.3253 83.2155 41.2999 83.2155 38.8199ZM88.1755 39.6259C88.1755 44.0073 88.7748 46.1979 89.9735 46.1979C91.2548 46.1979 92.4121 44.7099 93.4455 41.7339C93.7761 41.1553 93.9415 40.5146 93.9415 39.8119V31.9999C93.9415 31.7519 93.8381 31.6279 93.6315 31.6279C92.8461 31.6279 91.9781 31.9793 91.0275 32.6819C90.0768 33.3846 89.4775 34.1493 89.2295 34.9759L89.1055 35.4099C88.4855 37.3526 88.1755 38.7579 88.1755 39.6259ZM85.3235 40.4319V41.1139C85.3235 41.5273 85.3648 41.9819 85.4475 42.4779C85.4475 42.7673 85.4888 42.9533 85.5715 43.0359V43.2839V43.4079L85.6335 43.5319V43.6559L85.7575 44.2139V44.4619C85.9228 44.8753 86.0675 45.1646 86.1915 45.3299C86.2741 45.4126 86.3155 45.4746 86.3155 45.5159H86.3775C86.4601 45.6399 86.5221 45.7226 86.5635 45.7639H86.6255H86.8115V45.5159C86.7701 45.5159 86.7495 45.4953 86.7495 45.4539V45.3919V45.3299L86.6875 45.2059L86.5635 44.5859L86.4395 44.1519L86.2535 43.1599V42.9739C86.2121 42.9326 86.1915 42.8913 86.1915 42.8499L86.0055 41.5479C85.9641 41.5479 85.9435 41.5066 85.9435 41.4239V41.3619V40.9899L85.8195 40.8039V40.7419C85.7781 40.7006 85.7575 40.6593 85.7575 40.6179C85.6748 40.5353 85.6128 40.4939 85.5715 40.4939L85.4475 40.4319H85.3235ZM85.3235 40.4319V41.1139C85.3235 41.5273 85.3648 41.9819 85.4475 42.4779C85.4475 42.7673 85.4888 42.9533 85.5715 43.0359V43.2839V43.4079L85.6335 43.5319V43.6559L85.7575 44.2139V44.4619C85.9228 44.8753 86.0675 45.1646 86.1915 45.3299C86.2741 45.4126 86.3155 45.4746 86.3155 45.5159H86.3775C86.4601 45.6399 86.5221 45.7226 86.5635 45.7639H86.6255H86.8115V45.5159C86.7701 45.5159 86.7495 45.4953 86.7495 45.4539V45.3919V45.3299L86.6875 45.2059L86.5635 44.5859L86.4395 44.1519L86.2535 43.1599V42.9739C86.2121 42.9326 86.1915 42.8913 86.1915 42.8499L86.0055 41.5479C85.9641 41.5479 85.9435 41.5066 85.9435 41.4239V41.3619V40.9899L85.8195 40.8039V40.7419C85.7781 40.7006 85.7575 40.6593 85.7575 40.6179C85.6748 40.5353 85.6128 40.4939 85.5715 40.4939L85.4475 40.4319H85.3235ZM106.221 46.2599L103.803 29.7059C103.803 29.6646 103.782 29.5819 103.741 29.4579C103.741 29.3339 103.741 29.2513 103.741 29.2099C103.741 28.5073 104.01 28.1559 104.547 28.1559L104.919 28.2179L105.353 28.4659C105.684 28.6313 105.87 28.7139 105.911 28.7139C106.159 28.7966 106.779 28.8379 107.771 28.8379C108.763 29.0033 109.466 30.1813 109.879 32.3719C109.879 32.4133 109.879 32.4753 109.879 32.5579C109.92 32.5993 109.941 32.6406 109.941 32.6819L110.003 32.7439C110.044 32.8266 110.065 32.8886 110.065 32.9299H110.251C111.367 31.6899 112.338 30.9046 113.165 30.5739C113.992 30.2433 115.273 30.0779 117.009 30.0779C117.629 30.0779 118.104 30.4293 118.435 31.1319C118.766 31.7933 118.931 32.4753 118.931 33.1779C118.931 33.3846 118.848 33.5913 118.683 33.7979C118.518 33.9633 118.311 34.0459 118.063 34.0459C117.856 34.0459 117.588 33.9839 117.257 33.8599C116.926 33.7359 116.678 33.6739 116.513 33.6739C115.728 33.6739 114.591 34.5419 113.103 36.2779C111.656 37.9726 110.85 39.2746 110.685 40.1839C110.685 40.5146 110.706 41.1759 110.747 42.1679C110.83 43.1186 110.912 44.1313 110.995 45.2059C111.078 46.2806 111.119 46.9213 111.119 47.1279C111.119 47.9546 111.222 48.6779 111.429 49.2979V49.5459C111.429 49.8353 111.284 50.0626 110.995 50.2279L110.933 50.2899H110.871C110.747 50.3726 110.685 50.4346 110.685 50.4759C110.313 51.0133 109.528 51.2819 108.329 51.2819H108.143C107.151 51.2819 106.634 51.1786 106.593 50.9719L106.221 46.2599ZM123.189 54.1959C123.189 53.8653 123.251 53.6173 123.375 53.4519L124.181 52.5839C124.264 52.4186 124.388 52.0466 124.553 51.4679C124.719 50.8479 124.925 50.3726 125.173 50.0419C125.463 49.7113 125.876 49.5459 126.413 49.5459C126.579 49.5459 126.827 49.5666 127.157 49.6079C127.529 49.6493 127.798 49.6699 127.963 49.6699C129.286 49.6699 130.857 49.2153 132.675 48.3059C133.089 48.1819 133.295 47.9339 133.295 47.5619C133.295 46.4046 132.82 45.4746 131.869 44.7719C130.919 44.0279 129.865 43.5113 128.707 43.2219C127.55 42.8913 126.351 42.4573 125.111 41.9199C123.913 41.3826 123.107 40.7419 122.693 39.9979C122.693 39.9566 122.673 39.7706 122.631 39.4399C122.631 39.0679 122.631 38.8406 122.631 38.7579C122.631 38.6753 122.631 38.4686 122.631 38.1379C122.673 37.8073 122.693 37.6213 122.693 37.5799C122.693 37.4973 122.797 36.4226 123.003 34.3559C123.21 33.4466 123.727 32.5373 124.553 31.6279C126 30.0986 127.385 28.9619 128.707 28.2179C130.03 27.4326 131.58 27.0399 133.357 27.0399C134.556 27.0399 135.631 27.3293 136.581 27.9079C137.532 28.4453 138.007 29.3133 138.007 30.5119C138.007 30.8839 137.904 31.1526 137.697 31.3179C137.615 31.3179 137.346 31.3386 136.891 31.3799C136.478 31.4213 136.23 31.4419 136.147 31.4419C135.941 31.4419 135.631 31.4419 135.217 31.4419C134.804 31.4006 134.432 31.4006 134.101 31.4419C133.771 31.4419 133.481 31.5039 133.233 31.6279C132.117 32.0826 131.063 32.8059 130.071 33.7979C129.079 34.7486 128.583 35.7406 128.583 36.7739V36.8979L129.637 37.9519L130.071 38.0759C131.477 38.5719 132.51 38.9853 133.171 39.3159C133.833 39.6053 134.515 40.1426 135.217 40.9279C135.961 41.6719 136.478 42.6019 136.767 43.7179C136.85 43.9246 136.995 44.4206 137.201 45.2059C137.408 45.9913 137.511 46.4046 137.511 46.4459V47.0039C137.511 48.3679 136.561 49.8766 134.659 51.5299L134.225 51.9019C131.911 54.0513 128.955 55.1259 125.359 55.1259H125.235C123.871 55.1259 123.189 54.8159 123.189 54.1959ZM128.893 51.9019C127.943 51.9019 127.467 52.0879 127.467 52.4599V52.5839C128.501 52.2946 129.059 52.0673 129.141 51.9019H128.893ZM125.855 36.0299V36.2159H126.103V36.0299H125.855ZM141.704 35.5959C141.704 34.2319 142.386 32.7233 143.75 31.0699C146.519 27.7633 149.474 26.1099 152.616 26.1099C154.186 26.1099 155.654 26.7506 157.018 28.0319C158.382 29.2719 159.064 30.6773 159.064 32.2479C159.064 34.7693 158.898 36.4226 158.568 37.2079C158.237 38.0346 157.328 38.7579 155.84 39.3779C154.352 39.9566 153.008 40.3286 151.81 40.4939C151.148 40.6179 149.826 40.7833 147.842 40.9899L147.656 41.1759V41.2999C148.772 43.5319 150.549 44.6479 152.988 44.6479C153.277 44.6479 153.67 44.5653 154.166 44.3999C154.662 44.1933 155.034 44.0899 155.282 44.0899H155.406C156.026 44.5033 156.356 44.8959 156.398 45.2679C156.398 45.3093 156.398 45.4746 156.398 45.7639C156.439 46.0119 156.46 46.1566 156.46 46.1979L156.398 47.0659C156.315 48.4299 156.15 49.2566 155.902 49.5459C155.654 49.7939 154.848 49.9179 153.484 49.9179H151.872C148.813 49.9179 146.705 48.8639 145.548 46.7559C144.68 45.1853 144.039 43.9659 143.626 43.0979C143.212 42.2299 142.778 41.0726 142.324 39.6259C141.91 38.1793 141.704 36.8359 141.704 35.5959ZM146.54 36.2159C147.118 36.4226 147.945 36.5259 149.02 36.5259C149.805 36.5259 151.148 36.2779 153.05 35.7819C154.992 35.2446 155.964 34.7899 155.964 34.4179C155.964 33.3846 155.654 32.4546 155.034 31.6279C154.455 30.8013 153.69 30.3879 152.74 30.3879C151.624 30.3879 150.714 30.6153 150.012 31.0699C149.226 31.7313 148.503 32.4546 147.842 33.2399C146.974 34.3559 146.54 35.2033 146.54 35.7819V36.2159ZM147.346 45.0819C147.346 45.4539 147.594 45.8673 148.09 46.3219C148.627 46.7353 149.102 46.9419 149.516 46.9419V46.7559L147.532 45.0819H147.346ZM162.959 45.9499L164.509 34.9759C164.633 34.1079 164.695 33.0746 164.695 31.8759C164.736 31.8346 164.963 31.6693 165.377 31.3799C165.831 31.0906 166.203 30.8839 166.493 30.7599C166.823 30.6359 167.133 30.5739 167.423 30.5739H167.547C169.531 30.7806 170.523 31.1733 170.523 31.7519L170.461 34.4799L167.485 51.4059C167.443 51.4059 167.381 51.4266 167.299 51.4679C167.216 51.4679 167.154 51.4679 167.113 51.4679C166.989 51.5506 166.906 51.6126 166.865 51.6539L166.741 51.8399C166.658 52.0053 166.555 52.1706 166.431 52.3359C166.348 52.4599 166.265 52.5219 166.183 52.5219H165.191C164.901 52.5219 164.674 52.6046 164.509 52.7699H164.323C163.868 52.7699 163.496 52.5633 163.207 52.1499C162.959 51.6953 162.835 51.2199 162.835 50.7239L162.959 45.9499ZM166.741 26.4819C166.741 26.4406 166.72 26.2339 166.679 25.8619C166.679 25.4486 166.679 25.2006 166.679 25.1179C166.761 23.3406 167.154 21.9353 167.857 20.9019C168.601 19.8686 169.779 19.3726 171.391 19.4139C172.135 19.4139 172.507 19.9719 172.507 21.0879V21.5219C172.465 21.5633 172.424 21.7079 172.383 21.9559L171.329 25.9859C171.163 26.6059 170.853 27.2053 170.399 27.7839C169.944 28.3626 169.407 28.6519 168.787 28.6519C167.877 28.6106 167.195 27.8873 166.741 26.4819ZM176.525 50.1659C176.525 49.7939 176.525 49.2359 176.525 48.4919C176.567 47.7066 176.587 47.1279 176.587 46.7559C176.587 44.6893 176.525 41.6306 176.401 37.5799C176.277 33.5293 176.215 30.4706 176.215 28.4039C176.215 22.6999 176.443 16.7893 176.897 10.6719C176.98 10.5066 177.311 10.2586 177.889 9.92794C178.509 9.55594 178.902 9.36994 179.067 9.36994C179.935 9.36994 180.638 9.7626 181.175 10.5479C181.754 11.3333 182.043 12.1599 182.043 13.0279C182.043 15.2599 181.919 18.6286 181.671 23.1339C181.465 27.6393 181.361 31.0079 181.361 33.2399V47.8719C181.279 48.2026 181.217 48.6573 181.175 49.2359C181.175 49.8146 181.072 50.2279 180.865 50.4759C180.7 50.7239 180.287 50.9513 179.625 51.1579C178.923 51.3646 178.551 51.4679 178.509 51.4679C177.848 51.4679 177.187 51.0339 176.525 50.1659ZM186.092 50.1659C186.092 49.7939 186.092 49.2359 186.092 48.4919C186.133 47.7066 186.154 47.1279 186.154 46.7559C186.154 44.6893 186.092 41.6306 185.968 37.5799C185.844 33.5293 185.782 30.4706 185.782 28.4039C185.782 22.6999 186.009 16.7893 186.464 10.6719C186.547 10.5066 186.877 10.2586 187.456 9.92794C188.076 9.55594 188.469 9.36994 188.634 9.36994C189.502 9.36994 190.205 9.7626 190.742 10.5479C191.321 11.3333 191.61 12.1599 191.61 13.0279C191.61 15.2599 191.486 18.6286 191.238 23.1339C191.031 27.6393 190.928 31.0079 190.928 33.2399V47.8719C190.845 48.2026 190.783 48.6573 190.742 49.2359C190.742 49.8146 190.639 50.2279 190.432 50.4759C190.267 50.7239 189.853 50.9513 189.192 51.1579C188.489 51.3646 188.117 51.4679 188.076 51.4679C187.415 51.4679 186.753 51.0339 186.092 50.1659ZM195.348 35.5959C195.348 34.2319 196.03 32.7233 197.394 31.0699C200.164 27.7633 203.119 26.1099 206.26 26.1099C207.831 26.1099 209.298 26.7506 210.662 28.0319C212.026 29.2719 212.708 30.6773 212.708 32.2479C212.708 34.7693 212.543 36.4226 212.212 37.2079C211.882 38.0346 210.972 38.7579 209.484 39.3779C207.996 39.9566 206.653 40.3286 205.454 40.4939C204.793 40.6179 203.47 40.7833 201.486 40.9899L201.3 41.1759V41.2999C202.416 43.5319 204.194 44.6479 206.632 44.6479C206.922 44.6479 207.314 44.5653 207.81 44.3999C208.306 44.1933 208.678 44.0899 208.926 44.0899H209.05C209.67 44.5033 210.001 44.8959 210.042 45.2679C210.042 45.3093 210.042 45.4746 210.042 45.7639C210.084 46.0119 210.104 46.1566 210.104 46.1979L210.042 47.0659C209.96 48.4299 209.794 49.2566 209.546 49.5459C209.298 49.7939 208.492 49.9179 207.128 49.9179H205.516C202.458 49.9179 200.35 48.8639 199.192 46.7559C198.324 45.1853 197.684 43.9659 197.27 43.0979C196.857 42.2299 196.423 41.0726 195.968 39.6259C195.555 38.1793 195.348 36.8359 195.348 35.5959ZM200.184 36.2159C200.763 36.4226 201.59 36.5259 202.664 36.5259C203.45 36.5259 204.793 36.2779 206.694 35.7819C208.637 35.2446 209.608 34.7899 209.608 34.4179C209.608 33.3846 209.298 32.4546 208.678 31.6279C208.1 30.8013 207.335 30.3879 206.384 30.3879C205.268 30.3879 204.359 30.6153 203.656 31.0699C202.871 31.7313 202.148 32.4546 201.486 33.2399C200.618 34.3559 200.184 35.2033 200.184 35.7819V36.2159ZM200.99 45.0819C200.99 45.4539 201.238 45.8673 201.734 46.3219C202.272 46.7353 202.747 46.9419 203.16 46.9419V46.7559L201.176 45.0819H200.99Z" fill="#059034"/>
<path d="M0 22.8016C0 17.1909 2.55215 13.1833 7.65644 10.7787C7.86912 10.6718 8.00205 10.6184 8.05522 10.6184C11.6176 9.76342 13.7178 9.33594 14.3558 9.33594H15.0736C15.1268 9.33594 15.2331 9.38937 15.3926 9.49624C15.5521 9.54967 15.6585 9.57639 15.7117 9.57639C16.0307 9.62983 16.6155 9.65654 17.4663 9.65654C18.317 9.65654 18.9284 9.7367 19.3006 9.897L19.9387 10.2176V10.4581C20.1513 10.4581 20.3374 10.5917 20.4969 10.8588C20.7096 11.126 20.9489 11.2596 21.2147 11.2596L21.5337 11.0993H21.6135C21.773 11.0993 22.2515 11.4199 23.0491 12.0611C24.8569 13.397 25.7607 15.6413 25.7607 18.7939C25.7607 18.9008 25.7076 19.0611 25.6012 19.2749C25.4949 19.4352 25.4417 19.5955 25.4417 19.7558V19.8359C25.5481 19.7825 25.6544 19.6489 25.7607 19.4352L25.9202 19.1146C25.9734 19.4886 26 20.6375 26 22.5611V24.6451C25.8405 24.9123 25.7342 25.2863 25.681 25.7672C25.6278 26.2481 25.5746 26.7558 25.5215 27.2901C25.5215 27.8245 25.4949 28.1985 25.4417 28.4123L25.2822 28.252C25.229 28.252 25.0164 28.8398 24.6442 30.0153C24.272 31.1909 23.8466 32.4466 23.3681 33.7825C22.8896 35.0649 22.5174 35.8932 22.2515 36.2672C22.092 36.481 21.8793 36.8283 21.6135 37.3092C21.4008 37.7901 21.2679 38.084 21.2147 38.1909C21.1616 38.2978 21.1084 38.5115 21.0552 38.8321C21.0552 39.0993 21.002 39.3398 20.8957 39.5535C20.7894 39.7138 20.6299 39.8207 20.4172 39.8741C20.4172 40.355 20.2843 40.8359 20.0184 41.3168C19.7526 41.7978 19.4335 42.3054 19.0614 42.8398C18.6892 43.3207 18.4233 43.6947 18.2638 43.9619C18.2106 44.0688 18.1043 44.1489 17.9448 44.2023C17.7853 44.2558 17.7055 44.3092 17.7055 44.3627V45.3245C17.5992 45.4314 17.4131 45.6718 17.1472 46.0459C16.8814 46.3665 16.6155 46.7405 16.3497 47.168C16.0838 47.542 15.9243 47.7558 15.8712 47.8092L14.9141 48.7711C14.8609 49.0382 14.8344 49.1985 14.8344 49.252C14.1963 50.6413 13.1329 51.3359 11.6442 51.3359C10.5276 51.3359 9.41104 50.5878 8.29448 49.0917C6.69939 46.6871 4.9182 42.8932 2.95092 37.71C0.98364 32.5268 0 27.5573 0 22.8016ZM7.17791 41.0764L9.25153 45.3245C9.3047 45.3779 9.38446 45.5649 9.4908 45.8856C9.65031 46.2062 9.78323 46.4733 9.88957 46.6871C10.0491 46.9008 10.2086 47.1413 10.3681 47.4085C10.5808 47.6756 10.7669 47.8894 10.9264 48.0497C11.1391 48.1565 11.3517 48.21 11.5644 48.21C11.8303 48.21 12.0961 48.1565 12.362 48.0497C12.6278 47.8894 12.8405 47.7558 13 47.6489C13.2127 47.4886 13.4254 47.2481 13.638 46.9275C13.9039 46.5535 14.09 46.313 14.1963 46.2062C14.3027 46.0459 14.4622 45.7787 14.6748 45.4046C14.9407 44.9772 15.0736 44.7367 15.0736 44.6833C15.7648 43.8283 16.2699 42.9466 16.589 42.0382C17.4397 40.3283 18.5828 37.7901 20.0184 34.4237C20.8691 32.3932 21.4806 30.042 21.8528 27.3703C21.7996 26.9962 21.7996 26.4619 21.8528 25.7672C21.9591 25.0726 22.0123 24.5917 22.0123 24.3245C22.0123 20.584 21.3742 17.6985 20.0982 15.668C18.8221 13.6375 16.4294 12.6222 12.9202 12.6222H12.362C9.65031 12.6222 7.86912 13.023 7.01841 13.8245C5.15746 15.5344 4.01432 17.2978 3.58896 19.1146L3.26994 25.6871V26.3283C3.26994 26.3817 3.32311 26.7825 3.42945 27.5306C3.58896 28.2252 3.6953 28.6527 3.74847 28.813C4.17382 31.271 4.41309 32.5535 4.46626 32.6604C4.99796 34.9046 5.52965 36.855 6.06135 38.5115C6.11452 38.6718 6.27403 39.0726 6.53988 39.7138C6.8589 40.3016 7.07158 40.7558 7.17791 41.0764ZM9.73006 26.168C8.77301 25.0993 8.29448 24.0573 8.29448 23.042C8.29448 22.0268 8.74642 21.0649 9.65031 20.1565C10.5542 19.2481 11.5112 18.7939 12.5215 18.7939C13.5849 18.7939 14.3824 18.9008 14.9141 19.1146C15.4458 19.2749 16.0041 19.7291 16.589 20.4772C17.0143 20.9046 17.227 21.3588 17.227 21.8398C17.227 21.8932 17.2004 21.9466 17.1472 22.0001C17.1472 22.0535 17.1472 22.1069 17.1472 22.1604C16.9877 22.3741 16.908 22.5077 16.908 22.5611V23.7634C16.908 23.9237 16.8282 24.0306 16.6687 24.084C16.5624 24.1375 16.5092 24.2176 16.5092 24.3245C16.4029 24.4848 16.2965 24.7252 16.1902 25.0459C16.137 25.313 16.0307 25.5268 15.8712 25.6871L14.1963 27.3703C13.9305 27.584 13.4519 27.6909 12.7607 27.6909C11.7505 27.6909 10.7403 27.1833 9.73006 26.168ZM13.5583 21.1184C12.0695 21.1184 11.3252 21.4924 11.3252 22.2405V23.9237C11.3252 24.1375 11.4581 24.3512 11.7239 24.5649C11.9898 24.7787 12.229 24.8856 12.4417 24.8856C13.0798 24.8856 13.5583 24.5917 13.8773 24.0039C14.1963 23.3627 14.3558 22.6947 14.3558 22.0001V21.5191L14.0368 21.1985C13.8241 21.1451 13.6646 21.1184 13.5583 21.1184Z" fill="#059034"/>
</svg>
