<svg width="211" height="252" viewBox="0 0 211 252" fill="none" xmlns="http://www.w3.org/2000/svg">
<path d="M149.583 35.1012C147.167 33.7041 144.461 32.8857 141.676 32.71C137.839 32.3354 138.095 32.5729 136.162 29.4778C127.891 16.0982 108.727 17.4231 95.4571 19.4851C76.6095 22.3393 58.3502 28.2338 41.3914 36.9387C27.5423 44.1679 11.1426 54.2412 8.55626 71.0063C8.50553 71.3109 8.52113 71.6229 8.60199 71.9209C8.57796 75.9975 9.05164 80.0618 10.0125 84.0237C10.9818 89.2325 8.99479 90.6893 8.07831 95.0444C7.52924 98.0909 7.74111 101.226 8.6951 104.171C9.64909 107.116 11.3157 109.779 13.5468 111.925C17.0249 115.201 21.7622 116.224 26.5368 116.373C36.5025 139.144 47.7537 161.33 60.236 182.824C66.6651 193.956 73.217 205.044 80.2878 215.795C85.7318 224.222 91.68 229.18 101.909 229.893C122.853 231.373 144.805 223.76 161.749 211.754C168.897 206.691 178.574 199.653 181.564 191.001C184.719 181.982 179.41 169.819 177.324 161.09C170.147 130.867 163.279 100.639 155.272 70.6041C155.122 69.9323 154.741 69.3343 154.195 68.9143C157.827 65.1733 159.443 61.1925 158.389 54.5657C157.143 47.7827 156.06 39.0634 149.583 35.1012ZM168.983 157.318C170.539 164.096 172.038 170.911 173.542 177.69C175.264 185.874 173.893 190.751 168.012 196.524C158.386 205.813 146.863 212.909 134.236 217.324C123.498 221.098 107.49 225.519 96.1516 222.093C89.1202 220.084 85.4918 212.949 81.7057 207.179C77.7408 201.162 73.8811 195.085 70.1267 188.948C55.598 165.462 42.6901 141.097 30.5061 116.339C32.2126 116.291 34.0202 116.138 35.6537 116.029C46.1883 115.198 56.6368 113.503 66.8934 110.96C87.1659 106.016 106.727 98.5146 125.107 88.6355C133.478 84.1995 141.485 79.1085 149.054 73.4101C155.506 101.424 162.547 129.299 168.983 157.318ZM154.523 54.9423C156.825 69.3344 132.439 80.3707 121.779 86.0311C106.717 93.9576 90.872 100.296 74.4988 104.943C66.2395 107.318 57.8431 109.187 49.3563 110.54C41.1905 111.825 31.7272 113.635 23.5722 112.107C12.4976 110.019 10.0961 100.54 13.905 91.2728C14.7215 89.7444 15.1227 88.0286 15.0684 86.2966C14.8877 85.5125 14.6201 84.7511 14.2704 84.0264C12.6603 80.0245 12.0309 75.6955 12.4349 71.4009C12.4349 71.4009 12.4079 71.3242 12.3971 71.2935C16.481 48.5903 48.4457 36.5616 67.3911 30.2985C83.7127 24.906 126.113 11.3807 134.311 35.1954C134.463 35.5896 134.735 35.9262 135.089 36.1576C135.442 36.3889 135.859 36.5035 136.281 36.4849C139.851 36.54 143.474 36.4039 146.651 38.2343C152.433 41.493 153.413 48.9387 154.523 54.9423Z" fill="#940F30"/>
<path d="M127.721 43.113C111.583 52.853 96.8101 63.0439 78.9079 69.578C61.0056 76.1121 42.9841 77.8452 24.5055 81.5141C23.1063 81.7991 22.5938 84.1164 24.3297 84.299C42.7804 86.1894 63.3798 80.7582 80.6611 74.6147C97.9423 68.4712 117.375 59.5724 131.114 46.8838C133.369 44.8158 130.068 41.7018 127.721 43.113Z" fill="#940F30"/>
<path d="M102.15 137.173C97.9753 142.949 95.278 155.427 98.7131 162.061C99.4877 163.649 100.707 164.978 102.222 165.887C103.738 166.795 105.485 167.243 107.25 167.178C114.217 170.865 124.08 169.311 131.052 167.325C139.277 164.985 151.177 160.251 155.125 151.969C158.812 144.366 157.384 133.389 152.176 126.861C146.717 120.007 138.626 118.612 130.655 121.431C121.994 124.544 107.803 129.378 102.15 137.173ZM107.787 150.857C108.475 153.379 109.604 155.76 111.121 157.889C111.342 158.204 111.655 158.443 112.016 158.574C112.475 159.292 112.939 159.973 113.491 160.71C113.674 160.95 113.903 161.15 114.164 161.301C108.422 160.458 104.56 157.61 107.787 150.857ZM108.303 140.508L108.277 140.827C108.026 140.909 107.804 141.063 107.641 141.271C107.478 141.479 107.38 141.73 107.36 141.994C107.205 143.049 107.125 144.114 107.119 145.181C106.573 144.919 105.968 144.805 105.365 144.849C106.081 143.103 107.105 141.499 108.389 140.116C108.362 140.239 108.348 140.365 108.349 140.492L108.303 140.508ZM114.61 153.94C113.947 149.554 113.254 145.179 112.658 140.838C112.598 140.515 112.474 140.208 112.292 139.935C112.11 139.661 111.875 139.427 111.601 139.247C111.327 139.067 111.019 138.943 110.696 138.885C110.373 138.826 110.042 138.833 109.722 138.906C111.58 137.322 113.656 136.012 115.886 135.016C117.6 134.206 119.548 133.177 121.644 132.13C121.257 132.524 121.036 133.052 121.026 133.605C120.849 138.838 120.326 145.295 121.713 150.857C121.601 152.153 121.378 153.437 121.045 154.694C120.08 152.708 119.345 150.619 118.856 148.466C118.749 144.729 118.539 140.994 118.381 137.31C118.322 136.809 118.088 136.344 117.72 135.998C117.353 135.653 116.875 135.447 116.371 135.419C115.868 135.39 115.37 135.54 114.965 135.842C114.561 136.144 114.276 136.579 114.16 137.07C113.563 141.683 113.875 146.369 115.079 150.862C115.109 152.098 115.048 153.335 114.898 154.563C114.837 154.291 114.768 154.194 114.656 153.924L114.61 153.94ZM119.943 161.562C119.881 161.332 119.77 161.118 119.616 160.936C119.463 160.754 119.272 160.608 119.056 160.508C118.84 160.408 118.605 160.357 118.367 160.358C118.129 160.359 117.894 160.412 117.679 160.513L117.08 160.724C117.621 160.156 118.054 159.496 118.36 158.774C118.699 159.396 119.039 160.018 119.429 160.639C119.734 161.071 120.191 161.372 120.708 161.482L119.943 161.562ZM133.883 159.005C130.089 160.302 126.145 161.109 122.147 161.407C122.434 161.282 122.679 161.076 122.852 160.815C123.608 159.681 124.207 158.45 124.633 157.155L124.692 157.324C124.919 157.632 125.22 157.878 125.568 158.037C125.916 158.196 126.299 158.264 126.68 158.233C127.061 158.203 127.428 158.075 127.747 157.863C128.065 157.651 128.323 157.361 128.498 157.02C129.059 156.067 129.538 155.069 129.93 154.035C130.194 154.586 130.568 155.078 131.029 155.479C131.49 155.88 132.029 156.182 132.612 156.367C132.96 156.536 133.347 156.607 133.733 156.575C134.119 156.542 134.489 156.407 134.804 156.182C136.089 154.944 137.065 153.42 137.653 151.734C137.955 152.593 138.251 153.437 138.666 154.274C138.82 154.651 139.077 154.977 139.41 155.214C139.742 155.45 140.134 155.587 140.541 155.609C140.949 155.63 141.353 155.535 141.709 155.335C142.064 155.135 142.354 154.837 142.547 154.478C143.684 152.66 144.54 150.68 145.084 148.605C145.481 148.86 145.947 148.987 146.418 148.969C146.889 148.951 147.344 148.789 147.72 148.506C148.199 148.701 148.731 148.722 149.223 148.563C146.442 153.988 139.336 156.865 133.929 158.989L133.883 159.005ZM150.486 143.724C150.291 142.776 150.122 141.853 150.009 140.945C150.124 139.523 150.084 138.092 149.888 136.679C150.549 138.96 150.767 141.346 150.532 143.708L150.486 143.724ZM145.183 129.078C145.869 129.638 146.487 130.277 147.024 130.981C147.818 132.027 148.479 133.166 148.992 134.374C148.78 134.16 148.528 133.99 148.25 133.874C147.972 133.757 147.673 133.698 147.372 133.698C147.071 133.698 146.772 133.758 146.494 133.874C146.216 133.991 145.964 134.161 145.752 134.376C145.646 132.552 145.437 130.781 145.229 129.062L145.183 129.078ZM141.353 129.166C141.312 132.246 141.523 135.325 141.986 138.371C142.098 141.664 141.69 144.954 140.777 148.12C140.172 146.252 139.703 144.344 139.373 142.409C139.554 138.131 139.481 133.846 139.154 129.577C139.013 127.265 135.29 126.92 134.995 129.316C134.545 132.862 134.493 136.447 134.839 140.004C134.764 140.771 134.699 141.518 134.594 142.296C134.447 143.399 132.839 149.807 133.078 149.947C132.631 149.656 132.159 143.755 132.131 143.576C131.607 139.83 131.228 136.103 131.053 132.321C130.886 129.984 126.977 129.6 126.832 132.081C126.886 132.235 126.823 132.447 126.8 132.627C126.526 138.566 127.641 144.826 126.223 150.599C126.126 150.323 126.024 150.031 125.927 149.755C126.008 144.217 125.787 138.68 125.266 133.166C125.268 132.886 125.207 132.609 125.088 132.355C124.97 132.102 124.796 131.878 124.58 131.699C124.364 131.521 124.111 131.393 123.839 131.325C123.567 131.257 123.284 131.25 123.009 131.305C129.365 128.158 136.701 125.148 142.419 127.344C142.091 127.512 141.82 127.773 141.639 128.094C141.457 128.415 141.374 128.782 141.399 129.15L141.353 129.166Z" fill="#940F30"/>
<path d="M57.4058 59.3526C70.5458 55.6558 83.4366 51.1245 95.9997 45.7864C103.062 42.7352 112.523 38.8582 117.606 32.7281C120.143 29.6477 121.201 23.5882 115.81 23.4496C113.86 23.3939 113.76 26.445 115.607 26.7955C118.274 27.3229 109.923 34.257 109.2 34.7007C106.354 36.4737 103.41 38.084 100.382 39.5237C93.9429 42.6316 87.2458 45.0547 80.5288 47.5192C72.462 50.4582 64.3304 53.2131 56.101 55.6405C52.2313 56.7422 48.3346 57.7672 44.3994 58.6335C39.2444 59.7561 31.1675 62.0782 25.4509 60.9164L26.2072 59.0477C26.3279 58.7023 26.3163 58.3243 26.1746 57.9869C26.0329 57.6496 25.7712 57.3766 25.44 57.2209C25.1089 57.0652 24.7318 57.0377 24.3815 57.1438C24.0313 57.2498 23.7328 57.4819 23.5437 57.7952L21.5288 61.3299C21.3306 61.7511 21.306 62.2333 21.4603 62.6725C21.6147 63.1116 21.9356 63.4724 22.3538 63.6769C31.8263 68.12 47.88 62.0633 57.4058 59.3526Z" fill="#940F30"/>
</svg>
