<svg width="414" height="348" viewBox="0 0 414 348" fill="none" xmlns="http://www.w3.org/2000/svg">
<path d="M264.462 90.6112C267.712 107.159 255.17 118.671 241.05 124.205C236.792 125.86 231.731 126.338 227.642 128.226C224.573 129.65 222.778 133.712 220.178 136.066C213.124 142.478 203.704 146.248 195.145 150.086C173.458 159.83 150.714 167.022 127.368 171.518C116.557 173.598 105.283 175.602 94.2571 175.971C87.165 176.208 80.5074 174.789 76.2525 168.737C73.9612 165.47 79.2855 162.305 81.5555 165.549C87.5196 174.057 106.713 168.72 115.02 167.447C125.726 165.777 136.335 163.538 146.803 160.74C168.268 155.03 190.495 147.408 209.669 136.069C213.957 133.68 217.628 130.323 220.389 126.265C222.758 122.721 223.469 122.993 227.903 121.909C236.417 119.854 245.579 117.161 252.196 111.138C255.895 107.888 258.32 103.431 259.04 98.5605C259.76 93.6899 258.728 88.7218 256.128 84.5409C249.796 74.4094 236.318 73.195 226.961 79.6044C224.994 80.9546 222.911 79.1637 222.671 77.2089C221.635 68.2748 219.758 55.7691 210.624 51.4735C197.368 45.2223 187.228 60.0292 181.949 69.8677C181.698 70.2912 181.34 70.642 180.912 70.8857C180.484 71.1294 179.999 71.2576 179.507 71.2576C179.014 71.2577 178.53 71.1297 178.102 70.8862C177.673 70.6427 177.316 70.292 177.064 69.8685C164.415 46.9296 134.809 35.0758 109.988 44.4453C84.7824 54.0708 70.6721 83.736 77.3091 109.443C77.4173 109.84 77.4331 110.257 77.3553 110.662C77.2775 111.066 77.1081 111.448 76.8601 111.777C76.6121 112.106 76.292 112.374 75.9245 112.56C75.557 112.746 75.1517 112.846 74.7397 112.851C54.9597 111.903 36.0615 126.324 31.7654 145.746C29.1268 157.676 32.3895 172.641 45.5936 176.398C55.0604 179.094 65.3908 176.042 74.3166 172.824C76.3945 172.078 77.3116 175.392 75.2473 176.135C64.5385 180.046 51.7702 183.562 40.7895 178.841C29.1484 173.818 25.1836 160.556 26.4376 148.794C28.9194 126.383 49.1559 108.428 71.3739 107.495C66.0622 80.412 80.7154 50.6827 106.639 39.8814C132.562 29.08 164.054 39.9756 179.396 62.9395C186.326 51.7808 197.47 40.4407 211.595 45.7392C222.533 49.8374 226.036 61.9303 227.701 72.6804C242.551 65.5973 261.092 73.4772 264.462 90.6112Z" fill="#0074DD"/>
<path fill-rule="evenodd" clip-rule="evenodd" d="M150.319 239.871C154.984 243.34 158.421 248.207 160.129 253.763C161.306 257.949 162.01 264.969 156.58 266.496C150.602 268.177 146.382 261.2 145.239 256.4C144.02 251.652 144.28 246.645 145.987 242.049C145.594 241.805 145.204 241.575 144.801 241.349C142.344 239.959 144.487 236.138 146.931 237.533C147.267 237.721 147.576 237.924 147.889 238.128C148.017 238.212 148.145 238.296 148.276 238.379C148.511 238.313 148.757 238.301 148.997 238.344C149.238 238.387 149.465 238.484 149.662 238.627C149.858 238.771 150.02 238.958 150.134 239.174C150.248 239.389 150.311 239.628 150.319 239.871ZM148.45 243.88C150.428 245.454 152.132 247.344 153.492 249.474C154.432 250.922 155.2 252.475 155.781 254.1C156.059 254.877 156.282 255.673 156.45 256.48C157.612 258.722 156.881 259.902 154.292 260.039C152.42 261.815 151.044 261.543 150.165 259.222C150.114 259.118 150.063 259.014 150.012 258.91C149.687 258.252 149.365 257.601 149.051 256.937C148.396 255.108 148.007 253.194 147.896 251.254C147.632 248.783 147.819 246.284 148.45 243.88Z" fill="#0074DD"/>
<path fill-rule="evenodd" clip-rule="evenodd" d="M99.0701 222.176C98.9504 221.869 98.9055 221.538 98.9391 221.21C98.9727 220.883 99.0839 220.568 99.2635 220.291L99.2404 220.209C99.2676 220.003 99.3398 219.806 99.4518 219.63C99.5637 219.455 99.7128 219.307 99.8884 219.195C100.064 219.084 100.262 219.013 100.468 218.986C100.674 218.96 100.884 218.979 101.082 219.042C101.435 218.979 101.797 218.995 102.143 219.09C102.488 219.184 102.809 219.354 103.08 219.587C107.893 223.474 113.796 229.402 115.329 235.642C116.346 239.785 114.723 244.669 110.494 246.168C98.3861 250.561 98.373 230.564 99.0701 222.176ZM109.784 234.559C110.901 236.799 111.795 243.234 106.566 241.486C102.096 240.027 101.465 231.009 101.653 224.801C103.632 226.599 105.464 228.551 107.133 230.64C108.138 231.86 109.026 233.172 109.784 234.559Z" fill="#0074DD"/>
<path fill-rule="evenodd" clip-rule="evenodd" d="M125.821 280.679C130.62 284.57 136.536 290.493 138.073 296.748C139.09 300.89 137.467 305.774 133.235 307.259C121.086 311.664 121.086 291.663 121.783 283.275C121.665 282.968 121.62 282.637 121.654 282.31C121.688 281.982 121.798 281.667 121.977 281.391L121.954 281.309C121.982 281.104 122.054 280.909 122.165 280.735C122.277 280.562 122.424 280.414 122.598 280.304C122.772 280.193 122.968 280.122 123.173 280.094C123.377 280.067 123.585 280.084 123.782 280.145C124.138 280.079 124.505 280.093 124.855 280.186C125.205 280.279 125.531 280.448 125.807 280.683L125.821 280.679ZM124.312 285.915C126.279 287.725 128.11 289.676 129.791 291.755L129.777 291.759C130.809 292.971 131.717 294.283 132.488 295.676C133.618 297.912 134.499 304.351 129.273 302.617C124.809 301.126 124.186 292.135 124.312 285.915Z" fill="#0074DD"/>
<path fill-rule="evenodd" clip-rule="evenodd" d="M187.289 287.102C192.088 290.993 198.004 296.917 199.537 303.158C200.541 307.304 198.918 312.188 194.699 313.669C182.554 318.088 182.541 298.091 183.251 289.699C183.128 289.394 183.08 289.064 183.111 288.737C183.142 288.409 183.252 288.094 183.431 287.818L183.408 287.736C183.436 287.532 183.508 287.336 183.62 287.163C183.731 286.989 183.879 286.842 184.053 286.731C184.227 286.621 184.423 286.549 184.627 286.522C184.831 286.494 185.039 286.512 185.236 286.573C185.601 286.49 185.981 286.493 186.344 286.583C186.708 286.673 187.046 286.847 187.33 287.091L187.289 287.102ZM185.78 292.339C187.749 294.146 189.581 296.098 191.259 298.178L191.3 298.167C192.313 299.387 193.203 300.704 193.956 302.099C195.082 304.321 195.967 310.774 190.737 309.027C186.274 307.536 185.65 298.545 185.78 292.339Z" fill="#0074DD"/>
<path fill-rule="evenodd" clip-rule="evenodd" d="M221.848 249.002C226.66 252.889 232.563 258.816 234.1 265.071C235.117 269.213 233.494 274.097 229.262 275.582C217.126 279.983 217.117 260 217.81 251.598C217.691 251.291 217.647 250.96 217.681 250.633C217.714 250.305 217.825 249.99 218.003 249.714L217.98 249.632C218.007 249.425 218.08 249.228 218.192 249.053C218.304 248.877 218.453 248.729 218.628 248.618C218.804 248.506 219.002 248.435 219.208 248.408C219.414 248.382 219.624 248.401 219.822 248.464C220.176 248.402 220.54 248.418 220.888 248.511C221.236 248.605 221.559 248.774 221.834 249.006L221.848 249.002ZM220.342 254.252C222.32 256.05 224.153 258.003 225.822 260.092L225.808 260.095C226.844 261.306 227.756 262.617 228.532 264.009C229.645 266.235 230.539 272.67 225.313 270.936C220.836 269.449 220.212 260.458 220.342 254.252Z" fill="#0074DD"/>
<path fill-rule="evenodd" clip-rule="evenodd" d="M187.354 220.972C192.011 224.887 195.115 230.339 196.103 236.343C196.62 240.227 195.933 245.764 191.412 246.798C179.928 249.422 182.231 229.896 183.834 222.995C183.766 222.56 183.831 222.115 184.021 221.719C184.211 221.322 184.517 220.993 184.898 220.773C185.28 220.554 185.718 220.456 186.157 220.491C186.595 220.527 187.013 220.694 187.354 220.972ZM186.622 227.432C187.224 228.211 187.829 228.996 188.366 229.824L188.407 229.812C189.8 231.93 192.936 237.1 191.461 239.729C191.682 241.512 190.878 241.591 189.052 239.978C187.258 239.951 186.365 239.14 186.392 237.553C185.92 235.934 185.706 234.251 185.757 232.565C185.65 230.573 185.726 228.575 185.983 226.597C186.193 226.876 186.408 227.153 186.622 227.432Z" fill="#0074DD"/>
<path fill-rule="evenodd" clip-rule="evenodd" d="M225.566 186.523C230.365 190.414 236.281 196.337 237.818 202.592C238.835 206.734 237.212 211.618 232.98 213.104C220.831 217.508 220.818 197.511 221.529 189.12C221.405 188.813 221.359 188.482 221.392 188.153C221.426 187.825 221.539 187.51 221.722 187.235L221.699 187.153C221.727 186.949 221.799 186.753 221.911 186.579C222.022 186.406 222.17 186.259 222.344 186.148C222.518 186.037 222.713 185.966 222.918 185.938C223.122 185.911 223.33 185.928 223.527 185.989C223.891 185.913 224.267 185.92 224.627 186.01C224.988 186.101 225.323 186.272 225.607 186.512L225.566 186.523ZM224.057 191.759C226.024 193.569 227.856 195.521 229.536 197.599L229.577 197.588C230.591 198.807 231.48 200.124 232.233 201.52C233.363 203.756 234.244 210.195 229.018 208.461C224.555 206.97 223.931 197.979 224.057 191.759Z" fill="#0074DD"/>
<path d="M305.41 119.199C339.137 118.865 372.145 113.619 403.593 101.22C405.15 100.625 406.436 102.913 404.854 103.544C373.328 115.962 339.37 123.188 305.338 122.328C304.922 122.318 304.527 122.143 304.239 121.843C303.952 121.542 303.795 121.14 303.805 120.725C303.814 120.31 303.989 119.916 304.29 119.63C304.591 119.344 304.993 119.189 305.41 119.199V119.199ZM291.515 90.0508C321.162 97.5638 354.229 92.2639 381.941 80.3972C383.668 79.6665 382.269 77.1298 380.559 77.8512C351.803 89.9934 322.48 91.4126 291.844 87.7432C290.524 87.5927 290.18 89.7097 291.515 90.0508Z" fill="#0074DD"/>
</svg>
