<svg width="64" height="79" viewBox="0 0 64 79" fill="none" xmlns="http://www.w3.org/2000/svg">
<path d="M61.0962 35.0956C44.7867 36.4315 39.3099 19.3118 42.798 6.20735C43.7233 2.72297 38.2263 1.78431 37.3071 5.22059C33.4156 19.696 39.5838 36.3314 53.8779 39.7591C45.395 46.8088 40.0044 56.5847 35.5921 66.6943C34.5678 61.8665 32.3773 57.3638 29.2119 53.5797C25.6472 49.5721 20.9424 47.5852 16.0119 46.0683C31.4709 39.8851 36.6185 18.5467 36.8283 2.21852C36.8507 0.154421 33.6549 0.439727 33.6049 2.49056C33.1942 19.5556 26.5411 45.8346 4.04671 42.5681C1.29927 42.1674 -0.435793 46.4534 2.45835 47.4689C9.38405 49.9269 17.9338 50.6306 23.6506 55.5354C29.3675 60.4402 30.7965 68.9666 31.979 76.2012C32.3592 78.5947 35.9831 79.8245 37.0512 77.14C42.7481 62.8682 48.9703 47.9982 62.7748 39.8812C65.1589 38.5259 63.6079 34.89 61.0962 35.0956Z" fill="#B25EFF"/>
</svg>
