<svg width="651" height="555" viewBox="0 0 651 555" fill="none" xmlns="http://www.w3.org/2000/svg">
<path d="M501.462 90.6112C504.712 107.159 492.17 118.671 478.05 124.205C473.792 125.86 468.731 126.338 464.642 128.226C461.573 129.65 459.778 133.712 457.178 136.066C450.124 142.478 440.704 146.248 432.145 150.086C410.458 159.83 387.714 167.022 364.368 171.518C353.557 173.598 342.283 175.602 331.257 175.971C324.165 176.208 317.507 174.789 313.253 168.737C310.961 165.47 316.286 162.305 318.556 165.549C324.52 174.057 343.713 168.72 352.02 167.447C362.726 165.777 373.335 163.538 383.803 160.74C405.268 155.03 427.495 147.408 446.669 136.069C450.957 133.68 454.628 130.323 457.389 126.265C459.758 122.721 460.469 122.993 464.903 121.909C473.417 119.854 482.579 117.161 489.196 111.138C492.895 107.888 495.32 103.431 496.04 98.5605C496.76 93.6899 495.728 88.7218 493.128 84.5409C486.796 74.4094 473.318 73.195 463.961 79.6044C461.994 80.9546 459.911 79.1637 459.671 77.2089C458.635 68.2748 456.758 55.7691 447.624 51.4735C434.368 45.2223 424.228 60.0292 418.949 69.8677C418.698 70.2912 418.34 70.642 417.912 70.8857C417.484 71.1294 417 71.2576 416.507 71.2576C416.014 71.2577 415.53 71.1297 415.102 70.8862C414.673 70.6427 414.316 70.292 414.064 69.8685C401.415 46.9296 371.809 35.0758 346.988 44.4453C321.782 54.0708 307.672 83.736 314.309 109.443C314.417 109.84 314.433 110.257 314.355 110.662C314.277 111.066 314.108 111.448 313.86 111.777C313.612 112.106 313.292 112.374 312.925 112.56C312.557 112.746 312.152 112.846 311.74 112.851C291.96 111.903 273.061 126.324 268.765 145.746C266.127 157.676 269.39 172.641 282.594 176.398C292.06 179.094 302.391 176.042 311.317 172.824C313.395 172.078 314.312 175.392 312.247 176.135C301.538 180.046 288.77 183.562 277.79 178.841C266.148 173.818 262.184 160.556 263.438 148.794C265.919 126.383 286.156 108.428 308.374 107.495C303.062 80.412 317.715 50.6827 343.639 39.8814C369.562 29.08 401.054 39.9756 416.396 62.9395C423.326 51.7808 434.47 40.4407 448.595 45.7392C459.533 49.8374 463.036 61.9303 464.701 72.6804C479.551 65.5973 498.092 73.4772 501.462 90.6112Z" fill="#0074DD"/>
<path fill-rule="evenodd" clip-rule="evenodd" d="M387.32 239.871C391.985 243.34 395.422 248.207 397.13 253.763C398.307 257.949 399.011 264.969 393.58 266.496C387.602 268.177 383.383 261.2 382.24 256.4C381.02 251.652 381.281 246.645 382.987 242.049C382.594 241.805 382.205 241.575 381.802 241.349C379.344 239.959 381.488 236.138 383.932 237.533C384.267 237.721 384.577 237.924 384.889 238.128C385.017 238.212 385.146 238.296 385.277 238.379C385.511 238.313 385.758 238.301 385.998 238.344C386.238 238.387 386.465 238.484 386.662 238.627C386.859 238.771 387.02 238.958 387.134 239.174C387.248 239.389 387.312 239.628 387.32 239.871ZM385.451 243.88C387.429 245.454 389.132 247.344 390.492 249.474C391.432 250.922 392.201 252.475 392.782 254.1C393.059 254.877 393.283 255.673 393.451 256.48C394.612 258.722 393.881 259.902 391.293 260.039C389.42 261.815 388.045 261.543 387.166 259.222C387.115 259.118 387.063 259.014 387.012 258.91C386.687 258.252 386.366 257.601 386.051 256.937C385.396 255.108 385.007 253.194 384.896 251.254C384.632 248.783 384.82 246.284 385.451 243.88Z" fill="#0074DD"/>
<path fill-rule="evenodd" clip-rule="evenodd" d="M336.071 222.176C335.951 221.869 335.906 221.538 335.94 221.21C335.973 220.883 336.084 220.568 336.264 220.291L336.241 220.209C336.268 220.003 336.34 219.806 336.452 219.63C336.564 219.455 336.713 219.307 336.889 219.195C337.065 219.084 337.262 219.013 337.469 218.986C337.675 218.96 337.884 218.979 338.083 219.042C338.435 218.979 338.797 218.995 339.143 219.09C339.489 219.184 339.809 219.354 340.081 219.587C344.893 223.474 350.796 229.402 352.329 235.642C353.346 239.785 351.723 244.669 347.495 246.168C335.387 250.561 335.373 230.564 336.071 222.176ZM346.785 234.559C347.901 236.799 348.796 243.234 343.566 241.486C339.097 240.027 338.465 231.009 338.654 224.801C340.632 226.599 342.464 228.551 344.133 230.64C345.139 231.86 346.027 233.172 346.785 234.559Z" fill="#0074DD"/>
<path fill-rule="evenodd" clip-rule="evenodd" d="M362.822 280.679C367.62 284.57 373.537 290.493 375.074 296.748C376.091 300.89 374.468 305.774 370.236 307.259C358.086 311.664 358.087 291.663 358.784 283.275C358.665 282.968 358.621 282.637 358.655 282.31C358.688 281.982 358.799 281.667 358.977 281.391L358.954 281.309C358.982 281.104 359.055 280.909 359.166 280.735C359.277 280.562 359.425 280.414 359.599 280.304C359.773 280.193 359.969 280.122 360.173 280.094C360.377 280.067 360.585 280.084 360.782 280.145C361.138 280.079 361.505 280.093 361.856 280.186C362.206 280.279 362.531 280.448 362.808 280.683L362.822 280.679ZM361.312 285.915C363.279 287.725 365.111 289.676 366.792 291.755L366.778 291.759C367.809 292.971 368.717 294.283 369.488 295.676C370.619 297.912 371.499 304.351 366.273 302.617C361.81 301.126 361.186 292.135 361.312 285.915Z" fill="#0074DD"/>
<path fill-rule="evenodd" clip-rule="evenodd" d="M424.29 287.102C429.088 290.993 435.005 296.917 436.538 303.158C437.541 307.304 435.918 312.188 431.7 313.669C419.554 318.088 419.541 298.091 420.252 289.699C420.128 289.394 420.08 289.064 420.112 288.737C420.143 288.409 420.253 288.094 420.432 287.818L420.409 287.736C420.437 287.532 420.509 287.336 420.62 287.163C420.732 286.989 420.879 286.842 421.053 286.731C421.227 286.621 421.423 286.549 421.627 286.522C421.832 286.494 422.04 286.512 422.236 286.573C422.602 286.49 422.981 286.493 423.345 286.583C423.709 286.673 424.046 286.847 424.331 287.091L424.29 287.102ZM422.78 292.339C424.75 294.146 426.581 296.098 428.26 298.178L428.301 298.167C429.314 299.387 430.203 300.704 430.956 302.099C432.083 304.321 432.967 310.774 427.738 309.027C423.274 307.536 422.65 298.545 422.78 292.339Z" fill="#0074DD"/>
<path fill-rule="evenodd" clip-rule="evenodd" d="M458.848 249.002C463.66 252.889 469.563 258.816 471.1 265.071C472.117 269.213 470.494 274.097 466.262 275.582C454.126 279.983 454.117 260 454.81 251.598C454.692 251.291 454.647 250.96 454.681 250.633C454.715 250.305 454.825 249.99 455.004 249.714L454.981 249.632C455.008 249.425 455.08 249.228 455.192 249.053C455.304 248.877 455.453 248.729 455.629 248.618C455.804 248.506 456.002 248.435 456.208 248.408C456.415 248.382 456.624 248.401 456.822 248.464C457.177 248.402 457.541 248.418 457.889 248.511C458.236 248.605 458.559 248.774 458.834 249.006L458.848 249.002ZM457.342 254.252C459.321 256.05 461.153 258.003 462.822 260.092L462.808 260.095C463.844 261.306 464.757 262.617 465.532 264.009C466.645 266.235 467.539 272.67 462.314 270.936C457.836 269.449 457.213 260.458 457.342 254.252Z" fill="#0074DD"/>
<path fill-rule="evenodd" clip-rule="evenodd" d="M424.354 220.972C429.012 224.887 432.115 230.339 433.104 236.343C433.62 240.227 432.933 245.764 428.412 246.798C416.928 249.422 419.232 229.896 420.834 222.995C420.766 222.56 420.832 222.115 421.022 221.719C421.212 221.322 421.518 220.993 421.899 220.773C422.28 220.554 422.719 220.456 423.157 220.491C423.596 220.527 424.013 220.694 424.354 220.972ZM423.623 227.432C424.224 228.211 424.83 228.996 425.367 229.824L425.408 229.812C426.8 231.93 429.937 237.1 428.462 239.729C428.683 241.512 427.878 241.591 426.052 239.978C424.258 239.951 423.366 239.14 423.392 237.553C422.921 235.934 422.707 234.251 422.757 232.565C422.651 230.573 422.726 228.575 422.984 226.597C423.194 226.876 423.408 227.153 423.623 227.432Z" fill="#0074DD"/>
<path fill-rule="evenodd" clip-rule="evenodd" d="M462.567 186.523C467.366 190.414 473.282 196.337 474.819 202.592C475.836 206.734 474.213 211.618 469.981 213.104C457.831 217.508 457.818 197.511 458.529 189.12C458.406 188.813 458.359 188.482 458.393 188.153C458.426 187.825 458.54 187.51 458.722 187.235L458.699 187.153C458.728 186.949 458.8 186.753 458.911 186.579C459.022 186.406 459.17 186.259 459.344 186.148C459.518 186.037 459.714 185.966 459.918 185.938C460.123 185.911 460.33 185.928 460.527 185.989C460.891 185.913 461.267 185.92 461.628 186.01C461.988 186.101 462.324 186.272 462.608 186.512L462.567 186.523ZM461.057 191.759C463.025 193.569 464.856 195.521 466.537 197.599L466.578 197.588C467.591 198.807 468.481 200.124 469.233 201.52C470.364 203.756 471.244 210.195 466.019 208.461C461.555 206.97 460.931 197.979 461.057 191.759Z" fill="#0074DD"/>
<path d="M542.41 119.199C576.137 118.865 609.145 113.619 640.594 101.22C642.151 100.625 643.437 102.913 641.855 103.544C610.328 115.962 576.371 123.188 542.339 122.328C541.923 122.318 541.527 122.143 541.24 121.843C540.952 121.542 540.796 121.14 540.805 120.725C540.815 120.31 540.989 119.916 541.29 119.63C541.591 119.344 541.994 119.189 542.41 119.199ZM528.516 90.0508C558.163 97.5638 591.23 92.2639 618.941 80.3972C620.668 79.6665 619.269 77.1298 617.56 77.8512C588.803 89.9934 559.48 91.4126 528.845 87.7432C527.524 87.5927 527.18 89.7097 528.516 90.0508Z" fill="#0074DD"/>
<path fill-rule="evenodd" clip-rule="evenodd" d="M224.43 365.991C230.427 366.336 230.108 372.407 232.432 376.051C240.68 387.414 249.892 397.961 261.331 406.431C262.99 409.153 263.391 413.045 265.791 415.094C270.534 415.227 269.27 408.743 272.254 406.948C288.177 400.878 311.247 409.253 307.386 433.996C314.847 435.333 321.149 437.69 325.195 442.092C331.997 438.48 343.282 438.522 350.667 442.098C365.15 461.132 364.579 487.383 365.291 517.783C370.141 519.549 375.99 520.409 379.585 523.284C387.553 557.377 342.176 555.108 327.864 538.971C293.379 551.448 231.276 553.951 199.585 531.706C196.334 530.692 200.175 537.45 196.925 536.405C182.122 540.316 155.322 550.082 141.005 538.586C136.972 524.841 147.244 516.998 160.192 517.733C156.617 487.875 159.01 446.004 190.513 441.747C188.538 430.742 175.996 419.546 172.793 405.84C180.483 400.426 185.032 405.282 192.35 403.138C197.225 397.898 194.948 384.82 199.559 379.291C206.208 380.19 209.183 384.418 214.994 386.076C219.937 381.361 215.093 365.857 224.432 365.961L224.43 365.991ZM220.538 397.249C210.886 397.899 211.674 389.115 201.441 390.291C201.126 398.851 200.319 406.097 199.265 410.75C195.519 413 187.787 410.883 182.255 411.144C186.586 421.86 195.335 428.544 200.375 438.617C206.581 436.513 211.467 432.995 217.73 430.986C216.579 411.107 231.079 408.382 241.007 400.645C234.852 393.9 229.566 386.396 223.829 379.271C219.626 384.666 226.178 394.073 220.569 397.25L220.538 397.249ZM224.22 421.611C222.806 428.644 228.157 429.604 227.162 436.257C217.52 442.532 205.154 440.595 198.685 448.219C191.759 456.374 189.522 476.829 189.644 485.287C189.813 497.282 194.236 515.809 201.186 523.33C213.679 536.86 247.555 541.074 269.511 541.068C305.036 541.088 343.81 536.959 338.563 492.33C336.266 472.551 326.847 452.098 309.384 442.574C304.483 441.881 308.141 450.537 301.835 448.271C297.082 435.384 304.133 409.685 278.028 413.276C271.744 418.972 269.039 425.268 270.933 434.701C267.127 434.336 266.75 437.73 262.357 436.723C260.547 428.739 258.867 420.637 256.187 413.442C244.714 404.386 229.582 412.614 224.251 421.613L224.22 421.611ZM332.054 450.899C340.711 469.227 353.504 504.962 340.674 525.101C338.575 528.383 329.632 532.908 332.896 535.613C341.709 535.108 350.819 543.899 361.539 545.451C367.595 541.957 374.077 537.93 372.035 529.012C368.48 527.246 362.832 527.348 357.569 527.129C355.204 503.598 360.958 463.669 343.148 447.828L331.025 447.255C329.588 448.939 329.593 450.137 332.053 450.93L332.054 450.899ZM172.11 521.954C167.452 529.11 146.48 520.742 148.52 532.948C160.145 540.751 183.974 533.15 193.722 526.603C180.781 506.936 180.589 468.846 190.136 449.013C163.49 452.301 161.882 500.356 172.112 521.924L172.11 521.954Z" fill="#0074DD"/>
<path fill-rule="evenodd" clip-rule="evenodd" d="M249.639 422.814C250.017 431.714 245.795 435.541 236.941 434.323C231.185 426.982 241.456 414.62 249.639 422.814Z" fill="#0074DD"/>
<path fill-rule="evenodd" clip-rule="evenodd" d="M293.293 423.677C297.626 433.072 285.266 441.37 279.511 432.707C280.226 425.457 284.517 422.125 293.293 423.677Z" fill="#0074DD"/>
<path d="M291.422 484.66C289.86 492.116 284.787 500.093 277.651 505.691C270.557 511.256 261.814 514.181 252.932 512.332C235.012 508.6 227.756 491.941 230.978 476.563C232.55 469.058 236.052 464.717 240.973 462.46C246.152 460.086 253.589 459.698 263.525 461.767C273.805 463.908 281.647 466.438 286.487 470.098C288.818 471.861 290.328 473.797 291.141 475.993C291.955 478.194 292.191 480.987 291.422 484.66Z" stroke="#0074DD" stroke-width="8"/>
<path d="M145.205 417.241L137.032 403.574C133.226 400.274 138.888 394.651 142.701 398.06L150.684 411.498C153.993 413.845 161.821 416.878 164.163 420.174C164.821 420.823 165.193 421.703 165.197 422.621C165.201 423.538 164.836 424.418 164.183 425.067C163.53 425.716 162.642 426.081 161.715 426.08C160.787 426.08 159.896 425.715 159.238 425.066C155.816 423.002 147.806 420.26 145.205 417.241Z" fill="#0074DD"/>
<path d="M43.0271 422.712C42.8345 422.868 42.7071 423.089 42.6698 423.333C42.6037 423.457 42.5751 423.597 42.5875 423.736C43.9065 432.592 45.2055 441.448 46.8276 450.203C41.8072 449.036 36.4568 459.937 41.7252 460.641C45.3051 462.384 51.2734 458.139 50.0262 454.11L50.0194 454.011C50.1315 453.721 50.155 453.405 50.0869 453.102C48.2811 445.602 46.6 438.023 45.236 430.403C47.5483 430.146 50.794 429.646 52.0973 431.584C53.4006 433.523 54.1605 436.284 54.8651 438.532C54.9559 438.863 55.171 439.146 55.4661 439.324C55.7611 439.502 56.1136 439.56 56.4508 439.487C56.7392 440.918 58.9956 441.301 59.2204 439.626C59.6099 436.875 59.3942 434.072 58.588 431.413C57.7819 428.753 56.4045 426.299 54.551 424.221C51.4875 420.971 46.7198 419.697 43.0271 422.712ZM55.2732 431.815C54.8202 430.597 54.0836 429.503 53.1236 428.622C51.0214 427.136 47.3858 427.782 44.9077 428.537C44.657 427.074 44.4149 425.589 44.1955 424.143C48.1892 421.723 52.1435 424.693 54.18 428.132C55.2113 429.894 55.9009 431.833 56.213 433.848C55.9059 433.163 55.6088 432.478 55.2732 431.815ZM112.587 432.728C112.677 432.426 112.679 432.106 112.593 431.803C110.589 423.852 108.178 416.008 105.367 408.303C106.294 407.246 105.255 405.07 103.641 405.737C95.1892 409.207 86.4734 412.179 78.4288 416.476C78.2894 416.57 78.1762 416.697 78.0998 416.846C78.0233 416.996 77.9861 417.162 77.9917 417.329C77.9972 417.496 78.0452 417.659 78.1313 417.803C78.2174 417.947 78.3387 418.067 78.484 418.152C78.4045 418.342 78.3977 418.555 78.4651 418.749L79.436 421.526C79.2167 421.595 79.0339 421.747 78.9278 421.95C78.8217 422.153 78.8011 422.39 78.8705 422.608C78.9398 422.826 79.0935 423.008 79.2976 423.113C79.5018 423.218 79.7397 423.239 79.9591 423.17C82.1093 429.369 83.7895 435.719 84.9856 442.168C84.7868 442.249 84.5961 442.349 84.4161 442.466C83.5473 442.679 82.7303 443.064 82.013 443.596C81.2957 444.128 80.6926 444.797 80.2391 445.564C79.2173 447.284 78.508 450.93 80.2972 452.518C84.4265 456.142 88.6459 446.679 88.7684 443.808C88.7518 443.52 88.6596 443.241 88.5008 442.999C88.3421 442.757 88.1224 442.56 87.8636 442.429C85.8383 435.808 83.953 429.188 81.7135 422.652C89.269 420.257 97.1388 417.781 104.229 414.285C105.508 420.383 107.257 426.375 109.461 432.206C108.636 433.009 107.993 433.978 107.576 435.048L107.477 435.204C106.472 436.595 106.052 438.322 106.308 440.015C106.347 440.154 106.396 440.291 106.456 440.422C106.476 440.796 106.602 441.156 106.82 441.461C107.037 441.767 107.337 442.004 107.685 442.147C108.165 442.359 108.7 442.416 109.215 442.309C109.73 442.203 110.198 441.938 110.554 441.554C110.649 441.488 110.755 441.431 110.85 441.355C112.398 439.947 113.363 438.017 113.558 435.941C113.578 434.793 113.238 433.666 112.586 432.718L112.587 432.728ZM81.1072 420.815C80.7965 419.932 80.4751 419.039 80.1444 418.157C80.141 418.108 80.0892 418.082 80.0659 418.034C87.8796 415.323 95.5435 411.887 103.457 409.179C103.51 409.951 103.663 410.715 103.796 411.491C96.0813 414.037 88.5869 417.61 81.1072 420.815Z" fill="#0074DD"/>
<path d="M55.9313 395.017C55.5448 393.811 55.2336 392.544 54.9976 391.215C54.9866 391.181 54.9542 391.02 54.9004 390.734L54.8362 390.356L53.6336 384.647C53.3521 383.294 53.262 381.767 53.3633 380.065C53.391 379.676 53.465 379.254 53.5853 378.798C53.6945 378.308 53.7513 377.891 53.7555 377.548C53.7943 377.194 53.7764 376.782 53.7019 376.313C53.7158 376.119 53.74 376.016 53.7745 376.005L55.6259 372.34C55.7074 372.238 55.9638 371.91 56.3949 371.355C56.815 370.766 57.1923 370.399 57.5266 370.254C58.2188 369.92 58.9449 369.631 59.7047 369.389C60.9482 368.993 62.0617 368.903 63.0452 369.121C64.0523 369.294 65.2223 369.737 66.5553 370.45C68.275 371.42 69.93 374.385 71.5203 379.344L71.7025 379.912C72.8179 383.39 73.4064 386.353 73.468 388.8L73.4952 396.364C73.4961 398.147 73.0847 399.892 72.2609 401.597C71.4261 403.267 70.2316 404.35 68.6773 404.846C67.952 405.077 67.1424 405.164 66.2486 405.107C65.5578 405.328 65.0128 405.35 64.6136 405.173C62.5346 404.507 60.7383 403.239 59.2246 401.368C57.6999 399.463 56.6022 397.346 55.9313 395.017ZM57.8105 387.699C59.191 392.004 60.2678 394.887 61.0411 396.348C61.1198 396.475 61.2931 396.837 61.561 397.435C61.8634 398.022 62.076 398.448 62.1989 398.712C62.3453 398.931 62.5877 399.271 62.926 399.733C63.2533 400.16 63.5592 400.461 63.8438 400.636C64.1173 400.777 64.4599 400.895 64.8715 400.992C65.3177 401.077 65.7826 401.043 66.2662 400.889C66.8188 400.712 67.2699 400.398 67.6195 399.945C67.9581 399.457 68.1758 399.008 68.2726 398.598C68.3694 398.188 68.4511 397.611 68.5176 396.869C68.5079 396.72 68.5495 396.137 68.6423 395.121C68.7586 394.059 68.8126 393.397 68.8044 393.134L68.7984 392.224C68.7902 391.961 68.7517 391.366 68.6828 390.439C68.6029 389.478 68.512 388.482 68.41 387.452C68.308 386.422 68.2467 385.815 68.226 385.632C68.2288 385.403 68.1584 385.065 68.0149 384.617C67.9611 384.331 67.6857 383.413 67.1887 381.863C66.6365 380.141 66.3266 379.234 66.2589 379.142C65.9718 378.247 65.4526 377.103 64.7014 375.71C64.2541 374.79 63.6726 374.045 62.9571 373.476C62.2762 372.896 61.5213 372.738 60.6923 373.003L60.139 373.236L57.0674 375.411C56.7427 375.704 56.516 376.422 56.3872 377.563C56.3969 377.712 56.4044 378.032 56.4098 378.524C56.4387 378.97 56.4669 379.474 56.4944 380.034C56.5454 380.549 56.5757 380.881 56.5853 381.03C56.661 382.334 56.8451 383.68 57.1377 385.067C57.1003 385.307 57.2859 386.064 57.6945 387.338L57.8105 387.699ZM67.2936 402.668C67.3958 402.749 67.7405 402.696 68.3276 402.509C69.3293 402.19 70.0554 401.427 70.5061 400.22C70.9913 399.003 71.2306 397.731 71.224 396.405L71.1866 388.275C70.4111 384.195 69.8578 381.639 69.5265 380.605C68.9853 378.918 68.5746 377.815 68.2943 377.298L68.1886 377.502L70.1101 383.494C70.1433 383.597 70.2867 384.519 70.5405 386.26C70.9306 389.97 71.1014 391.927 71.053 392.132L70.3281 399.309C70.2506 400.017 69.9099 400.676 69.306 401.286C68.7022 401.896 68.0313 402.357 67.2936 402.668Z" fill="#0074DD"/>
<path d="M43.9043 411.478C43.8601 411.34 43.8733 411.203 43.9438 411.067C44.0142 410.931 44.1193 410.783 44.2588 410.625C44.4219 410.421 44.5152 410.297 44.5387 410.251C45.1689 409.367 45.9869 408.594 46.9928 407.932C47.0273 407.921 47.1309 407.888 47.3036 407.833C47.4998 407.732 47.6787 407.637 47.8404 407.548C48.002 407.458 48.1064 407.368 48.1534 407.277C47.8996 405.536 47.3523 403.414 46.5116 400.911C45.6944 398.363 45.0325 396.24 44.5259 394.541C44.5038 394.472 44.3844 393.922 44.1678 392.891C43.9401 391.824 43.7227 390.85 43.5157 389.967C43.2977 389.05 43.161 388.505 43.1058 388.333L42.8905 387.661C42.7868 387.694 42.7115 387.756 42.6645 387.847C42.1584 389.83 41.8805 390.982 41.8307 391.301C41.8182 391.381 41.7739 391.718 41.6978 392.311C41.6562 392.894 41.5532 393.344 41.3887 393.663C41.2132 393.946 40.9355 394.149 40.5555 394.27C39.8302 394.501 39.1485 394.453 38.5103 394.125C37.8721 393.797 37.4426 393.288 37.2217 392.6C37.1555 392.393 37.2979 392.006 37.6489 391.439C37.9999 390.871 38.1817 390.548 38.1941 390.468L41.1017 380.659C41.1957 380.477 41.3388 380.033 41.531 379.327C41.7577 378.609 41.9775 377.989 42.1904 377.465C42.4033 376.942 42.6479 376.636 42.9242 376.548C43.235 376.449 43.5618 376.459 43.9043 376.577C44.2359 376.661 44.4513 376.858 44.5507 377.168C44.617 377.375 44.6826 377.639 44.7474 377.96C44.8468 378.27 45.0166 378.918 45.2567 379.904C45.4858 380.856 45.7749 382.054 46.1241 383.499C46.4968 384.898 47.0661 387.089 47.8321 390.071C48.5981 393.053 49.4684 396.42 50.4428 400.17L52.0828 405.284L52.2879 405.39C52.4606 405.335 53.2653 405.173 54.7022 404.905C55.8171 404.701 56.5015 404.995 56.7555 405.787C57.2856 407.44 57.1935 408.4 56.4792 408.665C55.4444 408.881 54.0732 409.413 52.3655 410.261C50.6688 411.144 49.4578 411.701 48.7325 411.932L48.4734 412.014C45.8139 412.862 44.2908 412.683 43.9043 411.478Z" fill="#0074DD"/>
<path d="M80.9088 397.406C80.8646 397.268 80.8778 397.131 80.9483 396.995C81.0188 396.858 81.1238 396.711 81.2634 396.553C81.4264 396.349 81.5197 396.224 81.5432 396.179C82.1734 395.295 82.9914 394.521 83.9973 393.859C84.0318 393.848 84.1354 393.815 84.3081 393.76C84.5043 393.66 84.6832 393.565 84.8449 393.475C85.0065 393.386 85.1109 393.295 85.1579 393.205C84.9041 391.464 84.3568 389.342 83.5161 386.839C82.6989 384.291 82.037 382.167 81.5304 380.469C81.5083 380.4 81.3889 379.85 81.1723 378.818C80.9446 377.752 80.7272 376.778 80.5202 375.895C80.3022 374.977 80.1655 374.432 80.1103 374.26L79.895 373.589C79.7913 373.622 79.716 373.684 79.669 373.775C79.1629 375.758 78.885 376.909 78.8352 377.229C78.8227 377.309 78.7784 377.645 78.7023 378.239C78.6607 378.822 78.5577 379.272 78.3932 379.59C78.2177 379.874 77.94 380.076 77.5601 380.197C76.8347 380.429 76.153 380.38 75.5148 380.052C74.8766 379.724 74.4471 379.216 74.2262 378.527C74.16 378.321 74.3024 377.934 74.6534 377.366C75.0044 376.799 75.1862 376.475 75.1986 376.395L78.1062 366.587C78.2002 366.405 78.3433 365.961 78.5355 365.254C78.7622 364.537 78.982 363.916 79.1949 363.393C79.4078 362.87 79.6524 362.564 79.9287 362.476C80.2395 362.377 80.5663 362.386 80.9088 362.505C81.2404 362.589 81.4558 362.786 81.5552 363.096C81.6215 363.303 81.6871 363.566 81.7519 363.887C81.8513 364.197 82.0211 364.845 82.2612 365.832C82.4903 366.783 82.7794 367.982 83.1286 369.427C83.5013 370.826 84.0706 373.017 84.8366 375.999C85.6026 378.981 86.4729 382.347 87.4473 386.098L89.0873 391.212L89.2924 391.317C89.4651 391.262 90.2698 391.101 91.7067 390.832C92.8216 390.629 93.506 390.923 93.76 391.715C94.2901 393.368 94.198 394.327 93.4837 394.593C92.4489 394.809 91.0777 395.341 89.37 396.189C87.6733 397.071 86.4623 397.628 85.737 397.859L85.4779 397.942C82.8184 398.79 81.2953 398.611 80.9088 397.406Z" fill="#0074DD"/>
<path d="M91.4171 381.872C91.0306 380.667 90.7194 379.4 90.4835 378.07C90.4724 378.036 90.44 377.875 90.3862 377.589L90.322 377.211L89.1194 371.502C88.8379 370.15 88.7478 368.622 88.8491 366.92C88.8768 366.531 88.9508 366.109 89.0711 365.653C89.1803 365.163 89.2371 364.747 89.2413 364.404C89.2801 364.05 89.2622 363.638 89.1877 363.168C89.2016 362.974 89.2258 362.871 89.2603 362.86L91.1117 359.196C91.1932 359.094 91.4496 358.765 91.8807 358.21C92.3008 357.621 92.6781 357.254 93.0124 357.109C93.7046 356.775 94.4307 356.487 95.1905 356.244C96.434 355.848 97.5475 355.759 98.531 355.977C99.5381 356.149 100.708 356.592 102.041 357.306C103.761 358.276 105.416 361.24 107.006 366.199L107.188 366.767C108.304 370.245 108.892 373.208 108.954 375.655L108.981 383.219C108.982 385.003 108.571 386.747 107.747 388.452C106.912 390.122 105.717 391.205 104.163 391.701C103.438 391.932 102.628 392.019 101.734 391.963C101.044 392.183 100.499 392.205 100.099 392.028C98.0204 391.363 96.2241 390.094 94.7104 388.224C93.1857 386.318 92.088 384.201 91.4171 381.872ZM93.2963 374.555C94.6768 378.859 95.7536 381.742 96.5269 383.204C96.6056 383.33 96.7789 383.693 97.0468 384.291C97.3492 384.877 97.5618 385.303 97.6847 385.568C97.8311 385.787 98.0735 386.127 98.4118 386.588C98.7391 387.015 99.0451 387.316 99.3296 387.491C99.6031 387.632 99.9457 387.75 100.357 387.847C100.804 387.932 101.268 387.898 101.752 387.744C102.305 387.568 102.756 387.253 103.105 386.8C103.444 386.313 103.662 385.864 103.758 385.453C103.855 385.043 103.937 384.466 104.003 383.724C103.994 383.575 104.035 382.993 104.128 381.976C104.244 380.914 104.298 380.252 104.29 379.989L104.284 379.08C104.276 378.817 104.237 378.222 104.169 377.295C104.089 376.333 103.998 375.338 103.896 374.307C103.794 373.277 103.732 372.67 103.712 372.487C103.715 372.258 103.644 371.92 103.501 371.473C103.447 371.186 103.171 370.268 102.675 368.718C102.122 366.997 101.812 366.09 101.745 365.997C101.458 365.102 100.938 363.958 100.187 362.565C99.7399 361.645 99.1584 360.901 98.443 360.332C97.762 359.752 97.0071 359.594 96.1781 359.858L95.6248 360.091L92.5532 362.266C92.2285 362.559 92.0018 363.277 91.873 364.419C91.8827 364.567 91.8902 364.888 91.8956 365.379C91.9245 365.826 91.9527 366.329 91.9802 366.89C92.0312 367.405 92.0615 367.737 92.0711 367.885C92.1468 369.19 92.3309 370.535 92.6235 371.922C92.5861 372.162 92.7717 372.919 93.1803 374.193L93.2963 374.555ZM102.779 389.523C102.882 389.604 103.226 389.551 103.813 389.364C104.815 389.045 105.541 388.282 105.992 387.076C106.477 385.858 106.716 384.586 106.71 383.26L106.672 375.13C105.897 371.05 105.344 368.494 105.012 367.461C104.471 365.773 104.06 364.671 103.78 364.153L103.674 364.357L105.596 370.349C105.629 370.453 105.773 371.375 106.026 373.116C106.416 376.825 106.587 378.782 106.539 378.987L105.814 386.164C105.736 386.872 105.396 387.531 104.792 388.141C104.188 388.751 103.517 389.212 102.779 389.523Z" fill="#0074DD"/>
<path d="M113.274 374.904C112.888 373.699 112.577 372.432 112.341 371.103C112.33 371.068 112.297 370.908 112.243 370.621L112.179 370.243L110.977 364.535C110.695 363.182 110.605 361.655 110.706 359.952C110.734 359.564 110.808 359.142 110.928 358.686C111.037 358.196 111.094 357.779 111.098 357.436C111.137 357.082 111.119 356.67 111.045 356.201C111.059 356.006 111.083 355.904 111.117 355.893L112.969 352.228C113.05 352.126 113.307 351.798 113.738 351.243C114.158 350.653 114.535 350.286 114.87 350.142C115.562 349.807 116.288 349.519 117.048 349.277C118.291 348.88 119.405 348.791 120.388 349.009C121.395 349.181 122.565 349.624 123.898 350.338C125.618 351.308 127.273 354.273 128.863 359.231L129.045 359.8C130.161 363.278 130.749 366.24 130.811 368.688L130.838 376.252C130.839 378.035 130.428 379.779 129.604 381.484C128.769 383.155 127.575 384.238 126.02 384.733C125.295 384.965 124.485 385.052 123.592 384.995C122.901 385.215 122.356 385.237 121.957 385.061C119.878 384.395 118.081 383.127 116.568 381.256C115.043 379.351 113.945 377.234 113.274 374.904ZM115.153 367.587C116.534 371.892 117.611 374.775 118.384 376.236C118.463 376.363 118.636 376.725 118.904 377.323C119.206 377.91 119.419 378.336 119.542 378.6C119.688 378.819 119.931 379.159 120.269 379.621C120.596 380.048 120.902 380.349 121.187 380.524C121.46 380.664 121.803 380.783 122.214 380.879C122.661 380.965 123.126 380.931 123.609 380.776C124.162 380.6 124.613 380.286 124.963 379.833C125.301 379.345 125.519 378.896 125.616 378.486C125.712 378.075 125.794 377.499 125.861 376.757C125.851 376.608 125.892 376.025 125.985 375.009C126.102 373.947 126.156 373.284 126.147 373.021L126.141 372.112C126.133 371.849 126.095 371.254 126.026 370.327C125.946 369.366 125.855 368.37 125.753 367.34C125.651 366.309 125.59 365.703 125.569 365.52C125.572 365.291 125.501 364.953 125.358 364.505C125.304 364.219 125.029 363.301 124.532 361.751C123.979 360.029 123.67 359.122 123.602 359.03C123.315 358.134 122.796 356.99 122.044 355.598C121.597 354.678 121.016 353.933 120.3 353.364C119.619 352.784 118.864 352.626 118.035 352.89L117.482 353.124L114.41 355.298C114.086 355.592 113.859 356.309 113.73 357.451C113.74 357.6 113.747 357.92 113.753 358.412C113.782 358.858 113.81 359.361 113.837 359.922C113.888 360.437 113.919 360.769 113.928 360.918C114.004 362.222 114.188 363.568 114.481 364.955C114.443 365.195 114.629 365.951 115.037 367.226L115.153 367.587ZM124.637 382.556C124.739 382.637 125.083 382.584 125.671 382.397C126.672 382.077 127.398 381.314 127.849 380.108C128.334 378.891 128.574 377.619 128.567 376.292L128.53 368.163C127.754 364.083 127.201 361.526 126.869 360.493C126.328 358.806 125.918 357.703 125.637 357.185L125.532 357.39L127.453 363.382C127.486 363.485 127.63 364.407 127.883 366.148C128.274 369.857 128.444 371.815 128.396 372.02L127.671 379.197C127.594 379.905 127.253 380.564 126.649 381.174C126.045 381.784 125.374 382.244 124.637 382.556Z" fill="#0074DD"/>
<path d="M135.131 367.937C134.745 366.732 134.434 365.464 134.198 364.135C134.187 364.101 134.154 363.94 134.1 363.654L134.036 363.276L132.834 357.567C132.552 356.215 132.462 354.687 132.563 352.985C132.591 352.596 132.665 352.174 132.785 351.718C132.895 351.228 132.951 350.811 132.956 350.468C132.994 350.115 132.977 349.703 132.902 349.233C132.916 349.039 132.94 348.936 132.975 348.925L134.826 345.261C134.908 345.159 135.164 344.83 135.595 344.275C136.015 343.686 136.392 343.319 136.727 343.174C137.419 342.84 138.145 342.551 138.905 342.309C140.148 341.913 141.262 341.824 142.245 342.041C143.252 342.214 144.422 342.657 145.755 343.371C147.475 344.341 149.13 347.305 150.72 352.264L150.903 352.832C152.018 356.31 152.606 359.273 152.668 361.72L152.695 369.284C152.696 371.068 152.285 372.812 151.461 374.517C150.626 376.187 139.432 377.27 137.877 377.766C137.152 377.997 136.342 378.084 135.449 378.028C134.758 378.248 134.213 378.27 133.814 378.093C141.735 377.428 139.938 376.159 138.425 374.289C136.9 372.383 135.802 370.266 135.131 367.937ZM137.011 360.62C138.391 364.924 139.468 367.807 140.241 369.269C140.32 369.395 140.493 369.758 140.761 370.356C141.063 370.942 141.276 371.368 141.399 371.632C141.545 371.851 141.788 372.192 142.126 372.653C142.453 373.08 142.759 373.381 143.044 373.556C143.317 373.697 143.66 373.815 144.072 373.912C144.518 373.997 144.983 373.963 145.466 373.809C146.019 373.633 146.47 373.318 146.82 372.865C147.158 372.378 147.376 371.929 147.473 371.518C147.57 371.108 147.651 370.531 147.718 369.789C147.708 369.64 147.75 369.058 147.842 368.041C147.959 366.979 148.013 366.317 148.005 366.054L147.999 365.145C147.99 364.882 147.952 364.287 147.883 363.36C147.803 362.398 147.712 361.402 147.61 360.372C147.508 359.342 147.447 358.735 147.426 358.552C147.429 358.323 147.359 357.985 147.215 357.538C147.161 357.251 146.886 356.333 146.389 354.783C145.837 353.062 145.527 352.155 145.459 352.062C145.172 351.167 144.653 350.023 143.902 348.63C143.454 347.71 142.873 346.966 142.157 346.397C141.476 345.817 140.721 345.659 139.892 345.923L139.339 346.156L136.268 348.331C135.943 348.624 135.716 349.342 135.587 350.484C135.597 350.632 135.604 350.953 135.61 351.444C135.639 351.891 135.667 352.394 135.694 352.955C135.745 353.47 135.776 353.802 135.785 353.95C135.861 355.255 136.045 356.6 136.338 357.987C136.3 358.227 136.486 358.984 136.895 360.258L137.011 360.62ZM146.494 375.588C146.596 375.669 146.941 375.616 147.528 375.429C148.529 375.11 149.256 374.347 149.706 373.141C150.191 371.923 150.431 370.651 150.424 369.325L150.387 361.195C149.611 357.115 149.058 354.559 148.727 353.526C148.185 351.838 147.775 350.736 147.494 350.218L147.389 350.422L149.31 356.414C149.343 356.517 149.487 357.44 149.741 359.181C150.131 362.89 150.302 364.847 150.253 365.052L149.528 372.229C149.451 372.937 149.11 373.596 148.506 374.206C147.902 374.816 147.231 375.277 146.494 375.588Z" fill="#0074DD"/>
<path d="M161.052 371.858C161.007 371.72 161.021 371.583 161.091 371.447C161.162 371.311 161.267 371.163 161.406 371.005C161.569 370.801 161.663 370.677 161.686 370.631C162.316 369.747 163.134 368.974 164.14 368.312C164.175 368.301 164.278 368.268 164.451 368.212C164.647 368.112 164.826 368.017 164.988 367.928C165.149 367.838 165.254 367.748 165.301 367.657C165.047 365.916 164.5 363.794 163.659 361.291C162.842 358.743 162.18 356.62 161.673 354.921C161.651 354.852 161.532 354.302 161.315 353.271C161.087 352.204 160.87 351.23 160.663 350.347C160.445 349.43 160.308 348.885 160.253 348.713L160.038 348.041C159.934 348.074 159.859 348.136 159.812 348.227C159.306 350.21 159.028 351.362 158.978 351.681C158.966 351.761 158.921 352.098 158.845 352.691C158.804 353.274 158.701 353.724 158.536 354.043C158.361 354.326 158.083 354.529 157.703 354.65C156.978 354.881 156.296 354.833 155.658 354.505C155.019 354.177 154.59 353.668 154.369 352.98C154.303 352.773 154.445 352.386 154.796 351.819C155.147 351.251 155.329 350.928 155.341 350.848L158.249 341.039C158.343 340.857 158.486 340.413 158.678 339.707C158.905 338.989 159.125 338.369 159.338 337.845C159.551 337.322 159.795 337.016 160.072 336.928C160.382 336.829 160.709 336.839 161.052 336.957C161.383 337.041 161.599 337.238 161.698 337.548C161.764 337.755 161.83 338.019 161.895 338.34C161.994 338.65 162.164 339.298 162.404 340.284C162.633 341.236 162.922 342.434 163.271 343.879C163.644 345.278 164.213 347.469 164.979 350.451C165.745 353.433 166.616 356.8 167.59 360.55L169.23 365.664L169.435 365.77C169.608 365.715 170.413 365.553 171.85 365.285C172.964 365.081 173.649 365.375 173.903 366.167C174.433 367.82 174.341 368.78 173.627 369.045C172.592 369.261 171.221 369.793 169.513 370.641C167.816 371.524 166.605 372.081 165.88 372.312L165.621 372.394C162.961 373.242 161.438 373.063 161.052 371.858Z" fill="#0074DD"/>
<path d="M19.0851 408.292C18.6985 407.087 18.3873 405.82 18.1514 404.491C18.1404 404.456 18.1079 404.296 18.0541 404.009L17.99 403.631L16.7874 397.922C16.5059 396.57 16.4157 395.042 16.517 393.34C16.5447 392.952 16.6187 392.529 16.739 392.074C16.8483 391.583 16.905 391.167 16.9092 390.824C16.948 390.47 16.9301 390.058 16.8557 389.588C16.8695 389.394 16.8937 389.291 16.9283 389.28L18.7796 385.616C18.8612 385.514 19.1175 385.185 19.5487 384.63C19.9688 384.041 20.346 383.674 20.6804 383.53C21.3726 383.195 22.0986 382.907 22.8585 382.664C24.1019 382.268 25.2154 382.179 26.199 382.397C27.206 382.569 28.376 383.012 29.709 383.726C31.4287 384.696 33.0837 387.66 34.674 392.619L34.8562 393.187C35.9716 396.665 36.5601 399.628 36.6217 402.076L36.6489 409.639C36.6498 411.423 36.2384 413.167 35.4147 414.872C34.5799 416.543 33.3853 417.626 31.831 418.121C31.1057 418.352 30.2961 418.44 29.4023 418.383C28.7115 418.603 28.1665 418.625 27.7673 418.449C25.6883 417.783 23.892 416.515 22.3784 414.644C20.8537 412.739 19.7559 410.621 19.0851 408.292ZM20.9642 400.975C22.3447 405.279 23.4216 408.162 24.1948 409.624C24.2736 409.751 24.4468 410.113 24.7147 410.711C25.0171 411.298 25.2298 411.723 25.3526 411.988C25.499 412.207 25.7414 412.547 26.0797 413.008C26.4071 413.435 26.713 413.737 26.9975 413.912C27.271 414.052 27.6136 414.171 28.0253 414.267C28.4715 414.353 28.9363 414.318 29.4199 414.164C29.9725 413.988 30.4237 413.673 30.7733 413.22C31.1119 412.733 31.3296 412.284 31.4264 411.873C31.5232 411.463 31.6048 410.887 31.6713 410.144C31.6617 409.995 31.7033 409.413 31.7961 408.396C31.9124 407.335 31.9664 406.672 31.9582 406.409L31.9522 405.5C31.9439 405.237 31.9054 404.642 31.8365 403.715C31.7566 402.754 31.6657 401.758 31.5637 400.727C31.4617 399.697 31.4004 399.09 31.3797 398.907C31.3825 398.679 31.3122 398.34 31.1686 397.893C31.1148 397.606 30.8394 396.688 30.3424 395.139C29.7903 393.417 29.4803 392.51 29.4127 392.417C29.1255 391.522 28.6064 390.378 27.8552 388.986C27.4078 388.065 26.8264 387.321 26.1109 386.752C25.43 386.172 24.675 386.014 23.8461 386.278L23.2927 386.511L20.2212 388.686C19.8964 388.979 19.6697 389.697 19.541 390.839C19.5506 390.988 19.5581 391.308 19.5635 391.799C19.5924 392.246 19.6206 392.749 19.6481 393.31C19.6991 393.825 19.7294 394.157 19.7391 394.306C19.8147 395.61 19.9988 396.956 20.2914 398.343C20.254 398.582 20.4397 399.339 20.8483 400.613L20.9642 400.975ZM30.4473 415.943C30.5495 416.024 30.8942 415.972 31.4814 415.784C32.483 415.465 33.2092 414.702 33.6598 413.496C34.145 412.278 34.3843 411.006 34.3777 409.68L34.3403 401.55C33.5649 397.471 33.0115 394.914 32.6802 393.881C32.1391 392.194 31.7284 391.091 31.448 390.573L31.3423 390.778L33.2639 396.769C33.297 396.873 33.4405 397.795 33.6942 399.536C34.0843 403.245 34.2552 405.202 34.2068 405.408L33.4818 412.585C33.4043 413.293 33.0636 413.952 32.4598 414.562C31.8559 415.172 31.1851 415.632 30.4473 415.943Z" fill="#0074DD"/>
</svg>
