<svg width="389" height="248" viewBox="0 0 389 248" fill="none" xmlns="http://www.w3.org/2000/svg">
<path fill-rule="evenodd" clip-rule="evenodd" d="M224.43 58.9913C230.427 59.3364 230.107 65.4067 232.432 69.0512C240.68 80.4136 249.892 90.961 261.331 99.4315C262.99 102.153 263.39 106.045 265.791 108.094C270.534 108.227 269.269 101.743 272.253 99.9481C288.177 93.878 311.246 102.253 307.386 126.996C314.847 128.333 321.149 130.69 325.195 135.092C331.997 131.48 343.282 131.522 350.667 135.098C365.149 154.132 364.579 180.383 365.291 210.783C370.141 212.549 375.99 213.409 379.584 216.284C387.553 250.377 342.175 248.108 327.863 231.971C293.379 244.448 231.276 246.951 199.585 224.706C196.333 223.692 200.175 230.45 196.925 229.405C182.122 233.316 155.322 243.082 141.005 231.586C136.971 217.841 147.243 209.998 160.191 210.733C156.616 180.875 159.009 139.004 190.512 134.747C188.538 123.742 175.995 112.546 172.793 98.8402C180.482 93.4257 185.031 98.2818 192.349 96.1384C197.224 90.8981 194.948 77.8204 199.559 72.2911C206.208 73.1895 209.183 77.4179 214.994 79.0758C219.936 74.3613 215.093 58.857 224.431 58.9606L224.43 58.9913ZM220.537 90.2488C210.885 90.8988 211.673 82.1152 201.441 83.2909C201.126 91.851 200.319 99.097 199.265 103.75C195.519 106 187.787 103.883 182.254 104.144C186.586 114.86 195.334 121.544 200.375 131.617C206.581 129.513 211.466 125.995 217.73 123.986C216.578 104.107 231.078 101.382 241.006 93.6449C234.851 86.8995 229.565 79.3961 223.829 72.271C219.625 77.6659 226.178 87.0733 220.568 90.2503L220.537 90.2488ZM224.22 114.611C222.806 121.644 228.157 122.604 227.162 129.257C217.519 135.532 205.153 133.595 198.685 141.219C191.759 149.374 189.521 169.829 189.643 178.287C189.813 190.282 194.235 208.809 201.186 216.33C213.679 229.86 247.554 234.074 269.511 234.068C305.035 234.088 343.81 229.959 338.563 185.33C336.266 165.551 326.847 145.098 309.383 135.574C304.482 134.881 308.141 143.537 301.834 141.271C297.082 128.384 304.133 102.685 278.027 106.276C271.743 111.972 269.038 118.268 270.933 127.701C267.126 127.336 266.749 130.73 262.356 129.723C260.547 121.739 258.866 113.637 256.186 106.442C244.714 97.3855 229.582 105.614 224.251 114.613L224.22 114.611ZM332.054 143.899C340.71 162.227 353.504 197.962 340.673 218.101C338.574 221.383 329.632 225.908 332.895 228.613C341.708 228.108 350.819 236.899 361.538 238.451C367.594 234.957 374.077 230.93 372.034 222.012C368.479 220.246 362.831 220.348 357.568 220.129C355.203 196.598 360.958 156.669 343.147 140.828L331.024 140.255C329.587 141.939 329.592 143.137 332.052 143.93L332.054 143.899ZM172.11 214.954C167.452 222.11 146.479 213.742 148.52 225.948C160.145 233.751 183.974 226.15 193.722 219.603C180.78 199.936 180.588 161.846 190.136 142.013C163.489 145.301 161.881 193.356 172.111 214.924L172.11 214.954Z" fill="#0074DD"/>
<path fill-rule="evenodd" clip-rule="evenodd" d="M249.639 115.814C250.017 124.714 245.795 128.541 236.941 127.323C231.185 119.982 241.456 107.62 249.639 115.814Z" fill="#0074DD"/>
<path fill-rule="evenodd" clip-rule="evenodd" d="M293.293 116.677C297.626 126.072 285.266 134.37 279.511 125.707C280.226 118.457 284.517 115.125 293.293 116.677Z" fill="#0074DD"/>
<path d="M291.422 177.66C289.86 185.116 284.787 193.093 277.651 198.691C270.557 204.256 261.814 207.181 252.932 205.332C235.012 201.6 227.756 184.941 230.978 169.563C232.55 162.058 236.052 157.717 240.973 155.46C246.152 153.086 253.589 152.698 263.525 154.767C273.805 156.908 281.647 159.438 286.487 163.098C288.818 164.861 290.328 166.797 291.141 168.993C291.955 171.194 292.191 173.987 291.422 177.66Z" stroke="#0074DD" stroke-width="8"/>
<path d="M145.205 110.241L137.031 96.5745C133.225 93.2743 138.888 87.651 142.701 91.0601L150.683 104.498C153.993 106.845 161.82 109.878 164.162 113.174C164.821 113.823 165.193 114.703 165.197 115.621C165.2 116.538 164.836 117.418 164.183 118.067C163.53 118.716 162.642 119.081 161.714 119.08C160.787 119.08 159.896 118.715 159.237 118.066C155.815 116.002 147.805 113.26 145.205 110.241Z" fill="#0074DD"/>
<path d="M43.0276 115.712C42.835 115.868 42.7076 116.089 42.6703 116.333C42.6042 116.457 42.5756 116.597 42.588 116.736C43.9069 125.592 45.206 134.448 46.8281 143.203C41.8077 142.036 36.4573 152.937 41.7257 153.641C45.3056 155.384 51.2738 151.139 50.0267 147.11L50.0199 147.011C50.132 146.721 50.1555 146.405 50.0874 146.102C48.2816 138.602 46.6005 131.023 45.2365 123.403C47.5488 123.146 50.7945 122.646 52.0978 124.584C53.4011 126.523 54.161 129.284 54.8656 131.532C54.9564 131.863 55.1715 132.146 55.4666 132.324C55.7616 132.502 56.1141 132.56 56.4513 132.487C56.7397 133.918 58.9961 134.301 59.2209 132.626C59.6104 129.875 59.3947 127.072 58.5885 124.413C57.7823 121.753 56.405 119.299 54.5515 117.221C51.488 113.971 46.7203 112.697 43.0276 115.712ZM55.2737 124.815C54.8207 123.597 54.0841 122.503 53.1241 121.622C51.0219 120.136 47.3862 120.782 44.9082 121.537C44.6575 120.074 44.4154 118.589 44.196 117.143C48.1896 114.723 52.1439 117.693 54.1805 121.132C55.2118 122.894 55.9014 124.833 56.2135 126.848C55.9064 126.163 55.6093 125.478 55.2737 124.815ZM112.587 125.728C112.677 125.426 112.679 125.106 112.594 124.803C110.59 116.852 108.178 109.008 105.368 101.303C106.295 100.246 105.255 98.0703 103.641 98.7372C95.1897 102.207 86.4739 105.179 78.4293 109.476C78.2899 109.57 78.1767 109.697 78.1003 109.846C78.0238 109.996 77.9866 110.162 77.9921 110.329C77.9977 110.496 78.0457 110.659 78.1318 110.803C78.2179 110.947 78.3392 111.067 78.4845 111.152C78.4049 111.342 78.3982 111.555 78.4656 111.749L79.4365 114.526C79.2172 114.595 79.0343 114.747 78.9283 114.95C78.8222 115.153 78.8016 115.39 78.8709 115.608C78.9403 115.826 79.094 116.008 79.2981 116.113C79.5023 116.218 79.7402 116.239 79.9596 116.17C82.1098 122.369 83.79 128.719 84.9861 135.168C84.7873 135.249 84.5966 135.349 84.4165 135.466C83.5478 135.679 82.7308 136.064 82.0135 136.596C81.2962 137.128 80.693 137.797 80.2395 138.564C79.2178 140.284 78.5085 143.93 80.2977 145.518C84.427 149.142 88.6463 139.679 88.7689 136.808C88.7523 136.52 88.66 136.241 88.5013 135.999C88.3426 135.757 88.1229 135.56 87.8641 135.429C85.8388 128.808 83.9535 122.188 81.714 115.652C89.2695 113.257 97.1393 110.781 104.229 107.285C105.508 113.383 107.257 119.375 109.461 125.206C108.636 126.009 107.994 126.978 107.577 128.048L107.478 128.204C106.472 129.595 106.053 131.322 106.308 133.015C106.347 133.154 106.397 133.291 106.456 133.422C106.477 133.796 106.603 134.156 106.82 134.461C107.038 134.767 107.337 135.004 107.685 135.147C108.166 135.359 108.701 135.416 109.215 135.309C109.73 135.203 110.198 134.938 110.554 134.554C110.65 134.488 110.756 134.431 110.851 134.355C112.398 132.947 113.364 131.017 113.558 128.941C113.578 127.793 113.239 126.666 112.587 125.718L112.587 125.728ZM81.1077 113.815C80.797 112.932 80.4756 112.039 80.1449 111.157C80.1415 111.108 80.0897 111.082 80.0664 111.034C87.8801 108.323 95.5439 104.887 103.458 102.179C103.511 102.951 103.664 103.715 103.797 104.491C96.0818 107.037 88.5874 110.61 81.1077 113.815Z" fill="#0074DD"/>
<path d="M17.4803 107.437C17.4361 107.3 17.4493 107.163 17.5197 107.026C17.5902 106.89 17.6953 106.743 17.8348 106.584C17.9979 106.38 18.0912 106.256 18.1147 106.21C18.7448 105.326 19.5629 104.553 20.5687 103.891C20.6033 103.88 20.7069 103.847 20.8796 103.792C21.0758 103.691 21.2547 103.596 21.4164 103.507C21.578 103.417 21.6823 103.327 21.7293 103.236C21.4756 101.495 20.9283 99.3733 20.0876 96.8705C19.2704 94.3223 18.6084 92.199 18.1018 90.5006C18.0798 90.4317 17.9604 89.8814 17.7437 88.8498C17.5161 87.7837 17.2987 86.8092 17.0917 85.9262C16.8736 85.0089 16.737 84.4641 16.6818 84.2919L16.4664 83.6204C16.3628 83.6535 16.2875 83.7154 16.2405 83.8063C15.7344 85.7896 15.4565 86.9409 15.4067 87.2605C15.3942 87.3404 15.3499 87.6771 15.2738 88.2707C15.2322 88.8533 15.1292 89.3037 14.9647 89.6218C14.7892 89.9055 14.5115 90.1079 14.1315 90.229C13.4062 90.4602 12.7244 90.4119 12.0863 90.0839C11.4481 89.7559 11.0186 89.2476 10.7977 88.5589C10.7315 88.3523 10.8738 87.9653 11.2249 87.3979C11.5759 86.8305 11.7577 86.5069 11.7701 86.427L14.6777 76.6184C14.7717 76.4366 14.9148 75.9924 15.107 75.2859C15.3337 74.5684 15.5535 73.9479 15.7664 73.4246C15.9793 72.9013 16.2239 72.5956 16.5002 72.5075C16.811 72.4084 17.1377 72.4181 17.4803 72.5366C17.8119 72.6207 18.0273 72.8177 18.1267 73.1277C18.193 73.3343 18.2585 73.5981 18.3234 73.919C18.4228 74.2289 18.5925 74.877 18.8327 75.8632C19.0618 76.815 19.3509 78.0133 19.7001 79.4582C20.0728 80.8577 20.6421 83.0485 21.4081 86.0306C22.1741 89.0127 23.0443 92.3791 24.0188 96.1298L25.6587 101.243L25.8639 101.349C26.0366 101.294 26.8413 101.132 28.2781 100.864C29.393 100.66 30.0775 100.955 30.3315 101.747C30.8616 103.4 30.7695 104.359 30.0552 104.624C29.0204 104.84 27.6492 105.372 25.9415 106.221C24.2448 107.103 23.0338 107.66 22.3084 107.891L22.0494 107.974C19.3898 108.821 17.8668 108.643 17.4803 107.437Z" fill="#0074DD"/>
<path d="M27.9886 91.9037C27.6021 90.6984 27.2909 89.4312 27.0549 88.102C27.0439 88.0676 27.0115 87.9071 26.9577 87.6206L26.8935 87.2425L25.6909 81.5339C25.4094 80.1813 25.3193 78.6538 25.4205 76.9515C25.4483 76.5631 25.5223 76.1409 25.6426 75.6851C25.7518 75.1948 25.8086 74.7781 25.8128 74.4352C25.8516 74.0812 25.8337 73.6694 25.7592 73.1997C25.7731 73.0055 25.7973 72.9029 25.8318 72.8919L27.6832 69.2273C27.7647 69.1254 28.0211 68.7969 28.4522 68.242C28.8723 67.6526 29.2496 67.2856 29.5839 67.1411C30.2761 66.8065 31.0022 66.5182 31.762 66.2759C33.0055 65.8796 34.119 65.7903 35.1025 66.0082C36.1096 66.1806 37.2796 66.6236 38.6125 67.3374C40.3323 68.3075 41.9873 71.2719 43.5775 76.2306L43.7598 76.7988C44.8752 80.2768 45.4637 83.2396 45.5252 85.6871L45.5524 93.2507C45.5534 95.0344 45.142 96.7787 44.3182 98.4836C43.4834 100.154 42.2889 101.237 40.7346 101.733C40.0092 101.964 39.1997 102.051 38.3059 101.994C37.6151 102.215 37.0701 102.236 36.6709 102.06C34.5919 101.394 32.7956 100.126 31.2819 98.2553C29.7572 96.3501 28.6594 94.2329 27.9886 91.9037ZM29.8678 84.5864C31.2482 88.8909 32.3251 91.7739 33.0984 93.2354C33.1771 93.3621 33.3504 93.7244 33.6183 94.3222C33.9207 94.909 34.1333 95.3347 34.2562 95.5992C34.4026 95.8182 34.645 96.1584 34.9833 96.6199C35.3106 97.047 35.6165 97.348 35.9011 97.523C36.1746 97.6635 36.5172 97.7821 36.9288 97.8786C37.375 97.9641 37.8399 97.9298 38.3235 97.7756C38.8761 97.5994 39.3272 97.2848 39.6768 96.8318C40.0154 96.3443 40.2331 95.8953 40.3299 95.4849C40.4267 95.0745 40.5084 94.4981 40.5748 93.7557C40.5652 93.607 40.6068 93.0244 40.6996 92.0079C40.8159 90.946 40.8699 90.2836 40.8617 90.0205L40.8557 89.1114C40.8475 88.8484 40.8089 88.2534 40.7401 87.3264C40.6602 86.365 40.5693 85.3692 40.4673 84.3389C40.3653 83.3086 40.304 82.7019 40.2833 82.5187C40.2861 82.2901 40.2157 81.9519 40.0722 81.5043C40.0183 81.2178 39.743 80.2997 39.246 78.7501C38.6938 77.0283 38.3839 76.1213 38.3162 76.029C38.0291 75.1336 37.5099 73.9897 36.7587 72.597C36.3113 71.6768 35.7299 70.9322 35.0144 70.3632C34.3335 69.7832 33.5786 69.6253 32.7496 69.8896L32.1963 70.1229L29.1247 72.2977C28.8 72.591 28.5733 73.3085 28.4445 74.4503C28.4542 74.599 28.4617 74.9193 28.4671 75.411C28.496 75.8572 28.5242 76.3607 28.5517 76.9212C28.6027 77.4364 28.633 77.7683 28.6426 77.9171C28.7183 79.2214 28.9024 80.5671 29.1949 81.9541C29.1576 82.1938 29.3432 82.9507 29.7518 84.2248L29.8678 84.5864ZM39.3509 99.5547C39.4531 99.636 39.7978 99.583 40.3849 99.3958C41.3866 99.0765 42.1127 98.3137 42.5634 97.1072C43.0486 95.8898 43.2879 94.6179 43.2813 93.2915L43.2439 85.1618C42.4684 81.082 41.9151 78.5256 41.5838 77.4925C41.0426 75.8051 40.6319 74.7025 40.3516 74.1845L40.2458 74.389L42.1674 80.3809C42.2006 80.4842 42.344 81.4063 42.5978 83.1473C42.9879 86.8566 43.1587 88.8138 43.1103 89.019L42.3854 96.1961C42.3079 96.904 41.9672 97.563 41.3633 98.173C40.7595 98.783 40.0886 99.2436 39.3509 99.5547Z" fill="#0074DD"/>
<path d="M53.9088 95.8249C53.8647 95.6871 53.8778 95.5501 53.9483 95.4138C54.0188 95.2774 54.1238 95.1301 54.2634 94.9717C54.4265 94.7679 54.5197 94.6433 54.5432 94.5978C55.1734 93.7137 55.9914 92.9406 56.9973 92.2783C57.0318 92.2673 57.1355 92.2343 57.3082 92.1792C57.5044 92.0787 57.6833 91.9837 57.8449 91.8942C58.0066 91.8048 58.1109 91.7146 58.1579 91.6237C57.9041 89.8827 57.3569 87.7608 56.5162 85.258C55.6989 82.7097 55.037 80.5864 54.5304 78.888C54.5083 78.8192 54.389 78.2689 54.1723 77.2372C53.9446 76.1711 53.7273 75.1966 53.5203 74.3137C53.3022 73.3963 53.1656 72.8516 53.1104 72.6794L52.895 72.0079C52.7914 72.0409 52.7161 72.1029 52.6691 72.1938C52.163 74.177 51.885 75.3284 51.8352 75.6479C51.8228 75.7278 51.7785 76.0645 51.7024 76.6582C51.6608 77.2408 51.5578 77.6911 51.3933 78.0092C51.2178 78.2929 50.94 78.4953 50.5601 78.6164C49.8348 78.8477 49.153 78.7993 48.5149 78.4713C47.8767 78.1434 47.4472 77.635 47.2263 76.9463C47.16 76.7397 47.3024 76.3527 47.6534 75.7853C48.0045 75.218 48.1862 74.8943 48.1987 74.8145L51.1063 65.0058C51.2003 64.824 51.3434 64.3799 51.5355 63.6733C51.7623 62.9558 51.9821 62.3354 52.195 61.812C52.4078 61.2887 52.6524 60.983 52.9287 60.8949C53.2396 60.7958 53.5663 60.8055 53.9089 60.9241C54.2404 61.0082 54.4559 61.2052 54.5553 61.5151C54.6215 61.7217 54.6871 61.9855 54.752 62.3064C54.8514 62.6163 55.0211 63.2644 55.2613 64.2506C55.4904 65.2024 55.7795 66.4008 56.1287 67.8457C56.5013 69.2451 57.0707 71.4359 57.8367 74.418C58.6027 77.4001 59.4729 80.7665 60.4473 84.5172L62.0873 89.6309L62.2924 89.7363C62.4651 89.6813 63.2699 89.5196 64.7067 89.2514C65.8216 89.0478 66.5061 89.342 66.7601 90.1341C67.2902 91.787 67.1981 92.7463 66.4838 93.0119C65.449 93.2279 64.0777 93.7599 62.37 94.608C60.6734 95.4904 59.4624 96.0473 58.737 96.2785L58.478 96.3611C55.8184 97.2089 54.2954 97.0301 53.9088 95.8249Z" fill="#0074DD"/>
<path d="M70.9088 90.4057C70.8647 90.268 70.8778 90.1309 70.9483 89.9946C71.0188 89.8582 71.1238 89.7109 71.2634 89.5525C71.4265 89.3487 71.5197 89.2241 71.5432 89.1786C72.1734 88.2945 72.9914 87.5214 73.9973 86.8591C74.0318 86.8481 74.1355 86.8151 74.3082 86.76C74.5044 86.6595 74.6833 86.5645 74.8449 86.475C75.0066 86.3856 75.1109 86.2954 75.1579 86.2045C74.9041 84.4635 74.3569 82.3416 73.5162 79.8388C72.6989 77.2905 72.037 75.1672 71.5304 73.4688C71.5083 73.4 71.389 72.8497 71.1723 71.818C70.9446 70.7519 70.7273 69.7774 70.5203 68.8945C70.3022 67.9771 70.1656 67.4324 70.1104 67.2602L69.895 66.5887C69.7914 66.6217 69.7161 66.6837 69.6691 66.7746C69.163 68.7578 68.885 69.9092 68.8352 70.2287C68.8228 70.3086 68.7785 70.6453 68.7024 71.239C68.6608 71.8216 68.5577 72.2719 68.3933 72.59C68.2178 72.8737 67.94 73.0761 67.5601 73.1973C66.8348 73.4285 66.153 73.3801 65.5149 73.0521C64.8767 72.7242 64.4472 72.2159 64.2263 71.5271C64.16 71.3205 64.3024 70.9335 64.6534 70.3661C65.0045 69.7988 65.1862 69.4751 65.1987 69.3953L68.1063 59.5866C68.2003 59.4048 68.3433 58.9607 68.5355 58.2542C68.7623 57.5366 68.9821 56.9162 69.195 56.3929C69.4078 55.8695 69.6524 55.5638 69.9287 55.4757C70.2396 55.3766 70.5663 55.3864 70.9089 55.5049C71.2404 55.589 71.4559 55.786 71.5553 56.0959C71.6215 56.3025 71.6871 56.5663 71.752 56.8872C71.8513 57.1972 72.0211 57.8452 72.2613 58.8314C72.4904 59.7832 72.7795 60.9816 73.1287 62.4265C73.5013 63.8259 74.0707 66.0167 74.8367 68.9988C75.6027 71.9809 76.4729 75.3473 77.4473 79.098L79.0873 84.2117L79.2924 84.3171C79.4651 84.2621 80.2699 84.1004 81.7067 83.8322C82.8216 83.6286 83.5061 83.9228 83.7601 84.7149C84.2902 86.3678 84.1981 87.3271 83.4838 87.5927C82.449 87.8087 81.0777 88.3407 79.37 89.1888C77.6734 90.0712 76.4623 90.6281 75.737 90.8593L75.478 90.9419C72.8184 91.7897 71.2954 91.6109 70.9088 90.4057Z" fill="#0074DD"/>
<path d="M81.4172 74.8719C81.0307 73.6667 80.7194 72.3995 80.4835 71.0703C80.4725 71.0358 80.44 70.8754 80.3862 70.5889L80.3221 70.2108L79.1195 64.5022C78.838 63.1496 78.7479 61.6221 78.8491 59.9197C78.8768 59.5313 78.9508 59.1092 79.0711 58.6533C79.1804 58.163 79.2371 57.7464 79.2414 57.4034C79.2801 57.0495 79.2623 56.6377 79.1878 56.168C79.2016 55.9738 79.2258 55.8712 79.2604 55.8602L81.1118 52.1955C81.1933 52.0936 81.4496 51.7652 81.8808 51.2102C82.3009 50.6208 82.6781 50.2539 83.0125 50.1093C83.7047 49.7748 84.4307 49.4864 85.1906 49.2442C86.434 48.8478 87.5475 48.7585 88.5311 48.9764C89.5382 49.1488 90.7082 49.5919 92.0411 50.3057C93.7608 51.2757 95.4158 54.2401 97.0061 59.1989L97.1883 59.7671C98.3037 63.2451 98.8922 66.2079 98.9538 68.6554L98.981 76.219C98.982 78.0026 98.5706 79.7469 97.7468 81.4519C96.912 83.1224 95.7174 84.2053 94.1631 84.7008C93.4378 84.932 92.6282 85.0193 91.7344 84.9626C91.0436 85.1828 90.4986 85.2047 90.0994 85.0283C88.0205 84.3626 86.2241 83.0943 84.7105 81.2236C83.1858 79.3184 82.088 77.2011 81.4172 74.8719ZM83.2964 67.5546C84.6768 71.8591 85.7537 74.7421 86.527 76.2036C86.6057 76.3304 86.779 76.6926 87.0468 77.2905C87.3492 77.8773 87.5619 78.3029 87.6848 78.5674C87.8311 78.7864 88.0735 79.1267 88.4119 79.5882C88.7392 80.0152 89.0451 80.3162 89.3297 80.4912C89.6032 80.6318 89.9457 80.7503 90.3574 80.8468C90.8036 80.9323 91.2685 80.898 91.752 80.7439C92.3047 80.5677 92.7558 80.2531 93.1054 79.8C93.444 79.3125 93.6617 78.8636 93.7585 78.4532C93.8553 78.0427 93.9369 77.4663 94.0034 76.724C93.9938 76.5752 94.0354 75.9926 94.1282 74.9762C94.2445 73.9143 94.2985 73.2518 94.2903 72.9887L94.2843 72.0797C94.2761 71.8166 94.2375 71.2216 94.1687 70.2946C94.0888 69.3333 93.9978 68.3374 93.8958 67.3072C93.7939 66.2769 93.7325 65.6702 93.7118 65.487C93.7147 65.2583 93.6443 64.9202 93.5007 64.4725C93.4469 64.186 93.1715 63.268 92.6746 61.7184C92.1224 59.9966 91.8125 59.0895 91.7448 58.9972C91.4577 58.1019 90.9385 56.9579 90.1873 55.5652C89.7399 54.6451 89.1585 53.9005 88.443 53.3315C87.7621 52.7515 87.0071 52.5936 86.1782 52.8578L85.6248 53.0912L82.5533 55.2659C82.2286 55.5592 82.0018 56.2768 81.8731 57.4185C81.8827 57.5673 81.8902 57.8875 81.8956 58.3792C81.9246 58.8255 81.9528 59.3289 81.9803 59.8895C82.0312 60.4046 82.0616 60.7366 82.0712 60.8853C82.1469 62.1897 82.331 63.5354 82.6235 64.9224C82.5862 65.162 82.7718 65.9189 83.1804 67.1931L83.2964 67.5546ZM92.7794 82.5229C92.8816 82.6042 93.2263 82.5513 93.8135 82.3641C94.8152 82.0448 95.5413 81.2819 95.9919 80.0755C96.4771 78.858 96.7164 77.5861 96.7098 76.2598L96.6724 68.1301C95.897 64.0503 95.3436 61.4938 95.0123 60.4607C94.4712 58.7734 94.0605 57.6707 93.7801 57.1528L93.6744 57.3573L95.596 63.3491C95.6291 63.4524 95.7726 64.3746 96.0264 66.1156C96.4164 69.8248 96.5873 71.782 96.5389 71.9873L95.814 79.1643C95.7364 79.8723 95.3957 80.5312 94.7919 81.1413C94.188 81.7513 93.5172 82.2118 92.7794 82.5229Z" fill="#0074DD"/>
<path d="M103.274 67.9044C102.888 66.6991 102.577 65.4319 102.341 64.1027C102.33 64.0683 102.297 63.9078 102.243 63.6213L102.179 63.2433L100.977 57.5346C100.695 56.182 100.605 54.6545 100.706 52.9522C100.734 52.5638 100.808 52.1417 100.928 51.6858C101.038 51.1955 101.094 50.7789 101.099 50.4359C101.137 50.0819 101.119 49.6701 101.045 49.2004C101.059 49.0062 101.083 48.9036 101.118 48.8926L102.969 45.228C103.05 45.1261 103.307 44.7976 103.738 44.2427C104.158 43.6533 104.535 43.2863 104.87 43.1418C105.562 42.8073 106.288 42.5189 107.048 42.2767C108.291 41.8803 109.405 41.791 110.388 42.0089C111.395 42.1813 112.565 42.6244 113.898 43.3381C115.618 44.3082 117.273 47.2726 118.863 52.2313L119.045 52.7995C120.161 56.2775 120.749 59.2403 120.811 61.6878L120.838 69.2515C120.839 71.0351 120.428 72.7794 119.604 74.4843C118.769 76.1548 117.575 77.2378 116.02 77.7333C115.295 77.9645 114.485 78.0518 113.592 77.9951C112.901 78.2153 112.356 78.2372 111.957 78.0608C109.878 77.3951 108.081 76.1268 106.568 74.256C105.043 72.3508 103.945 70.2336 103.274 67.9044ZM105.153 60.5871C106.534 64.8916 107.611 67.7746 108.384 69.2361C108.463 69.3628 108.636 69.7251 108.904 70.3229C109.206 70.9098 109.419 71.3354 109.542 71.5999C109.688 71.8189 109.931 72.1592 110.269 72.6206C110.596 73.0477 110.902 73.3487 111.187 73.5237C111.46 73.6643 111.803 73.7828 112.215 73.8793C112.661 73.9648 113.126 73.9305 113.609 73.7763C114.162 73.6002 114.613 73.2855 114.963 72.8325C115.301 72.345 115.519 71.896 115.616 71.4856C115.712 71.0752 115.794 70.4988 115.861 69.7564C115.851 69.6077 115.893 69.0251 115.985 68.0086C116.102 66.9467 116.156 66.2843 116.147 66.0212L116.141 65.1122C116.133 64.8491 116.095 64.2541 116.026 63.3271C115.946 62.3657 115.855 61.3699 115.753 60.3396C115.651 59.3094 115.59 58.7026 115.569 58.5194C115.572 58.2908 115.501 57.9527 115.358 57.505C115.304 57.2185 115.029 56.3004 114.532 54.7508C113.98 53.029 113.67 52.122 113.602 52.0297C113.315 51.1344 112.796 49.9904 112.044 48.5977C111.597 47.6775 111.016 46.933 110.3 46.364C109.619 45.7839 108.864 45.6261 108.035 45.8903L107.482 46.1236L104.41 48.2984C104.086 48.5917 103.859 49.3092 103.73 50.451C103.74 50.5997 103.747 50.92 103.753 51.4117C103.782 51.8579 103.81 52.3614 103.837 52.9219C103.888 53.4371 103.919 53.769 103.928 53.9178C104.004 55.2221 104.188 56.5678 104.481 57.9549C104.443 58.1945 104.629 58.9514 105.038 60.2255L105.153 60.5871ZM114.637 75.5554C114.739 75.6367 115.083 75.5837 115.671 75.3966C116.672 75.0773 117.398 74.3144 117.849 73.108C118.334 71.8905 118.574 70.6186 118.567 69.2922L118.53 61.1625C117.754 57.0827 117.201 54.5263 116.869 53.4932C116.328 51.8058 115.918 50.7032 115.637 50.1852L115.532 50.3898L117.453 56.3816C117.486 56.4849 117.63 57.407 117.884 59.148C118.274 62.8573 118.444 64.8145 118.396 65.0197L117.671 72.1968C117.594 72.9047 117.253 73.5637 116.649 74.1737C116.045 74.7837 115.374 75.2443 114.637 75.5554Z" fill="#0074DD"/>
<path d="M125.131 60.9369C124.745 59.7316 124.434 58.4644 124.198 57.1352C124.187 57.1008 124.154 56.9403 124.101 56.6538L124.036 56.2757L122.834 50.5671C122.552 49.2145 122.462 47.687 122.563 45.9847C122.591 45.5963 122.665 45.1741 122.785 44.7183C122.895 44.228 122.951 43.8113 122.956 43.4684C122.994 43.1144 122.977 42.7026 122.902 42.2329C122.916 42.0387 122.94 41.9361 122.975 41.9251L124.826 38.2604C124.908 38.1585 125.164 37.8301 125.595 37.2752C126.015 36.6858 126.392 36.3188 126.727 36.1742C127.419 35.8397 128.145 35.5513 128.905 35.3091C130.148 34.9127 131.262 34.8235 132.245 35.0413C133.252 35.2137 134.422 35.6568 135.755 36.3706C137.475 37.3406 139.13 40.305 140.72 45.2638L140.903 45.832C142.018 49.31 142.607 52.2728 142.668 54.7203L142.695 62.2839C142.696 64.0676 142.285 65.8118 141.461 67.5168C140.626 69.1873 139.432 70.2703 137.877 70.7657C137.152 70.997 136.343 71.0842 135.449 71.0275C134.758 71.2478 134.213 71.2697 133.814 71.0933C131.735 70.4275 129.938 69.1593 128.425 67.2885C126.9 65.3833 125.802 63.2661 125.131 60.9369ZM127.011 53.6196C128.391 57.924 129.468 60.807 130.241 62.2686C130.32 62.3953 130.493 62.7576 130.761 63.3554C131.064 63.9422 131.276 64.3679 131.399 64.6323C131.545 64.8514 131.788 65.1916 132.126 65.6531C132.453 66.0802 132.759 66.3812 133.044 66.5562C133.317 66.6967 133.66 66.8153 134.072 66.9118C134.518 66.9973 134.983 66.9629 135.466 66.8088C136.019 66.6326 136.47 66.318 136.82 65.865C137.158 65.3775 137.376 64.9285 137.473 64.5181C137.57 64.1077 137.651 63.5313 137.718 62.7889C137.708 62.6402 137.75 62.0576 137.842 61.0411C137.959 59.9792 138.013 59.3167 138.005 59.0537L137.999 58.1446C137.99 57.8815 137.952 57.2865 137.883 56.3596C137.803 55.3982 137.712 54.4024 137.61 53.3721C137.508 52.3418 137.447 51.7351 137.426 51.5519C137.429 51.3233 137.359 50.9851 137.215 50.5375C137.161 50.251 136.886 49.3329 136.389 47.7833C135.837 46.0615 135.527 45.1545 135.459 45.0622C135.172 44.1668 134.653 43.0228 133.902 41.6302C133.454 40.71 132.873 39.9654 132.157 39.3964C131.476 38.8164 130.721 38.6585 129.892 38.9228L129.339 39.1561L126.268 41.3309C125.943 41.6241 125.716 42.3417 125.587 43.4835C125.597 43.6322 125.605 43.9524 125.61 44.4442C125.639 44.8904 125.667 45.3938 125.695 45.9544C125.746 46.4695 125.776 46.8015 125.785 46.9502C125.861 48.2546 126.045 49.6003 126.338 50.9873C126.3 51.227 126.486 51.9839 126.895 53.258L127.011 53.6196ZM136.494 68.5879C136.596 68.6691 136.941 68.6162 137.528 68.429C138.529 68.1097 139.256 67.3469 139.706 66.1404C140.191 64.923 140.431 63.6511 140.424 62.3247L140.387 54.195C139.611 50.1152 139.058 47.5587 138.727 46.5257C138.185 44.8383 137.775 43.7356 137.494 43.2177L137.389 43.4222L139.31 49.414C139.343 49.5174 139.487 50.4395 139.741 52.1805C140.131 55.8898 140.302 57.847 140.253 58.0522L139.528 65.2293C139.451 65.9372 139.11 66.5962 138.506 67.2062C137.902 67.8162 137.231 68.2768 136.494 68.5879Z" fill="#0074DD"/>
<path d="M151.052 64.8581C151.008 64.7203 151.021 64.5833 151.091 64.4469C151.162 64.3106 151.267 64.1633 151.406 64.0049C151.569 63.8011 151.663 63.6765 151.686 63.631C152.316 62.7469 153.134 61.9737 154.14 61.3115C154.175 61.3005 154.278 61.2674 154.451 61.2124C154.647 61.1119 154.826 61.0169 154.988 60.9274C155.149 60.8379 155.254 60.7477 155.301 60.6568C155.047 58.9158 154.5 56.7939 153.659 54.2911C152.842 51.7429 152.18 49.6196 151.673 47.9212C151.651 47.8523 151.532 47.3021 151.315 46.2704C151.087 45.2043 150.87 44.2298 150.663 43.3469C150.445 42.4295 150.308 41.8847 150.253 41.7126L150.038 41.0411C149.934 41.0741 149.859 41.1361 149.812 41.227C149.306 43.2102 149.028 44.3616 148.978 44.6811C148.966 44.761 148.921 45.0977 148.845 45.6913C148.804 46.2739 148.701 46.7243 148.536 47.0424C148.361 47.3261 148.083 47.5285 147.703 47.6496C146.978 47.8808 146.296 47.8325 145.658 47.5045C145.02 47.1766 144.59 46.6682 144.369 45.9795C144.303 45.7729 144.445 45.3859 144.796 44.8185C145.147 44.2511 145.329 43.9275 145.342 43.8476L148.249 34.039C148.343 33.8572 148.486 33.4131 148.678 32.7065C148.905 31.989 149.125 31.3686 149.338 30.8452C149.551 30.3219 149.795 30.0162 150.072 29.9281C150.382 29.829 150.709 29.8387 151.052 29.9573C151.383 30.0414 151.599 30.2384 151.698 30.5483C151.764 30.7549 151.83 31.0187 151.895 31.3396C151.994 31.6495 152.164 32.2976 152.404 33.2838C152.633 34.2356 152.922 35.434 153.272 36.8789C153.644 38.2783 154.214 40.4691 154.98 43.4512C155.746 46.4333 156.616 49.7997 157.59 53.5504L159.23 58.6641L159.435 58.7695C159.608 58.7145 160.413 58.5528 161.85 58.2846C162.964 58.081 163.649 58.3752 163.903 59.1672C164.433 60.8202 164.341 61.7795 163.627 62.0451C162.592 62.2611 161.221 62.7931 159.513 63.6411C157.816 64.5236 156.605 65.0804 155.88 65.3117L155.621 65.3942C152.961 66.242 151.438 66.0633 151.052 64.8581Z" fill="#0074DD"/>
<path d="M161.56 49.3243C161.174 48.119 160.862 46.8518 160.626 45.5226C160.615 45.4882 160.583 45.3277 160.529 45.0412L160.465 44.6632L159.262 38.9545C158.981 37.6019 158.891 36.0745 158.992 34.3721C159.02 33.9837 159.094 33.5616 159.214 33.1057C159.323 32.6154 159.38 32.1988 159.384 31.8558C159.423 31.5019 159.405 31.09 159.331 30.6203C159.345 30.4261 159.369 30.3235 159.403 30.3125L161.255 26.6479C161.336 26.546 161.592 26.2176 162.024 25.6626C162.444 25.0732 162.821 24.7062 163.155 24.5617C163.848 24.2272 164.574 23.9388 165.333 23.6966C166.577 23.3002 167.69 23.2109 168.674 23.4288C169.681 23.6012 170.851 24.0443 172.184 24.758C173.904 25.7281 175.559 28.6925 177.149 33.6512L177.331 34.2194C178.447 37.6975 179.035 40.6602 179.097 43.1078L179.124 50.6714C179.125 52.455 178.713 54.1993 177.89 55.9042C177.055 57.5747 175.86 58.6577 174.306 59.1532C173.581 59.3844 172.771 59.4717 171.877 59.415C171.186 59.6352 170.642 59.6571 170.242 59.4807C168.163 58.815 166.367 57.5467 164.853 55.6759C163.329 53.7707 162.231 51.6535 161.56 49.3243ZM163.439 42.007C164.82 46.3115 165.897 49.1945 166.67 50.656C166.749 50.7827 166.922 51.145 167.19 51.7428C167.492 52.3297 167.705 52.7553 167.828 53.0198C167.974 53.2388 168.216 53.5791 168.555 54.0405C168.882 54.4676 169.188 54.7686 169.473 54.9436C169.746 55.0842 170.089 55.2027 170.5 55.2992C170.946 55.3847 171.411 55.3504 171.895 55.1962C172.448 55.0201 172.899 54.7055 173.248 54.2524C173.587 53.7649 173.805 53.316 173.901 52.9055C173.998 52.4951 174.08 51.9187 174.146 51.1763C174.137 51.0276 174.178 50.445 174.271 49.4285C174.387 48.3667 174.441 47.7042 174.433 47.4411L174.427 46.5321C174.419 46.269 174.38 45.674 174.312 44.747C174.232 43.7856 174.141 42.7898 174.039 41.7595C173.937 40.7293 173.875 40.1225 173.855 39.9393C173.858 39.7107 173.787 39.3726 173.644 38.9249C173.59 38.6384 173.314 37.7203 172.817 36.1707C172.265 34.4489 171.955 33.5419 171.888 33.4496C171.6 32.5543 171.081 31.4103 170.33 30.0176C169.883 29.0975 169.301 28.3529 168.586 27.7839C167.905 27.2038 167.15 27.046 166.321 27.3102L165.768 27.5435L162.696 29.7183C162.371 30.0116 162.145 30.7291 162.016 31.8709C162.026 32.0197 162.033 32.3399 162.039 32.8316C162.067 33.2779 162.096 33.7813 162.123 34.3419C162.174 34.857 162.204 35.1889 162.214 35.3377C162.29 36.642 162.474 37.9877 162.766 39.3748C162.729 39.6144 162.915 40.3713 163.323 41.6454L163.439 42.007ZM172.922 56.9753C173.024 57.0566 173.369 57.0036 173.956 56.8165C174.958 56.4972 175.684 55.7343 176.135 54.5279C176.62 53.3104 176.859 52.0385 176.853 50.7121L176.815 42.5825C176.04 38.5026 175.486 35.9462 175.155 34.9131C174.614 33.2257 174.203 32.1231 173.923 31.6051L173.817 31.8097L175.739 37.8015C175.772 37.9048 175.915 38.827 176.169 40.568C176.559 44.2772 176.73 46.2344 176.682 46.4396L175.957 53.6167C175.879 54.3246 175.539 54.9836 174.935 55.5936C174.331 56.2036 173.66 56.6642 172.922 56.9753Z" fill="#0074DD"/>
<path d="M187.48 53.2455C187.436 53.1078 187.449 52.9707 187.52 52.8344C187.59 52.698 187.695 52.5507 187.835 52.3923C187.998 52.1885 188.091 52.0639 188.115 52.0185C188.745 51.1344 189.563 50.3612 190.569 49.6989C190.603 49.6879 190.707 49.6549 190.88 49.5998C191.076 49.4993 191.255 49.4043 191.416 49.3149C191.578 49.2254 191.682 49.1352 191.729 49.0443C191.476 47.3033 190.928 45.1814 190.088 42.6786C189.27 40.1303 188.608 38.007 188.102 36.3086C188.08 36.2398 187.96 35.6895 187.744 34.6578C187.516 33.5917 187.299 32.6172 187.092 31.7343C186.874 30.8169 186.737 30.2722 186.682 30.1L186.466 29.4285C186.363 29.4615 186.287 29.5235 186.241 29.6144C185.734 31.5976 185.456 32.749 185.407 33.0685C185.394 33.1484 185.35 33.4852 185.274 34.0788C185.232 34.6614 185.129 35.1117 184.965 35.4299C184.789 35.7135 184.511 35.9159 184.132 36.0371C183.406 36.2683 182.724 36.2199 182.086 35.892C181.448 35.564 181.019 35.0557 180.798 34.3669C180.731 34.1603 180.874 33.7733 181.225 33.206C181.576 32.6386 181.758 32.315 181.77 32.2351L184.678 22.4264C184.772 22.2446 184.915 21.8005 185.107 21.094C185.334 20.3764 185.554 19.756 185.766 19.2327C185.979 18.7093 186.224 18.4036 186.5 18.3155C186.811 18.2164 187.138 18.2262 187.48 18.3447C187.812 18.4288 188.027 18.6258 188.127 18.9357C188.193 19.1423 188.259 19.4061 188.323 19.727C188.423 20.037 188.593 20.685 188.833 21.6713C189.062 22.6231 189.351 23.8214 189.7 25.2663C190.073 26.6657 190.642 28.8565 191.408 31.8386C192.174 34.8207 193.044 38.1871 194.019 41.9378L195.659 47.0515L195.864 47.1569C196.037 47.1019 196.841 46.9402 198.278 46.672C199.393 46.4684 200.077 46.7627 200.331 47.5547C200.862 49.2076 200.769 50.1669 200.055 50.4326C199.02 50.6485 197.649 51.1805 195.941 52.0286C194.245 52.911 193.034 53.4679 192.308 53.6991L192.049 53.7817C189.39 54.6295 187.867 54.4508 187.48 53.2455Z" fill="#0074DD"/>
</svg>
