<svg width="335" height="255" viewBox="0 0 335 255" fill="none" xmlns="http://www.w3.org/2000/svg">
<g clip-path="url(#clip0_816_1401)">
<path d="M163.886 56.2394C165.903 66.5101 158.119 73.655 149.355 77.0899C146.712 78.117 143.571 78.4138 141.033 79.5855C139.128 80.4691 138.014 82.9902 136.4 84.4517C132.022 88.4309 126.176 90.771 120.863 93.1532C107.403 99.2008 93.2866 103.665 78.7967 106.455C72.0872 107.746 65.0895 108.99 58.2463 109.219C53.8445 109.366 49.7124 108.485 47.0715 104.729C45.6494 102.701 48.954 100.737 50.3629 102.75C54.0646 108.031 65.9773 104.718 71.1329 103.928C77.7776 102.892 84.3625 101.502 90.8594 99.7657C104.182 96.2216 117.977 91.491 129.878 84.4532C132.539 82.9707 134.818 80.8871 136.531 78.3684C138.002 76.1685 138.443 76.3376 141.195 75.6647C146.48 74.3896 152.166 72.7176 156.273 68.9795C158.569 66.9626 160.074 64.1963 160.521 61.1733C160.968 58.1503 160.327 55.0667 158.713 52.4718C154.783 46.1836 146.418 45.4299 140.61 49.4079C139.389 50.2459 138.097 49.1344 137.948 47.9211C137.305 42.3761 136.14 34.6143 130.47 31.9482C122.243 28.0683 115.95 37.2584 112.673 43.3648C112.517 43.6276 112.295 43.8454 112.03 43.9966C111.764 44.1478 111.463 44.2274 111.157 44.2274C110.852 44.2275 110.551 44.148 110.285 43.9969C110.019 43.8457 109.798 43.6281 109.641 43.3653C101.791 29.128 83.4151 21.7708 68.0101 27.5861C52.3657 33.5602 43.608 51.9722 47.7273 67.9274C47.7945 68.1741 47.8043 68.433 47.756 68.6841C47.7077 68.9352 47.6026 69.1719 47.4486 69.3762C47.2947 69.5804 47.0961 69.7466 46.868 69.8622C46.6399 69.9778 46.3883 70.0397 46.1326 70.0431C33.8559 69.4545 22.1265 78.4048 19.4601 90.4595C17.8224 97.8641 19.8475 107.152 28.0427 109.484C33.9184 111.157 40.3301 109.263 45.87 107.266C47.1597 106.803 47.7289 108.86 46.4476 109.321C39.8011 111.748 31.8763 113.93 25.061 111C17.8359 107.883 15.3751 99.6516 16.1534 92.3511C17.6937 78.4418 30.2537 67.2975 44.0436 66.7185C40.7468 49.9092 49.8415 31.4574 65.9311 24.7534C82.0207 18.0494 101.567 24.8119 111.089 39.0647C115.39 32.1389 122.306 25.1006 131.073 28.3891C137.862 30.9328 140.036 38.4383 141.07 45.1105C150.287 40.7143 161.794 45.6051 163.886 56.2394ZM93.0421 148.879C95.9376 151.032 98.0706 154.053 99.1308 157.502C99.8612 160.1 100.298 164.457 96.9277 165.404C93.2175 166.447 90.5985 162.117 89.889 159.138C89.1321 156.191 89.294 153.083 90.3531 150.231C90.109 150.08 89.8673 149.937 89.6172 149.797C88.092 148.934 89.4224 146.562 90.9391 147.428C91.2328 147.593 91.4949 147.775 91.774 147.953C91.9196 147.912 92.0727 147.904 92.2217 147.931C92.3707 147.958 92.5116 148.018 92.6338 148.107C92.756 148.197 92.8563 148.312 92.9271 148.446C92.9978 148.58 93.0372 148.728 93.0421 148.879V148.879ZM95.011 154.84C94.167 153.517 93.1097 152.344 91.882 151.368C91.4905 152.86 91.3739 154.411 91.538 155.944C91.6067 157.148 91.8481 158.336 92.2548 159.471C92.4805 159.948 92.7124 160.415 92.9466 160.889C93.4921 162.33 94.3459 162.499 95.5078 161.397C97.1146 161.312 97.5683 160.579 96.8473 159.188C96.743 158.687 96.6042 158.193 96.432 157.711C96.0714 156.702 95.5946 155.738 95.011 154.84V154.84ZM116.028 137.149C118.919 139.579 120.845 142.963 121.458 146.689C121.779 149.1 121.353 152.536 118.547 153.179C111.419 154.807 112.849 142.688 113.843 138.405C113.801 138.135 113.841 137.859 113.959 137.613C114.077 137.367 114.267 137.162 114.504 137.026C114.741 136.89 115.013 136.829 115.285 136.851C115.557 136.873 115.816 136.977 116.028 137.149V137.149ZM116.656 142.643C116.204 141.946 115.674 141.298 115.177 140.641C115.017 141.868 114.97 143.108 115.037 144.345C115.005 145.391 115.138 146.435 115.431 147.44C115.415 148.425 115.968 148.929 117.082 148.946C118.215 149.946 118.714 149.898 118.577 148.791C119.493 147.16 117.546 143.951 116.682 142.636L116.656 142.643ZM139.745 115.768C142.723 118.183 146.395 121.86 147.349 125.741C147.981 128.312 146.973 131.344 144.347 132.266C136.806 135 136.798 122.588 137.239 117.38C137.162 117.19 137.133 116.984 137.154 116.78C137.175 116.576 137.245 116.381 137.359 116.21L137.345 116.159C137.362 116.032 137.407 115.911 137.476 115.803C137.545 115.695 137.637 115.604 137.745 115.535C137.853 115.467 137.974 115.422 138.101 115.405C138.228 115.388 138.357 115.399 138.479 115.437C138.705 115.389 138.938 115.394 139.162 115.45C139.386 115.506 139.594 115.612 139.77 115.761L139.745 115.768ZM142.209 122.643C141.166 121.353 140.029 120.141 138.808 119.018C138.73 122.879 139.117 128.459 141.887 129.384C145.131 130.46 144.584 126.464 143.883 125.076C143.415 124.21 142.863 123.392 142.235 122.635L142.209 122.643ZM137.437 154.546C140.424 156.959 144.087 160.638 145.041 164.52C145.673 167.09 144.665 170.122 142.038 171.044C134.506 173.775 134.501 161.373 134.931 156.158C134.857 155.967 134.83 155.762 134.851 155.559C134.871 155.355 134.94 155.16 135.051 154.988L135.037 154.937C135.053 154.809 135.098 154.687 135.168 154.578C135.237 154.469 135.33 154.377 135.439 154.308C135.548 154.239 135.671 154.194 135.799 154.178C135.927 154.162 136.057 154.173 136.18 154.213C136.4 154.174 136.626 154.184 136.841 154.242C137.057 154.3 137.258 154.405 137.428 154.549L137.437 154.546ZM139.903 161.429C138.868 160.133 137.73 158.921 136.502 157.805C136.422 161.657 136.809 167.237 139.588 168.16C142.831 169.236 142.276 165.242 141.585 163.86C141.104 162.997 140.538 162.183 139.895 161.432L139.903 161.429ZM61.2337 137.897C61.1594 137.706 61.1315 137.501 61.1524 137.297C61.1733 137.094 61.2423 136.898 61.3537 136.727L61.3394 136.676C61.3563 136.548 61.4011 136.425 61.4706 136.317C61.5401 136.208 61.6326 136.116 61.7416 136.047C61.8506 135.978 61.9734 135.933 62.1015 135.917C62.2295 135.9 62.3595 135.912 62.4824 135.952C62.7013 135.912 62.9262 135.922 63.1407 135.981C63.3552 136.04 63.554 136.145 63.7227 136.29C66.7096 138.702 70.3732 142.381 71.3248 146.255C71.956 148.826 70.9486 151.857 68.3244 152.787C60.8092 155.514 60.801 143.103 61.2337 137.897ZM65.8859 149.882C69.1316 150.966 68.5767 146.972 67.8835 145.582C67.413 144.721 66.8619 143.907 66.2378 143.15C65.202 141.854 64.0648 140.642 62.8368 139.526C62.72 143.379 63.1119 148.976 65.8859 149.882ZM115.988 178.194C118.966 180.609 122.638 184.285 123.59 188.159C124.213 190.732 123.205 193.764 120.587 194.683C113.049 197.425 113.041 185.014 113.482 179.805C113.405 179.616 113.375 179.411 113.395 179.208C113.414 179.005 113.482 178.809 113.593 178.638L113.579 178.587C113.596 178.46 113.641 178.339 113.71 178.231C113.779 178.124 113.871 178.032 113.979 177.964C114.087 177.895 114.209 177.85 114.335 177.833C114.462 177.816 114.591 177.827 114.714 177.865C114.94 177.814 115.176 177.816 115.402 177.872C115.627 177.928 115.837 178.035 116.013 178.187L115.988 178.194ZM118.452 185.068C117.41 183.777 116.273 182.566 115.051 181.444C114.97 185.296 115.358 190.876 118.128 191.801C121.374 192.886 120.825 188.881 120.125 187.502C119.658 186.636 119.106 185.818 118.477 185.061L118.452 185.068ZM77.837 174.207C80.8154 176.622 84.4875 180.298 85.4414 184.18C86.0726 186.751 85.0652 189.783 82.4386 190.704C74.8979 193.438 74.8983 181.025 75.331 175.819C75.2574 175.628 75.2299 175.423 75.2507 175.219C75.2716 175.016 75.3402 174.821 75.451 174.649L75.4367 174.598C75.4541 174.471 75.499 174.35 75.5681 174.242C75.6372 174.134 75.7289 174.043 75.8368 173.974C75.9447 173.906 76.0663 173.861 76.1932 173.844C76.32 173.827 76.449 173.838 76.5712 173.876C76.7924 173.835 77.0199 173.843 77.2374 173.901C77.4549 173.959 77.6568 174.064 77.8285 174.209L77.837 174.207ZM80.3011 181.081C79.2579 179.791 78.1212 178.58 76.9001 177.457C76.822 181.318 77.2091 186.898 79.9794 187.823C83.2227 188.899 82.6763 184.903 81.9747 183.515C81.4962 182.651 80.9327 181.836 80.2926 181.084L80.3011 181.081Z" fill="#0074DD"/>
</g>
<g clip-path="url(#clip1_816_1401)">
<path d="M189.298 73.9865C210.231 73.779 230.717 70.523 250.236 62.8276C251.203 62.4582 252.001 63.8785 251.019 64.2699C231.452 71.9775 210.376 76.462 189.253 75.9287C188.995 75.9223 188.75 75.8139 188.571 75.6273C188.393 75.4407 188.296 75.1912 188.301 74.9337C188.307 74.6761 188.416 74.4316 188.602 74.254C188.789 74.0764 189.039 73.9802 189.298 73.9865V73.9865ZM180.674 55.8953C199.075 60.5583 219.598 57.2689 236.798 49.9036C237.869 49.4501 237.001 47.8757 235.94 48.3235C218.092 55.8596 199.892 56.7405 180.878 54.463C180.059 54.3697 179.845 55.6836 180.674 55.8953Z" fill="#0074DD"/>
</g>
<path fill-rule="evenodd" clip-rule="evenodd" d="M256.088 144.989C258.815 145.147 258.67 147.915 259.727 149.577C263.477 154.759 267.666 159.57 272.867 163.433C273.622 164.674 273.804 166.449 274.895 167.384C277.052 167.444 276.477 164.487 277.834 163.668C285.074 160.9 295.564 164.72 293.809 176.005C297.201 176.614 300.067 177.689 301.907 179.697C304.999 178.049 310.131 178.068 313.489 179.699C320.074 188.38 319.814 200.353 320.138 214.217C322.344 215.023 325.003 215.415 326.638 216.726C330.261 232.275 309.627 231.24 303.12 223.881C287.44 229.571 259.201 230.712 244.791 220.567C243.313 220.105 245.06 223.187 243.582 222.711C236.851 224.494 224.665 228.948 218.155 223.705C216.321 217.437 220.992 213.859 226.879 214.195C225.253 200.577 226.341 181.481 240.666 179.539C239.768 174.52 234.065 169.414 232.609 163.163C236.105 160.694 238.174 162.909 241.501 161.931C243.718 159.541 242.683 153.577 244.779 151.055C247.803 151.465 249.156 153.393 251.798 154.149C254.045 151.999 251.843 144.928 256.089 144.975L256.088 144.989ZM254.319 159.245C249.93 159.541 250.288 155.535 245.635 156.072C245.492 159.976 245.125 163.28 244.646 165.402C242.942 166.429 239.427 165.463 236.911 165.582C238.881 170.469 242.859 173.518 245.151 178.112C247.972 177.152 250.194 175.548 253.042 174.631C252.518 165.565 259.112 164.322 263.626 160.794C260.827 157.717 258.423 154.295 255.815 151.046C253.904 153.506 256.883 157.797 254.332 159.246L254.319 159.245ZM255.993 170.356C255.35 173.563 257.783 174.001 257.331 177.036C252.946 179.897 247.323 179.014 244.382 182.491C241.233 186.21 240.215 195.54 240.271 199.397C240.348 204.867 242.359 213.317 245.519 216.747C251.2 222.918 266.603 224.84 276.587 224.837C292.74 224.846 310.371 222.963 307.985 202.609C306.941 193.588 302.658 184.26 294.717 179.916C292.488 179.6 294.152 183.548 291.284 182.515C289.123 176.637 292.33 164.917 280.459 166.554C277.602 169.152 276.372 172.024 277.233 176.326C275.503 176.159 275.331 177.707 273.334 177.248C272.511 173.607 271.747 169.912 270.528 166.63C265.312 162.5 258.431 166.252 256.007 170.357L255.993 170.356ZM305.025 183.713C308.962 192.072 314.779 208.37 308.945 217.555C307.99 219.052 303.924 221.115 305.408 222.349C309.415 222.119 313.558 226.128 318.432 226.836C321.186 225.242 324.133 223.406 323.204 219.339C321.588 218.533 319.02 218.58 316.627 218.48C315.551 207.748 318.168 189.537 310.069 182.313L304.557 182.051C303.904 182.819 303.906 183.366 305.025 183.727L305.025 183.713ZM232.298 216.12C230.18 219.384 220.644 215.567 221.572 221.134C226.858 224.693 237.693 221.226 242.125 218.24C236.241 209.27 236.153 191.899 240.495 182.853C228.379 184.353 227.647 206.269 232.299 216.106L232.298 216.12Z" fill="#0074DD"/>
<path fill-rule="evenodd" clip-rule="evenodd" d="M267.548 170.902C267.72 174.961 265.801 176.706 261.775 176.151C259.157 172.803 263.827 167.165 267.548 170.902Z" fill="#0074DD"/>
<path fill-rule="evenodd" clip-rule="evenodd" d="M287.401 171.296C289.371 175.58 283.751 179.365 281.134 175.414C281.459 172.107 283.41 170.588 287.401 171.296Z" fill="#0074DD"/>
<path d="M286.714 199.144C285.994 202.591 283.661 206.264 280.389 208.839C277.132 211.401 273.107 212.757 269.01 211.901C260.751 210.176 257.416 202.47 258.897 195.382C259.621 191.914 261.243 189.881 263.54 188.825C265.942 187.72 269.365 187.55 273.899 188.497C278.574 189.473 282.173 190.633 284.406 192.327C285.485 193.146 286.196 194.054 286.579 195.093C286.963 196.134 287.069 197.443 286.714 199.144Z" stroke="#0074DD" stroke-width="3.29771"/>
<path d="M220.062 168.362L216.346 162.129C214.615 160.624 217.19 158.059 218.924 159.614L222.553 165.743C224.058 166.813 227.617 168.197 228.682 169.7C228.982 169.996 229.151 170.397 229.153 170.816C229.155 171.234 228.989 171.636 228.692 171.931C228.395 172.227 227.991 172.394 227.569 172.394C227.148 172.393 226.743 172.227 226.443 171.931C224.887 170.99 221.245 169.739 220.062 168.362Z" fill="#0074DD"/>
<path d="M187.997 154.264C187.804 153.662 187.648 153.029 187.53 152.365C187.525 152.348 187.509 152.268 187.482 152.124L187.45 151.936L186.849 149.084C186.709 148.409 186.664 147.646 186.714 146.795C186.728 146.601 186.765 146.391 186.825 146.163C186.88 145.918 186.908 145.71 186.91 145.539C186.929 145.362 186.921 145.156 186.883 144.922C186.89 144.825 186.902 144.773 186.92 144.768L187.844 142.937C187.885 142.886 188.013 142.722 188.228 142.445C188.438 142.151 188.627 141.968 188.794 141.895C189.139 141.728 189.502 141.584 189.882 141.463C190.503 141.265 191.059 141.221 191.55 141.329C192.053 141.416 192.637 141.637 193.303 141.993C194.162 142.478 194.989 143.959 195.783 146.435L195.874 146.719C196.431 148.456 196.725 149.936 196.756 151.159L196.77 154.937C196.77 155.827 196.565 156.699 196.153 157.55C195.736 158.385 195.139 158.926 194.363 159.173C194.001 159.288 193.596 159.332 193.15 159.304C192.805 159.414 192.533 159.425 192.333 159.337C191.295 159.004 190.398 158.371 189.642 157.436C188.88 156.485 188.332 155.427 187.997 154.264ZM188.935 150.609C189.625 152.759 190.163 154.199 190.549 154.929C190.588 154.992 190.675 155.173 190.809 155.472C190.96 155.765 191.066 155.977 191.127 156.11C191.2 156.219 191.322 156.389 191.491 156.619C191.654 156.833 191.807 156.983 191.949 157.07C192.086 157.141 192.257 157.2 192.462 157.248C192.685 157.291 192.917 157.274 193.159 157.197C193.435 157.109 193.66 156.951 193.835 156.725C194.004 156.482 194.113 156.257 194.161 156.052C194.209 155.847 194.25 155.56 194.283 155.189C194.279 155.114 194.299 154.823 194.346 154.316C194.404 153.785 194.431 153.454 194.427 153.323L194.424 152.869C194.42 152.738 194.4 152.44 194.366 151.977C194.326 151.497 194.281 151 194.23 150.485C194.179 149.971 194.148 149.668 194.138 149.576C194.139 149.462 194.104 149.293 194.032 149.069C194.005 148.926 193.868 148.468 193.62 147.694C193.344 146.834 193.189 146.381 193.155 146.335C193.012 145.887 192.753 145.316 192.377 144.62C192.154 144.161 191.863 143.789 191.506 143.505C191.166 143.215 190.789 143.136 190.375 143.268L190.098 143.385L188.564 144.471C188.402 144.617 188.289 144.976 188.225 145.546C188.229 145.62 188.233 145.78 188.236 146.026C188.25 146.249 188.264 146.5 188.278 146.78C188.304 147.038 188.319 147.203 188.323 147.278C188.361 147.929 188.453 148.601 188.599 149.294C188.581 149.414 188.673 149.792 188.878 150.428L188.935 150.609ZM193.672 158.085C193.723 158.126 193.895 158.099 194.189 158.006C194.689 157.846 195.052 157.465 195.277 156.863C195.519 156.255 195.638 155.619 195.635 154.957L195.616 150.896C195.229 148.859 194.953 147.582 194.787 147.066C194.517 146.223 194.312 145.672 194.172 145.413L194.119 145.516L195.079 148.508C195.095 148.56 195.167 149.021 195.294 149.89C195.489 151.743 195.574 152.72 195.55 152.823L195.188 156.408C195.149 156.761 194.979 157.09 194.677 157.395C194.376 157.7 194.041 157.93 193.672 158.085Z" fill="#0074DD"/>
<path d="M181.99 162.486C181.968 162.417 181.974 162.349 182.009 162.28C182.045 162.212 182.097 162.139 182.167 162.06C182.248 161.958 182.295 161.896 182.306 161.873C182.621 161.431 183.03 161.045 183.532 160.714C183.549 160.709 183.601 160.692 183.687 160.665C183.785 160.615 183.875 160.567 183.956 160.523C184.036 160.478 184.088 160.433 184.112 160.387C183.985 159.518 183.712 158.458 183.292 157.208C182.884 155.935 182.553 154.875 182.3 154.026C182.289 153.992 182.229 153.717 182.121 153.202C182.007 152.669 181.899 152.182 181.796 151.741C181.687 151.283 181.618 151.011 181.591 150.925L181.483 150.59C181.431 150.606 181.394 150.637 181.37 150.683C181.118 151.673 180.979 152.248 180.954 152.408C180.948 152.448 180.926 152.616 180.888 152.912C180.867 153.203 180.815 153.428 180.733 153.587C180.645 153.729 180.507 153.83 180.317 153.891C179.955 154.006 179.614 153.982 179.295 153.818C178.977 153.654 178.762 153.4 178.652 153.056C178.619 152.953 178.69 152.76 178.865 152.477C179.041 152.193 179.131 152.032 179.138 151.992L180.59 147.092C180.637 147.002 180.708 146.78 180.804 146.427C180.917 146.068 181.027 145.759 181.134 145.497C181.24 145.236 181.362 145.083 181.5 145.039C181.655 144.99 181.819 144.994 181.99 145.054C182.155 145.096 182.263 145.194 182.312 145.349C182.346 145.452 182.378 145.584 182.411 145.744C182.46 145.899 182.545 146.223 182.665 146.715C182.78 147.191 182.924 147.789 183.098 148.511C183.285 149.21 183.569 150.304 183.951 151.794C184.334 153.283 184.769 154.965 185.255 156.838L186.075 159.392L186.177 159.445C186.263 159.417 186.665 159.337 187.383 159.203C187.94 159.101 188.282 159.248 188.408 159.643C188.673 160.469 188.627 160.948 188.27 161.081C187.754 161.189 187.069 161.454 186.216 161.878C185.368 162.319 184.763 162.597 184.401 162.712L184.272 162.754C182.943 163.177 182.183 163.088 181.99 162.486Z" fill="#0074DD"/>
<path d="M200.473 155.457C200.45 155.388 200.457 155.32 200.492 155.252C200.527 155.184 200.58 155.11 200.65 155.031C200.731 154.929 200.778 154.867 200.789 154.844C201.104 154.403 201.513 154.016 202.015 153.686C202.032 153.68 202.084 153.664 202.17 153.636C202.268 153.586 202.358 153.538 202.438 153.494C202.519 153.449 202.571 153.404 202.595 153.359C202.468 152.489 202.195 151.429 201.775 150.179C201.367 148.906 201.036 147.846 200.783 146.997C200.772 146.963 200.712 146.688 200.604 146.173C200.49 145.64 200.382 145.154 200.278 144.713C200.169 144.254 200.101 143.982 200.074 143.896L199.966 143.561C199.914 143.577 199.877 143.608 199.853 143.654C199.6 144.644 199.462 145.219 199.437 145.379C199.431 145.419 199.408 145.587 199.37 145.884C199.35 146.175 199.298 146.4 199.216 146.559C199.128 146.7 198.99 146.801 198.8 146.862C198.438 146.977 198.097 146.953 197.778 146.789C197.46 146.626 197.245 146.372 197.135 146.028C197.102 145.924 197.173 145.731 197.348 145.448C197.523 145.164 197.614 145.003 197.62 144.963L199.073 140.064C199.12 139.973 199.191 139.751 199.287 139.398C199.4 139.04 199.51 138.73 199.616 138.468C199.723 138.207 199.845 138.054 199.983 138.01C200.138 137.961 200.301 137.966 200.473 138.025C200.638 138.067 200.746 138.165 200.795 138.32C200.828 138.423 200.861 138.555 200.894 138.715C200.943 138.87 201.028 139.194 201.148 139.686C201.262 140.162 201.407 140.76 201.581 141.482C201.767 142.181 202.052 143.275 202.434 144.765C202.817 146.254 203.252 147.936 203.738 149.809L204.557 152.363L204.66 152.416C204.746 152.388 205.148 152.308 205.866 152.174C206.423 152.072 206.765 152.219 206.891 152.615C207.156 153.44 207.11 153.919 206.753 154.052C206.237 154.16 205.552 154.426 204.699 154.849C203.851 155.29 203.246 155.568 202.884 155.684L202.755 155.725C201.426 156.148 200.666 156.059 200.473 155.457Z" fill="#0074DD"/>
<path d="M205.721 147.698C205.528 147.096 205.373 146.463 205.255 145.799C205.249 145.782 205.233 145.702 205.206 145.559L205.174 145.37L204.574 142.519C204.433 141.843 204.388 141.08 204.438 140.23C204.452 140.036 204.489 139.825 204.549 139.597C204.604 139.353 204.632 139.144 204.634 138.973C204.654 138.796 204.645 138.591 204.608 138.356C204.615 138.259 204.627 138.208 204.644 138.202L205.569 136.372C205.609 136.321 205.737 136.157 205.953 135.88C206.163 135.585 206.351 135.402 206.518 135.33C206.864 135.163 207.226 135.019 207.606 134.898C208.227 134.7 208.783 134.655 209.274 134.764C209.777 134.85 210.362 135.071 211.028 135.428C211.887 135.912 212.713 137.393 213.507 139.87L213.598 140.154C214.156 141.891 214.45 143.371 214.48 144.593L214.494 148.371C214.494 149.262 214.289 150.133 213.877 150.985C213.46 151.819 212.864 152.36 212.087 152.608C211.725 152.723 211.321 152.767 210.874 152.738C210.529 152.848 210.257 152.859 210.058 152.771C209.019 152.439 208.122 151.805 207.366 150.871C206.605 149.919 206.056 148.862 205.721 147.698ZM206.66 144.043C207.349 146.193 207.887 147.633 208.273 148.363C208.313 148.427 208.399 148.608 208.533 148.906C208.684 149.199 208.79 149.412 208.852 149.544C208.925 149.653 209.046 149.823 209.215 150.054C209.378 150.267 209.531 150.418 209.673 150.505C209.81 150.575 209.981 150.634 210.187 150.683C210.409 150.725 210.642 150.708 210.883 150.631C211.159 150.543 211.385 150.386 211.559 150.16C211.728 149.916 211.837 149.692 211.885 149.487C211.934 149.282 211.974 148.994 212.008 148.623C212.003 148.549 212.024 148.258 212.07 147.75C212.128 147.22 212.155 146.889 212.151 146.758L212.148 146.304C212.144 146.172 212.125 145.875 212.09 145.412C212.05 144.932 212.005 144.434 211.954 143.92C211.903 143.405 211.872 143.102 211.862 143.011C211.863 142.896 211.828 142.728 211.757 142.504C211.73 142.361 211.592 141.902 211.344 141.128C211.068 140.268 210.913 139.815 210.88 139.769C210.736 139.322 210.477 138.751 210.102 138.055C209.878 137.595 209.588 137.224 209.23 136.939C208.89 136.65 208.513 136.571 208.099 136.703L207.823 136.819L206.289 137.906C206.126 138.052 206.013 138.41 205.949 138.981C205.954 139.055 205.957 139.215 205.96 139.461C205.975 139.683 205.989 139.935 206.002 140.215C206.028 140.472 206.043 140.638 206.048 140.712C206.086 141.364 206.178 142.036 206.324 142.729C206.305 142.848 206.398 143.226 206.602 143.863L206.66 144.043ZM211.396 151.52C211.447 151.56 211.62 151.534 211.913 151.44C212.413 151.281 212.776 150.9 213.001 150.297C213.243 149.689 213.363 149.054 213.36 148.391L213.341 144.331C212.954 142.293 212.677 141.016 212.512 140.5C212.241 139.657 212.036 139.107 211.896 138.848L211.843 138.95L212.803 141.943C212.82 141.994 212.891 142.455 213.018 143.325C213.213 145.177 213.298 146.155 213.274 146.257L212.912 149.842C212.873 150.196 212.703 150.525 212.402 150.83C212.1 151.134 211.765 151.364 211.396 151.52Z" fill="#0074DD"/>
<path d="M216.638 144.218C216.445 143.616 216.29 142.983 216.172 142.319C216.166 142.302 216.15 142.222 216.123 142.079L216.091 141.89L215.491 139.039C215.35 138.363 215.305 137.6 215.356 136.75C215.369 136.556 215.406 136.345 215.467 136.117C215.521 135.872 215.549 135.664 215.552 135.493C215.571 135.316 215.562 135.111 215.525 134.876C215.532 134.779 215.544 134.728 215.561 134.722L216.486 132.892C216.526 132.841 216.655 132.677 216.87 132.4C217.08 132.105 217.268 131.922 217.435 131.85C217.781 131.683 218.143 131.539 218.523 131.418C219.144 131.22 219.7 131.175 220.192 131.284C220.695 131.37 221.279 131.591 221.945 131.948C222.804 132.432 223.63 133.913 224.425 136.39L224.516 136.674C225.073 138.411 225.367 139.891 225.397 141.113L225.411 144.891C225.412 145.782 225.206 146.653 224.795 147.505C224.378 148.339 223.781 148.88 223.005 149.127C222.642 149.243 222.238 149.287 221.792 149.258C221.446 149.368 221.174 149.379 220.975 149.291C219.936 148.958 219.039 148.325 218.283 147.391C217.522 146.439 216.973 145.382 216.638 144.218ZM217.577 140.563C218.266 142.713 218.804 144.153 219.191 144.883C219.23 144.947 219.316 145.128 219.45 145.426C219.601 145.719 219.707 145.932 219.769 146.064C219.842 146.173 219.963 146.343 220.132 146.574C220.295 146.787 220.448 146.937 220.59 147.025C220.727 147.095 220.898 147.154 221.104 147.202C221.327 147.245 221.559 147.228 221.8 147.151C222.076 147.063 222.302 146.906 222.476 146.68C222.645 146.436 222.754 146.212 222.802 146.007C222.851 145.802 222.892 145.514 222.925 145.143C222.92 145.069 222.941 144.778 222.987 144.27C223.045 143.74 223.072 143.409 223.068 143.278L223.065 142.823C223.061 142.692 223.042 142.395 223.007 141.932C222.967 141.452 222.922 140.954 222.871 140.44C222.82 139.925 222.79 139.622 222.779 139.531C222.781 139.416 222.745 139.247 222.674 139.024C222.647 138.881 222.509 138.422 222.261 137.648C221.985 136.788 221.831 136.335 221.797 136.289C221.653 135.842 221.394 135.27 221.019 134.575C220.795 134.115 220.505 133.743 220.148 133.459C219.807 133.169 219.43 133.091 219.016 133.223L218.74 133.339L217.206 134.425C217.044 134.572 216.93 134.93 216.866 135.501C216.871 135.575 216.875 135.735 216.877 135.98C216.892 136.203 216.906 136.455 216.92 136.735C216.945 136.992 216.96 137.158 216.965 137.232C217.003 137.884 217.095 138.556 217.241 139.249C217.222 139.368 217.315 139.746 217.519 140.383L217.577 140.563ZM222.313 148.04C222.365 148.08 222.537 148.054 222.83 147.96C223.33 147.801 223.693 147.42 223.918 146.817C224.16 146.209 224.28 145.574 224.277 144.911L224.258 140.851C223.871 138.813 223.594 137.536 223.429 137.02C223.158 136.177 222.953 135.627 222.813 135.368L222.761 135.47L223.72 138.463C223.737 138.514 223.808 138.975 223.935 139.845C224.13 141.697 224.215 142.675 224.191 142.777L223.829 146.362C223.79 146.716 223.62 147.045 223.319 147.35C223.017 147.654 222.682 147.884 222.313 148.04Z" fill="#0074DD"/>
<path d="M227.555 140.738C227.362 140.136 227.207 139.503 227.089 138.839C227.084 138.822 227.067 138.742 227.04 138.599L227.008 138.41L226.408 135.559C226.267 134.883 226.222 134.12 226.273 133.27C226.287 133.076 226.324 132.865 226.384 132.637C226.438 132.392 226.467 132.184 226.469 132.013C226.488 131.836 226.479 131.63 226.442 131.396C226.449 131.299 226.461 131.248 226.478 131.242L227.403 129.412C227.444 129.361 227.572 129.197 227.787 128.92C227.997 128.625 228.185 128.442 228.352 128.37C228.698 128.203 229.061 128.059 229.44 127.938C230.061 127.74 230.617 127.695 231.109 127.804C231.612 127.89 232.196 128.111 232.862 128.468C233.721 128.952 234.547 130.433 235.342 132.91L235.433 133.193C235.99 134.931 236.284 136.411 236.315 137.633L236.328 141.411C236.329 142.302 236.123 143.173 235.712 144.025C235.295 144.859 229.703 145.4 228.927 145.647C228.565 145.763 228.16 145.806 227.714 145.778C227.369 145.888 227.097 145.899 226.897 145.811C230.854 145.478 229.956 144.845 229.2 143.911C228.439 142.959 227.89 141.901 227.555 140.738ZM228.494 137.083C229.184 139.233 229.721 140.673 230.108 141.403C230.147 141.466 230.234 141.647 230.367 141.946C230.518 142.239 230.625 142.452 230.686 142.584C230.759 142.693 230.88 142.863 231.049 143.094C231.213 143.307 231.365 143.457 231.508 143.545C231.644 143.615 231.815 143.674 232.021 143.722C232.244 143.765 232.476 143.748 232.717 143.671C232.993 143.583 233.219 143.426 233.393 143.199C233.563 142.956 233.671 142.732 233.72 142.527C233.768 142.322 233.809 142.034 233.842 141.663C233.837 141.589 233.858 141.298 233.904 140.79C233.962 140.26 233.989 139.929 233.985 139.797L233.982 139.343C233.978 139.212 233.959 138.915 233.925 138.452C233.885 137.972 233.839 137.474 233.788 136.96C233.737 136.445 233.707 136.142 233.696 136.05C233.698 135.936 233.663 135.767 233.591 135.544C233.564 135.401 233.426 134.942 233.178 134.168C232.902 133.308 232.748 132.855 232.714 132.809C232.57 132.362 232.311 131.79 231.936 131.095C231.712 130.635 231.422 130.263 231.065 129.979C230.725 129.689 230.347 129.61 229.933 129.742L229.657 129.859L228.123 130.945C227.961 131.092 227.847 131.45 227.783 132.02C227.788 132.095 227.792 132.255 227.794 132.5C227.809 132.723 227.823 132.975 227.837 133.255C227.862 133.512 227.877 133.678 227.882 133.752C227.92 134.404 228.012 135.076 228.158 135.768C228.139 135.888 228.232 136.266 228.436 136.903L228.494 137.083ZM233.231 144.56C233.282 144.6 233.454 144.574 233.747 144.48C234.247 144.321 234.61 143.94 234.835 143.337C235.078 142.729 235.197 142.094 235.194 141.431L235.175 137.371C234.788 135.333 234.511 134.056 234.346 133.54C234.076 132.697 233.87 132.146 233.73 131.888L233.678 131.99L234.637 134.983C234.654 135.034 234.726 135.495 234.852 136.364C235.047 138.217 235.133 139.195 235.108 139.297L234.746 142.882C234.708 143.236 234.537 143.565 234.236 143.869C233.934 144.174 233.599 144.404 233.231 144.56Z" fill="#0074DD"/>
<path d="M240.502 142.697C240.48 142.628 240.486 142.559 240.522 142.491C240.557 142.423 240.609 142.35 240.679 142.27C240.761 142.169 240.807 142.106 240.819 142.084C241.134 141.642 241.542 141.256 242.045 140.925C242.062 140.92 242.114 140.903 242.2 140.876C242.298 140.825 242.387 140.778 242.468 140.733C242.549 140.689 242.601 140.644 242.624 140.598C242.498 139.729 242.224 138.669 241.804 137.419C241.396 136.146 241.065 135.085 240.812 134.237C240.801 134.203 240.742 133.928 240.634 133.412C240.52 132.88 240.411 132.393 240.308 131.952C240.199 131.494 240.131 131.222 240.103 131.136L239.996 130.801C239.944 130.817 239.906 130.848 239.883 130.893C239.63 131.884 239.491 132.459 239.466 132.619C239.46 132.659 239.438 132.827 239.4 133.123C239.379 133.414 239.328 133.639 239.246 133.798C239.158 133.94 239.019 134.041 238.829 134.101C238.467 134.217 238.127 134.193 237.808 134.029C237.489 133.865 237.275 133.611 237.164 133.267C237.131 133.164 237.202 132.971 237.378 132.687C237.553 132.404 237.644 132.242 237.65 132.202L239.102 127.303C239.149 127.212 239.221 126.991 239.317 126.638C239.43 126.279 239.54 125.969 239.646 125.708C239.752 125.447 239.874 125.294 240.012 125.25C240.168 125.2 240.331 125.205 240.502 125.264C240.668 125.306 240.775 125.405 240.825 125.56C240.858 125.663 240.891 125.795 240.923 125.955C240.973 126.11 241.058 126.433 241.177 126.926C241.292 127.401 241.436 128 241.611 128.722C241.797 129.421 242.081 130.515 242.464 132.004C242.846 133.494 243.281 135.175 243.768 137.049L244.587 139.603L244.689 139.655C244.776 139.628 245.178 139.547 245.895 139.413C246.452 139.312 246.794 139.459 246.921 139.854C247.186 140.68 247.14 141.159 246.783 141.292C246.266 141.399 245.581 141.665 244.728 142.089C243.881 142.53 243.276 142.808 242.914 142.923L242.784 142.964C241.456 143.388 240.695 143.299 240.502 142.697Z" fill="#0074DD"/>
<path d="M169.593 160.895C169.4 160.293 169.244 159.66 169.127 158.996C169.121 158.978 169.105 158.898 169.078 158.755L169.046 158.566L168.445 155.715C168.305 155.039 168.26 154.277 168.31 153.426C168.324 153.232 168.361 153.021 168.421 152.794C168.476 152.549 168.504 152.341 168.506 152.169C168.526 151.993 168.517 151.787 168.479 151.552C168.486 151.455 168.498 151.404 168.516 151.399L169.44 149.568C169.481 149.517 169.609 149.353 169.825 149.076C170.034 148.782 170.223 148.598 170.39 148.526C170.736 148.359 171.098 148.215 171.478 148.094C172.099 147.896 172.655 147.851 173.146 147.96C173.649 148.046 174.234 148.268 174.899 148.624C175.758 149.109 176.585 150.589 177.379 153.066L177.47 153.35C178.027 155.087 178.321 156.567 178.352 157.789L178.366 161.567C178.366 162.458 178.161 163.329 177.749 164.181C177.332 165.015 176.736 165.556 175.959 165.804C175.597 165.919 175.193 165.963 174.746 165.935C174.401 166.045 174.129 166.056 173.93 165.967C172.891 165.635 171.994 165.001 171.238 164.067C170.476 163.115 169.928 162.058 169.593 160.895ZM170.532 157.24C171.221 159.39 171.759 160.83 172.145 161.56C172.185 161.623 172.271 161.804 172.405 162.103C172.556 162.396 172.662 162.608 172.723 162.74C172.797 162.85 172.918 163.02 173.087 163.25C173.25 163.463 173.403 163.614 173.545 163.701C173.682 163.771 173.853 163.831 174.058 163.879C174.281 163.922 174.513 163.904 174.755 163.827C175.031 163.739 175.256 163.582 175.431 163.356C175.6 163.112 175.709 162.888 175.757 162.683C175.806 162.478 175.846 162.19 175.88 161.82C175.875 161.745 175.895 161.454 175.942 160.947C176 160.416 176.027 160.085 176.023 159.954L176.02 159.5C176.016 159.368 175.996 159.071 175.962 158.608C175.922 158.128 175.877 157.631 175.826 157.116C175.775 156.601 175.744 156.298 175.734 156.207C175.735 156.093 175.7 155.924 175.628 155.7C175.602 155.557 175.464 155.099 175.216 154.325C174.94 153.465 174.785 153.012 174.751 152.965C174.608 152.518 174.349 151.947 173.973 151.251C173.75 150.792 173.46 150.42 173.102 150.136C172.762 149.846 172.385 149.767 171.971 149.899L171.695 150.016L170.16 151.102C169.998 151.248 169.885 151.607 169.821 152.177C169.826 152.251 169.829 152.411 169.832 152.657C169.846 152.88 169.86 153.131 169.874 153.411C169.9 153.668 169.915 153.834 169.92 153.909C169.957 154.56 170.049 155.232 170.196 155.925C170.177 156.045 170.27 156.423 170.474 157.059L170.532 157.24ZM175.268 164.716C175.319 164.757 175.491 164.73 175.785 164.637C176.285 164.477 176.648 164.096 176.873 163.494C177.115 162.885 177.235 162.25 177.231 161.588L177.213 157.527C176.825 155.489 176.549 154.212 176.383 153.696C176.113 152.854 175.908 152.303 175.768 152.044L175.715 152.146L176.675 155.139C176.692 155.191 176.763 155.651 176.89 156.521C177.085 158.374 177.17 159.351 177.146 159.454L176.784 163.038C176.745 163.392 176.575 163.721 176.273 164.026C175.972 164.331 175.637 164.561 175.268 164.716Z" fill="#0074DD"/>
<path d="M173.603 170.856C173.516 170.927 173.458 171.028 173.441 171.139C173.411 171.196 173.398 171.259 173.403 171.323C174.003 175.362 174.594 179.401 175.331 183.394C173.049 182.862 170.616 187.833 173.011 188.154C174.639 188.949 177.353 187.013 176.786 185.176L176.783 185.131C176.834 184.998 176.844 184.854 176.813 184.716C175.992 181.295 175.228 177.839 174.608 174.364C175.659 174.246 177.135 174.018 177.728 174.902C178.32 175.787 178.666 177.046 178.986 178.071C179.027 178.222 179.125 178.351 179.259 178.432C179.394 178.513 179.554 178.54 179.707 178.507C179.838 179.159 180.864 179.334 180.966 178.57C181.144 177.315 181.046 176.037 180.679 174.824C180.312 173.611 179.686 172.492 178.843 171.544C177.45 170.062 175.282 169.481 173.603 170.856ZM179.172 175.007C178.966 174.452 178.631 173.953 178.194 173.551C177.238 172.873 175.585 173.168 174.458 173.513C174.344 172.845 174.234 172.168 174.135 171.509C175.951 170.405 177.749 171.76 178.675 173.328C179.144 174.132 179.457 175.016 179.599 175.935C179.459 175.622 179.324 175.31 179.172 175.007ZM205.232 175.424C205.273 175.286 205.274 175.14 205.235 175.002C204.324 171.376 203.227 167.799 201.95 164.284C202.371 163.802 201.898 162.81 201.165 163.114C197.322 164.697 193.359 166.052 189.701 168.012C189.637 168.055 189.586 168.113 189.551 168.181C189.516 168.249 189.499 168.325 189.502 168.401C189.504 168.477 189.526 168.552 189.565 168.617C189.604 168.683 189.66 168.737 189.726 168.776C189.69 168.863 189.686 168.96 189.717 169.049L190.159 170.315C190.059 170.346 189.976 170.416 189.927 170.509C189.879 170.601 189.87 170.709 189.901 170.808C189.933 170.908 190.003 170.991 190.096 171.039C190.189 171.087 190.297 171.096 190.396 171.065C191.374 173.892 192.138 176.788 192.682 179.729C192.592 179.766 192.505 179.812 192.423 179.865C192.028 179.963 191.657 180.138 191.33 180.381C191.004 180.623 190.73 180.928 190.524 181.278C190.059 182.063 189.737 183.726 190.55 184.45C192.428 186.102 194.346 181.787 194.402 180.477C194.395 180.346 194.353 180.219 194.28 180.108C194.208 179.998 194.108 179.908 193.991 179.848C193.07 176.829 192.212 173.81 191.194 170.829C194.63 169.736 198.208 168.607 201.432 167.013C202.013 169.794 202.809 172.526 203.811 175.186C203.436 175.552 203.144 175.994 202.954 176.482L202.909 176.553C202.452 177.188 202.261 177.975 202.377 178.747C202.395 178.811 202.418 178.873 202.445 178.933C202.454 179.104 202.511 179.268 202.61 179.407C202.709 179.546 202.845 179.655 203.003 179.72C203.222 179.816 203.465 179.842 203.699 179.794C203.933 179.745 204.146 179.625 204.308 179.449C204.351 179.419 204.4 179.393 204.443 179.358C205.146 178.716 205.585 177.836 205.674 176.89C205.683 176.366 205.529 175.852 205.232 175.419L205.232 175.424ZM190.918 169.991C190.777 169.588 190.631 169.181 190.481 168.779C190.479 168.756 190.456 168.744 190.445 168.722C193.998 167.486 197.483 165.919 201.081 164.684C201.105 165.036 201.175 165.385 201.235 165.739C197.727 166.899 194.32 168.529 190.918 169.991Z" fill="#0074DD"/>
<defs>
<clipPath id="clip0_816_1401">
<rect width="153.739" height="178.645" fill="white" transform="translate(0.492188 42.9014) rotate(-15.7034)"/>
</clipPath>
<clipPath id="clip1_816_1401">
<rect width="70.8205" height="40.0642" fill="white" transform="translate(243.039 92.0146) rotate(-163.388)"/>
</clipPath>
</defs>
</svg>
