<svg fill="none" height="186" viewBox="0 0 186 186" width="186" xmlns="http://www.w3.org/2000/svg"><path d="m0 101.143c.190476-8.5716 2.28571-20.0954 6.28571-34.5716.57143-1.9047 1.2381-3.7143 2-5.4285.76191-1.9048 1.71429-3.9048 2.85719-6 1.3333-2.2858 2.4761-4.0953 3.4285-5.4286.9524-1.5238 2.4762-3.5238 4.5715-6 2.0952-2.6667 3.619-4.5714 4.5714-5.7143 1.1428-1.3333 3.0476-3.5238 5.7143-6.5714 2.6666-3.2381 4.5714-5.5238 5.7143-6.8572 3.619-4.1904 8.2857-8 13.9999-11.4285 5.7143-3.42861 10.6667-5.90481 14.8572-7.42862s9.9048-3.42857 17.1428-5.71428h12.2858c40.0004 0 68.1904 20.6667 84.5714 62 5.333 12.9524 8 24.4762 8 34.5714 0 14.6666-4.476 28.6666-13.429 41.9996-8.762 13.143-19.714 24.667-32.857 34.572-11.428 8.571-26.857 12.857-46.2854 12.857-20.7619 0-38.0953-4-52-12-12.1905-7.048-22.1905-17.333-30-30.857-7.61908-13.714-11.4286-27.714-11.4286-42zm13.7143-.857c0 21.143 8.4762 38.476 25.4286 52 17.1428 13.524 36.4761 20.285 57.9999 20.285 12.5712 0 21.8092-1.333 27.7142-4 13.524-5.714 24.667-14.952 33.429-27.714s13.333-26.095 13.714-40c.762-27.4284-7.048-49.238-23.429-65.4284-16.19-16.1905-34.857-24.2858-55.9996-24.2858-21.7143 0-40.2857 9.0477-55.7143 27.1429-15.4285 18.0953-23.1428 38.7619-23.1428 62.0003z" fill="#fff"/></svg>
