<svg width="180" height="181" viewBox="0 0 180 181" fill="none" xmlns="http://www.w3.org/2000/svg">
<circle cx="89.9963" cy="90.4963" r="77.8528" fill="#19085B"/>
<path d="M89.5034 34.5712L93.9257 21.6134L96.2333 22.4009L97.1171 32.3539L97.4011 32.4508L104.168 25.1089L106.493 25.9025L102.071 38.8602L100.331 38.2665L104.105 27.2081L104.217 27.286L97.6958 34.3746L95.5658 33.6477L94.721 24.0449L94.8751 24.0579L91.1009 35.1164L89.5034 34.5712Z" fill="white"/>
<path d="M112.938 42.5933L114.512 40.0381L114.256 39.8807L116.076 36.9262C116.436 36.3406 116.554 35.8037 116.429 35.3155C116.314 34.8338 115.964 34.4126 115.379 34.052C115.048 33.8488 114.705 33.6443 114.347 33.4386C113.989 33.2328 113.647 33.0369 113.321 32.8509C112.995 32.6648 112.708 32.5103 112.461 32.3874L113.287 31.0459C113.534 31.1688 113.789 31.3037 114.051 31.4504C114.33 31.593 114.608 31.7495 114.885 31.92C115.169 32.0798 115.438 32.2384 115.694 32.3958C116.567 32.9334 117.214 33.4792 117.637 34.0331C118.066 34.5763 118.269 35.1641 118.247 35.7965C118.225 36.4289 117.968 37.1443 117.476 37.9428L114.152 43.3408L112.938 42.5933ZM110.006 41.0958C109.367 40.7024 108.879 40.255 108.541 39.7536C108.221 39.2481 108.061 38.709 108.061 38.1364C108.072 37.5704 108.258 36.9946 108.619 36.409C108.992 35.8021 109.437 35.3784 109.952 35.1377C110.478 34.9036 111.064 34.846 111.711 34.965C112.363 35.0734 113.057 35.3537 113.792 35.8061L116.107 37.2322L115.399 38.382L113.02 36.9166C112.402 36.5364 111.837 36.3937 111.323 36.4885C110.809 36.5834 110.408 36.865 110.12 37.3335C109.831 37.802 109.764 38.2815 109.917 38.7723C110.07 39.263 110.455 39.6985 111.072 40.0788C111.434 40.3017 111.82 40.4509 112.228 40.5264C112.644 40.5912 113.053 40.5348 113.456 40.3572C113.876 40.1755 114.268 39.8144 114.63 39.2739L114.671 40.1364C114.244 40.7105 113.781 41.1298 113.28 41.3942C112.797 41.6545 112.276 41.76 111.719 41.7107C111.173 41.668 110.602 41.463 110.006 41.0958Z" fill="white"/>
<path d="M121.621 47.3966C121.13 46.88 120.773 46.3137 120.55 45.6978C120.327 45.0818 120.233 44.447 120.267 43.7934C120.31 43.1489 120.472 42.5206 120.753 41.9087C121.042 41.3058 121.45 40.7545 121.975 40.2549L122.22 40.0224C122.737 39.5314 123.304 39.1566 123.92 38.8981C124.537 38.6397 125.164 38.5008 125.802 38.4817C126.447 38.4716 127.068 38.5891 127.663 38.8342C128.276 39.0797 128.832 39.4653 129.332 39.991C129.857 40.5439 130.218 41.1589 130.413 41.836C130.617 42.5045 130.612 43.2164 130.398 43.9716C130.184 44.7267 129.705 45.4928 128.96 46.2699L129.313 44.8992L134.194 40.2606L135.434 41.5658L125.51 50.9979L124.528 49.9646L127.75 46.9024L128.112 47.2831C127.252 48.0307 126.418 48.4959 125.608 48.6787C124.808 48.853 124.066 48.8164 123.382 48.569C122.717 48.3222 122.13 47.9313 121.621 47.3966ZM122.931 46.488C123.353 46.9321 123.836 47.2407 124.38 47.4137C124.924 47.5867 125.485 47.6054 126.064 47.4698C126.651 47.3255 127.199 47.0122 127.706 46.5299L128.332 45.9355C128.83 45.4617 129.144 44.9479 129.273 44.394C129.42 43.8405 129.407 43.2919 129.235 42.748C129.081 42.2046 128.797 41.7153 128.384 41.2803C127.927 40.7999 127.409 40.4816 126.829 40.3253C126.258 40.1781 125.67 40.1941 125.064 40.3733C124.466 40.5615 123.891 40.9183 123.338 41.4438C122.785 41.9692 122.4 42.5343 122.181 43.139C121.971 43.7351 121.929 44.3266 122.056 44.9135C122.192 45.4919 122.483 46.0167 122.931 46.488Z" fill="white"/>
<path d="M131.978 57.6315C131.535 56.8763 131.283 56.1477 131.219 55.4458C131.156 54.7439 131.233 54.097 131.452 53.5053C131.681 52.9073 132.01 52.3671 132.437 51.8848C132.871 51.4133 133.363 51.0163 133.913 50.694L134.205 50.5234C134.766 50.1947 135.358 49.9565 135.981 49.8086C136.611 49.6716 137.238 49.6524 137.861 49.7512C138.494 49.8437 139.09 50.0815 139.648 50.4648C140.223 50.8526 140.722 51.4079 141.146 52.1308C141.695 53.0694 141.942 53.9609 141.886 54.8052C141.847 55.6541 141.595 56.4105 141.129 57.0747C140.669 57.7497 140.078 58.2989 139.355 58.7224L138.659 59.13L134.166 51.459L135.331 50.7765L139.161 57.3146L138.321 57.3283C138.936 56.968 139.408 56.5613 139.737 56.1079C140.076 55.6483 140.256 55.1516 140.277 54.6178C140.297 54.0841 140.134 53.5205 139.786 52.9271C139.426 52.3121 138.985 51.8818 138.465 51.6361C137.95 51.4013 137.39 51.3235 136.785 51.403C136.186 51.4932 135.568 51.7247 134.931 52.0976C134.316 52.4578 133.817 52.8804 133.435 53.3653C133.069 53.8547 132.864 54.3951 132.82 54.9865C132.785 55.5716 132.958 56.1878 133.337 56.8352C133.735 57.5149 134.209 57.9766 134.757 58.2204C135.312 58.475 135.815 58.5286 136.264 58.381L137.118 59.8375C136.455 60.0665 135.803 60.1293 135.163 60.0261C134.523 59.9228 133.932 59.6679 133.389 59.2611C132.846 58.8544 132.376 58.3112 131.978 57.6315Z" fill="white"/>
<path d="M142.086 72.2907L151.922 73.2998L152.175 75.7248L142.795 79.0808L142.636 77.5512L151.978 74.1991L152.041 74.796L142.24 73.7644L142.086 72.2907ZM141.991 71.3767L143.408 71.2285L143.625 73.2991L142.207 73.4473L141.991 71.3767ZM141.948 70.9663L151.615 67.1088L151.794 68.825L142.119 72.6078L141.948 70.9663ZM142.675 77.9243L144.092 77.7761L144.309 79.8468L142.891 79.9949L142.675 77.9243ZM142.762 78.7637L152.973 80.1108L153.143 81.7337L142.926 80.3306L142.762 78.7637Z" fill="white"/>
<path d="M144.045 87.6465L154.054 88.033L153.984 89.8322L143.976 89.4457L144.045 87.6465ZM152.688 86.4412L154.113 86.4962L153.984 89.8322L152.56 89.7772L152.688 86.4412ZM155.646 88.6012C155.661 88.2014 155.779 87.9056 155.999 87.7139C156.219 87.5347 156.491 87.4514 156.816 87.4639C157.141 87.4765 157.406 87.5806 157.611 87.7762C157.816 87.9843 157.91 88.2883 157.895 88.6881C157.879 89.0879 157.762 89.3774 157.542 89.5566C157.322 89.7483 157.05 89.8379 156.725 89.8254C156.4 89.8128 156.135 89.7025 155.93 89.4944C155.725 89.2988 155.63 89.0011 155.646 88.6012Z" fill="white"/>
<path d="M143.635 98.3829C143.798 97.6506 144.043 97.039 144.37 96.5482C144.695 96.0696 145.14 95.7395 145.705 95.5579C146.28 95.3913 147.001 95.4044 147.868 95.5973L157.278 97.6918L156.903 99.3761L147.273 97.2327C146.748 97.1159 146.308 97.1653 145.953 97.3808C145.607 97.6112 145.375 97.9888 145.259 98.5137L144.876 100.235L143.301 99.8841L143.635 98.3829ZM153.369 95.054L154.687 95.3474L153.187 102.085L151.869 101.791L153.369 95.054Z" fill="white"/>
<path d="M144.082 104.304L156.329 110.424L155.524 112.035L148.209 108.38L148.411 107.977C149.294 108.419 149.999 108.911 150.525 109.453C151.056 110.012 151.375 110.619 151.481 111.273C151.588 111.927 151.454 112.629 151.079 113.378L151.046 113.445C150.509 114.519 149.746 115.151 148.756 115.342C147.778 115.538 146.629 115.306 145.309 114.646L140.192 112.089L140.996 110.479L146.449 113.203C147.176 113.567 147.844 113.642 148.454 113.429C149.058 113.228 149.522 112.803 149.846 112.154C150.204 111.438 150.251 110.742 149.988 110.065C149.731 109.406 149.216 108.883 148.444 108.497L143.277 105.915L144.082 104.304Z" fill="white"/>
<path d="M132.565 125.354C133.084 124.812 133.61 124.416 134.144 124.166C134.67 123.924 135.221 123.872 135.799 124.01C136.377 124.166 136.987 124.55 137.628 125.164L144.592 131.831L143.399 133.077L136.273 126.255C135.884 125.883 135.482 125.697 135.066 125.698C134.651 125.715 134.258 125.919 133.886 126.307L132.667 127.581L131.502 126.465L132.565 125.354ZM142.615 127.549L143.591 128.483L138.818 133.469L137.842 132.535L142.615 127.549Z" fill="white"/>
<path d="M128.981 130.272L134.961 138.307L133.817 139.158L131.354 135.848L131.414 135.803C132.287 136.976 132.67 138.024 132.561 138.947C132.45 139.887 131.878 140.741 130.845 141.51L130.574 141.712L129.611 140.418L130.123 140.037C130.925 139.44 131.382 138.765 131.492 138.013C131.61 137.27 131.37 136.498 130.773 135.696L127.536 131.347L128.981 130.272Z" fill="white"/>
<path d="M119.419 137.987C120.515 137.528 121.506 137.533 122.394 138.002C123.281 138.471 124.008 139.38 124.573 140.73L126.817 146.093L125.157 146.788L122.774 141.096C122.47 140.37 122.035 139.881 121.469 139.63C120.908 139.39 120.293 139.41 119.624 139.69C118.932 139.98 118.458 140.436 118.203 141.057C117.953 141.691 117.99 142.394 118.314 143.167L120.624 148.686L118.963 149.381L115.088 140.125L116.403 139.574L118.062 143.536L117.854 143.623C117.473 142.712 117.27 141.889 117.247 141.153C117.228 140.429 117.391 139.798 117.736 139.261C118.074 138.74 118.612 138.325 119.35 138.016L119.419 137.987Z" fill="white"/>
<path d="M107.521 143.51C108.812 143.269 109.865 143.359 110.681 143.779C111.485 144.201 111.989 144.889 112.193 145.843L110.533 146.153C110.438 145.777 110.179 145.45 109.759 145.172C109.328 144.909 108.676 144.859 107.804 145.022C107.017 145.169 106.443 145.435 106.083 145.82C105.725 146.218 105.588 146.644 105.673 147.099C105.749 147.505 105.961 147.789 106.309 147.953C106.66 148.129 107.187 148.19 107.889 148.135L108.979 148.046C109.931 147.97 110.745 148.104 111.42 148.449C112.097 148.806 112.514 149.402 112.67 150.238C112.787 150.865 112.727 151.429 112.49 151.931C112.256 152.446 111.877 152.873 111.356 153.212C110.836 153.563 110.208 153.808 109.47 153.945C108.364 154.152 107.421 154.074 106.641 153.711C105.861 153.348 105.368 152.683 105.162 151.717L106.821 151.407C106.907 151.798 107.153 152.095 107.56 152.299C107.957 152.517 108.5 152.562 109.188 152.434C109.876 152.305 110.372 152.066 110.676 151.717C110.979 151.368 111.091 150.978 111.011 150.548C110.942 150.179 110.764 149.907 110.477 149.732C110.177 149.559 109.733 149.495 109.144 149.542L108.054 149.631C106.976 149.718 106.073 149.581 105.344 149.221C104.618 148.873 104.174 148.269 104.014 147.409C103.899 146.794 103.975 146.214 104.242 145.668C104.499 145.137 104.909 144.679 105.473 144.293C106.04 143.921 106.722 143.659 107.521 143.51Z" fill="white"/>
<path d="M95.2058 146.11C95.956 146.11 96.6062 146.216 97.1564 146.429C97.6941 146.641 98.1129 147.004 98.413 147.516C98.7006 148.042 98.8444 148.748 98.8444 149.636L98.8444 159.276L97.1189 159.276L97.1189 149.411C97.1189 148.873 96.9751 148.454 96.6875 148.154C96.3874 147.867 95.9685 147.723 95.4309 147.723L93.6679 147.723L93.6679 146.11L95.2058 146.11ZM100.57 154.887L100.57 156.238L93.6679 156.238L93.6679 154.887L100.57 154.887Z" fill="white"/>
<path d="M81.516 149.486L80.108 153.998L75.811 152.657L77.2191 148.145L81.516 149.486Z" fill="white"/>
<path d="M65.4607 142.029L64.4557 143.291L61.463 140.907C60.886 140.447 60.3124 140.254 59.7424 140.328C59.1547 140.403 58.6428 140.715 58.2065 141.262C57.7624 141.82 57.5722 142.38 57.6359 142.942C57.6917 143.514 58.0131 144.034 58.5999 144.501L61.5926 146.885L60.8447 147.824L58.0574 145.604C57.3727 145.058 56.8375 144.496 56.4516 143.917C56.0559 143.33 55.8672 142.724 55.8854 142.099C55.8861 141.476 56.1513 140.832 56.6811 140.167L56.8447 139.962C57.3433 139.336 57.895 138.904 58.4999 138.666C59.097 138.439 59.7482 138.414 60.4535 138.592C61.151 138.78 61.891 139.186 62.6734 139.809L65.4607 142.029ZM66.6049 142.941L57.9806 153.767L56.5429 152.622L65.1673 141.796L66.6049 142.941ZM61.3822 147.149L60.6343 148.088L58.0377 146.02C57.4313 145.537 56.8578 145.343 56.3171 145.44C55.7588 145.539 55.2771 145.843 54.872 146.351C54.4591 146.87 54.2708 147.407 54.3071 147.963C54.3258 148.522 54.6384 149.043 55.2447 149.526L57.8413 151.594L56.8363 152.856L54.4891 150.986C53.3155 150.051 52.6389 149.104 52.4592 148.146C52.2717 147.197 52.548 146.258 53.2881 145.329L53.4517 145.124C53.9737 144.469 54.5372 144.062 55.1422 143.905C55.7395 143.757 56.3684 143.811 57.029 144.065C57.6719 144.321 58.3406 144.726 59.035 145.279L61.3822 147.149Z" fill="white"/>
<path d="M52.9277 132.795C53.6542 133.735 53.9058 134.694 53.6825 135.673C53.4592 136.651 52.7688 137.588 51.6113 138.483L47.0113 142.039L45.9101 140.614L50.7921 136.84C51.4153 136.359 51.775 135.812 51.8711 135.2C51.9573 134.596 51.7787 134.007 51.3351 133.434C50.8763 132.84 50.3136 132.501 49.6471 132.415C48.9707 132.338 48.3011 132.555 47.6383 133.067L42.9047 136.727L41.8035 135.302L49.7422 129.165L50.614 130.293L47.2159 132.92L47.0783 132.742C47.8598 132.137 48.6029 131.729 49.3076 131.516C50.0024 131.311 50.6538 131.305 51.2619 131.499C51.8524 131.69 52.3924 132.103 52.8818 132.736L52.9277 132.795Z" fill="white"/>
<path d="M45.5416 124.345L36.826 129.28L35.9389 127.713L44.6545 122.779L45.5416 124.345ZM38.8241 129.916L37.5837 130.618L35.9389 127.713L37.1793 127.011L38.8241 129.916ZM35.1728 129.634C35.37 129.982 35.4253 130.296 35.3389 130.574C35.2463 130.842 35.0586 131.056 34.7757 131.217C34.4928 131.377 34.2127 131.428 33.9353 131.369C33.6517 131.3 33.4114 131.091 33.2143 130.743C33.0171 130.395 32.9649 130.086 33.0574 129.819C33.1438 129.54 33.3285 129.32 33.6114 129.16C33.8943 129 34.1775 128.954 34.4611 129.024C34.7385 129.082 34.9757 129.286 35.1728 129.634Z" fill="white"/>
<path d="M41.5721 118.219L28.8267 123.22L28.169 121.544L40.9143 116.542L41.5721 118.219ZM30.6606 123.991L29.3337 124.512L28.169 121.544L29.4959 121.023L30.6606 123.991Z" fill="white"/>
<path d="M37.504 107.949C37.6474 108.686 37.6673 109.344 37.5638 109.925C37.4579 110.493 37.1821 110.974 36.7362 111.366C36.2757 111.749 35.6097 112.025 34.7383 112.195L25.2756 114.037L24.9458 112.343L34.6295 110.458C35.1572 110.355 35.5409 110.134 35.7805 109.794C36.0054 109.445 36.0665 109.006 35.9638 108.479L35.6268 106.748L37.2101 106.44L37.504 107.949ZM29.9133 114.892L28.5878 115.15L27.2687 108.375L28.5942 108.117L29.9133 114.892Z" fill="white"/>
<path d="M35.102 91.8693C35.0212 92.6152 34.8455 93.2502 34.5749 93.7742C34.3056 94.2859 33.9 94.6632 33.358 94.9064C32.8049 95.1357 32.0871 95.2025 31.2045 95.1069L21.6202 94.0683L21.8061 92.3529L31.6141 93.4157C32.1487 93.4736 32.5806 93.3758 32.9099 93.1222C33.2282 92.8548 33.4163 92.4539 33.4742 91.9193L33.6641 90.1666L35.2677 90.3403L35.102 91.8693ZM25.7976 96.2566L24.455 96.1111L25.1986 89.2492L26.5411 89.3947L25.7976 96.2566Z" fill="white"/>
<path d="M35.7992 81.5989C35.4887 82.4172 35.0755 83.0829 34.5598 83.596C34.0441 84.1091 33.4762 84.4954 32.8562 84.7549C32.2288 84.9983 31.5866 85.1224 30.9295 85.1271C30.2768 85.1201 29.6524 85.0035 29.0562 84.7772L28.7405 84.6575C28.1443 84.4312 27.602 84.0983 27.1134 83.6588C26.6132 83.2149 26.2172 82.6901 25.9255 82.0845C25.622 81.4745 25.4534 80.8087 25.4197 80.0871C25.3742 79.3611 25.5024 78.6006 25.8041 77.8056C26.1057 77.0107 26.5144 76.3567 27.0301 75.8436C27.5342 75.326 28.102 74.9397 28.7338 74.6846C29.3539 74.4251 29.9983 74.2952 30.6671 74.2949C31.3242 74.2902 31.9509 74.401 32.5471 74.6272L32.8627 74.747C33.4589 74.9733 34.0013 75.3062 34.4898 75.7457C34.9828 76.1735 35.381 76.6924 35.6845 77.3024C35.9807 77.8963 36.1515 78.5562 36.1969 79.2823C36.2423 80.0084 36.1098 80.7806 35.7992 81.5989ZM34.2912 81.0266C34.5574 80.3251 34.6317 79.6713 34.514 79.0649C34.3892 78.4425 34.1125 77.9028 33.6841 77.446C33.26 76.9775 32.7207 76.619 32.0661 76.3705C31.3997 76.1176 30.7525 76.0258 30.1244 76.095C29.4963 76.1643 28.9349 76.3926 28.4402 76.7799C27.9499 77.1555 27.5739 77.6882 27.3121 78.3779C27.0548 79.056 26.9827 79.704 27.0959 80.322C27.2091 80.9401 27.4777 81.4833 27.9017 81.9519C28.3257 82.4204 28.8709 82.7811 29.5372 83.034C30.1919 83.2824 30.831 83.3779 31.4547 83.3203C32.0828 83.2511 32.6478 83.0309 33.1498 82.6597C33.6445 82.2723 34.025 81.728 34.2912 81.0266Z" fill="white"/>
<path d="M41.4614 65.8798L30.3599 57.8662L31.4137 56.4063L42.5152 64.4199L41.4614 65.8798ZM30.7033 59.8258L29.5475 58.9915L31.4137 56.4063L32.5695 57.2406L30.7033 59.8258Z" fill="white"/>
<path d="M48.9693 55.4415L46.9743 53.1998L46.7501 53.3993L44.4433 50.8074C43.9861 50.2936 43.5057 50.0265 43.0021 50.0061C42.5078 49.9773 42.0038 50.1915 41.4901 50.6487C41.2005 50.9064 40.9058 51.1771 40.6059 51.4608C40.3059 51.7444 40.02 52.0156 39.7481 52.2743C39.4762 52.5331 39.2459 52.7632 39.057 52.9648L38.0096 51.7879C38.1984 51.5863 38.4008 51.3811 38.6167 51.1723C38.8335 50.9458 39.0634 50.7244 39.3063 50.5083C39.5408 50.2828 39.7701 50.0704 39.9943 49.8708C40.7602 49.1892 41.4692 48.7257 42.1211 48.4802C42.7648 48.2254 43.3862 48.1996 43.9855 48.4027C44.5848 48.6059 45.1961 49.0577 45.8196 49.7583L50.0341 54.4938L48.9693 55.4415ZM46.6921 57.8197C46.1316 58.3185 45.5628 58.6574 44.9856 58.8363C44.4094 58.9976 43.8471 58.9959 43.2987 58.8311C42.7597 58.658 42.2616 58.3146 41.8044 57.8009C41.3306 57.2685 41.0525 56.7209 40.9701 56.1582C40.897 55.5871 41.0104 55.0092 41.3101 54.4244C41.6016 53.8303 42.0695 53.2464 42.714 52.6728L44.7455 50.8648L45.6433 51.8736L43.5557 53.7315C43.014 54.2136 42.7147 54.7143 42.6579 55.2335C42.6011 55.7527 42.7556 56.2178 43.1214 56.6288C43.4871 57.0398 43.927 57.2425 44.441 57.237C44.955 57.2315 45.4829 56.9877 46.0246 56.5055C46.3422 56.2229 46.5959 55.8967 46.7857 55.5269C46.9672 55.1478 47.0308 54.7397 46.9765 54.3026C46.9233 53.8478 46.6899 53.3692 46.2763 52.8669L47.1144 53.0751C47.5415 53.6491 47.8098 54.2138 47.9191 54.7693C48.0295 55.3071 47.981 55.8356 47.7737 56.355C47.5757 56.866 47.2151 57.3542 46.6921 57.8197Z" fill="white"/>
<path d="M55.929 48.9727C54.7865 49.6195 53.7611 49.8767 52.8528 49.7444C51.9554 49.6059 51.2555 49.1185 50.7533 48.2821L52.2222 47.4504C52.4349 47.7754 52.7853 48.0009 53.2734 48.1269C53.7661 48.2359 54.3988 48.0717 55.1713 47.6343C55.8677 47.24 56.3239 46.8022 56.5398 46.3207C56.7496 45.8284 56.7405 45.3809 56.5126 44.9783C56.3093 44.6192 56.0162 44.4187 55.6333 44.3769C55.2442 44.3242 54.7265 44.4377 54.0802 44.7173L53.0781 45.1554C52.2019 45.5365 51.3887 45.6736 50.6385 45.5667C49.8821 45.4489 49.2944 45.0201 48.8755 44.2802C48.5614 43.7253 48.4348 43.1719 48.496 42.62C48.551 42.0572 48.7702 41.5308 49.1537 41.0407C49.531 40.5397 50.0461 40.1044 50.6989 39.7347C51.6782 39.1803 52.5957 38.9482 53.4515 39.0385C54.3072 39.1288 54.9893 39.5975 55.4977 40.4448L54.0288 41.2764C53.8208 40.9344 53.4912 40.733 53.0402 40.6723C52.5938 40.5945 52.066 40.7281 51.4566 41.0731C50.8473 41.4181 50.4557 41.805 50.2818 42.2339C50.108 42.6628 50.1289 43.0677 50.3445 43.4486C50.5293 43.775 50.7859 43.9745 51.1144 44.0472C51.4538 44.1137 51.8946 44.0293 52.4368 43.7942L53.4389 43.3562C54.4301 42.9243 55.3288 42.7604 56.1348 42.8644C56.9347 42.9576 57.5503 43.385 57.9815 44.1466C58.2895 44.6907 58.4059 45.2642 58.3306 45.8672C58.26 46.4532 58.0205 47.0199 57.6119 47.5673C57.1973 48.1038 56.6363 48.5722 55.929 48.9727Z" fill="white"/>
<path d="M66.5412 42.5922C65.8321 42.8372 65.1828 42.9491 64.5934 42.9278C64.0158 42.9025 63.5015 42.6965 63.0505 42.31C62.6071 41.9075 62.2405 41.2867 61.9506 40.4476L58.8025 31.3357L60.4334 30.7723L63.655 40.0969C63.8306 40.6051 64.1033 40.954 64.4731 41.1438C64.8507 41.3176 65.2936 41.3167 65.8017 41.1411L67.4681 40.5654L67.9949 42.09L66.5412 42.5922ZM58.6048 36.0474L58.1638 34.7711L64.6875 32.5171L65.1285 33.7935L58.6048 36.0474Z" fill="white"/>
<path d="M78.3108 34.9659L78.1649 30.2417L82.6641 30.1027L82.81 34.8269L78.3108 34.9659Z" fill="white"/>
<g clip-path="url(#clip0_431_1302)">
<path d="M121.44 88.597C121.194 85.8855 120.135 83.3121 118.403 81.2141C113.703 75.3505 105.747 74.6905 98.715 75.0419C100.539 72.0792 103.212 69.4062 102.852 65.6933C102.539 62.4791 99.8427 60.3947 96.6917 61.5722C94.73 62.3034 93.2326 63.9461 91.7637 65.3705C90.0437 67.0417 88.2952 68.694 86.4472 70.2133C82.339 73.6223 77.6669 76.433 72.2604 76.9078C72.1894 76.7448 72.1087 76.5863 72.0188 76.433C71.0711 74.8187 69.2942 73.9736 67.5836 73.4086C65.9868 72.8816 63.8687 72.1314 62.4093 73.3326C60.7366 74.6953 60.0732 77.5725 59.6136 79.5381C58.3914 84.9591 57.8785 90.5164 58.0878 96.0701C57.8936 97.6654 57.6993 99.2559 57.5382 100.851C57.325 102.931 57.1307 104.991 59.4809 105.746C62.4093 106.696 66.5033 105.836 69.4884 105.499C69.7015 105.491 69.9039 105.403 70.0569 105.254C70.2099 105.106 70.3027 104.905 70.3177 104.692C76.8393 108.7 83.7249 112.079 90.8824 114.786C94.1993 116.03 97.8289 117.606 101.435 117.559C104.899 117.511 107.268 115.46 109.703 113.234C114.105 109.212 121.317 104.725 119.697 97.917C119.152 95.6191 120.099 94.8309 120.853 92.8463C121.357 91.49 121.557 90.0394 121.44 88.597ZM61.3005 104.137C58.0405 103.942 59.6183 99.047 59.879 96.8345C60.5755 91.27 61.5042 85.7435 62.632 80.2313C62.8689 79.0443 61.0588 78.5363 60.8124 79.728C60.2722 82.3678 59.7731 85.0108 59.3151 87.6569C59.4762 86.1946 59.6847 84.737 59.9548 83.2889C60.3812 80.9434 60.8361 78.4651 61.8501 76.3C63.2432 73.3896 66.4701 74.0543 68.8109 75.3505C71.5165 76.8508 71.3175 79.3434 71.0332 82.0212C70.7615 84.5376 70.493 87.0539 70.2276 89.5703C69.7443 94.3466 69.2468 99.1214 68.735 103.895C66.2661 104.158 63.7812 104.239 61.3005 104.137ZM119.526 90.159C119.337 92.0582 118.199 93.3116 117.569 95.0113C116.991 96.5686 117.711 97.6084 118.043 99.1135C118.555 101.445 117.095 103.463 115.574 105.082C112.741 108.04 109.725 110.817 106.543 113.395C102.676 116.624 98.4875 115.337 94.2229 113.813C86.0339 110.886 78.1779 107.096 70.7868 102.508C70.7111 102.461 70.6299 102.422 70.5451 102.394C71.1453 96.2347 71.7487 90.0751 72.3552 83.9156C72.54 82.0165 73.0375 79.766 72.5684 77.8194C79.5481 77.3446 85.2531 73.2947 90.3138 68.732C92.4081 66.8471 99.5205 58.8659 101.098 65.0381C102.122 69.0691 97.9852 72.2739 96.4168 75.5689C96.339 75.7039 96.2978 75.8571 96.2975 76.013C96.2971 76.169 96.3375 76.3223 96.4147 76.4578C96.4918 76.5932 96.6031 76.706 96.7373 76.785C96.8715 76.8639 97.0241 76.9063 97.1797 76.9078C104.932 76.433 114.868 76.8745 118.583 85.0598C119.335 86.6484 119.66 88.406 119.526 90.159Z" fill="white"/>
</g>
<defs>
<clipPath id="clip0_431_1302">
<rect width="64.0491" height="56.319" fill="white" transform="translate(57.4258 61.2361)"/>
</clipPath>
</defs>
</svg>
