<svg width="354" height="24" viewBox="0 0 354 24" fill="none" xmlns="http://www.w3.org/2000/svg">
<path d="M352.01 18.1579C334.501 15.1603 316.926 12.8597 299.311 11.1379C304.812 10.7148 310.294 10.1201 315.762 9.29388C316.054 9.22446 316.32 9.07256 316.529 8.85624C316.738 8.63992 316.88 8.36827 316.939 8.07354C316.997 7.77882 316.97 7.47341 316.861 7.19358C316.751 6.91376 316.563 6.67129 316.32 6.49496C309.958 1.81905 302.093 2.08364 294.576 1.94058C284.006 1.73324 273.441 1.55294 262.881 1.3997C241.734 1.0981 220.585 0.916662 199.435 0.855408C157.129 0.725799 114.824 1.03721 72.5188 1.78965C48.7315 2.19973 24.9441 2.76015 1.15665 3.47089C-0.17907 3.51166 -0.328822 5.59631 1.01687 5.55622C83.2622 3.44517 165.52 2.98536 247.792 4.17678C259.361 4.33082 270.924 4.52123 282.481 4.74799C290.919 4.91267 302.285 3.40943 310.642 6.87607C299.073 8.29222 287.434 9.06462 275.779 9.18972C212.848 4.86134 149.465 7.41818 86.556 12.0213C61.3759 13.8715 36.2449 16.0356 11.1033 18.2091C9.20808 18.3727 9.48637 21.3981 11.3236 21.5012C50.6202 23.7643 89.8941 20.684 129.034 17.3641C169.356 13.903 209.422 11.1062 249.921 11.8864C255.746 11.9963 261.573 12.0962 267.404 12.1262C270.926 12.3623 274.388 12.5943 277.96 12.8338C300.62 14.4929 323.174 17.1839 345.622 20.9069C345.435 21.126 345.308 21.3891 345.252 21.6712C345.195 21.9533 345.212 22.2451 345.3 22.519C345.388 22.7928 345.545 23.0397 345.755 23.2362C345.965 23.4327 346.222 23.5723 346.501 23.6418C347.774 24.0707 349.155 24.0527 350.416 23.5905C351.677 23.1283 352.742 22.2497 353.436 21.0999C353.618 20.8248 353.726 20.5069 353.748 20.1777C353.77 19.8485 353.705 19.5193 353.562 19.2224C353.418 18.9255 353.199 18.6712 352.927 18.4846C352.655 18.2979 352.339 18.1854 352.01 18.1579ZM78.8364 17.8882C66.2946 18.5409 53.7184 18.9608 41.2095 18.9742C82.8942 15.5143 124.742 12.3058 166.603 11.0124C137.344 13.1504 108.135 16.2038 78.8397 17.8383L78.8364 17.8882Z" fill="#0074DD"/>
</svg>
