<svg width="906" height="1526" viewBox="0 0 906 1526" fill="none" xmlns="http://www.w3.org/2000/svg">
<path fill-rule="evenodd" clip-rule="evenodd" d="M598.793 20.1875C598.793 9.03825 607.831 0 618.98 0H780.949C814.411 0 841.536 27.126 841.536 60.5875V60.5875C841.536 94.0491 814.411 121.175 780.949 121.175H657.775C636.008 121.175 618.362 138.821 618.362 160.588V160.588C618.362 182.354 636.008 200 657.775 200H749.181C821.43 200 880 258.57 880 330.819V572.754C880 682.794 790.794 772 680.754 772H495.008C487.552 772 481.508 778.044 481.508 785.5V785.5C481.508 792.956 487.552 799 495.008 799H780.5C803.972 799 823 818.028 823 841.5V841.5C823 864.972 803.972 884 780.5 884H715.5C671.593 884 636 919.593 636 963.5V963.5C636 1007.41 671.593 1043 715.5 1043H771C845.558 1043 906 1103.44 906 1178L906 1308C906 1409.62 823.62 1492 722 1492H555C545.611 1492 538 1499.61 538 1509V1509C538 1518.39 530.389 1526 521 1526H176.5C125.966 1526 85 1485.03 85 1434.5V1434.5C85 1383.97 125.966 1343 176.5 1343H442.5C448.299 1343 453 1338.3 453 1332.5V1332.5C453 1326.7 448.299 1322 442.5 1322H318C243.442 1322 183 1261.56 183 1187L183 1019.5C183 938.59 248.59 873 329.5 873H453.861C466.088 873 476 863.088 476 850.861V850.861C476 838.634 466.088 828.723 453.861 828.723H267.272C251.609 828.723 238.911 816.025 238.911 800.361V800.361C238.911 784.698 226.213 772 210.55 772H119.456C53.4821 772 0 718.518 0 652.544V387.883C0 284.118 84.118 200 187.883 200H345.009C361.996 200 375.766 186.23 375.766 169.244V169.244C375.766 152.258 361.996 138.488 345.009 138.488H81.0466C64.0985 138.488 50.3594 124.749 50.3594 107.8V107.8C50.3594 90.8524 64.0985 77.1133 81.0466 77.1133H357.396C367.541 77.1133 375.766 68.8891 375.766 58.7441V58.7441C375.766 48.5991 383.99 40.375 394.135 40.375H578.605C589.755 40.375 598.793 31.3367 598.793 20.1875V20.1875Z" fill="#F2FAFD"/>
</svg>
