<svg width="1512" height="1190" viewBox="0 0 1512 1190" fill="none" xmlns="http://www.w3.org/2000/svg">
<path fill-rule="evenodd" clip-rule="evenodd" d="M1799 154C1799 68.9482 1730.05 0 1645 0H1248.31C1211.69 0 1182 29.69 1182 66.3145C1182 102.939 1152.31 132.629 1115.69 132.629H621.803C618.11 132.629 615.117 135.622 615.117 139.314C615.117 143.007 612.124 146 608.432 146H-134C-177.078 146 -212 180.922 -212 224C-212 267.078 -177.078 302 -134 302H573.117C596.313 302 615.117 320.804 615.117 344C615.117 367.196 596.313 386 573.117 386H-25.5C-199.194 386 -340 526.806 -340 700.5V711.372C-340 879.061 -204.061 1015 -36.3719 1015H208.229C240.829 1015 267.256 1041.43 267.256 1074.03C267.256 1106.63 293.684 1133.05 326.283 1133.05H842.686C858.323 1133.05 871 1145.73 871 1161.37C871 1177.01 883.677 1189.68 899.314 1189.68L1685 1189.68C1721.45 1189.68 1751 1160.13 1751 1123.68C1751 1087.23 1721.45 1057.68 1685 1057.68L905.225 1057.68C893.438 1057.68 883.883 1048.13 883.883 1036.34C883.883 1024.56 893.438 1015 905.224 1015H1581.5C1755.19 1015 1896 874.194 1896 700.5C1896 526.806 1755.19 386 1581.5 386H1270.74C1249.2 386 1231.74 368.539 1231.74 347C1231.74 325.461 1249.2 308 1270.74 308H1645C1730.05 308 1799 239.052 1799 154Z" fill="#F2FAFD"/>
</svg>
