<svg width="2236" height="1350" viewBox="0 0 2236 1350" fill="none" xmlns="http://www.w3.org/2000/svg">
<path fill-rule="evenodd" clip-rule="evenodd" d="M2139 154C2139 68.9482 2070.05 0 1985 0H1573.31C1544.97 0 1522 22.9743 1522 51.3145V51.3145C1522 79.6546 1499.03 102.629 1470.69 102.629H1001.8C976.019 102.629 955.117 123.531 955.117 149.314V149.314C955.117 175.098 934.215 196 908.432 196H206C162.922 196 128 230.922 128 274V274C128 317.078 162.922 352 206 352H929.117C943.477 352 955.117 363.641 955.117 378V378C955.117 392.359 943.477 404 929.117 404H372C166.55 404 0 570.55 0 776V844.372C0 1012.06 135.939 1148 303.628 1148H534.729C574.785 1148 607.256 1180.47 607.256 1220.53V1220.53C607.256 1260.58 639.728 1293.05 679.783 1293.05H1182.69C1198.32 1293.05 1211 1305.73 1211 1321.37V1321.37C1211 1337.01 1223.68 1349.68 1239.31 1349.68L2025 1349.68C2061.45 1349.68 2091 1320.13 2091 1283.68V1283.68C2091 1247.23 2061.45 1217.68 2025 1217.68L1258.72 1217.68C1239.48 1217.68 1223.88 1202.08 1223.88 1182.84V1182.84C1223.88 1163.6 1239.48 1148 1258.72 1148H1864C2069.45 1148 2236 981.45 2236 776V736.128C2236 552.699 2087.3 404 1903.87 404H1619.74C1593.23 404 1571.74 382.51 1571.74 356V356C1571.74 329.49 1593.23 308 1619.74 308H1985C2070.05 308 2139 239.052 2139 154V154Z" fill="#F2FAFD"/>
</svg>
